<?xml version="1.0" standalone="yes"?>

<svg version="1.1" viewBox="0.0 0.0 999.7559055118111 305.66141732283467" fill="none" stroke="none" stroke-linecap="square" stroke-miterlimit="10" xmlns="http://www.w3.org/2000/svg" xmlns:xlink="http://www.w3.org/1999/xlink"><clipPath id="p.0"><path d="m0 0l999.7559 0l0 305.6614l-999.7559 0l0 -305.6614z" clip-rule="nonzero"></path></clipPath><g clip-path="url(#p.0)"><path fill="#000000" fill-opacity="0.0" d="m0 0l999.7559 0l0 305.6614l-999.7559 0z" fill-rule="nonzero"></path><path fill="#000000" fill-opacity="0.0" d="m770.83466 -133.91077l111.24408 0l0 43.086617l-111.24408 0z" fill-rule="nonzero"></path><path fill="#000000" fill-opacity="0.0" d="m206.89502 -16.766405l800.9134 0l0 343.49606l-800.9134 0z" fill-rule="nonzero"></path><path fill="#9900ff" d="m224.6294 34.225372l-3.453125 -1.109375q-1.234375 -0.390625 -1.5625 -0.84375q-0.46875 -0.5625019 -0.46875 -1.2656269q0 -0.828125 0.5625 -1.421875q0.578125 -0.59375 1.3125 -0.59375q0.46875 0 1.375 0.3125l3.46875 1.109375l0 -3.625q0 -1.453125 0.546875 -2.0625q0.5625 -0.625 1.453125 -0.625q0.90625 0 1.453125 0.625q0.546875 0.609375 0.546875 2.0625l0 3.625l3.453125 -1.109375q0.9375 -0.3125 1.375 -0.3125q0.734375 0 1.3125 0.59375q0.578125 0.578125 0.578125 1.390625q0 0.734375 -0.40625 1.2343769q-0.390625 0.484375 -1.609375 0.90625l-3.453125 1.109375l2.125 2.953125q0.78125 1.0625 0.78125 1.6875q0 0.84375 -0.59375 1.4375q-0.578125 0.578125 -1.390625 0.578125q-0.609375 0 -1.015625 -0.25q-0.390625 -0.25 -1.015625 -1.109375l-2.140625 -2.9375l-2.140625 2.9375q-0.609375 0.859375 -1.015625 1.125q-0.40625 0.25 -1.0 0.25q-0.8125 0 -1.421875 -0.59375q-0.59375 -0.59375 -0.59375 -1.453125q0 -0.609375 0.78125 -1.671875l2.15625 -2.953125z" fill-rule="nonzero"></path><path fill="#9900ff" d="m313.83252 37.990997l17.734375 -9.875002q0.421875 -0.234375 0.640625 -0.234375q0.328125 0 0.5625 0.25q0.25 0.234375 0.25 0.5625q0 0.484375 -0.65625 0.859375l-15.203125 8.437502l15.1875 8.4375q0.65625 0.375 0.65625 0.859375q0 0.328125 -0.25 0.578125q-0.234375 0.25 -0.5625 0.25q-0.21875 0 -0.65625 -0.234375l-17.703125 -9.890625zm24.003906 0l17.734375 -9.875002q0.421875 -0.234375 0.640625 -0.234375q0.328125 0 0.5625 0.25q0.25 0.234375 0.25 0.5625q0 0.484375 -0.65625 0.859375l-15.203125 8.437502l15.1875 8.4375q0.65625 0.375 0.65625 0.859375q0 0.328125 -0.25 0.578125q-0.234375 0.25 -0.5625 0.25q-0.21875 0 -0.65625 -0.234375l-17.703125 -9.890625zm52.742188 1.1875l0 8.5625l3.03125 0q0.609375 0 0.859375 0.234375q0.25 0.21875 0.25 0.578125q0 0.359375 -0.25 0.59375q-0.25 0.234375 -0.859375 0.234375l-6.875 0q-0.578125 0 -0.84375 -0.234375q-0.25 -0.234375 -0.25 -0.59375q0 -0.359375 0.25 -0.578125q0.265625 -0.234375 0.84375 -0.234375l2.203125 0l0 -19.578127l-2.203125 0q-0.578125 0 -0.84375 -0.21875q-0.25 -0.21875 -0.25 -0.59375q0 -0.375 0.25 -0.59375q0.265625 -0.234375 0.84375 -0.234375l9.921875 0q3.0625 0 5.15625 1.953125q2.109375 1.9375 2.109375 4.375002q0 1.765625 -1.296875 3.328125q-1.296875 1.546875 -4.34375 2.578125q1.75 1.203125 3.0 2.734375q1.25 1.515625 4.015625 6.25l1.25 0q0.578125 0 0.828125 0.234375q0.265625 0.21875 0.265625 0.578125q0 0.359375 -0.265625 0.59375q-0.25 0.234375 -0.828125 0.234375l-2.1875 0q-3.046875 -5.453125 -4.71875 -7.296875q-1.671875 -1.859375 -3.84375 -2.90625l-5.21875 0zm0 -1.640625l4.484375 0q2.140625 0 3.890625 -0.78125q1.75 -0.78125 2.53125 -1.828125q0.796875 -1.0625 0.796875 -2.15625q0 -1.6406269 -1.65625 -3.125002q-1.640625 -1.484375 -4.0 -1.484375l-6.046875 0l0 9.375002zm38.222656 3.78125l-16.71875 0q0.4375 3.171875 2.671875 5.125q2.234375 1.9375 5.53125 1.9375q1.84375 0 3.84375 -0.59375q2.015625 -0.609375 3.296875 -1.609375q0.359375 -0.296875 0.640625 -0.296875q0.3125 0 0.546875 0.25q0.234375 0.234375 0.234375 0.578125q0 0.328125 -0.3125 0.640625q-0.9375 0.96875 -3.328125 1.828125q-2.390625 0.84375 -4.921875 0.84375q-4.21875 0 -7.046875 -2.765625q-2.8125 -2.765625 -2.8125 -6.6875q0 -3.578125 2.640625 -6.125q2.65625 -2.562502 6.5625 -2.562502q4.015625 0 6.609375 2.625002q2.609375 2.625 2.5625 6.8125zm-1.65625 -1.671875q-0.484375 -2.703125 -2.5625 -4.40625q-2.078125 -1.703125 -4.953125 -1.703125q-2.875 0 -4.953125 1.6875q-2.0625 1.671875 -2.5625 4.421875l15.03125 0zm23.144531 -4.1875l0 -3.0l3.84375 0q0.609375 0 0.859375 0.234375q0.265625 0.234375 0.265625 0.609375q0 0.359375 -0.265625 0.59375q-0.25 0.234375 -0.859375 0.234375l-2.1875 0l0 21.15625l2.1875 0q0.609375 0 0.859375 0.21875q0.265625 0.21875 0.265625 0.59375q0 0.359375 -0.265625 0.59375q-0.25 0.234375 -0.859375 0.234375l-7.8125 0q-0.578125 0 -0.84375 -0.234375q-0.25 -0.21875 -0.25 -0.59375q0 -0.375 0.25 -0.59375q0.265625 -0.21875 0.84375 -0.21875l3.96875 0l0 -9.890625q-2.71875 3.578125 -7.125 3.578125q-3.671875 0 -6.203125 -2.515625q-2.53125 -2.515625 -2.53125 -6.046875q0 -3.546875 2.53125 -6.03125q2.53125 -2.500002 6.234375 -2.500002q4.375 0 7.09375 3.578127zm0 4.953125q0 -2.828125 -2.078125 -4.84375q-2.0625 -2.03125 -5.03125 -2.03125q-2.96875 0 -5.046875 2.03125q-2.0625 2.015625 -2.0625 4.84375q0 2.828125 2.0625 4.859375q2.078125 2.03125 5.046875 2.03125q2.96875 0 5.03125 -2.03125q2.078125 -2.03125 2.078125 -4.859375zm23.269531 8.96875l0 -2.40625q-3.359375 3.046875 -7.265625 3.046875q-2.40625 0 -3.65625 -1.3125q-1.625 -1.71875 -1.625 -4.0l0 -10.578125l-2.203125 0q-0.59375 0 -0.84375 -0.234375q-0.25 -0.234375 -0.25 -0.609375q0 -0.359375 0.25 -0.59375q0.25 -0.234375 0.84375 -0.234375l3.84375 0l0 12.25q0 1.609375 1.015625 2.640625q1.015625 1.03125 2.546875 1.03125q4.0 0 7.34375 -3.671875l0 -10.578125l-3.03125 0q-0.59375 0 -0.84375 -0.234375q-0.25 -0.234375 -0.25 -0.609375q0 -0.359375 0.25 -0.59375q0.25 -0.234375 0.84375 -0.234375l4.671875 0l0 15.28125l1.375 0q0.59375 0 0.84375 0.234375q0.25 0.21875 0.25 0.578125q0 0.359375 -0.25 0.59375q-0.25 0.234375 -0.84375 0.234375l-3.015625 0zm27.253906 -8.0625l-16.71875 0q0.4375 3.171875 2.671875 5.125q2.234375 1.9375 5.53125 1.9375q1.84375 0 3.84375 -0.59375q2.015625 -0.609375 3.296875 -1.609375q0.359375 -0.296875 0.640625 -0.296875q0.3125 0 0.546875 0.25q0.234375 0.234375 0.234375 0.578125q0 0.328125 -0.3125 0.640625q-0.9375 0.96875 -3.328125 1.828125q-2.390625 0.84375 -4.921875 0.84375q-4.21875 0 -7.046875 -2.765625q-2.8125 -2.765625 -2.8125 -6.6875q0 -3.578125 2.640625 -6.125q2.65625 -2.562502 6.5625 -2.562502q4.015625 0 6.609375 2.625002q2.609375 2.625 2.5625 6.8125zm-1.65625 -1.671875q-0.484375 -2.703125 -2.5625 -4.40625q-2.078125 -1.703125 -4.953125 -1.703125q-2.875 0 -4.953125 1.6875q-2.0625 1.671875 -2.5625 4.421875l15.03125 0zm22.207031 -6.109375q0 -0.5625 0.234375 -0.8125q0.234375 -0.265625 0.59375 -0.265625q0.359375 0 0.59375 0.265625q0.234375 0.25 0.234375 0.859375l0 2.8125q0 0.578125 -0.234375 0.84375q-0.234375 0.25 -0.59375 0.25q-0.34375 0 -0.5625 -0.21875q-0.21875 -0.21875 -0.265625 -0.703125q-0.109375 -1.171875 -1.203125 -1.9375q-1.609375 -1.09375 -4.25 -1.09375q-2.75 0 -4.265625 1.109375q-1.15625 0.84375 -1.15625 1.875q0 1.171875 1.359375 1.953125q0.9375 0.546875 3.5625 0.84375q3.421875 0.375 4.75 0.84375q1.890625 0.6875 2.8125 1.90625q0.9375 1.203125 0.9375 2.609375q0 2.078125 -2.015625 3.71875q-2.015625 1.625 -5.90625 1.625q-3.875 0 -6.359375 -1.96875q0 0.65625 -0.078125 0.859375q-0.078125 0.1875 -0.28125 0.328125q-0.203125 0.140625 -0.46875 0.140625q-0.34375 0 -0.578125 -0.25q-0.234375 -0.265625 -0.234375 -0.84375l0 -3.375q0 -0.59375 0.21875 -0.84375q0.234375 -0.25 0.59375 -0.25q0.359375 0 0.59375 0.25q0.25 0.234375 0.25 0.640625q0 0.90625 0.453125 1.5q0.6875 0.9375 2.171875 1.5625q1.5 0.609375 3.671875 0.609375q3.203125 0 4.765625 -1.1875q1.5625 -1.1875 1.5625 -2.515625q0 -1.53125 -1.59375 -2.453125q-1.59375 -0.90625 -4.65625 -1.21875q-3.046875 -0.3125 -4.375 -0.8125q-1.328125 -0.515625 -2.078125 -1.53125q-0.734375 -1.015625 -0.734375 -2.1875q0 -2.109375 2.0625 -3.34375q2.078125 -1.2500019 4.9375 -1.2500019q3.40625 0 5.53125 1.6562519zm15.222656 -1.078125l8.90625 0q0.578125 0 0.828125 0.234375q0.265625 0.234375 0.265625 0.609375q0 0.359375 -0.265625 0.59375q-0.25 0.234375 -0.828125 0.234375l-8.90625 0l0 10.90625q0 1.4375 1.140625 2.390625q1.140625 0.953125 3.34375 0.953125q1.65625 0 3.59375 -0.5q1.9375 -0.5 3.015625 -1.125q0.390625 -0.25 0.640625 -0.25q0.3125 0 0.546875 0.25q0.234375 0.234375 0.234375 0.578125q0 0.28125 -0.25 0.546875q-0.625 0.640625 -3.046875 1.390625q-2.40625 0.75 -4.609375 0.75q-2.875 0 -4.578125 -1.34375q-1.703125 -1.34375 -1.703125 -3.640625l0 -10.90625l-3.015625 0q-0.59375 0 -0.84375 -0.234375q-0.25 -0.234375 -0.25 -0.609375q0 -0.359375 0.25 -0.59375q0.25 -0.234375 0.84375 -0.234375l3.015625 0l0 -4.843752q0 -0.578125 0.234375 -0.828125q0.234375 -0.265625 0.59375 -0.265625q0.375 0 0.609375 0.265625q0.234375 0.25 0.234375 0.828125l0 4.843752zm85.46484 5.53125l-17.734375 9.890625q-0.4375 0.234375 -0.640625 0.234375q-0.34375 0 -0.59375 -0.25q-0.234375 -0.25 -0.234375 -0.578125q0 -0.484375 0.671875 -0.859375l15.1875 -8.4375l-15.171875 -8.437502q-0.671875 -0.375 -0.671875 -0.859375q0 -0.328125 0.25 -0.5625q0.25 -0.25 0.578125 -0.25q0.21875 0 0.640625 0.234375l17.71875 9.875002zm24.003906 0l-17.734375 9.890625q-0.4375 0.234375 -0.640625 0.234375q-0.34375 0 -0.59375 -0.25q-0.234375 -0.25 -0.234375 -0.578125q0 -0.484375 0.671875 -0.859375l15.1875 -8.4375l-15.171875 -8.437502q-0.671875 -0.375 -0.671875 -0.859375q0 -0.328125 0.25 -0.5625q0.25 -0.25 0.578125 -0.25q0.21875 0 0.640625 0.234375l17.71875 9.875002z" fill-rule="nonzero"></path><path fill="#9900ff" d="m680.23486 45.381622l8.765625 0q0.71875 -0.59375 1.375 -0.59375q0.90625 0 1.4375 0.609375q0.546875 0.609375 0.546875 2.0625l0 1.921875l-18.234375 0l0 -4.234375q10.8125 -8.9375 13.0625 -11.484375q1.125 -1.3125 1.125 -2.484377q0 -1.46875 -1.28125 -2.59375q-1.265625 -1.125 -3.40625 -1.125q-2.140625 0 -3.5625 1.25q-0.75 0.671875 -1.203125 1.984375q-0.265625 0.8125 -0.75 1.171875q-0.46875 0.3437519 -1.171875 0.3437519q-0.828125 0 -1.421875 -0.5781269q-0.59375 -0.59375 -0.59375 -1.375q0 -1.171875 1.078125 -2.921875q1.09375 -1.765625 3.171875 -2.8125q2.078125 -1.0625 4.515625 -1.0625q3.796875 0 6.21875 2.296875q2.421875 2.296875 2.421875 5.5625q0 1.6562519 -0.703125 3.078127q-0.6875 1.40625 -3.328125 3.90625q-2.0625 1.96875 -8.0625 7.078125z" fill-rule="nonzero"></path><path fill="#000000" d="m236.27002 84.89725l0 2.34375l-16.734375 0l0 -2.34375l16.734375 0zm80.640625 10.84375l0 -19.578125l-2.203125 0q-0.59375 0 -0.84375 -0.21875q-0.25 -0.21875 -0.25 -0.59375q0 -0.375 0.25 -0.59375q0.25 -0.234375 0.84375 -0.234375l10.3125 0q3.0625 0 4.984375 1.78125q1.921875 1.765625 1.921875 4.140625q0 3.015625 -3.21875 4.859375q2.5625 0.921875 3.75 2.453125q1.1875 1.515625 1.1875 3.359375q0 1.640625 -0.78125 3.0q-0.78125 1.34375 -2.390625 2.3125q-1.609375 0.953125 -3.5 0.953125l-12.265625 0q-0.59375 0 -0.84375 -0.234375q-0.25 -0.234375 -0.25 -0.59375q0 -0.359375 0.25 -0.578125q0.25 -0.234375 0.84375 -0.234375l2.203125 0zm1.640625 -11.0625l5.796875 0q1.859375 0 3.40625 -0.671875q1.1875 -0.546875 1.84375 -1.578125q0.671875 -1.046875 0.671875 -2.125q0 -1.53125 -1.453125 -2.828125q-1.4375 -1.3125 -3.765625 -1.3125l-6.5 0l0 8.515625zm0 11.0625l8.296875 0q1.59375 0 2.765625 -0.703125q1.171875 -0.703125 1.765625 -1.734375q0.609375 -1.046875 0.609375 -2.15625q0 -1.25 -0.875 -2.421875q-0.859375 -1.171875 -2.40625 -1.765625q-1.546875 -0.609375 -4.25 -0.609375l-5.90625 0l0 9.390625zm38.23828 -6.421875l-16.71875 0q0.4375 3.171875 2.671875 5.125q2.234375 1.9375 5.53125 1.9375q1.84375 0 3.84375 -0.59375q2.015625 -0.609375 3.296875 -1.609375q0.359375 -0.296875 0.640625 -0.296875q0.3125 0 0.546875 0.25q0.234375 0.234375 0.234375 0.578125q0 0.328125 -0.3125 0.640625q-0.9375 0.96875 -3.328125 1.828125q-2.390625 0.84375 -4.921875 0.84375q-4.21875 0 -7.046875 -2.765625q-2.8125 -2.765625 -2.8125 -6.6875q0 -3.578125 2.640625 -6.125q2.65625 -2.5625 6.5625 -2.5625q4.015625 0 6.609375 2.625q2.609375 2.625 2.5625 6.8125zm-1.65625 -1.671875q-0.484375 -2.703125 -2.5625 -4.40625q-2.078125 -1.703125 -4.953125 -1.703125q-2.875 0 -4.953125 1.6875q-2.0625 1.671875 -2.5625 4.421875l15.03125 0zm22.300781 -4.171875l0 -3.015625l3.859375 0q0.578125 0 0.828125 0.234375q0.265625 0.234375 0.265625 0.609375q0 0.359375 -0.265625 0.59375q-0.25 0.234375 -0.828125 0.234375l-2.21875 0l0 16.390625q0 1.640625 -0.703125 2.921875q-0.46875 0.859375 -1.5625 1.78125q-1.09375 0.921875 -2.0 1.3125q-0.890625 0.390625 -2.390625 0.390625l-4.640625 0q-0.59375 0 -0.84375 -0.234375q-0.25 -0.21875 -0.25 -0.59375q0 -0.375 0.25 -0.609375q0.25 -0.234375 0.84375 -0.234375l4.703125 0.03125q1.4375 0 2.59375 -0.75q1.171875 -0.734375 1.9375 -2.171875q0.421875 -0.8125 0.421875 -2.078125l0 -4.9375q-2.625 3.625 -6.796875 3.625q-3.375 0 -5.828125 -2.515625q-2.453125 -2.515625 -2.453125 -6.046875q0 -3.53125 2.453125 -6.03125q2.453125 -2.5 5.828125 -2.5q4.171875 0 6.796875 3.59375zm0 4.9375q0 -2.890625 -1.984375 -4.875q-1.96875 -2.0 -4.734375 -2.0q-2.75 0 -4.71875 2.0q-1.96875 2.0 -1.96875 4.875q0 2.890625 1.96875 4.890625q1.96875 2.0 4.71875 2.0q2.765625 0 4.734375 -2.0q1.984375 -2.0 1.984375 -4.890625zm19.300781 -16.359375l0 4.234375l-2.421875 0l0 -4.234375l2.421875 0zm0.0625 8.40625l0 15.28125l6.4375 0q0.609375 0 0.859375 0.234375q0.265625 0.21875 0.265625 0.578125q0 0.359375 -0.265625 0.59375q-0.25 0.234375 -0.859375 0.234375l-14.53125 0q-0.578125 0 -0.84375 -0.234375q-0.25 -0.234375 -0.25 -0.59375q0 -0.359375 0.25 -0.578125q0.265625 -0.234375 0.84375 -0.234375l6.453125 0l0 -13.609375l-4.78125 0q-0.59375 0 -0.859375 -0.234375q-0.265625 -0.234375 -0.265625 -0.59375q0 -0.375 0.25 -0.609375q0.265625 -0.234375 0.875 -0.234375l6.421875 0zm17.832031 0l0 2.484375q1.71875 -1.734375 3.09375 -2.390625q1.390625 -0.671875 3.140625 -0.671875q1.875 0 3.40625 0.796875q1.09375 0.59375 1.984375 1.953125q0.890625 1.34375 0.890625 2.78125l0 10.328125l1.390625 0q0.578125 0 0.828125 0.234375q0.265625 0.21875 0.265625 0.578125q0 0.359375 -0.265625 0.59375q-0.25 0.234375 -0.828125 0.234375l-4.390625 0q-0.609375 0 -0.875 -0.234375q-0.25 -0.234375 -0.25 -0.59375q0 -0.359375 0.25 -0.578125q0.265625 -0.234375 0.875 -0.234375l1.359375 0l0 -10.0625q0 -1.734375 -1.265625 -2.9375q-1.265625 -1.203125 -3.40625 -1.203125q-1.609375 0 -2.8125 0.65625q-1.1875 0.65625 -3.390625 3.25l0 10.296875l1.859375 0q0.578125 0 0.828125 0.234375q0.265625 0.21875 0.265625 0.578125q0 0.359375 -0.265625 0.59375q-0.25 0.234375 -0.828125 0.234375l-5.359375 0q-0.578125 0 -0.84375 -0.234375q-0.25 -0.234375 -0.25 -0.59375q0 -0.359375 0.25 -0.578125q0.265625 -0.234375 0.84375 -0.234375l1.859375 0l0 -13.609375l-1.390625 0q-0.578125 0 -0.84375 -0.234375q-0.25 -0.234375 -0.25 -0.609375q0 -0.359375 0.25 -0.59375q0.265625 -0.234375 0.84375 -0.234375l3.03125 0zm267.38672 0l0 4.140625q3.203125 -2.890625 4.78125 -3.71875q1.59375 -0.828125 2.953125 -0.828125q1.453125 0 2.71875 0.984375q1.265625 0.984375 1.265625 1.5q0 0.375 -0.25 0.625q-0.25 0.234375 -0.609375 0.234375q-0.203125 0 -0.34375 -0.0625q-0.125 -0.078125 -0.5 -0.453125q-0.6875 -0.671875 -1.203125 -0.921875q-0.5 -0.265625 -0.984375 -0.265625q-1.078125 0 -2.59375 0.859375q-1.515625 0.859375 -5.234375 4.203125l0 8.984375l7.265625 0q0.59375 0 0.84375 0.234375q0.265625 0.21875 0.265625 0.578125q0 0.359375 -0.265625 0.59375q-0.25 0.234375 -0.84375 0.234375l-12.875 0q-0.59375 0 -0.84375 -0.21875q-0.25 -0.234375 -0.25 -0.578125q0 -0.34375 0.234375 -0.5625q0.25 -0.21875 0.859375 -0.21875l3.96875 0l0 -13.671875l-3.03125 0q-0.59375 0 -0.84375 -0.234375q-0.25 -0.234375 -0.25 -0.609375q0 -0.359375 0.234375 -0.59375q0.25 -0.234375 0.859375 -0.234375l4.671875 0zm34.83203 8.859375l-16.71875 0q0.4375 3.171875 2.671875 5.125q2.234375 1.9375 5.53125 1.9375q1.84375 0 3.84375 -0.59375q2.015625 -0.609375 3.296875 -1.609375q0.359375 -0.296875 0.640625 -0.296875q0.3125 0 0.546875 0.25q0.234375 0.234375 0.234375 0.578125q0 0.328125 -0.3125 0.640625q-0.9375 0.96875 -3.328125 1.828125q-2.390625 0.84375 -4.921875 0.84375q-4.21875 0 -7.046875 -2.765625q-2.8125 -2.765625 -2.8125 -6.6875q0 -3.578125 2.640625 -6.125q2.65625 -2.5625 6.5625 -2.5625q4.015625 0 6.609375 2.625q2.609375 2.625 2.5625 6.8125zm-1.65625 -1.671875q-0.484375 -2.703125 -2.5625 -4.40625q-2.078125 -1.703125 -4.953125 -1.703125q-2.875 0 -4.953125 1.6875q-2.0625 1.671875 -2.5625 4.421875l15.03125 0zm23.144531 -4.1875l0 -3.0l3.84375 0q0.609375 0 0.859375 0.234375q0.265625 0.234375 0.265625 0.609375q0 0.359375 -0.265625 0.59375q-0.25 0.234375 -0.859375 0.234375l-2.1875 0l0 21.15625l2.1875 0q0.609375 0 0.859375 0.21875q0.265625 0.21875 0.265625 0.59375q0 0.359375 -0.265625 0.59375q-0.25 0.234375 -0.859375 0.234375l-7.8125 0q-0.578125 0 -0.84375 -0.234375q-0.25 -0.21875 -0.25 -0.59375q0 -0.375 0.25 -0.59375q0.265625 -0.21875 0.84375 -0.21875l3.96875 0l0 -9.890625q-2.71875 3.578125 -7.125 3.578125q-3.671875 0 -6.203125 -2.515625q-2.53125 -2.515625 -2.53125 -6.046875q0 -3.546875 2.53125 -6.03125q2.53125 -2.5 6.234375 -2.5q4.375 0 7.09375 3.578125zm0 4.953125q0 -2.828125 -2.078125 -4.84375q-2.0625 -2.03125 -5.03125 -2.03125q-2.96875 0 -5.046875 2.03125q-2.0625 2.015625 -2.0625 4.84375q0 2.828125 2.0625 4.859375q2.078125 2.03125 5.046875 2.03125q2.96875 0 5.03125 -2.03125q2.078125 -2.03125 2.078125 -4.859375zm42.460938 -15.875l0 23.203125l5.625 0q0.59375 0 0.84375 0.234375q0.25 0.21875 0.25 0.578125q0 0.359375 -0.25 0.59375q-0.25 0.234375 -0.84375 0.234375l-12.890625 0q-0.578125 0 -0.84375 -0.234375q-0.25 -0.234375 -0.25 -0.59375q0 -0.359375 0.25 -0.578125q0.265625 -0.234375 0.84375 -0.234375l5.625 0l0 -20.9375l-5.34375 1.671875q-0.390625 0.125 -0.578125 0.125q-0.28125 0 -0.53125 -0.234375q-0.25 -0.25 -0.25 -0.59375q0 -0.28125 0.203125 -0.546875q0.15625 -0.15625 0.640625 -0.328125l7.5 -2.359375zm45.242188 7.921875l0 4.140625q3.203125 -2.890625 4.78125 -3.71875q1.59375 -0.828125 2.953125 -0.828125q1.453125 0 2.71875 0.984375q1.265625 0.984375 1.265625 1.5q0 0.375 -0.25 0.625q-0.25 0.234375 -0.609375 0.234375q-0.203125 0 -0.34375 -0.0625q-0.125 -0.078125 -0.5 -0.453125q-0.6875 -0.671875 -1.203125 -0.921875q-0.5 -0.265625 -0.984375 -0.265625q-1.078125 0 -2.59375 0.859375q-1.515625 0.859375 -5.234375 4.203125l0 8.984375l7.265625 0q0.59375 0 0.84375 0.234375q0.265625 0.21875 0.265625 0.578125q0 0.359375 -0.265625 0.59375q-0.25 0.234375 -0.84375 0.234375l-12.875 0q-0.59375 0 -0.84375 -0.21875q-0.25 -0.234375 -0.25 -0.578125q0 -0.34375 0.234375 -0.5625q0.25 -0.21875 0.859375 -0.21875l3.96875 0l0 -13.671875l-3.03125 0q-0.59375 0 -0.84375 -0.234375q-0.25 -0.234375 -0.25 -0.609375q0 -0.359375 0.234375 -0.59375q0.25 -0.234375 0.859375 -0.234375l4.671875 0zm27.082031 8.078125l7.515625 7.203125q0.75 0 0.9375 0.078125q0.203125 0.0625 0.34375 0.28125q0.15625 0.203125 0.15625 0.453125q0 0.359375 -0.265625 0.59375q-0.25 0.234375 -0.859375 0.234375l-5.265625 0q-0.609375 0 -0.859375 -0.234375q-0.25 -0.234375 -0.25 -0.59375q0 -0.359375 0.25 -0.578125q0.25 -0.234375 0.859375 -0.234375l2.71875 0l-6.390625 -6.109375l-6.34375 6.109375l2.734375 0q0.578125 0 0.828125 0.234375q0.265625 0.21875 0.265625 0.578125q0 0.359375 -0.265625 0.59375q-0.25 0.234375 -0.828125 0.234375l-5.34375 0q-0.578125 0 -0.84375 -0.234375q-0.25 -0.234375 -0.25 -0.59375q0 -0.25 0.140625 -0.453125q0.15625 -0.21875 0.34375 -0.28125q0.1875 -0.078125 0.921875 -0.078125l7.53125 -7.203125l-6.6875 -6.40625q-0.703125 0 -0.890625 -0.078125q-0.1875 -0.078125 -0.328125 -0.296875q-0.140625 -0.21875 -0.140625 -0.46875q0 -0.359375 0.25 -0.59375q0.25 -0.234375 0.859375 -0.234375l4.46875 0q0.609375 0 0.84375 0.234375q0.25 0.234375 0.25 0.609375q0 0.359375 -0.25 0.59375q-0.234375 0.234375 -0.84375 0.234375l-1.953125 0l5.53125 5.328125l5.5625 -5.328125l-1.953125 0q-0.578125 0 -0.84375 -0.234375q-0.265625 -0.234375 -0.265625 -0.609375q0 -0.359375 0.25 -0.59375q0.25 -0.234375 0.859375 -0.234375l4.46875 0q0.59375 0 0.84375 0.234375q0.25 0.234375 0.25 0.609375q0 0.234375 -0.140625 0.453125q-0.140625 0.21875 -0.328125 0.296875q-0.1875 0.078125 -0.890625 0.078125l-6.703125 6.40625zm20.925781 -8.078125l0 4.140625q3.203125 -2.890625 4.78125 -3.71875q1.59375 -0.828125 2.953125 -0.828125q1.453125 0 2.71875 0.984375q1.265625 0.984375 1.265625 1.5q0 0.375 -0.25 0.625q-0.25 0.234375 -0.609375 0.234375q-0.203125 0 -0.34375 -0.0625q-0.125 -0.078125 -0.5 -0.453125q-0.6875 -0.671875 -1.203125 -0.921875q-0.5 -0.265625 -0.984375 -0.265625q-1.078125 0 -2.59375 0.859375q-1.515625 0.859375 -5.234375 4.203125l0 8.984375l7.265625 0q0.59375 0 0.84375 0.234375q0.265625 0.21875 0.265625 0.578125q0 0.359375 -0.265625 0.59375q-0.25 0.234375 -0.84375 0.234375l-12.875 0q-0.59375 0 -0.84375 -0.21875q-0.25 -0.234375 -0.25 -0.578125q0 -0.34375 0.234375 -0.5625q0.25 -0.21875 0.859375 -0.21875l3.96875 0l0 -13.671875l-3.03125 0q-0.59375 0 -0.84375 -0.234375q-0.25 -0.234375 -0.25 -0.609375q0 -0.359375 0.234375 -0.59375q0.25 -0.234375 0.859375 -0.234375l4.671875 0zm34.83203 8.859375l-16.71875 0q0.4375 3.171875 2.671875 5.125q2.234375 1.9375 5.53125 1.9375q1.84375 0 3.84375 -0.59375q2.015625 -0.609375 3.296875 -1.609375q0.359375 -0.296875 0.640625 -0.296875q0.3125 0 0.546875 0.25q0.234375 0.234375 0.234375 0.578125q0 0.328125 -0.3125 0.640625q-0.9375 0.96875 -3.328125 1.828125q-2.390625 0.84375 -4.921875 0.84375q-4.21875 0 -7.046875 -2.765625q-2.8125 -2.765625 -2.8125 -6.6875q0 -3.578125 2.640625 -6.125q2.65625 -2.5625 6.5625 -2.5625q4.015625 0 6.609375 2.625q2.609375 2.625 2.5625 6.8125zm-1.65625 -1.671875q-0.484375 -2.703125 -2.5625 -4.40625q-2.078125 -1.703125 -4.953125 -1.703125q-2.875 0 -4.953125 1.6875q-2.0625 1.671875 -2.5625 4.421875l15.03125 0zm23.144531 -4.1875l0 -3.0l3.84375 0q0.609375 0 0.859375 0.234375q0.265625 0.234375 0.265625 0.609375q0 0.359375 -0.265625 0.59375q-0.25 0.234375 -0.859375 0.234375l-2.1875 0l0 21.15625l2.1875 0q0.609375 0 0.859375 0.21875q0.265625 0.21875 0.265625 0.59375q0 0.359375 -0.265625 0.59375q-0.25 0.234375 -0.859375 0.234375l-7.8125 0q-0.578125 0 -0.84375 -0.234375q-0.25 -0.21875 -0.25 -0.59375q0 -0.375 0.25 -0.59375q0.265625 -0.21875 0.84375 -0.21875l3.96875 0l0 -9.890625q-2.71875 3.578125 -7.125 3.578125q-3.671875 0 -6.203125 -2.515625q-2.53125 -2.515625 -2.53125 -6.046875q0 -3.546875 2.53125 -6.03125q2.53125 -2.5 6.234375 -2.5q4.375 0 7.09375 3.578125zm0 4.953125q0 -2.828125 -2.078125 -4.84375q-2.0625 -2.03125 -5.03125 -2.03125q-2.96875 0 -5.046875 2.03125q-2.0625 2.015625 -2.0625 4.84375q0 2.828125 2.0625 4.859375q2.078125 2.03125 5.046875 2.03125q2.96875 0 5.03125 -2.03125q2.078125 -2.03125 2.078125 -4.859375z" fill-rule="nonzero"></path><path fill="#000000" d="m236.27002 132.89725l0 2.34375l-16.734375 0l0 -2.34375l16.734375 0zm84.796875 -8.734375l0 19.578125l10.90625 0l0 -6.53125q0 -0.578125 0.234375 -0.828125q0.234375 -0.265625 0.609375 -0.265625q0.34375 0 0.578125 0.25q0.234375 0.25 0.234375 0.84375l0 8.171875l-18.125 0q-0.578125 0 -0.84375 -0.234375q-0.25 -0.234375 -0.25 -0.59375q0 -0.359375 0.25 -0.578125q0.265625 -0.234375 0.84375 -0.234375l3.90625 0l0 -19.578125l-3.90625 0q-0.578125 0 -0.84375 -0.21875q-0.25 -0.21875 -0.25 -0.59375q0 -0.375 0.25 -0.59375q0.265625 -0.234375 0.84375 -0.234375l9.46875 0q0.59375 0 0.84375 0.234375q0.25 0.21875 0.25 0.59375q0 0.375 -0.25 0.59375q-0.25 0.21875 -0.84375 0.21875l-3.90625 0zm27.660156 -4.109375l0 4.234375l-2.421875 0l0 -4.234375l2.421875 0zm0.0625 8.40625l0 15.28125l6.4375 0q0.609375 0 0.859375 0.234375q0.265625 0.21875 0.265625 0.578125q0 0.359375 -0.265625 0.59375q-0.25 0.234375 -0.859375 0.234375l-14.53125 0q-0.578125 0 -0.84375 -0.234375q-0.25 -0.234375 -0.25 -0.59375q0 -0.359375 0.25 -0.578125q0.265625 -0.234375 0.84375 -0.234375l6.453125 0l0 -13.609375l-4.78125 0q-0.59375 0 -0.859375 -0.234375q-0.265625 -0.234375 -0.265625 -0.59375q0 -0.375 0.25 -0.609375q0.265625 -0.234375 0.875 -0.234375l6.421875 0zm17.832031 0l0 2.484375q1.71875 -1.734375 3.09375 -2.390625q1.390625 -0.671875 3.140625 -0.671875q1.875 0 3.40625 0.796875q1.09375 0.59375 1.984375 1.953125q0.890625 1.34375 0.890625 2.78125l0 10.328125l1.390625 0q0.578125 0 0.828125 0.234375q0.265625 0.21875 0.265625 0.578125q0 0.359375 -0.265625 0.59375q-0.25 0.234375 -0.828125 0.234375l-4.390625 0q-0.609375 0 -0.875 -0.234375q-0.25 -0.234375 -0.25 -0.59375q0 -0.359375 0.25 -0.578125q0.265625 -0.234375 0.875 -0.234375l1.359375 0l0 -10.0625q0 -1.734375 -1.265625 -2.9375q-1.265625 -1.203125 -3.40625 -1.203125q-1.609375 0 -2.8125 0.65625q-1.1875 0.65625 -3.390625 3.25l0 10.296875l1.859375 0q0.578125 0 0.828125 0.234375q0.265625 0.21875 0.265625 0.578125q0 0.359375 -0.265625 0.59375q-0.25 0.234375 -0.828125 0.234375l-5.359375 0q-0.578125 0 -0.84375 -0.234375q-0.25 -0.234375 -0.25 -0.59375q0 -0.359375 0.25 -0.578125q0.265625 -0.234375 0.84375 -0.234375l1.859375 0l0 -13.609375l-1.390625 0q-0.578125 0 -0.84375 -0.234375q-0.25 -0.234375 -0.25 -0.609375q0 -0.359375 0.25 -0.59375q0.265625 -0.234375 0.84375 -0.234375l3.03125 0zm25.972656 9.609375l0 7.3125l-3.84375 0q-0.59375 0 -0.84375 -0.234375q-0.25 -0.234375 -0.25 -0.59375q0 -0.359375 0.25 -0.578125q0.25 -0.234375 0.84375 -0.234375l2.203125 0l0 -21.21875l-2.203125 0q-0.59375 0 -0.84375 -0.234375q-0.25 -0.234375 -0.25 -0.59375q0 -0.359375 0.25 -0.59375q0.25 -0.234375 0.84375 -0.234375l3.84375 0l0 15.125l6.96875 -5.859375l-0.828125 0q-0.59375 0 -0.84375 -0.234375q-0.25 -0.234375 -0.25 -0.59375q0 -0.375 0.25 -0.609375q0.25 -0.234375 0.84375 -0.234375l5.25 0q0.609375 0 0.859375 0.234375q0.25 0.234375 0.25 0.609375q0 0.359375 -0.25 0.59375q-0.25 0.234375 -0.859375 0.234375l-1.890625 0l-6.40625 5.34375l8.09375 8.265625l1.90625 0q0.59375 0 0.84375 0.234375q0.265625 0.21875 0.265625 0.578125q0 0.359375 -0.265625 0.59375q-0.25 0.234375 -0.84375 0.234375l-5.3125 0q-0.59375 0 -0.84375 -0.234375q-0.25 -0.234375 -0.25 -0.59375q0 -0.359375 0.25 -0.578125q0.25 -0.234375 0.84375 -0.234375l1.140625 0l-7.046875 -7.25l-1.875 1.578125zm285.20312 -17.203125l0 10.875q2.96875 -3.859375 7.15625 -3.859375q3.59375 0 6.15625 2.609375q2.5625 2.609375 2.5625 6.390625q0 3.828125 -2.59375 6.484375q-2.578125 2.65625 -6.125 2.65625q-4.296875 0 -7.15625 -3.859375l0 3.21875l-3.859375 0q-0.578125 0 -0.84375 -0.234375q-0.25 -0.234375 -0.25 -0.59375q0 -0.359375 0.25 -0.578125q0.265625 -0.234375 0.84375 -0.234375l2.21875 0l0 -21.21875l-2.21875 0q-0.578125 0 -0.84375 -0.234375q-0.25 -0.234375 -0.25 -0.59375q0 -0.359375 0.25 -0.59375q0.265625 -0.234375 0.84375 -0.234375l3.859375 0zm14.234375 16.09375q0 -3.109375 -2.140625 -5.265625q-2.125 -2.15625 -4.96875 -2.15625q-2.859375 0 -4.984375 2.15625q-2.125 2.15625 -2.125 5.265625q0 3.109375 2.125 5.265625q2.125 2.15625 4.984375 2.15625q2.84375 0 4.96875 -2.15625q2.140625 -2.15625 2.140625 -5.265625zm24.816406 0.359375l-16.71875 0q0.4375 3.171875 2.671875 5.125q2.234375 1.9375 5.53125 1.9375q1.84375 0 3.84375 -0.59375q2.015625 -0.609375 3.296875 -1.609375q0.359375 -0.296875 0.640625 -0.296875q0.3125 0 0.546875 0.25q0.234375 0.234375 0.234375 0.578125q0 0.328125 -0.3125 0.640625q-0.9375 0.96875 -3.328125 1.828125q-2.390625 0.84375 -4.921875 0.84375q-4.21875 0 -7.046875 -2.765625q-2.8125 -2.765625 -2.8125 -6.6875q0 -3.578125 2.640625 -6.125q2.65625 -2.5625 6.5625 -2.5625q4.015625 0 6.609375 2.625q2.609375 2.625 2.5625 6.8125zm-1.65625 -1.671875q-0.484375 -2.703125 -2.5625 -4.40625q-2.078125 -1.703125 -4.953125 -1.703125q-2.875 0 -4.953125 1.6875q-2.0625 1.671875 -2.5625 4.421875l15.03125 0zm14.832031 -7.1875l0 4.140625q3.203125 -2.890625 4.78125 -3.71875q1.59375 -0.828125 2.953125 -0.828125q1.453125 0 2.71875 0.984375q1.265625 0.984375 1.265625 1.5q0 0.375 -0.25 0.625q-0.25 0.234375 -0.609375 0.234375q-0.203125 0 -0.34375 -0.0625q-0.125 -0.078125 -0.5 -0.453125q-0.6875 -0.671875 -1.203125 -0.921875q-0.5 -0.265625 -0.984375 -0.265625q-1.078125 0 -2.59375 0.859375q-1.515625 0.859375 -5.234375 4.203125l0 8.984375l7.265625 0q0.59375 0 0.84375 0.234375q0.265625 0.21875 0.265625 0.578125q0 0.359375 -0.265625 0.59375q-0.25 0.234375 -0.84375 0.234375l-12.875 0q-0.59375 0 -0.84375 -0.21875q-0.25 -0.234375 -0.25 -0.578125q0 -0.34375 0.234375 -0.5625q0.25 -0.21875 0.859375 -0.21875l3.96875 0l0 -13.671875l-3.03125 0q-0.59375 0 -0.84375 -0.234375q-0.25 -0.234375 -0.25 -0.609375q0 -0.359375 0.234375 -0.59375q0.25 -0.234375 0.859375 -0.234375l4.671875 0zm34.83203 8.859375l-16.71875 0q0.4375 3.171875 2.671875 5.125q2.234375 1.9375 5.53125 1.9375q1.84375 0 3.84375 -0.59375q2.015625 -0.609375 3.296875 -1.609375q0.359375 -0.296875 0.640625 -0.296875q0.3125 0 0.546875 0.25q0.234375 0.234375 0.234375 0.578125q0 0.328125 -0.3125 0.640625q-0.9375 0.96875 -3.328125 1.828125q-2.390625 0.84375 -4.921875 0.84375q-4.21875 0 -7.046875 -2.765625q-2.8125 -2.765625 -2.8125 -6.6875q0 -3.578125 2.640625 -6.125q2.65625 -2.5625 6.5625 -2.5625q4.015625 0 6.609375 2.625q2.609375 2.625 2.5625 6.8125zm-1.65625 -1.671875q-0.484375 -2.703125 -2.5625 -4.40625q-2.078125 -1.703125 -4.953125 -1.703125q-2.875 0 -4.953125 1.6875q-2.0625 1.671875 -2.5625 4.421875l15.03125 0zm23.144531 -4.1875l0 -3.0l3.84375 0q0.609375 0 0.859375 0.234375q0.265625 0.234375 0.265625 0.609375q0 0.359375 -0.265625 0.59375q-0.25 0.234375 -0.859375 0.234375l-2.1875 0l0 21.15625l2.1875 0q0.609375 0 0.859375 0.21875q0.265625 0.21875 0.265625 0.59375q0 0.359375 -0.265625 0.59375q-0.25 0.234375 -0.859375 0.234375l-7.8125 0q-0.578125 0 -0.84375 -0.234375q-0.25 -0.21875 -0.25 -0.59375q0 -0.375 0.25 -0.59375q0.265625 -0.21875 0.84375 -0.21875l3.96875 0l0 -9.890625q-2.71875 3.578125 -7.125 3.578125q-3.671875 0 -6.203125 -2.515625q-2.53125 -2.515625 -2.53125 -6.046875q0 -3.546875 2.53125 -6.03125q2.53125 -2.5 6.234375 -2.5q4.375 0 7.09375 3.578125zm0 4.953125q0 -2.828125 -2.078125 -4.84375q-2.0625 -2.03125 -5.03125 -2.03125q-2.96875 0 -5.046875 2.03125q-2.0625 2.015625 -2.0625 4.84375q0 2.828125 2.0625 4.859375q2.078125 2.03125 5.046875 2.03125q2.96875 0 5.03125 -2.03125q2.078125 -2.03125 2.078125 -4.859375z" fill-rule="nonzero"></path><path fill="#ff0000" d="m833.7114 132.00662q1.78125 1.203125 2.65625 2.796875q0.875 1.59375 0.875 3.5625q0 2.125 -1.171875 3.9375q-1.15625 1.8125 -3.359375 2.75q-2.203125 0.921875 -5.78125 0.921875q-4.640625 0 -6.984375 -1.453125q-1.3125 -0.828125 -1.3125 -1.953125q0 -0.859375 0.578125 -1.453125q0.578125 -0.59375 1.390625 -0.59375q0.5625 0 1.171875 0.390625q0.859375 0.578125 1.625 0.78125q1.171875 0.265625 3.21875 0.265625q3.5 0 5.0625 -0.90625q1.5625 -0.90625 1.5625 -2.5625q0 -1.234375 -0.90625 -2.375q-0.90625 -1.140625 -2.4375 -1.765625q-0.875 -0.359375 -2.96875 -0.5q-1.0 -0.046875 -1.53125 -0.609375q-0.53125 -0.5625 -0.53125 -1.375q0 -0.859375 0.578125 -1.4375q0.59375 -0.59375 1.484375 -0.59375q2.0 0 2.125 -0.015625q0.78125 -0.078125 1.5625 -0.5q0.78125 -0.4375 1.265625 -1.1875q0.484375 -0.765625 0.484375 -1.5625q0 -1.265625 -1.125 -2.1875q-1.125 -0.9375 -3.375 -0.9375q-2.890625 0 -4.40625 1.6875q-0.453125 0.484375 -0.734375 0.625q-0.40625 0.203125 -0.90625 0.203125q-0.828125 0 -1.421875 -0.578125q-0.578125 -0.59375 -0.578125 -1.453125q0 -1.34375 1.796875 -2.609375q2.625 -1.859375 6.546875 -1.859375q3.703125 0 5.953125 2.109375q2.25 2.109375 2.25 5.078125q0 1.546875 -0.671875 2.890625q-0.65625 1.328125 -1.984375 2.46875z" fill-rule="nonzero"></path><path fill="#000000" d="m874.92236 130.13162l0 13.609375l7.203125 0q0.59375 0 0.84375 0.234375q0.25 0.21875 0.25 0.578125q0 0.359375 -0.25 0.59375q-0.25 0.234375 -0.84375 0.234375l-12.828125 0q-0.59375 0 -0.84375 -0.234375q-0.25 -0.234375 -0.25 -0.59375q0 -0.359375 0.25 -0.578125q0.25 -0.234375 0.84375 -0.234375l3.96875 0l0 -13.609375l-3.5625 0q-0.578125 0 -0.84375 -0.234375q-0.25 -0.234375 -0.25 -0.609375q0 -0.359375 0.25 -0.59375q0.265625 -0.234375 0.84375 -0.234375l3.5625 0l0 -2.46875q0 -2.078125 1.671875 -3.59375q1.6875 -1.53125 4.453125 -1.53125q2.328125 0 4.96875 0.4375q0.984375 0.15625 1.1875 0.375q0.21875 0.203125 0.21875 0.5625q0 0.34375 -0.234375 0.578125q-0.234375 0.21875 -0.625 0.21875q-0.15625 0 -0.53125 -0.0625q-2.953125 -0.453125 -4.984375 -0.453125q-2.140625 0 -3.3125 1.0625q-1.15625 1.046875 -1.15625 2.40625l0 2.46875l7.671875 0q0.59375 0 0.84375 0.234375q0.25 0.234375 0.25 0.609375q0 0.359375 -0.25 0.59375q-0.25 0.234375 -0.84375 0.234375l-7.671875 0zm33.95703 7.1875l-16.71875 0q0.4375 3.171875 2.671875 5.125q2.234375 1.9375 5.53125 1.9375q1.84375 0 3.84375 -0.59375q2.015625 -0.609375 3.296875 -1.609375q0.359375 -0.296875 0.640625 -0.296875q0.3125 0 0.546875 0.25q0.234375 0.234375 0.234375 0.578125q0 0.328125 -0.3125 0.640625q-0.9375 0.96875 -3.328125 1.828125q-2.390625 0.84375 -4.921875 0.84375q-4.21875 0 -7.046875 -2.765625q-2.8125 -2.765625 -2.8125 -6.6875q0 -3.578125 2.640625 -6.125q2.65625 -2.5625 6.5625 -2.5625q4.015625 0 6.609375 2.625q2.609375 2.625 2.5625 6.8125zm-1.65625 -1.671875q-0.484375 -2.703125 -2.5625 -4.40625q-2.078125 -1.703125 -4.953125 -1.703125q-2.875 0 -4.953125 1.6875q-2.0625 1.671875 -2.5625 4.421875l15.03125 0zm13.425781 -7.1875l8.90625 0q0.578125 0 0.828125 0.234375q0.265625 0.234375 0.265625 0.609375q0 0.359375 -0.265625 0.59375q-0.25 0.234375 -0.828125 0.234375l-8.90625 0l0 10.90625q0 1.4375 1.140625 2.390625q1.140625 0.953125 3.34375 0.953125q1.65625 0 3.59375 -0.5q1.9375 -0.5 3.015625 -1.125q0.390625 -0.25 0.640625 -0.25q0.3125 0 0.546875 0.25q0.234375 0.234375 0.234375 0.578125q0 0.28125 -0.25 0.546875q-0.625 0.640625 -3.046875 1.390625q-2.40625 0.75 -4.609375 0.75q-2.875 0 -4.578125 -1.34375q-1.703125 -1.34375 -1.703125 -3.640625l0 -10.90625l-3.015625 0q-0.59375 0 -0.84375 -0.234375q-0.25 -0.234375 -0.25 -0.609375q0 -0.359375 0.25 -0.59375q0.25 -0.234375 0.84375 -0.234375l3.015625 0l0 -4.84375q0 -0.578125 0.234375 -0.828125q0.234375 -0.265625 0.59375 -0.265625q0.375 0 0.609375 0.265625q0.234375 0.25 0.234375 0.828125l0 4.84375zm34.20703 1.671875l0 -0.546875q0 -0.609375 0.234375 -0.859375q0.234375 -0.265625 0.59375 -0.265625q0.375 0 0.609375 0.265625q0.234375 0.25 0.234375 0.859375l0 3.703125q-0.03125 0.609375 -0.25 0.859375q-0.21875 0.25 -0.59375 0.25q-0.328125 0 -0.5625 -0.21875q-0.21875 -0.21875 -0.265625 -0.75q-0.109375 -1.390625 -1.828125 -2.640625q-1.703125 -1.25 -4.59375 -1.25q-3.65625 0 -5.546875 2.296875q-1.890625 2.28125 -1.890625 5.21875q0 3.1875 2.078125 5.265625q2.09375 2.0625 5.421875 2.0625q1.90625 0 3.890625 -0.703125q1.984375 -0.703125 3.59375 -2.265625q0.40625 -0.390625 0.71875 -0.390625q0.328125 0 0.546875 0.234375q0.234375 0.21875 0.234375 0.546875q0 0.84375 -1.96875 2.125q-3.1875 2.09375 -7.09375 2.09375q-3.96875 0 -6.515625 -2.53125q-2.546875 -2.53125 -2.546875 -6.40625q0 -3.96875 2.609375 -6.578125q2.609375 -2.625 6.5625 -2.625q3.78125 0 6.328125 2.25zm11.769531 -9.265625l0 10.09375q1.5625 -1.6875 2.984375 -2.375q1.4375 -0.703125 3.21875 -0.703125q1.921875 0 3.25 0.671875q1.34375 0.671875 2.234375 2.078125q0.90625 1.390625 0.90625 2.9375l0 10.171875l1.828125 0q0.609375 0 0.84375 0.234375q0.25 0.21875 0.25 0.578125q0 0.359375 -0.25 0.59375q-0.234375 0.234375 -0.84375 0.234375l-5.328125 0q-0.609375 0 -0.859375 -0.234375q-0.25 -0.234375 -0.25 -0.59375q0 -0.359375 0.25 -0.578125q0.25 -0.234375 0.859375 -0.234375l1.84375 0l0 -10.0625q0 -1.78125 -1.28125 -2.96875q-1.28125 -1.1875 -3.5625 -1.1875q-1.796875 0 -3.078125 0.875q-0.90625 0.625 -3.015625 2.953125l0 10.390625l1.84375 0q0.59375 0 0.84375 0.234375q0.25 0.21875 0.25 0.578125q0 0.359375 -0.25 0.59375q-0.25 0.234375 -0.84375 0.234375l-5.34375 0q-0.59375 0 -0.84375 -0.234375q-0.25 -0.234375 -0.25 -0.59375q0 -0.359375 0.25 -0.578125q0.25 -0.234375 0.84375 -0.234375l1.859375 0l0 -21.21875l-2.21875 0q-0.578125 0 -0.84375 -0.234375q-0.25 -0.234375 -0.25 -0.59375q0 -0.359375 0.25 -0.59375q0.265625 -0.234375 0.84375 -0.234375l3.859375 0z" fill-rule="nonzero"></path><path fill="#ff0000" d="m224.6294 226.22539l-3.453125 -1.109375q-1.234375 -0.390625 -1.5625 -0.84375q-0.46875 -0.5625 -0.46875 -1.265625q0 -0.828125 0.5625 -1.421875q0.578125 -0.59375 1.3125 -0.59375q0.46875 0 1.375 0.3125l3.46875 1.109375l0 -3.625q0 -1.453125 0.546875 -2.0625q0.5625 -0.625 1.453125 -0.625q0.90625 0 1.453125 0.625q0.546875 0.609375 0.546875 2.0625l0 3.625l3.453125 -1.109375q0.9375 -0.3125 1.375 -0.3125q0.734375 0 1.3125 0.59375q0.578125 0.578125 0.578125 1.390625q0 0.734375 -0.40625 1.234375q-0.390625 0.484375 -1.609375 0.90625l-3.453125 1.109375l2.125 2.953125q0.78125 1.0625 0.78125 1.6875q0 0.84375 -0.59375 1.4375q-0.578125 0.578125 -1.390625 0.578125q-0.609375 0 -1.015625 -0.25q-0.390625 -0.25 -1.015625 -1.109375l-2.140625 -2.9375l-2.140625 2.9375q-0.609375 0.859375 -1.015625 1.125q-0.40625 0.25 -1.0 0.25q-0.8125 0 -1.421875 -0.59375q-0.59375 -0.59375 -0.59375 -1.453125q0 -0.609375 0.78125 -1.671875l2.15625 -2.953125zm24.003906 0l-3.453125 -1.109375q-1.234375 -0.390625 -1.5625 -0.84375q-0.46875 -0.5625 -0.46875 -1.265625q0 -0.828125 0.5625 -1.421875q0.578125 -0.59375 1.3125 -0.59375q0.46875 0 1.375 0.3125l3.46875 1.109375l0 -3.625q0 -1.453125 0.546875 -2.0625q0.5625 -0.625 1.453125 -0.625q0.90625 0 1.453125 0.625q0.546875 0.609375 0.546875 2.0625l0 3.625l3.453125 -1.109375q0.9375 -0.3125 1.375 -0.3125q0.734375 0 1.3125 0.59375q0.578125 0.578125 0.578125 1.390625q0 0.734375 -0.40625 1.234375q-0.390625 0.484375 -1.609375 0.90625l-3.453125 1.109375l2.125 2.953125q0.78125 1.0625 0.78125 1.6875q0 0.84375 -0.59375 1.4375q-0.578125 0.578125 -1.390625 0.578125q-0.609375 0 -1.015625 -0.25q-0.390625 -0.25 -1.015625 -1.109375l-2.140625 -2.9375l-2.140625 2.9375q-0.609375 0.859375 -1.015625 1.125q-0.40625 0.25 -1.0 0.25q-0.8125 0 -1.421875 -0.59375q-0.59375 -0.59375 -0.59375 -1.453125q0 -0.609375 0.78125 -1.671875l2.15625 -2.953125z" fill-rule="nonzero"></path><path fill="#ff0000" d="m313.83252 229.99101l17.734375 -9.875q0.421875 -0.234375 0.640625 -0.234375q0.328125 0 0.5625 0.25q0.25 0.234375 0.25 0.5625q0 0.484375 -0.65625 0.859375l-15.203125 8.4375l15.1875 8.4375q0.65625 0.375 0.65625 0.859375q0 0.328125 -0.25 0.578125q-0.234375 0.25 -0.5625 0.25q-0.21875 0 -0.65625 -0.234375l-17.703125 -9.890625zm24.003906 0l17.734375 -9.875q0.421875 -0.234375 0.640625 -0.234375q0.328125 0 0.5625 0.25q0.25 0.234375 0.25 0.5625q0 0.484375 -0.65625 0.859375l-15.203125 8.4375l15.1875 8.4375q0.65625 0.375 0.65625 0.859375q0 0.328125 -0.25 0.578125q-0.234375 0.25 -0.5625 0.25q-0.21875 0 -0.65625 -0.234375l-17.703125 -9.890625zm51.085938 9.75l0 -19.578125l-2.203125 0q-0.59375 0 -0.84375 -0.21875q-0.25 -0.21875 -0.25 -0.59375q0 -0.375 0.25 -0.59375q0.25 -0.234375 0.84375 -0.234375l10.3125 0q3.0625 0 4.984375 1.78125q1.921875 1.765625 1.921875 4.140625q0 3.015625 -3.21875 4.859375q2.5625 0.921875 3.75 2.453125q1.1875 1.515625 1.1875 3.359375q0 1.640625 -0.78125 3.0q-0.78125 1.34375 -2.390625 2.3125q-1.609375 0.953125 -3.5 0.953125l-12.265625 0q-0.59375 0 -0.84375 -0.234375q-0.25 -0.234375 -0.25 -0.59375q0 -0.359375 0.25 -0.578125q0.25 -0.234375 0.84375 -0.234375l2.203125 0zm1.640625 -11.0625l5.796875 0q1.859375 0 3.40625 -0.671875q1.1875 -0.546875 1.84375 -1.578125q0.671875 -1.046875 0.671875 -2.125q0 -1.53125 -1.453125 -2.828125q-1.4375 -1.3125 -3.765625 -1.3125l-6.5 0l0 8.515625zm0 11.0625l8.296875 0q1.59375 0 2.765625 -0.703125q1.171875 -0.703125 1.765625 -1.734375q0.609375 -1.046875 0.609375 -2.15625q0 -1.25 -0.875 -2.421875q-0.859375 -1.171875 -2.40625 -1.765625q-1.546875 -0.609375 -4.25 -0.609375l-5.90625 0l0 9.390625zm38.23828 -6.421875l-16.71875 0q0.4375 3.171875 2.671875 5.125q2.234375 1.9375 5.53125 1.9375q1.84375 0 3.84375 -0.59375q2.015625 -0.609375 3.296875 -1.609375q0.359375 -0.296875 0.640625 -0.296875q0.3125 0 0.546875 0.25q0.234375 0.234375 0.234375 0.578125q0 0.328125 -0.3125 0.640625q-0.9375 0.96875 -3.328125 1.828125q-2.390625 0.84375 -4.921875 0.84375q-4.21875 0 -7.046875 -2.765625q-2.8125 -2.765625 -2.8125 -6.6875q0 -3.578125 2.640625 -6.125q2.65625 -2.5625 6.5625 -2.5625q4.015625 0 6.609375 2.625q2.609375 2.625 2.5625 6.8125zm-1.65625 -1.671875q-0.484375 -2.703125 -2.5625 -4.40625q-2.078125 -1.703125 -4.953125 -1.703125q-2.875 0 -4.953125 1.6875q-2.0625 1.671875 -2.5625 4.421875l15.03125 0zm11.441406 -0.46875l0 8.5625l3.03125 0q0.609375 0 0.859375 0.234375q0.25 0.21875 0.25 0.578125q0 0.359375 -0.25 0.59375q-0.25 0.234375 -0.859375 0.234375l-6.875 0q-0.578125 0 -0.84375 -0.234375q-0.25 -0.234375 -0.25 -0.59375q0 -0.359375 0.25 -0.578125q0.265625 -0.234375 0.84375 -0.234375l2.203125 0l0 -19.578125l-2.203125 0q-0.578125 0 -0.84375 -0.21875q-0.25 -0.21875 -0.25 -0.59375q0 -0.375 0.25 -0.59375q0.265625 -0.234375 0.84375 -0.234375l9.921875 0q3.0625 0 5.15625 1.953125q2.109375 1.9375 2.109375 4.375q0 1.765625 -1.296875 3.328125q-1.296875 1.546875 -4.34375 2.578125q1.75 1.203125 3.0 2.734375q1.25 1.515625 4.015625 6.25l1.25 0q0.578125 0 0.828125 0.234375q0.265625 0.21875 0.265625 0.578125q0 0.359375 -0.265625 0.59375q-0.25 0.234375 -0.828125 0.234375l-2.1875 0q-3.046875 -5.453125 -4.71875 -7.296875q-1.671875 -1.859375 -3.84375 -2.90625l-5.21875 0zm0 -1.640625l4.484375 0q2.140625 0 3.890625 -0.78125q1.75 -0.78125 2.53125 -1.828125q0.796875 -1.0625 0.796875 -2.15625q0 -1.640625 -1.65625 -3.125q-1.640625 -1.484375 -4.0 -1.484375l-6.046875 0l0 9.375zm38.222656 3.78125l-16.71875 0q0.4375 3.171875 2.671875 5.125q2.234375 1.9375 5.53125 1.9375q1.84375 0 3.84375 -0.59375q2.015625 -0.609375 3.296875 -1.609375q0.359375 -0.296875 0.640625 -0.296875q0.3125 0 0.546875 0.25q0.234375 0.234375 0.234375 0.578125q0 0.328125 -0.3125 0.640625q-0.9375 0.96875 -3.328125 1.828125q-2.390625 0.84375 -4.921875 0.84375q-4.21875 0 -7.046875 -2.765625q-2.8125 -2.765625 -2.8125 -6.6875q0 -3.578125 2.640625 -6.125q2.65625 -2.5625 6.5625 -2.5625q4.015625 0 6.609375 2.625q2.609375 2.625 2.5625 6.8125zm-1.65625 -1.671875q-0.484375 -2.703125 -2.5625 -4.40625q-2.078125 -1.703125 -4.953125 -1.703125q-2.875 0 -4.953125 1.6875q-2.0625 1.671875 -2.5625 4.421875l15.03125 0zm23.144531 -4.1875l0 -3.0l3.84375 0q0.609375 0 0.859375 0.234375q0.265625 0.234375 0.265625 0.609375q0 0.359375 -0.265625 0.59375q-0.25 0.234375 -0.859375 0.234375l-2.1875 0l0 21.15625l2.1875 0q0.609375 0 0.859375 0.21875q0.265625 0.21875 0.265625 0.59375q0 0.359375 -0.265625 0.59375q-0.25 0.234375 -0.859375 0.234375l-7.8125 0q-0.578125 0 -0.84375 -0.234375q-0.25 -0.21875 -0.25 -0.59375q0 -0.375 0.25 -0.59375q0.265625 -0.21875 0.84375 -0.21875l3.96875 0l0 -9.890625q-2.71875 3.578125 -7.125 3.578125q-3.671875 0 -6.203125 -2.515625q-2.53125 -2.515625 -2.53125 -6.046875q0 -3.546875 2.53125 -6.03125q2.53125 -2.5 6.234375 -2.5q4.375 0 7.09375 3.578125zm0 4.953125q0 -2.828125 -2.078125 -4.84375q-2.0625 -2.03125 -5.03125 -2.03125q-2.96875 0 -5.046875 2.03125q-2.0625 2.015625 -2.0625 4.84375q0 2.828125 2.0625 4.859375q2.078125 2.03125 5.046875 2.03125q2.96875 0 5.03125 -2.03125q2.078125 -2.03125 2.078125 -4.859375zm123.75391 -2.421875l-17.734375 9.890625q-0.4375 0.234375 -0.640625 0.234375q-0.34375 0 -0.59375 -0.25q-0.234375 -0.25 -0.234375 -0.578125q0 -0.484375 0.671875 -0.859375l15.1875 -8.4375l-15.171875 -8.4375q-0.671875 -0.375 -0.671875 -0.859375q0 -0.328125 0.25 -0.5625q0.25 -0.25 0.578125 -0.25q0.21875 0 0.640625 0.234375l17.71875 9.875zm24.003906 0l-17.734375 9.890625q-0.4375 0.234375 -0.640625 0.234375q-0.34375 0 -0.59375 -0.25q-0.234375 -0.25 -0.234375 -0.578125q0 -0.484375 0.671875 -0.859375l15.1875 -8.4375l-15.171875 -8.4375q-0.671875 -0.375 -0.671875 -0.859375q0 -0.328125 0.25 -0.5625q0.25 -0.25 0.578125 -0.25q0.21875 0 0.640625 0.234375l17.71875 9.875z" fill-rule="nonzero"></path><path fill="#ff0000" d="m689.688 228.00664q1.78125 1.203125 2.65625 2.796875q0.875 1.59375 0.875 3.5625q0 2.125 -1.171875 3.9375q-1.15625 1.8125 -3.359375 2.75q-2.203125 0.921875 -5.78125 0.921875q-4.640625 0 -6.984375 -1.453125q-1.3125 -0.828125 -1.3125 -1.953125q0 -0.859375 0.578125 -1.453125q0.578125 -0.59375 1.390625 -0.59375q0.5625 0 1.171875 0.390625q0.859375 0.578125 1.625 0.78125q1.171875 0.265625 3.21875 0.265625q3.5 0 5.0625 -0.90625q1.5625 -0.90625 1.5625 -2.5625q0 -1.234375 -0.90625 -2.375q-0.90625 -1.140625 -2.4375 -1.765625q-0.875 -0.359375 -2.96875 -0.5q-1.0 -0.046875 -1.53125 -0.609375q-0.53125 -0.5625 -0.53125 -1.375q0 -0.859375 0.578125 -1.4375q0.59375 -0.59375 1.484375 -0.59375q2.0 0 2.125 -0.015625q0.78125 -0.078125 1.5625 -0.5q0.78125 -0.4375 1.265625 -1.1875q0.484375 -0.765625 0.484375 -1.5625q0 -1.265625 -1.125 -2.1875q-1.125 -0.9375 -3.375 -0.9375q-2.890625 0 -4.40625 1.6875q-0.453125 0.484375 -0.734375 0.625q-0.40625 0.203125 -0.90625 0.203125q-0.828125 0 -1.421875 -0.578125q-0.578125 -0.59375 -0.578125 -1.453125q0 -1.34375 1.796875 -2.609375q2.625 -1.859375 6.546875 -1.859375q3.703125 0 5.953125 2.109375q2.25 2.109375 2.25 5.078125q0 1.546875 -0.671875 2.890625q-0.65625 1.328125 -1.984375 2.46875z" fill-rule="nonzero"></path><path fill="#000000" d="m236.27002 276.89725l0 2.34375l-16.734375 0l0 -2.34375l16.734375 0zm24.003906 0l0 2.34375l-16.734375 0l0 -2.34375l16.734375 0zm56.63672 10.84375l0 -19.578125l-2.203125 0q-0.59375 0 -0.84375 -0.21875q-0.25 -0.21875 -0.25 -0.59375q0 -0.375 0.25 -0.59375q0.25 -0.234375 0.84375 -0.234375l10.3125 0q3.0625 0 4.984375 1.78125q1.921875 1.765625 1.921875 4.140625q0 3.015625 -3.21875 4.859375q2.5625 0.921875 3.75 2.453125q1.1875 1.515625 1.1875 3.359375q0 1.640625 -0.78125 3.0q-0.78125 1.34375 -2.390625 2.3125q-1.609375 0.953125 -3.5 0.953125l-12.265625 0q-0.59375 0 -0.84375 -0.234375q-0.25 -0.234375 -0.25 -0.59375q0 -0.359375 0.25 -0.578125q0.25 -0.234375 0.84375 -0.234375l2.203125 0zm1.640625 -11.0625l5.796875 0q1.859375 0 3.40625 -0.671875q1.1875 -0.546875 1.84375 -1.578125q0.671875 -1.046875 0.671875 -2.125q0 -1.53125 -1.453125 -2.828125q-1.4375 -1.3125 -3.765625 -1.3125l-6.5 0l0 8.515625zm0 11.0625l8.296875 0q1.59375 0 2.765625 -0.703125q1.171875 -0.703125 1.765625 -1.734375q0.609375 -1.046875 0.609375 -2.15625q0 -1.25 -0.875 -2.421875q-0.859375 -1.171875 -2.40625 -1.765625q-1.546875 -0.609375 -4.25 -0.609375l-5.90625 0l0 9.390625zm38.23828 -6.421875l-16.71875 0q0.4375 3.171875 2.671875 5.125q2.234375 1.9375 5.53125 1.9375q1.84375 0 3.84375 -0.59375q2.015625 -0.609375 3.296875 -1.609375q0.359375 -0.296875 0.640625 -0.296875q0.3125 0 0.546875 0.25q0.234375 0.234375 0.234375 0.578125q0 0.328125 -0.3125 0.640625q-0.9375 0.96875 -3.328125 1.828125q-2.390625 0.84375 -4.921875 0.84375q-4.21875 0 -7.046875 -2.765625q-2.8125 -2.765625 -2.8125 -6.6875q0 -3.578125 2.640625 -6.125q2.65625 -2.5625 6.5625 -2.5625q4.015625 0 6.609375 2.625q2.609375 2.625 2.5625 6.8125zm-1.65625 -1.671875q-0.484375 -2.703125 -2.5625 -4.40625q-2.078125 -1.703125 -4.953125 -1.703125q-2.875 0 -4.953125 1.6875q-2.0625 1.671875 -2.5625 4.421875l15.03125 0zm22.300781 -4.171875l0 -3.015625l3.859375 0q0.578125 0 0.828125 0.234375q0.265625 0.234375 0.265625 0.609375q0 0.359375 -0.265625 0.59375q-0.25 0.234375 -0.828125 0.234375l-2.21875 0l0 16.390625q0 1.640625 -0.703125 2.921875q-0.46875 0.859375 -1.5625 1.78125q-1.09375 0.921875 -2.0 1.3125q-0.890625 0.390625 -2.390625 0.390625l-4.640625 0q-0.59375 0 -0.84375 -0.234375q-0.25 -0.21875 -0.25 -0.59375q0 -0.375 0.25 -0.609375q0.25 -0.234375 0.84375 -0.234375l4.703125 0.03125q1.4375 0 2.59375 -0.75q1.171875 -0.734375 1.9375 -2.171875q0.421875 -0.8125 0.421875 -2.078125l0 -4.9375q-2.625 3.625 -6.796875 3.625q-3.375 0 -5.828125 -2.515625q-2.453125 -2.515625 -2.453125 -6.046875q0 -3.53125 2.453125 -6.03125q2.453125 -2.5 5.828125 -2.5q4.171875 0 6.796875 3.59375zm0 4.9375q0 -2.890625 -1.984375 -4.875q-1.96875 -2.0 -4.734375 -2.0q-2.75 0 -4.71875 2.0q-1.96875 2.0 -1.96875 4.875q0 2.890625 1.96875 4.890625q1.96875 2.0 4.71875 2.0q2.765625 0 4.734375 -2.0q1.984375 -2.0 1.984375 -4.890625zm19.300781 -16.359375l0 4.234375l-2.421875 0l0 -4.234375l2.421875 0zm0.0625 8.40625l0 15.28125l6.4375 0q0.609375 0 0.859375 0.234375q0.265625 0.21875 0.265625 0.578125q0 0.359375 -0.265625 0.59375q-0.25 0.234375 -0.859375 0.234375l-14.53125 0q-0.578125 0 -0.84375 -0.234375q-0.25 -0.234375 -0.25 -0.59375q0 -0.359375 0.25 -0.578125q0.265625 -0.234375 0.84375 -0.234375l6.453125 0l0 -13.609375l-4.78125 0q-0.59375 0 -0.859375 -0.234375q-0.265625 -0.234375 -0.265625 -0.59375q0 -0.375 0.25 -0.609375q0.265625 -0.234375 0.875 -0.234375l6.421875 0zm17.832031 0l0 2.484375q1.71875 -1.734375 3.09375 -2.390625q1.390625 -0.671875 3.140625 -0.671875q1.875 0 3.40625 0.796875q1.09375 0.59375 1.984375 1.953125q0.890625 1.34375 0.890625 2.78125l0 10.328125l1.390625 0q0.578125 0 0.828125 0.234375q0.265625 0.21875 0.265625 0.578125q0 0.359375 -0.265625 0.59375q-0.25 0.234375 -0.828125 0.234375l-4.390625 0q-0.609375 0 -0.875 -0.234375q-0.25 -0.234375 -0.25 -0.59375q0 -0.359375 0.25 -0.578125q0.265625 -0.234375 0.875 -0.234375l1.359375 0l0 -10.0625q0 -1.734375 -1.265625 -2.9375q-1.265625 -1.203125 -3.40625 -1.203125q-1.609375 0 -2.8125 0.65625q-1.1875 0.65625 -3.390625 3.25l0 10.296875l1.859375 0q0.578125 0 0.828125 0.234375q0.265625 0.21875 0.265625 0.578125q0 0.359375 -0.265625 0.59375q-0.25 0.234375 -0.828125 0.234375l-5.359375 0q-0.578125 0 -0.84375 -0.234375q-0.25 -0.234375 -0.25 -0.59375q0 -0.359375 0.25 -0.578125q0.265625 -0.234375 0.84375 -0.234375l1.859375 0l0 -13.609375l-1.390625 0q-0.578125 0 -0.84375 -0.234375q-0.25 -0.234375 -0.25 -0.609375q0 -0.359375 0.25 -0.59375q0.265625 -0.234375 0.84375 -0.234375l3.03125 0zm263.16797 -7.59375l0 10.875q2.96875 -3.859375 7.15625 -3.859375q3.59375 0 6.15625 2.609375q2.5625 2.609375 2.5625 6.390625q0 3.828125 -2.59375 6.484375q-2.578125 2.65625 -6.125 2.65625q-4.296875 0 -7.15625 -3.859375l0 3.21875l-3.859375 0q-0.578125 0 -0.84375 -0.234375q-0.25 -0.234375 -0.25 -0.59375q0 -0.359375 0.25 -0.578125q0.265625 -0.234375 0.84375 -0.234375l2.21875 0l0 -21.21875l-2.21875 0q-0.578125 0 -0.84375 -0.234375q-0.25 -0.234375 -0.25 -0.59375q0 -0.359375 0.25 -0.59375q0.265625 -0.234375 0.84375 -0.234375l3.859375 0zm14.234375 16.09375q0 -3.109375 -2.140625 -5.265625q-2.125 -2.15625 -4.96875 -2.15625q-2.859375 0 -4.984375 2.15625q-2.125 2.15625 -2.125 5.265625q0 3.109375 2.125 5.265625q2.125 2.15625 4.984375 2.15625q2.84375 0 4.96875 -2.15625q2.140625 -2.15625 2.140625 -5.265625zm24.816406 0.359375l-16.71875 0q0.4375 3.171875 2.671875 5.125q2.234375 1.9375 5.53125 1.9375q1.84375 0 3.84375 -0.59375q2.015625 -0.609375 3.296875 -1.609375q0.359375 -0.296875 0.640625 -0.296875q0.3125 0 0.546875 0.25q0.234375 0.234375 0.234375 0.578125q0 0.328125 -0.3125 0.640625q-0.9375 0.96875 -3.328125 1.828125q-2.390625 0.84375 -4.921875 0.84375q-4.21875 0 -7.046875 -2.765625q-2.8125 -2.765625 -2.8125 -6.6875q0 -3.578125 2.640625 -6.125q2.65625 -2.5625 6.5625 -2.5625q4.015625 0 6.609375 2.625q2.609375 2.625 2.5625 6.8125zm-1.65625 -1.671875q-0.484375 -2.703125 -2.5625 -4.40625q-2.078125 -1.703125 -4.953125 -1.703125q-2.875 0 -4.953125 1.6875q-2.0625 1.671875 -2.5625 4.421875l15.03125 0zm14.832031 -7.1875l0 4.140625q3.203125 -2.890625 4.78125 -3.71875q1.59375 -0.828125 2.953125 -0.828125q1.453125 0 2.71875 0.984375q1.265625 0.984375 1.265625 1.5q0 0.375 -0.25 0.625q-0.25 0.234375 -0.609375 0.234375q-0.203125 0 -0.34375 -0.0625q-0.125 -0.078125 -0.5 -0.453125q-0.6875 -0.671875 -1.203125 -0.921875q-0.5 -0.265625 -0.984375 -0.265625q-1.078125 0 -2.59375 0.859375q-1.515625 0.859375 -5.234375 4.203125l0 8.984375l7.265625 0q0.59375 0 0.84375 0.234375q0.265625 0.21875 0.265625 0.578125q0 0.359375 -0.265625 0.59375q-0.25 0.234375 -0.84375 0.234375l-12.875 0q-0.59375 0 -0.84375 -0.21875q-0.25 -0.234375 -0.25 -0.578125q0 -0.34375 0.234375 -0.5625q0.25 -0.21875 0.859375 -0.21875l3.96875 0l0 -13.671875l-3.03125 0q-0.59375 0 -0.84375 -0.234375q-0.25 -0.234375 -0.25 -0.609375q0 -0.359375 0.234375 -0.59375q0.25 -0.234375 0.859375 -0.234375l4.671875 0zm34.83203 8.859375l-16.71875 0q0.4375 3.171875 2.671875 5.125q2.234375 1.9375 5.53125 1.9375q1.84375 0 3.84375 -0.59375q2.015625 -0.609375 3.296875 -1.609375q0.359375 -0.296875 0.640625 -0.296875q0.3125 0 0.546875 0.25q0.234375 0.234375 0.234375 0.578125q0 0.328125 -0.3125 0.640625q-0.9375 0.96875 -3.328125 1.828125q-2.390625 0.84375 -4.921875 0.84375q-4.21875 0 -7.046875 -2.765625q-2.8125 -2.765625 -2.8125 -6.6875q0 -3.578125 2.640625 -6.125q2.65625 -2.5625 6.5625 -2.5625q4.015625 0 6.609375 2.625q2.609375 2.625 2.5625 6.8125zm-1.65625 -1.671875q-0.484375 -2.703125 -2.5625 -4.40625q-2.078125 -1.703125 -4.953125 -1.703125q-2.875 0 -4.953125 1.6875q-2.0625 1.671875 -2.5625 4.421875l15.03125 0zm23.144531 -4.1875l0 -3.0l3.84375 0q0.609375 0 0.859375 0.234375q0.265625 0.234375 0.265625 0.609375q0 0.359375 -0.265625 0.59375q-0.25 0.234375 -0.859375 0.234375l-2.1875 0l0 21.15625l2.1875 0q0.609375 0 0.859375 0.21875q0.265625 0.21875 0.265625 0.59375q0 0.359375 -0.265625 0.59375q-0.25 0.234375 -0.859375 0.234375l-7.8125 0q-0.578125 0 -0.84375 -0.234375q-0.25 -0.21875 -0.25 -0.59375q0 -0.375 0.25 -0.59375q0.265625 -0.21875 0.84375 -0.21875l3.96875 0l0 -9.890625q-2.71875 3.578125 -7.125 3.578125q-3.671875 0 -6.203125 -2.515625q-2.53125 -2.515625 -2.53125 -6.046875q0 -3.546875 2.53125 -6.03125q2.53125 -2.5 6.234375 -2.5q4.375 0 7.09375 3.578125zm0 4.953125q0 -2.828125 -2.078125 -4.84375q-2.0625 -2.03125 -5.03125 -2.03125q-2.96875 0 -5.046875 2.03125q-2.0625 2.015625 -2.0625 4.84375q0 2.828125 2.0625 4.859375q2.078125 2.03125 5.046875 2.03125q2.96875 0 5.03125 -2.03125q2.078125 -2.03125 2.078125 -4.859375z" fill-rule="nonzero"></path><path fill="#9900ff" d="m824.2583 285.38162l8.765625 0q0.71875 -0.59375 1.375 -0.59375q0.90625 0 1.4375 0.609375q0.546875 0.609375 0.546875 2.0625l0 1.921875l-18.234375 0l0 -4.234375q10.8125 -8.9375 13.0625 -11.484375q1.125 -1.3125 1.125 -2.484375q0 -1.46875 -1.28125 -2.59375q-1.265625 -1.125 -3.40625 -1.125q-2.140625 0 -3.5625 1.25q-0.75 0.671875 -1.203125 1.984375q-0.265625 0.8125 -0.75 1.171875q-0.46875 0.34375 -1.171875 0.34375q-0.828125 0 -1.421875 -0.578125q-0.59375 -0.59375 -0.59375 -1.375q0 -1.171875 1.078125 -2.921875q1.09375 -1.765625 3.171875 -2.8125q2.078125 -1.0625 4.515625 -1.0625q3.796875 0 6.21875 2.296875q2.421875 2.296875 2.421875 5.5625q0 1.65625 -0.703125 3.078125q-0.6875 1.40625 -3.328125 3.90625q-2.0625 1.96875 -8.0625 7.078125z" fill-rule="nonzero"></path><path fill="#000000" d="m874.92236 274.13162l0 13.609375l7.203125 0q0.59375 0 0.84375 0.234375q0.25 0.21875 0.25 0.578125q0 0.359375 -0.25 0.59375q-0.25 0.234375 -0.84375 0.234375l-12.828125 0q-0.59375 0 -0.84375 -0.234375q-0.25 -0.234375 -0.25 -0.59375q0 -0.359375 0.25 -0.578125q0.25 -0.234375 0.84375 -0.234375l3.96875 0l0 -13.609375l-3.5625 0q-0.578125 0 -0.84375 -0.234375q-0.25 -0.234375 -0.25 -0.609375q0 -0.359375 0.25 -0.59375q0.265625 -0.234375 0.84375 -0.234375l3.5625 0l0 -2.46875q0 -2.078125 1.671875 -3.59375q1.6875 -1.53125 4.453125 -1.53125q2.328125 0 4.96875 0.4375q0.984375 0.15625 1.1875 0.375q0.21875 0.203125 0.21875 0.5625q0 0.34375 -0.234375 0.578125q-0.234375 0.21875 -0.625 0.21875q-0.15625 0 -0.53125 -0.0625q-2.953125 -0.453125 -4.984375 -0.453125q-2.140625 0 -3.3125 1.0625q-1.15625 1.046875 -1.15625 2.40625l0 2.46875l7.671875 0q0.59375 0 0.84375 0.234375q0.25 0.234375 0.25 0.609375q0 0.359375 -0.25 0.59375q-0.25 0.234375 -0.84375 0.234375l-7.671875 0zm33.95703 7.1875l-16.71875 0q0.4375 3.171875 2.671875 5.125q2.234375 1.9375 5.53125 1.9375q1.84375 0 3.84375 -0.59375q2.015625 -0.609375 3.296875 -1.609375q0.359375 -0.296875 0.640625 -0.296875q0.3125 0 0.546875 0.25q0.234375 0.234375 0.234375 0.578125q0 0.328125 -0.3125 0.640625q-0.9375 0.96875 -3.328125 1.828125q-2.390625 0.84375 -4.921875 0.84375q-4.21875 0 -7.046875 -2.765625q-2.8125 -2.765625 -2.8125 -6.6875q0 -3.578125 2.640625 -6.125q2.65625 -2.5625 6.5625 -2.5625q4.015625 0 6.609375 2.625q2.609375 2.625 2.5625 6.8125zm-1.65625 -1.671875q-0.484375 -2.703125 -2.5625 -4.40625q-2.078125 -1.703125 -4.953125 -1.703125q-2.875 0 -4.953125 1.6875q-2.0625 1.671875 -2.5625 4.421875l15.03125 0zm13.425781 -7.1875l8.90625 0q0.578125 0 0.828125 0.234375q0.265625 0.234375 0.265625 0.609375q0 0.359375 -0.265625 0.59375q-0.25 0.234375 -0.828125 0.234375l-8.90625 0l0 10.90625q0 1.4375 1.140625 2.390625q1.140625 0.953125 3.34375 0.953125q1.65625 0 3.59375 -0.5q1.9375 -0.5 3.015625 -1.125q0.390625 -0.25 0.640625 -0.25q0.3125 0 0.546875 0.25q0.234375 0.234375 0.234375 0.578125q0 0.28125 -0.25 0.546875q-0.625 0.640625 -3.046875 1.390625q-2.40625 0.75 -4.609375 0.75q-2.875 0 -4.578125 -1.34375q-1.703125 -1.34375 -1.703125 -3.640625l0 -10.90625l-3.015625 0q-0.59375 0 -0.84375 -0.234375q-0.25 -0.234375 -0.25 -0.609375q0 -0.359375 0.25 -0.59375q0.25 -0.234375 0.84375 -0.234375l3.015625 0l0 -4.84375q0 -0.578125 0.234375 -0.828125q0.234375 -0.265625 0.59375 -0.265625q0.375 0 0.609375 0.265625q0.234375 0.25 0.234375 0.828125l0 4.84375zm34.20703 1.671875l0 -0.546875q0 -0.609375 0.234375 -0.859375q0.234375 -0.265625 0.59375 -0.265625q0.375 0 0.609375 0.265625q0.234375 0.25 0.234375 0.859375l0 3.703125q-0.03125 0.609375 -0.25 0.859375q-0.21875 0.25 -0.59375 0.25q-0.328125 0 -0.5625 -0.21875q-0.21875 -0.21875 -0.265625 -0.75q-0.109375 -1.390625 -1.828125 -2.640625q-1.703125 -1.25 -4.59375 -1.25q-3.65625 0 -5.546875 2.296875q-1.890625 2.28125 -1.890625 5.21875q0 3.1875 2.078125 5.265625q2.09375 2.0625 5.421875 2.0625q1.90625 0 3.890625 -0.703125q1.984375 -0.703125 3.59375 -2.265625q0.40625 -0.390625 0.71875 -0.390625q0.328125 0 0.546875 0.234375q0.234375 0.21875 0.234375 0.546875q0 0.84375 -1.96875 2.125q-3.1875 2.09375 -7.09375 2.09375q-3.96875 0 -6.515625 -2.53125q-2.546875 -2.53125 -2.546875 -6.40625q0 -3.96875 2.609375 -6.578125q2.609375 -2.625 6.5625 -2.625q3.78125 0 6.328125 2.25zm11.769531 -9.265625l0 10.09375q1.5625 -1.6875 2.984375 -2.375q1.4375 -0.703125 3.21875 -0.703125q1.921875 0 3.25 0.671875q1.34375 0.671875 2.234375 2.078125q0.90625 1.390625 0.90625 2.9375l0 10.171875l1.828125 0q0.609375 0 0.84375 0.234375q0.25 0.21875 0.25 0.578125q0 0.359375 -0.25 0.59375q-0.234375 0.234375 -0.84375 0.234375l-5.328125 0q-0.609375 0 -0.859375 -0.234375q-0.25 -0.234375 -0.25 -0.59375q0 -0.359375 0.25 -0.578125q0.25 -0.234375 0.859375 -0.234375l1.84375 0l0 -10.0625q0 -1.78125 -1.28125 -2.96875q-1.28125 -1.1875 -3.5625 -1.1875q-1.796875 0 -3.078125 0.875q-0.90625 0.625 -3.015625 2.953125l0 10.390625l1.84375 0q0.59375 0 0.84375 0.234375q0.25 0.21875 0.25 0.578125q0 0.359375 -0.25 0.59375q-0.25 0.234375 -0.84375 0.234375l-5.34375 0q-0.59375 0 -0.84375 -0.234375q-0.25 -0.234375 -0.25 -0.59375q0 -0.359375 0.25 -0.578125q0.25 -0.234375 0.84375 -0.234375l1.859375 0l0 -21.21875l-2.21875 0q-0.578125 0 -0.84375 -0.234375q-0.25 -0.234375 -0.25 -0.59375q0 -0.359375 0.25 -0.59375q0.265625 -0.234375 0.84375 -0.234375l3.859375 0z" fill-rule="nonzero"></path><path fill="#000000" fill-opacity="0.0" d="m208.50394 34.445477l-67.68504 0" fill-rule="nonzero"></path><path stroke="#000000" stroke-width="3.0" stroke-linejoin="round" stroke-linecap="butt" d="m208.50394 34.445473l-49.685043 0" fill-rule="evenodd"></path><path fill="#000000" stroke="#000000" stroke-width="3.0" stroke-linecap="butt" d="m158.8189 29.490276l-13.614288 4.9551964l13.614288 4.9552z" fill-rule="evenodd"></path><path fill="#000000" fill-opacity="0.0" d="m-4.4199476 1.3693596l177.25984 0l0 70.614174l-177.25984 0z" fill-rule="nonzero"></path><path fill="#000000" d="m7.5175524 48.769356l0 -28.640623l3.78125 0l0 25.265623l14.109376 0l0 3.375l-17.890625 0zm36.152344 -6.6875l3.625 0.453125q-0.859375 3.1875 -3.1875 4.953125q-2.3125 1.75 -5.9375 1.75q-4.546875 0 -7.218748 -2.796875q-2.65625 -2.8125 -2.65625 -7.875q0 -5.234375 2.6875 -8.124998q2.703123 -2.890625 6.999998 -2.890625q4.15625 0 6.796875 2.84375q2.640625 2.828123 2.640625 7.968748q0 0.3125 -0.03125 0.9375l-15.468748 0q0.2031231 3.40625 1.9374981 5.234375q1.734375 1.8125 4.34375 1.8125q1.921875 0 3.28125 -1.015625q1.375 -1.015625 2.1875 -3.25zm-11.546875 -5.671875l11.578125 0q-0.234375 -2.625 -1.328125 -3.9375q-1.671875 -2.031248 -4.359375 -2.031248q-2.421875 0 -4.078125 1.6249981q-1.640625 1.625 -1.8125 4.34375zm25.355469 12.359375l-7.890625 -20.749998l3.703125 0l4.453125 12.421873q0.71875 2.015625 1.328125 4.1875q0.46875 -1.640625 1.3125 -3.953125l4.609379 -12.656248l3.609375 0l-7.843754 20.749998l-3.28125 0zm28.437504 -6.6875l3.625 0.453125q-0.859375 3.1875 -3.1875 4.953125q-2.3125 1.75 -5.9375 1.75q-4.546875 0 -7.21875 -2.796875q-2.65625 -2.8125 -2.65625 -7.875q0 -5.234375 2.6875 -8.124998q2.703125 -2.890625 7.0 -2.890625q4.15625 0 6.796875 2.84375q2.640625 2.828123 2.640625 7.968748q0 0.3125 -0.03125 0.9375l-15.46875 0q0.203125 3.40625 1.9375 5.234375q1.734375 1.8125 4.34375 1.8125q1.921875 0 3.28125 -1.015625q1.375 -1.015625 2.1875 -3.25zm-11.546875 -5.671875l11.578125 0q-0.234375 -2.625 -1.328125 -3.9375q-1.671875 -2.031248 -4.359375 -2.031248q-2.421875 0 -4.078125 1.6249981q-1.640625 1.625 -1.8125 4.34375zm19.511719 12.359375l0 -28.640623l3.515625 0l0 28.640623l-3.515625 0zm32.34375 0l-3.515625 0l0 -22.406248q-1.265625 1.21875 -3.328125 2.4375q-2.0625 1.203125 -3.703125 1.796875l0 -3.390625q2.953125 -1.390625 5.15625 -3.359375q2.203125 -1.96875 3.125 -3.828125l2.265625 0l0 28.749998z" fill-rule="nonzero"></path><path fill="#000000" fill-opacity="0.0" d="m208.50394 226.98883l-67.68504 0" fill-rule="nonzero"></path><path stroke="#000000" stroke-width="3.0" stroke-linejoin="round" stroke-linecap="butt" d="m208.50394 226.98885l-49.685043 0" fill-rule="evenodd"></path><path fill="#000000" stroke="#000000" stroke-width="3.0" stroke-linecap="butt" d="m158.8189 222.03365l-13.614288 4.9552l13.614288 4.9552z" fill-rule="evenodd"></path><path fill="#000000" fill-opacity="0.0" d="m-4.4199476 191.68277l177.25984 0l0 70.61417l-177.25984 0z" fill-rule="nonzero"></path><path fill="#000000" d="m7.5175524 239.08278l0 -28.640625l3.78125 0l0 25.265625l14.109376 0l0 3.375l-17.890625 0zm36.152344 -6.6875l3.625 0.453125q-0.859375 3.1875 -3.1875 4.953125q-2.3125 1.75 -5.9375 1.75q-4.546875 0 -7.218748 -2.796875q-2.65625 -2.8125 -2.65625 -7.875q0 -5.234375 2.6875 -8.125q2.703123 -2.890625 6.999998 -2.890625q4.15625 0 6.796875 2.84375q2.640625 2.828125 2.640625 7.96875q0 0.3125 -0.03125 0.9375l-15.468748 0q0.2031231 3.40625 1.9374981 5.234375q1.734375 1.8125 4.34375 1.8125q1.921875 0 3.28125 -1.015625q1.375 -1.015625 2.1875 -3.25zm-11.546875 -5.671875l11.578125 0q-0.234375 -2.625 -1.328125 -3.9375q-1.671875 -2.03125 -4.359375 -2.03125q-2.421875 0 -4.078125 1.625q-1.640625 1.625 -1.8125 4.34375zm25.355469 12.359375l-7.890625 -20.75l3.703125 0l4.453125 12.421875q0.71875 2.015625 1.328125 4.1875q0.46875 -1.640625 1.3125 -3.953125l4.609379 -12.65625l3.609375 0l-7.843754 20.75l-3.28125 0zm28.437504 -6.6875l3.625 0.453125q-0.859375 3.1875 -3.1875 4.953125q-2.3125 1.75 -5.9375 1.75q-4.546875 0 -7.21875 -2.796875q-2.65625 -2.8125 -2.65625 -7.875q0 -5.234375 2.6875 -8.125q2.703125 -2.890625 7.0 -2.890625q4.15625 0 6.796875 2.84375q2.640625 2.828125 2.640625 7.96875q0 0.3125 -0.03125 0.9375l-15.46875 0q0.203125 3.40625 1.9375 5.234375q1.734375 1.8125 4.34375 1.8125q1.921875 0 3.28125 -1.015625q1.375 -1.015625 2.1875 -3.25zm-11.546875 -5.671875l11.578125 0q-0.234375 -2.625 -1.328125 -3.9375q-1.671875 -2.03125 -4.359375 -2.03125q-2.421875 0 -4.078125 1.625q-1.640625 1.625 -1.8125 4.34375zm19.511719 12.359375l0 -28.640625l3.515625 0l0 28.640625l-3.515625 0zm37.578117 -3.375l0 3.375l-18.921867 0q-0.046875 -1.265625 0.40625 -2.4375q0.71875 -1.9375 2.3125 -3.8125q1.59375 -1.875 4.59375 -4.34375q4.671875 -3.828125 6.3125 -6.0625q1.640625 -2.234375 1.640625 -4.21875q0 -2.09375 -1.5 -3.53125q-1.484375 -1.4375 -3.890625 -1.4375q-2.53125 0 -4.0625 1.53125q-1.515625 1.515625 -1.546875 4.21875l-3.609375 -0.375q0.375 -4.046875 2.796875 -6.15625q2.421875 -2.125 6.5 -2.125q4.125 0 6.5156174 2.28125q2.40625 2.28125 2.40625 5.671875q0 1.71875 -0.703125 3.375q-0.703125 1.65625 -2.328125 3.5q-1.6249924 1.828125 -5.4218674 5.03125q-3.15625 2.65625 -4.0625 3.609375q-0.890625 0.9375 -1.484375 1.90625l14.046867 0z" fill-rule="nonzero"></path></g></svg>

