<?xml version="1.0" encoding="UTF-8" standalone="no"?>
<!DOCTYPE svg PUBLIC "-//W3C//DTD SVG 1.1//EN"
 "http://www.w3.org/Graphics/SVG/1.1/DTD/svg11.dtd">
<!-- Generated by graphviz version 2.43.0 (0)
 -->
<!-- Title: cache_fetch Pages: 1 -->
<svg width="964pt" height="723pt"
 viewBox="36.00 36.00 928.00 686.74" xmlns="http://www.w3.org/2000/svg" xmlns:xlink="http://www.w3.org/1999/xlink">
<g id="graph0" class="graph" transform="scale(1 1) rotate(0) translate(40 682.74)">
<title>cache_fetch</title>
<polygon fill="white" stroke="transparent" points="-4,4 -4,-646.74 888,-646.74 888,4 -4,4"/>
<g id="clust1" class="cluster">
<title>cluster_backend</title>
<polygon fill="aliceblue" stroke="aliceblue" points="8,-8 8,-634.74 876,-634.74 876,-8 8,-8"/>
</g>
<!-- RETRY -->
<g id="node1" class="node">
<title>RETRY</title>
<text text-anchor="middle" x="455" y="-613.04" font-family="Times,serif" font-size="14.00">RETRY</text>
</g>
<!-- v_b_f -->
<g id="node4" class="node">
<title>v_b_f</title>
<polygon fill="none" stroke="black" points="205.5,-492.24 205.5,-561.24 438.5,-561.24 438.5,-492.24 205.5,-492.24"/>
<text text-anchor="middle" x="322" y="-546.04" font-family="Times,serif" font-size="14.00">vbf_stp_startfetch:</text>
<polyline fill="none" stroke="black" points="205.5,-538.24 438.5,-538.24 "/>
<text text-anchor="middle" x="287.5" y="-523.04" font-family="Times,serif" font-size="14.00">vcl_backend_fetch{}</text>
<polyline fill="none" stroke="black" points="369.5,-515.24 369.5,-538.24 "/>
<text text-anchor="middle" x="404" y="-523.04" font-family="Times,serif" font-size="14.00">bereq.*</text>
<polyline fill="none" stroke="black" points="205.5,-515.24 438.5,-515.24 "/>
<text text-anchor="middle" x="269.5" y="-500.04" font-family="Times,serif" font-size="14.00">abandon</text>
<polyline fill="none" stroke="black" points="333.5,-492.24 333.5,-515.24 "/>
<text text-anchor="middle" x="386" y="-500.04" font-family="Times,serif" font-size="14.00">fetch</text>
</g>
<!-- RETRY&#45;&gt;v_b_f -->
<g id="edge4" class="edge">
<title>RETRY&#45;&gt;v_b_f</title>
<path fill="none" stroke="purple" d="M429.04,-598.56C415.39,-589.53 398.06,-578.07 381.34,-567"/>
<polygon fill="purple" stroke="purple" points="382.95,-563.87 372.68,-561.27 379.08,-569.71 382.95,-563.87"/>
</g>
<!-- v_b_f_BGFETCH -->
<g id="node2" class="node">
<title>v_b_f_BGFETCH</title>
<polygon fill="turquoise" stroke="turquoise" points="404,-634.74 314,-634.74 314,-598.74 404,-598.74 404,-634.74"/>
<text text-anchor="middle" x="359" y="-613.04" font-family="Times,serif" font-size="14.00">BGFETCH</text>
</g>
<!-- v_b_f_BGFETCH&#45;&gt;v_b_f -->
<g id="edge1" class="edge">
<title>v_b_f_BGFETCH&#45;&gt;v_b_f</title>
<path fill="none" stroke="green" stroke-width="2" d="M351.69,-598.35C348.34,-590.38 344.2,-580.54 340.09,-570.77"/>
<polygon fill="green" stroke="green" stroke-width="2" points="343.29,-569.34 336.19,-561.48 336.84,-572.06 343.29,-569.34"/>
</g>
<!-- v_b_f_FETCH -->
<g id="node3" class="node">
<title>v_b_f_FETCH</title>
<polygon fill="turquoise" stroke="turquoise" points="296,-634.74 228,-634.74 228,-598.74 296,-598.74 296,-634.74"/>
<text text-anchor="middle" x="262" y="-613.04" font-family="Times,serif" font-size="14.00">FETCH</text>
</g>
<!-- v_b_f_FETCH&#45;&gt;v_b_f -->
<g id="edge2" class="edge">
<title>v_b_f_FETCH&#45;&gt;v_b_f</title>
<path fill="none" stroke="blue" stroke-width="2" d="M268.35,-598.35C273.07,-590.14 279.61,-579.93 286.53,-569.86"/>
<polygon fill="blue" stroke="blue" stroke-width="2" points="289.54,-571.68 292.41,-561.48 283.8,-567.66 289.54,-571.68"/>
</g>
<!-- v_b_f_FETCH&#45;&gt;v_b_f -->
<g id="edge3" class="edge">
<title>v_b_f_FETCH&#45;&gt;v_b_f</title>
<path fill="none" stroke="red" stroke-width="2" d="M279.36,-598.35C285.85,-590.14 293.22,-579.93 300.02,-569.86"/>
<polygon fill="red" stroke="red" stroke-width="2" points="302.97,-571.75 305.58,-561.48 297.14,-567.88 302.97,-571.75"/>
</g>
<!-- v_b_hdrs -->
<g id="node5" class="node">
<title>v_b_hdrs</title>
<ellipse fill="none" stroke="black" cx="386" cy="-427.87" rx="123.07" ry="26.74"/>
<text text-anchor="middle" x="386" y="-431.67" font-family="Times,serif" font-size="14.00">send bereq,</text>
<text text-anchor="middle" x="386" y="-416.67" font-family="Times,serif" font-size="14.00">read beresp (headers)</text>
</g>
<!-- v_b_f&#45;&gt;v_b_hdrs -->
<g id="edge5" class="edge">
<title>v_b_f:s&#45;&gt;v_b_hdrs</title>
<path fill="none" stroke="black" stroke-width="2" d="M386,-491.74C386,-483.13 386,-473.85 386,-465.14"/>
<polygon fill="black" stroke="black" stroke-width="2" points="389.5,-464.87 386,-454.87 382.5,-464.87 389.5,-464.87"/>
</g>
<!-- v_b_r -->
<g id="node6" class="node">
<title>v_b_r</title>
<polygon fill="none" stroke="black" points="392.5,-248.5 392.5,-363.5 677.5,-363.5 677.5,-248.5 392.5,-248.5"/>
<text text-anchor="middle" x="535" y="-348.3" font-family="Times,serif" font-size="14.00">vbf_stp_startfetch:</text>
<polyline fill="none" stroke="black" points="392.5,-340.5 677.5,-340.5 "/>
<text text-anchor="middle" x="492.5" y="-313.8" font-family="Times,serif" font-size="14.00">vcl_backend_response{}</text>
<polyline fill="none" stroke="black" points="592.5,-294.5 592.5,-340.5 "/>
<text text-anchor="middle" x="635" y="-325.3" font-family="Times,serif" font-size="14.00">bereq.*</text>
<polyline fill="none" stroke="black" points="592.5,-317.5 677.5,-317.5 "/>
<text text-anchor="middle" x="635" y="-302.3" font-family="Times,serif" font-size="14.00">beresp.*</text>
<polyline fill="none" stroke="black" points="392.5,-294.5 677.5,-294.5 "/>
<text text-anchor="middle" x="440" y="-279.3" font-family="Times,serif" font-size="14.00">retry</text>
<polyline fill="none" stroke="black" points="392.5,-271.5 487.5,-271.5 "/>
<text text-anchor="middle" x="419.5" y="-256.3" font-family="Times,serif" font-size="14.00">max?</text>
<polyline fill="none" stroke="black" points="446.5,-248.5 446.5,-271.5 "/>
<text text-anchor="middle" x="467" y="-256.3" font-family="Times,serif" font-size="14.00">ok?</text>
<polyline fill="none" stroke="black" points="487.5,-248.5 487.5,-294.5 "/>
<text text-anchor="middle" x="526" y="-267.8" font-family="Times,serif" font-size="14.00">abandon</text>
<polyline fill="none" stroke="black" points="564.5,-248.5 564.5,-294.5 "/>
<text text-anchor="middle" x="621" y="-279.3" font-family="Times,serif" font-size="14.00">deliver</text>
<polyline fill="none" stroke="black" points="564.5,-271.5 677.5,-271.5 "/>
<text text-anchor="middle" x="590" y="-256.3" font-family="Times,serif" font-size="14.00">304?</text>
<polyline fill="none" stroke="black" points="615.5,-248.5 615.5,-271.5 "/>
<text text-anchor="middle" x="646.5" y="-256.3" font-family="Times,serif" font-size="14.00">other?</text>
</g>
<!-- v_b_hdrs&#45;&gt;v_b_r -->
<g id="edge6" class="edge">
<title>v_b_hdrs&#45;&gt;v_b_r</title>
<path fill="none" stroke="black" stroke-width="2" d="M417.24,-401.74C428.79,-392.44 442.47,-381.44 456.35,-370.28"/>
<polygon fill="black" stroke="black" stroke-width="2" points="458.93,-372.69 464.52,-363.7 454.54,-367.24 458.93,-372.69"/>
</g>
<!-- v_b_e -->
<g id="node7" class="node">
<title>v_b_e</title>
<polygon fill="none" stroke="black" points="175.5,-95.5 175.5,-210.5 416.5,-210.5 416.5,-95.5 175.5,-95.5"/>
<text text-anchor="middle" x="296" y="-195.3" font-family="Times,serif" font-size="14.00">vbf_stp_error:</text>
<polyline fill="none" stroke="black" points="175.5,-187.5 416.5,-187.5 "/>
<text text-anchor="middle" x="257.5" y="-160.8" font-family="Times,serif" font-size="14.00">vcl_backend_error{}</text>
<polyline fill="none" stroke="black" points="339.5,-141.5 339.5,-187.5 "/>
<text text-anchor="middle" x="378" y="-172.3" font-family="Times,serif" font-size="14.00">bereq.*</text>
<polyline fill="none" stroke="black" points="339.5,-164.5 416.5,-164.5 "/>
<text text-anchor="middle" x="378" y="-149.3" font-family="Times,serif" font-size="14.00">beresp.*</text>
<polyline fill="none" stroke="black" points="175.5,-141.5 416.5,-141.5 "/>
<text text-anchor="middle" x="243" y="-126.3" font-family="Times,serif" font-size="14.00">retry</text>
<polyline fill="none" stroke="black" points="175.5,-118.5 310.5,-118.5 "/>
<text text-anchor="middle" x="212.5" y="-103.3" font-family="Times,serif" font-size="14.00">max?</text>
<polyline fill="none" stroke="black" points="249.5,-95.5 249.5,-118.5 "/>
<text text-anchor="middle" x="280" y="-103.3" font-family="Times,serif" font-size="14.00">ok?</text>
<polyline fill="none" stroke="black" points="310.5,-95.5 310.5,-141.5 "/>
<text text-anchor="middle" x="363.5" y="-114.8" font-family="Times,serif" font-size="14.00">deliver</text>
</g>
<!-- v_b_hdrs&#45;&gt;v_b_e -->
<g id="edge7" class="edge">
<title>v_b_hdrs&#45;&gt;v_b_e</title>
<path fill="none" stroke="black" d="M377.37,-400.71C363.79,-359.54 337.01,-278.35 317.89,-220.36"/>
<polygon fill="black" stroke="black" points="321.1,-218.94 314.65,-210.53 314.46,-221.13 321.1,-218.94"/>
</g>
<!-- v_b_r&#45;&gt;v_b_e -->
<g id="edge9" class="edge">
<title>v_b_r:max&#45;&gt;v_b_e</title>
<path fill="none" stroke="black" d="M391,-260C377.52,-260 358.26,-240.74 340.61,-218.63"/>
<polygon fill="black" stroke="black" points="343.35,-216.46 334.45,-210.72 337.83,-220.76 343.35,-216.46"/>
</g>
<!-- v_b_r_retry -->
<g id="node8" class="node">
<title>v_b_r_retry</title>
<text text-anchor="middle" x="467" y="-149.3" font-family="Times,serif" font-size="14.00">RETRY</text>
</g>
<!-- v_b_r&#45;&gt;v_b_r_retry -->
<g id="edge8" class="edge">
<title>v_b_r:retry&#45;&gt;v_b_r_retry</title>
<path fill="none" stroke="purple" d="M467,-248C467,-225.63 467,-200.26 467,-181.52"/>
<polygon fill="purple" stroke="purple" points="470.5,-181.32 467,-171.32 463.5,-181.33 470.5,-181.32"/>
</g>
<!-- vbf_stp_condfetch -->
<g id="node9" class="node">
<title>vbf_stp_condfetch</title>
<polygon fill="none" stroke="grey" points="517.5,-107 517.5,-199 666.5,-199 666.5,-107 517.5,-107"/>
<text text-anchor="middle" x="592" y="-183.8" font-family="Times,serif" font-size="14.00" fill="grey">vbf_stp_condfetch:</text>
<polyline fill="none" stroke="grey" points="517.5,-176 666.5,-176 "/>
<text text-anchor="middle" x="592" y="-160.8" font-family="Times,serif" font-size="14.00" fill="grey">copy obj attr</text>
<polyline fill="none" stroke="grey" points="517.5,-153 666.5,-153 "/>
<text text-anchor="middle" x="592" y="-137.8" font-family="Times,serif" font-size="14.00" fill="grey">steal body</text>
<polyline fill="none" stroke="grey" points="517.5,-130 666.5,-130 "/>
<text text-anchor="middle" x="566.5" y="-114.8" font-family="Times,serif" font-size="14.00" fill="grey">fetch_fail?</text>
<polyline fill="none" stroke="grey" points="615.5,-107 615.5,-130 "/>
<text text-anchor="middle" x="641" y="-114.8" font-family="Times,serif" font-size="14.00" fill="grey">ok?</text>
</g>
<!-- v_b_r&#45;&gt;vbf_stp_condfetch -->
<g id="edge10" class="edge">
<title>v_b_r:s&#45;&gt;vbf_stp_condfetch</title>
<path fill="none" stroke="black" d="M590,-248C590,-235.63 590.18,-222.35 590.42,-209.77"/>
<polygon fill="black" stroke="black" points="593.93,-209.49 590.64,-199.42 586.93,-209.34 593.93,-209.49"/>
</g>
<!-- vbf_stp_fetch -->
<g id="node10" class="node">
<title>vbf_stp_fetch</title>
<polygon fill="none" stroke="grey" points="684.5,-107 684.5,-199 875.5,-199 875.5,-107 684.5,-107"/>
<text text-anchor="middle" x="780" y="-183.8" font-family="Times,serif" font-size="14.00" fill="grey">vbf_stp_fetch:</text>
<polyline fill="none" stroke="grey" points="684.5,-176 875.5,-176 "/>
<text text-anchor="middle" x="780" y="-160.8" font-family="Times,serif" font-size="14.00" fill="grey">setup VFPs</text>
<polyline fill="none" stroke="grey" points="684.5,-153 875.5,-153 "/>
<text text-anchor="middle" x="780" y="-137.8" font-family="Times,serif" font-size="14.00" fill="grey">fetch</text>
<polyline fill="none" stroke="grey" points="684.5,-130 875.5,-130 "/>
<text text-anchor="middle" x="729" y="-114.8" font-family="Times,serif" font-size="14.00" fill="grey">fetch_fail?</text>
<polyline fill="none" stroke="grey" points="773.5,-107 773.5,-130 "/>
<text text-anchor="middle" x="804" y="-114.8" font-family="Times,serif" font-size="14.00" fill="grey">error?</text>
<polyline fill="none" stroke="grey" points="834.5,-107 834.5,-130 "/>
<text text-anchor="middle" x="855" y="-114.8" font-family="Times,serif" font-size="14.00" fill="grey">ok?</text>
</g>
<!-- v_b_r&#45;&gt;vbf_stp_fetch -->
<g id="edge11" class="edge">
<title>v_b_r:s&#45;&gt;vbf_stp_fetch</title>
<path fill="none" stroke="black" d="M647,-248C647,-235.15 663.76,-219.58 685.39,-204.83"/>
<polygon fill="black" stroke="black" points="687.47,-207.65 693.89,-199.23 683.62,-201.81 687.47,-207.65"/>
</g>
<!-- FETCH_DONE -->
<g id="node11" class="node">
<title>FETCH_DONE</title>
<polygon fill="turquoise" stroke="turquoise" points="701,-44 581,-44 581,-8 701,-8 701,-44"/>
<text text-anchor="middle" x="641" y="-22.3" font-family="Times,serif" font-size="14.00">FETCH_DONE</text>
</g>
<!-- v_b_e&#45;&gt;FETCH_DONE -->
<g id="edge15" class="edge">
<title>v_b_e:deliver&#45;&gt;FETCH_DONE</title>
<path fill="none" stroke="black" d="M418,-118C428.82,-118 418.37,-102.68 426,-95 456.92,-63.89 477.23,-75.39 519,-62 535.75,-56.63 553.92,-51.21 570.99,-46.28"/>
<polygon fill="black" stroke="black" points="572.25,-49.57 580.9,-43.45 570.32,-42.84 572.25,-49.57"/>
<text text-anchor="middle" x="578" y="-65.8" font-family="Times,serif" font-size="14.00">&quot;backend synth&quot;</text>
</g>
<!-- FETCH_FAIL -->
<g id="node13" class="node">
<title>FETCH_FAIL</title>
<polygon fill="turquoise" stroke="turquoise" points="172.5,-44 65.5,-44 65.5,-8 172.5,-8 172.5,-44"/>
<text text-anchor="middle" x="119" y="-22.3" font-family="Times,serif" font-size="14.00">FETCH_FAIL</text>
</g>
<!-- v_b_e&#45;&gt;FETCH_FAIL -->
<g id="edge17" class="edge">
<title>v_b_e:s&#45;&gt;FETCH_FAIL</title>
<path fill="none" stroke="black" d="M212,-95C212,-74.55 197.16,-59.58 179.33,-48.99"/>
<polygon fill="black" stroke="black" points="180.85,-45.83 170.4,-44.13 177.51,-51.98 180.85,-45.83"/>
</g>
<!-- v_b_e_retry -->
<g id="node14" class="node">
<title>v_b_e_retry</title>
<text text-anchor="middle" x="280" y="-22.3" font-family="Times,serif" font-size="14.00">RETRY</text>
</g>
<!-- v_b_e&#45;&gt;v_b_e_retry -->
<g id="edge16" class="edge">
<title>v_b_e:retry&#45;&gt;v_b_e_retry</title>
<path fill="none" stroke="purple" d="M280,-95C280,-81.58 280,-66.66 280,-54.23"/>
<polygon fill="purple" stroke="purple" points="283.5,-54.05 280,-44.05 276.5,-54.05 283.5,-54.05"/>
</g>
<!-- vbf_stp_condfetch&#45;&gt;FETCH_DONE -->
<g id="edge13" class="edge">
<title>vbf_stp_condfetch:s&#45;&gt;FETCH_DONE</title>
<path fill="none" stroke="black" d="M641,-106C641,-88.89 641,-69.7 641,-54.52"/>
<polygon fill="black" stroke="black" points="644.5,-54.26 641,-44.26 637.5,-54.26 644.5,-54.26"/>
</g>
<!-- vbf_stp_fetch&#45;&gt;FETCH_DONE -->
<g id="edge12" class="edge">
<title>vbf_stp_fetch:s&#45;&gt;FETCH_DONE</title>
<path fill="none" stroke="black" d="M855,-106C855,-74.7 773.44,-51.94 711.02,-39.1"/>
<polygon fill="black" stroke="black" points="711.67,-35.66 701.18,-37.13 710.3,-42.53 711.67,-35.66"/>
</g>
<!-- error -->
<g id="node12" class="node">
<title>error</title>
<text text-anchor="middle" x="35" y="-149.3" font-family="Times,serif" font-size="14.00">error</text>
</g>
<!-- error&#45;&gt;FETCH_FAIL -->
<g id="edge14" class="edge">
<title>error&#45;&gt;FETCH_FAIL</title>
<path fill="none" stroke="black" d="M45.88,-134.96C53.19,-123.58 63.07,-108.33 72,-95 81.48,-80.86 92.26,-65.22 101.11,-52.51"/>
<polygon fill="black" stroke="black" points="104.03,-54.44 106.88,-44.23 98.29,-50.43 104.03,-54.44"/>
</g>
<!-- abandon -->
<g id="node15" class="node">
<title>abandon</title>
<text text-anchor="middle" x="119" y="-149.3" font-family="Times,serif" font-size="14.00">abandon</text>
</g>
<!-- abandon&#45;&gt;FETCH_FAIL -->
<g id="edge18" class="edge">
<title>abandon&#45;&gt;FETCH_FAIL</title>
<path fill="none" stroke="black" d="M119,-134.88C119,-114.15 119,-78.95 119,-54.42"/>
<polygon fill="black" stroke="black" points="122.5,-54.31 119,-44.31 115.5,-54.31 122.5,-54.31"/>
</g>
</g>
</svg>
