<?xml version="1.0" encoding="UTF-8" standalone="no"?>
<!DOCTYPE svg PUBLIC "-//W3C//DTD SVG 1.1//EN"
 "http://www.w3.org/Graphics/SVG/1.1/DTD/svg11.dtd">
<!-- Generated by graphviz version 2.38.0 (20140413.2041)
 -->
<!-- Title: cache_fetch Pages: 1 -->
<svg width="836pt" height="723pt"
 viewBox="36.00 36.00 800.00 686.74" xmlns="http://www.w3.org/2000/svg" xmlns:xlink="http://www.w3.org/1999/xlink">
<g id="graph0" class="graph" transform="scale(1 1) rotate(0) translate(40 682.74)">
<title>cache_fetch</title>
<polygon fill="white" stroke="none" points="-4,4 -4,-646.74 760,-646.74 760,4 -4,4"/>
<g id="clust1" class="cluster"><title>cluster_backend</title>
<polygon fill="aliceblue" stroke="aliceblue" points="8,-8 8,-634.74 748,-634.74 748,-8 8,-8"/>
</g>
<!-- RETRY -->
<g id="node1" class="node"><title>RETRY</title>
<text text-anchor="middle" x="411" y="-613.04" font-family="Times,serif" font-size="14.00">RETRY</text>
</g>
<!-- v_b_f -->
<g id="node4" class="node"><title>v_b_f</title>
<polygon fill="none" stroke="black" points="185.5,-492.24 185.5,-561.24 374.5,-561.24 374.5,-492.24 185.5,-492.24"/>
<text text-anchor="middle" x="280" y="-546.04" font-family="Times,serif" font-size="14.00">vbf_stp_startfetch:</text>
<polyline fill="none" stroke="black" points="185.5,-538.24 374.5,-538.24 "/>
<text text-anchor="middle" x="251.5" y="-523.04" font-family="Times,serif" font-size="14.00">vcl_backend_fetch{}</text>
<polyline fill="none" stroke="black" points="317.5,-515.24 317.5,-538.24 "/>
<text text-anchor="middle" x="346" y="-523.04" font-family="Times,serif" font-size="14.00">bereq.*</text>
<polyline fill="none" stroke="black" points="185.5,-515.24 374.5,-515.24 "/>
<text text-anchor="middle" x="237" y="-500.04" font-family="Times,serif" font-size="14.00">abandon</text>
<polyline fill="none" stroke="black" points="288.5,-492.24 288.5,-515.24 "/>
<text text-anchor="middle" x="331.5" y="-500.04" font-family="Times,serif" font-size="14.00">fetch</text>
</g>
<!-- RETRY&#45;&gt;v_b_f -->
<g id="edge4" class="edge"><title>RETRY&#45;&gt;v_b_f</title>
<path fill="none" stroke="purple" d="M385.431,-598.564C371.989,-589.534 354.918,-578.067 338.449,-567.003"/>
<polygon fill="purple" stroke="purple" points="340.166,-563.941 329.914,-561.27 336.263,-569.752 340.166,-563.941"/>
</g>
<!-- v_b_f_BGFETCH -->
<g id="node2" class="node"><title>v_b_f_BGFETCH</title>
<polygon fill="turquoise" stroke="turquoise" points="362,-634.74 284,-634.74 284,-598.74 362,-598.74 362,-634.74"/>
<text text-anchor="middle" x="323" y="-613.04" font-family="Times,serif" font-size="14.00">BGFETCH</text>
</g>
<!-- v_b_f_BGFETCH&#45;&gt;v_b_f -->
<g id="edge1" class="edge"><title>v_b_f_BGFETCH&#45;&gt;v_b_f</title>
<path fill="none" stroke="green" stroke-width="2" d="M314.505,-598.354C310.569,-590.301 305.703,-580.342 300.879,-570.468"/>
<polygon fill="green" stroke="green" stroke-width="2" points="304.023,-568.93 296.488,-561.482 297.733,-572.003 304.023,-568.93"/>
</g>
<!-- v_b_f_FETCH -->
<g id="node3" class="node"><title>v_b_f_FETCH</title>
<polygon fill="turquoise" stroke="turquoise" points="265.5,-634.74 206.5,-634.74 206.5,-598.74 265.5,-598.74 265.5,-634.74"/>
<text text-anchor="middle" x="236" y="-613.04" font-family="Times,serif" font-size="14.00">FETCH</text>
</g>
<!-- v_b_f_FETCH&#45;&gt;v_b_f -->
<g id="edge2" class="edge"><title>v_b_f_FETCH&#45;&gt;v_b_f</title>
<path fill="none" stroke="blue" stroke-width="2" d="M239.189,-598.354C242.348,-590.301 246.913,-580.342 251.888,-570.468"/>
<polygon fill="blue" stroke="blue" stroke-width="2" points="255.052,-571.971 256.545,-561.482 248.836,-568.751 255.052,-571.971"/>
</g>
<!-- v_b_f_FETCH&#45;&gt;v_b_f -->
<g id="edge3" class="edge"><title>v_b_f_FETCH&#45;&gt;v_b_f</title>
<path fill="none" stroke="red" stroke-width="2" d="M250.197,-598.354C255.042,-590.383 260.376,-580.545 265.233,-570.771"/>
<polygon fill="red" stroke="red" stroke-width="2" points="268.521,-572.01 269.713,-561.482 262.217,-568.969 268.521,-572.01"/>
</g>
<!-- v_b_hdrs -->
<g id="node5" class="node"><title>v_b_hdrs</title>
<ellipse fill="none" stroke="black" cx="332" cy="-427.87" rx="94.0904" ry="26.7407"/>
<text text-anchor="middle" x="332" y="-431.67" font-family="Times,serif" font-size="14.00">send bereq,</text>
<text text-anchor="middle" x="332" y="-416.67" font-family="Times,serif" font-size="14.00">read beresp (headers)</text>
</g>
<!-- v_b_f&#45;&gt;v_b_hdrs -->
<g id="edge5" class="edge"><title>v_b_f:fetch:s&#45;&gt;v_b_hdrs</title>
<path fill="none" stroke="black" stroke-width="2" d="M332,-491.74C332,-483.127 332,-473.849 332,-465.136"/>
<polygon fill="black" stroke="black" stroke-width="2" points="335.5,-464.87 332,-454.87 328.5,-464.87 335.5,-464.87"/>
</g>
<!-- v_b_r -->
<g id="node6" class="node"><title>v_b_r</title>
<polygon fill="none" stroke="black" points="337,-248.5 337,-363.5 575,-363.5 575,-248.5 337,-248.5"/>
<text text-anchor="middle" x="456" y="-348.3" font-family="Times,serif" font-size="14.00">vbf_stp_startfetch:</text>
<polyline fill="none" stroke="black" points="337,-340.5 575,-340.5 "/>
<text text-anchor="middle" x="419" y="-313.8" font-family="Times,serif" font-size="14.00">vcl_backend_response{}</text>
<polyline fill="none" stroke="black" points="501,-294.5 501,-340.5 "/>
<text text-anchor="middle" x="538" y="-325.3" font-family="Times,serif" font-size="14.00">bereq.*</text>
<polyline fill="none" stroke="black" points="501,-317.5 575,-317.5 "/>
<text text-anchor="middle" x="538" y="-302.3" font-family="Times,serif" font-size="14.00">beresp.*</text>
<polyline fill="none" stroke="black" points="337,-294.5 575,-294.5 "/>
<text text-anchor="middle" x="378.5" y="-279.3" font-family="Times,serif" font-size="14.00">retry</text>
<polyline fill="none" stroke="black" points="337,-271.5 420,-271.5 "/>
<text text-anchor="middle" x="360.5" y="-256.3" font-family="Times,serif" font-size="14.00">max?</text>
<polyline fill="none" stroke="black" points="384,-248.5 384,-271.5 "/>
<text text-anchor="middle" x="402" y="-256.3" font-family="Times,serif" font-size="14.00">ok?</text>
<polyline fill="none" stroke="black" points="420,-248.5 420,-294.5 "/>
<text text-anchor="middle" x="451" y="-267.8" font-family="Times,serif" font-size="14.00">abandon</text>
<polyline fill="none" stroke="black" points="482,-248.5 482,-294.5 "/>
<text text-anchor="middle" x="528.5" y="-279.3" font-family="Times,serif" font-size="14.00">deliver</text>
<polyline fill="none" stroke="black" points="482,-271.5 575,-271.5 "/>
<text text-anchor="middle" x="503.5" y="-256.3" font-family="Times,serif" font-size="14.00">304?</text>
<polyline fill="none" stroke="black" points="525,-248.5 525,-271.5 "/>
<text text-anchor="middle" x="550" y="-256.3" font-family="Times,serif" font-size="14.00">other?</text>
</g>
<!-- v_b_hdrs&#45;&gt;v_b_r -->
<g id="edge6" class="edge"><title>v_b_hdrs&#45;&gt;v_b_r</title>
<path fill="none" stroke="black" stroke-width="2" d="M357.994,-401.741C367.432,-392.618 378.573,-381.848 389.897,-370.901"/>
<polygon fill="black" stroke="black" stroke-width="2" points="392.592,-373.164 397.349,-363.698 387.727,-368.132 392.592,-373.164"/>
</g>
<!-- v_b_e -->
<g id="node7" class="node"><title>v_b_e</title>
<polygon fill="none" stroke="black" points="160.5,-95.5 160.5,-210.5 353.5,-210.5 353.5,-95.5 160.5,-95.5"/>
<text text-anchor="middle" x="257" y="-195.3" font-family="Times,serif" font-size="14.00">vbf_stp_error:</text>
<polyline fill="none" stroke="black" points="160.5,-187.5 353.5,-187.5 "/>
<text text-anchor="middle" x="226" y="-160.8" font-family="Times,serif" font-size="14.00">vcl_backend_error{}</text>
<polyline fill="none" stroke="black" points="291.5,-141.5 291.5,-187.5 "/>
<text text-anchor="middle" x="322.5" y="-172.3" font-family="Times,serif" font-size="14.00">bereq.*</text>
<polyline fill="none" stroke="black" points="291.5,-164.5 353.5,-164.5 "/>
<text text-anchor="middle" x="322.5" y="-149.3" font-family="Times,serif" font-size="14.00">beresp.*</text>
<polyline fill="none" stroke="black" points="160.5,-141.5 353.5,-141.5 "/>
<text text-anchor="middle" x="216" y="-126.3" font-family="Times,serif" font-size="14.00">retry</text>
<polyline fill="none" stroke="black" points="160.5,-118.5 271.5,-118.5 "/>
<text text-anchor="middle" x="191" y="-103.3" font-family="Times,serif" font-size="14.00">max?</text>
<polyline fill="none" stroke="black" points="221.5,-95.5 221.5,-118.5 "/>
<text text-anchor="middle" x="246.5" y="-103.3" font-family="Times,serif" font-size="14.00">ok?</text>
<polyline fill="none" stroke="black" points="271.5,-95.5 271.5,-141.5 "/>
<text text-anchor="middle" x="312.5" y="-114.8" font-family="Times,serif" font-size="14.00">deliver</text>
</g>
<!-- v_b_hdrs&#45;&gt;v_b_e -->
<g id="edge7" class="edge"><title>v_b_hdrs&#45;&gt;v_b_e</title>
<path fill="none" stroke="black" d="M324.809,-400.706C313.493,-359.535 291.178,-278.35 275.238,-220.355"/>
<polygon fill="black" stroke="black" points="278.564,-219.25 272.539,-210.535 271.814,-221.105 278.564,-219.25"/>
</g>
<!-- v_b_r&#45;&gt;v_b_e -->
<g id="edge9" class="edge"><title>v_b_r:max&#45;&gt;v_b_e</title>
<path fill="none" stroke="black" d="M336,-260C311.39,-260 293.536,-241.404 281.097,-219.789"/>
<polygon fill="black" stroke="black" points="284.055,-217.899 276.26,-210.724 277.879,-221.194 284.055,-217.899"/>
</g>
<!-- v_b_r_retry -->
<g id="node8" class="node"><title>v_b_r_retry</title>
<text text-anchor="middle" x="402" y="-149.3" font-family="Times,serif" font-size="14.00">RETRY</text>
</g>
<!-- v_b_r&#45;&gt;v_b_r_retry -->
<g id="edge8" class="edge"><title>v_b_r:retry&#45;&gt;v_b_r_retry</title>
<path fill="none" stroke="purple" d="M402,-248C402,-225.627 402,-200.259 402,-181.52"/>
<polygon fill="purple" stroke="purple" points="405.5,-181.325 402,-171.325 398.5,-181.325 405.5,-181.325"/>
</g>
<!-- vbf_stp_condfetch -->
<g id="node9" class="node"><title>vbf_stp_condfetch</title>
<polygon fill="none" stroke="grey" points="450.5,-107 450.5,-199 571.5,-199 571.5,-107 450.5,-107"/>
<text text-anchor="middle" x="511" y="-183.8" font-family="Times,serif" font-size="14.00" fill="grey">vbf_stp_condfetch:</text>
<polyline fill="none" stroke="grey" points="450.5,-176 571.5,-176 "/>
<text text-anchor="middle" x="511" y="-160.8" font-family="Times,serif" font-size="14.00" fill="grey">copy obj attr</text>
<polyline fill="none" stroke="grey" points="450.5,-153 571.5,-153 "/>
<text text-anchor="middle" x="511" y="-137.8" font-family="Times,serif" font-size="14.00" fill="grey">steal body</text>
<polyline fill="none" stroke="grey" points="450.5,-130 571.5,-130 "/>
<text text-anchor="middle" x="490" y="-114.8" font-family="Times,serif" font-size="14.00" fill="grey">fetch_fail?</text>
<polyline fill="none" stroke="grey" points="529.5,-107 529.5,-130 "/>
<text text-anchor="middle" x="550.5" y="-114.8" font-family="Times,serif" font-size="14.00" fill="grey">ok?</text>
</g>
<!-- v_b_r&#45;&gt;vbf_stp_condfetch -->
<g id="edge10" class="edge"><title>v_b_r:fetch_304:s&#45;&gt;vbf_stp_condfetch</title>
<path fill="none" stroke="black" d="M504,-248C504,-235.475 504.626,-222.036 505.503,-209.351"/>
<polygon fill="black" stroke="black" points="508.994,-209.604 506.253,-199.37 502.013,-209.08 508.994,-209.604"/>
</g>
<!-- vbf_stp_fetch -->
<g id="node10" class="node"><title>vbf_stp_fetch</title>
<polygon fill="none" stroke="grey" points="589.5,-107 589.5,-199 748.5,-199 748.5,-107 589.5,-107"/>
<text text-anchor="middle" x="669" y="-183.8" font-family="Times,serif" font-size="14.00" fill="grey">vbf_stp_fetch:</text>
<polyline fill="none" stroke="grey" points="589.5,-176 748.5,-176 "/>
<text text-anchor="middle" x="669" y="-160.8" font-family="Times,serif" font-size="14.00" fill="grey">setup VFPs</text>
<polyline fill="none" stroke="grey" points="589.5,-153 748.5,-153 "/>
<text text-anchor="middle" x="669" y="-137.8" font-family="Times,serif" font-size="14.00" fill="grey">fetch</text>
<polyline fill="none" stroke="grey" points="589.5,-130 748.5,-130 "/>
<text text-anchor="middle" x="626.5" y="-114.8" font-family="Times,serif" font-size="14.00" fill="grey">fetch_fail?</text>
<polyline fill="none" stroke="grey" points="663.5,-107 663.5,-130 "/>
<text text-anchor="middle" x="688" y="-114.8" font-family="Times,serif" font-size="14.00" fill="grey">error?</text>
<polyline fill="none" stroke="grey" points="712.5,-107 712.5,-130 "/>
<text text-anchor="middle" x="730.5" y="-114.8" font-family="Times,serif" font-size="14.00" fill="grey">ok?</text>
</g>
<!-- v_b_r&#45;&gt;vbf_stp_fetch -->
<g id="edge11" class="edge"><title>v_b_r:non_304:s&#45;&gt;vbf_stp_fetch</title>
<path fill="none" stroke="black" d="M550,-248C550,-240.963 570.756,-223.409 594.93,-205.349"/>
<polygon fill="black" stroke="black" points="597.268,-207.974 603.235,-199.219 593.111,-202.342 597.268,-207.974"/>
</g>
<!-- FETCH_DONE -->
<g id="node11" class="node"><title>FETCH_DONE</title>
<polygon fill="turquoise" stroke="turquoise" points="603,-44 499,-44 499,-8 603,-8 603,-44"/>
<text text-anchor="middle" x="551" y="-22.3" font-family="Times,serif" font-size="14.00">FETCH_DONE</text>
</g>
<!-- v_b_e&#45;&gt;FETCH_DONE -->
<g id="edge15" class="edge"><title>v_b_e:deliver&#45;&gt;FETCH_DONE</title>
<path fill="none" stroke="black" d="M355,-118C365.823,-118 355.394,-102.7 363,-95 396.574,-61.0096 448.397,-43.9123 489.137,-35.3685"/>
<polygon fill="black" stroke="black" points="489.84,-38.7973 498.972,-33.4249 488.483,-31.9301 489.84,-38.7973"/>
<text text-anchor="middle" x="451.5" y="-65.8" font-family="Times,serif" font-size="14.00">&quot;backend synth&quot;</text>
</g>
<!-- FETCH_FAIL -->
<g id="node13" class="node"><title>FETCH_FAIL</title>
<polygon fill="turquoise" stroke="turquoise" points="159,-44 63,-44 63,-8 159,-8 159,-44"/>
<text text-anchor="middle" x="111" y="-22.3" font-family="Times,serif" font-size="14.00">FETCH_FAIL</text>
</g>
<!-- v_b_e&#45;&gt;FETCH_FAIL -->
<g id="edge17" class="edge"><title>v_b_e:max:s&#45;&gt;FETCH_FAIL</title>
<path fill="none" stroke="black" d="M191,-95C191,-75.4416 176.947,-60.3327 160.62,-49.3792"/>
<polygon fill="black" stroke="black" points="162.287,-46.2953 151.937,-44.0285 158.614,-52.2546 162.287,-46.2953"/>
</g>
<!-- v_b_e_retry -->
<g id="node14" class="node"><title>v_b_e_retry</title>
<text text-anchor="middle" x="246" y="-22.3" font-family="Times,serif" font-size="14.00">RETRY</text>
</g>
<!-- v_b_e&#45;&gt;v_b_e_retry -->
<g id="edge16" class="edge"><title>v_b_e:retry&#45;&gt;v_b_e_retry</title>
<path fill="none" stroke="purple" d="M246,-95C246,-81.5776 246,-66.665 246,-54.2333"/>
<polygon fill="purple" stroke="purple" points="249.5,-54.0469 246,-44.0469 242.5,-54.0469 249.5,-54.0469"/>
</g>
<!-- vbf_stp_condfetch&#45;&gt;FETCH_DONE -->
<g id="edge13" class="edge"><title>vbf_stp_condfetch:ok:s&#45;&gt;FETCH_DONE</title>
<path fill="none" stroke="black" d="M551,-106C551,-88.8934 551,-69.7032 551,-54.5204"/>
<polygon fill="black" stroke="black" points="554.5,-54.2602 551,-44.2603 547.5,-54.2603 554.5,-54.2602"/>
</g>
<!-- vbf_stp_fetch&#45;&gt;FETCH_DONE -->
<g id="edge12" class="edge"><title>vbf_stp_fetch:ok:s&#45;&gt;FETCH_DONE</title>
<path fill="none" stroke="black" d="M731,-106C731,-53.2094 665.279,-35.3719 613.261,-29.5215"/>
<polygon fill="black" stroke="black" points="613.361,-26.0142 603.063,-28.5044 612.667,-32.9797 613.361,-26.0142"/>
</g>
<!-- error -->
<g id="node12" class="node"><title>error</title>
<text text-anchor="middle" x="35" y="-149.3" font-family="Times,serif" font-size="14.00">error</text>
</g>
<!-- error&#45;&gt;FETCH_FAIL -->
<g id="edge14" class="edge"><title>error&#45;&gt;FETCH_FAIL</title>
<path fill="none" stroke="black" d="M45.4081,-134.881C58.2412,-113.774 80.1833,-77.6853 95.124,-53.1119"/>
<polygon fill="black" stroke="black" points="98.2691,-54.6759 100.474,-44.313 92.2879,-51.0393 98.2691,-54.6759"/>
</g>
<!-- abandon -->
<g id="node15" class="node"><title>abandon</title>
<text text-anchor="middle" x="111" y="-149.3" font-family="Times,serif" font-size="14.00">abandon</text>
</g>
<!-- abandon&#45;&gt;FETCH_FAIL -->
<g id="edge18" class="edge"><title>abandon&#45;&gt;FETCH_FAIL</title>
<path fill="none" stroke="black" d="M111,-134.881C111,-114.146 111,-78.9525 111,-54.4215"/>
<polygon fill="black" stroke="black" points="114.5,-54.313 111,-44.313 107.5,-54.313 114.5,-54.313"/>
</g>
</g>
</svg>
