<?xml version="1.0" encoding="UTF-8" standalone="no"?>
<!DOCTYPE svg PUBLIC "-//W3C//DTD SVG 1.1//EN"
 "http://www.w3.org/Graphics/SVG/1.1/DTD/svg11.dtd">
<!-- Generated by graphviz version 2.43.0 (0)
 -->
<!-- Title: cache_req_fsm Pages: 1 -->
<svg width="941pt" height="1349pt"
 viewBox="18.00 18.00 922.50 1331.00" xmlns="http://www.w3.org/2000/svg" xmlns:xlink="http://www.w3.org/1999/xlink">
<g id="graph0" class="graph" transform="scale(1 1) rotate(0) translate(22 1327)">
<title>cache_req_fsm</title>
<polygon fill="white" stroke="transparent" points="-4,4 -4,-1309 900.5,-1309 900.5,4 -4,4"/>
<g id="clust3" class="cluster">
<title>cluster_backend</title>
<polygon fill="aliceblue" stroke="aliceblue" points="76.5,-299 76.5,-408 422.5,-408 422.5,-299 76.5,-299"/>
</g>
<!-- acceptor -->
<g id="node1" class="node">
<title>acceptor</title>
<polygon fill="none" stroke="black" points="452.64,-1208.5 400.07,-1226.5 294.93,-1226.5 242.36,-1208.5 294.93,-1190.5 400.07,-1190.5 452.64,-1208.5"/>
<text text-anchor="middle" x="347.5" y="-1204.8" font-family="Times,serif" font-size="14.00">Request received</text>
</g>
<!-- recv -->
<g id="node4" class="node">
<title>recv</title>
<polygon fill="none" stroke="black" points="399,-1078.5 399,-1147.5 660,-1147.5 660,-1078.5 399,-1078.5"/>
<text text-anchor="middle" x="529.5" y="-1132.3" font-family="Times,serif" font-size="14.00">cnt_recv:</text>
<polyline fill="none" stroke="black" points="399,-1124.5 660,-1124.5 "/>
<text text-anchor="middle" x="474" y="-1109.3" font-family="Times,serif" font-size="14.00">vcl_recv{}</text>
<polyline fill="none" stroke="black" points="549,-1101.5 549,-1124.5 "/>
<text text-anchor="middle" x="604.5" y="-1109.3" font-family="Times,serif" font-size="14.00">req.*</text>
<polyline fill="none" stroke="black" points="399,-1101.5 660,-1101.5 "/>
<text text-anchor="middle" x="424" y="-1086.3" font-family="Times,serif" font-size="14.00">hash</text>
<polyline fill="none" stroke="black" points="449,-1078.5 449,-1101.5 "/>
<text text-anchor="middle" x="478.5" y="-1086.3" font-family="Times,serif" font-size="14.00">purge</text>
<polyline fill="none" stroke="black" points="508,-1078.5 508,-1101.5 "/>
<text text-anchor="middle" x="532.5" y="-1086.3" font-family="Times,serif" font-size="14.00">pass</text>
<polyline fill="none" stroke="black" points="557,-1078.5 557,-1101.5 "/>
<text text-anchor="middle" x="580.5" y="-1086.3" font-family="Times,serif" font-size="14.00">pipe</text>
<polyline fill="none" stroke="black" points="604,-1078.5 604,-1101.5 "/>
<text text-anchor="middle" x="632" y="-1086.3" font-family="Times,serif" font-size="14.00">synth</text>
</g>
<!-- acceptor&#45;&gt;recv -->
<g id="edge2" class="edge">
<title>acceptor&#45;&gt;recv</title>
<path fill="none" stroke="black" stroke-width="2" d="M380.88,-1190.35C401.72,-1179.65 429.41,-1165.42 455.23,-1152.16"/>
<polygon fill="black" stroke="black" stroke-width="2" points="456.98,-1155.19 464.27,-1147.51 453.78,-1148.97 456.98,-1155.19"/>
</g>
<!-- ESI_REQ -->
<g id="node2" class="node">
<title>ESI_REQ</title>
<polygon fill="none" stroke="black" points="592.08,-1208.5 561.79,-1226.5 501.21,-1226.5 470.92,-1208.5 501.21,-1190.5 561.79,-1190.5 592.08,-1208.5"/>
<text text-anchor="middle" x="531.5" y="-1204.8" font-family="Times,serif" font-size="14.00">ESI_REQ</text>
</g>
<!-- ESI_REQ&#45;&gt;recv -->
<g id="edge1" class="edge">
<title>ESI_REQ&#45;&gt;recv</title>
<path fill="none" stroke="black" d="M531.13,-1190.35C530.94,-1181.14 530.68,-1169.31 530.44,-1157.74"/>
<polygon fill="black" stroke="black" points="533.93,-1157.62 530.22,-1147.7 526.94,-1157.77 533.93,-1157.62"/>
</g>
<!-- RESTART -->
<g id="node3" class="node">
<title>RESTART</title>
<text text-anchor="middle" x="690.5" y="-1283.3" font-family="Times,serif" font-size="14.00">RESTART</text>
</g>
<!-- restart -->
<g id="node22" class="node">
<title>restart</title>
<polygon fill="none" stroke="grey" points="611,-1185.5 611,-1231.5 770,-1231.5 770,-1185.5 611,-1185.5"/>
<text text-anchor="middle" x="690.5" y="-1216.3" font-family="Times,serif" font-size="14.00" fill="grey">cnt_restart:</text>
<polyline fill="none" stroke="grey" points="611,-1208.5 770,-1208.5 "/>
<text text-anchor="middle" x="631.5" y="-1193.3" font-family="Times,serif" font-size="14.00" fill="grey">ok?</text>
<polyline fill="none" stroke="grey" points="652,-1185.5 652,-1208.5 "/>
<text text-anchor="middle" x="711" y="-1193.3" font-family="Times,serif" font-size="14.00" fill="grey">max_restarts?</text>
</g>
<!-- RESTART&#45;&gt;restart -->
<g id="edge28" class="edge">
<title>RESTART&#45;&gt;restart</title>
<path fill="none" stroke="black" d="M690.5,-1268.64C690.5,-1260.7 690.5,-1251.02 690.5,-1241.81"/>
<polygon fill="black" stroke="black" points="694,-1241.74 690.5,-1231.74 687,-1241.74 694,-1241.74"/>
</g>
<!-- hash -->
<g id="node24" class="node">
<title>hash</title>
<polygon fill="none" stroke="black" points="459,-971.5 459,-1040.5 606,-1040.5 606,-971.5 459,-971.5"/>
<text text-anchor="middle" x="532.5" y="-1025.3" font-family="Times,serif" font-size="14.00">cnt_recv:</text>
<polyline fill="none" stroke="black" points="459,-1017.5 606,-1017.5 "/>
<text text-anchor="middle" x="506.5" y="-1002.3" font-family="Times,serif" font-size="14.00">vcl_hash{}</text>
<polyline fill="none" stroke="black" points="554,-994.5 554,-1017.5 "/>
<text text-anchor="middle" x="580" y="-1002.3" font-family="Times,serif" font-size="14.00">req.*</text>
<polyline fill="none" stroke="black" points="459,-994.5 606,-994.5 "/>
<text text-anchor="middle" x="532.5" y="-979.3" font-family="Times,serif" font-size="14.00">lookup</text>
</g>
<!-- recv&#45;&gt;hash -->
<g id="edge31" class="edge">
<title>recv:s&#45;&gt;hash</title>
<path fill="none" stroke="green" stroke-width="2" d="M423.5,-1078C423.5,-1059.42 434.76,-1045.45 450.03,-1035.05"/>
<polygon fill="green" stroke="green" stroke-width="2" points="452.19,-1037.83 458.89,-1029.63 448.53,-1031.86 452.19,-1037.83"/>
</g>
<!-- recv&#45;&gt;hash -->
<g id="edge32" class="edge">
<title>recv:s&#45;&gt;hash</title>
<path fill="none" stroke="purple" stroke-width="2" d="M478.5,-1078C478.5,-1067.56 482.25,-1057.69 487.77,-1048.81"/>
<polygon fill="purple" stroke="purple" stroke-width="2" points="490.64,-1050.82 493.54,-1040.63 484.92,-1046.78 490.64,-1050.82"/>
</g>
<!-- recv&#45;&gt;hash -->
<g id="edge33" class="edge">
<title>recv:s&#45;&gt;hash</title>
<path fill="none" stroke="red" stroke-width="2" d="M532.5,-1078C532.5,-1069.23 532.5,-1059.85 532.5,-1050.88"/>
<polygon fill="red" stroke="red" stroke-width="2" points="536,-1050.59 532.5,-1040.59 529,-1050.59 536,-1050.59"/>
</g>
<!-- recv&#45;&gt;hash -->
<g id="edge34" class="edge">
<title>recv:s&#45;&gt;hash</title>
<path fill="none" stroke="orange" stroke-width="2" d="M580.5,-1078C580.5,-1067.85 577.09,-1058.06 572.08,-1049.17"/>
<polygon fill="orange" stroke="orange" stroke-width="2" points="574.94,-1047.14 566.62,-1040.59 569.04,-1050.9 574.94,-1047.14"/>
</g>
<!-- recv&#45;&gt;hash -->
<g id="edge35" class="edge">
<title>recv:s&#45;&gt;hash</title>
<path fill="none" stroke="sienna" stroke-width="2" d="M632.5,-1078C632.5,-1063.12 625.05,-1051.08 614.22,-1041.43"/>
<polygon fill="sienna" stroke="sienna" stroke-width="2" points="616.24,-1038.57 606.23,-1035.12 611.91,-1044.06 616.24,-1038.57"/>
</g>
<!-- SYNTH -->
<g id="node5" class="node">
<title>SYNTH</title>
<text text-anchor="middle" x="514.5" y="-313.3" font-family="Times,serif" font-size="14.00">SYNTH</text>
</g>
<!-- synth -->
<g id="node10" class="node">
<title>synth</title>
<polygon fill="none" stroke="black" points="330.5,-158 330.5,-250 490.5,-250 490.5,-158 330.5,-158"/>
<text text-anchor="middle" x="410.5" y="-234.8" font-family="Times,serif" font-size="14.00">cnt_synth:</text>
<polyline fill="none" stroke="black" points="330.5,-227 490.5,-227 "/>
<text text-anchor="middle" x="381" y="-200.3" font-family="Times,serif" font-size="14.00">vcl_synth{}</text>
<polyline fill="none" stroke="black" points="431.5,-181 431.5,-227 "/>
<text text-anchor="middle" x="461" y="-211.8" font-family="Times,serif" font-size="14.00">req.*</text>
<polyline fill="none" stroke="black" points="431.5,-204 490.5,-204 "/>
<text text-anchor="middle" x="461" y="-188.8" font-family="Times,serif" font-size="14.00">resp.*</text>
<polyline fill="none" stroke="black" points="330.5,-181 490.5,-181 "/>
<text text-anchor="middle" x="370.5" y="-165.8" font-family="Times,serif" font-size="14.00">deliver</text>
<polyline fill="none" stroke="black" points="410.5,-158 410.5,-181 "/>
<text text-anchor="middle" x="450.5" y="-165.8" font-family="Times,serif" font-size="14.00">restart</text>
</g>
<!-- SYNTH&#45;&gt;synth -->
<g id="edge8" class="edge">
<title>SYNTH&#45;&gt;synth</title>
<path fill="none" stroke="sienna" d="M498.25,-298.66C487.94,-287.65 473.99,-272.76 460.25,-258.09"/>
<polygon fill="sienna" stroke="sienna" points="462.49,-255.37 453.1,-250.47 457.38,-260.16 462.49,-255.37"/>
</g>
<!-- deliver -->
<g id="node6" class="node">
<title>deliver</title>
<polygon fill="none" stroke="black" points="124.5,-146.5 124.5,-261.5 312.5,-261.5 312.5,-146.5 124.5,-146.5"/>
<text text-anchor="middle" x="218.5" y="-246.3" font-family="Times,serif" font-size="14.00">cnt_deliver:</text>
<polyline fill="none" stroke="black" points="124.5,-238.5 312.5,-238.5 "/>
<text text-anchor="middle" x="218.5" y="-223.3" font-family="Times,serif" font-size="14.00">Filter obj.&#45;&gt;resp.</text>
<polyline fill="none" stroke="black" points="124.5,-215.5 312.5,-215.5 "/>
<text text-anchor="middle" x="184.5" y="-188.8" font-family="Times,serif" font-size="14.00">vcl_deliver{}</text>
<polyline fill="none" stroke="black" points="244.5,-169.5 244.5,-215.5 "/>
<text text-anchor="middle" x="278.5" y="-200.3" font-family="Times,serif" font-size="14.00">req.*</text>
<polyline fill="none" stroke="black" points="244.5,-192.5 312.5,-192.5 "/>
<text text-anchor="middle" x="278.5" y="-177.3" font-family="Times,serif" font-size="14.00">resp.*</text>
<polyline fill="none" stroke="black" points="124.5,-169.5 312.5,-169.5 "/>
<text text-anchor="middle" x="157.5" y="-154.3" font-family="Times,serif" font-size="14.00">restart</text>
<polyline fill="none" stroke="black" points="190.5,-146.5 190.5,-169.5 "/>
<text text-anchor="middle" x="223.5" y="-154.3" font-family="Times,serif" font-size="14.00">deliver</text>
<polyline fill="none" stroke="black" points="256.5,-146.5 256.5,-169.5 "/>
<text text-anchor="middle" x="284.5" y="-154.3" font-family="Times,serif" font-size="14.00">synth</text>
</g>
<!-- V1D_Deliver -->
<g id="node7" class="node">
<title>V1D_Deliver</title>
<ellipse fill="none" stroke="black" cx="299.5" cy="-91" rx="68.49" ry="18"/>
<text text-anchor="middle" x="299.5" y="-87.3" font-family="Times,serif" font-size="14.00">V1D_Deliver</text>
</g>
<!-- deliver&#45;&gt;V1D_Deliver -->
<g id="edge3" class="edge">
<title>deliver:s&#45;&gt;V1D_Deliver</title>
<path fill="none" stroke="green" stroke-width="2" d="M223.5,-146C215.92,-128.55 225.01,-116.21 239.43,-107.79"/>
<polygon fill="green" stroke="green" stroke-width="2" points="241.08,-110.88 248.45,-103.27 237.94,-104.62 241.08,-110.88"/>
</g>
<!-- deliver&#45;&gt;V1D_Deliver -->
<g id="edge4" class="edge">
<title>deliver:s&#45;&gt;V1D_Deliver</title>
<path fill="none" stroke="red" stroke-width="2" d="M223.5,-146C223.5,-130.05 234.76,-118.38 248.62,-110.05"/>
<polygon fill="red" stroke="red" stroke-width="2" points="250.34,-113.1 257.5,-105.29 247.03,-106.93 250.34,-113.1"/>
</g>
<!-- deliver&#45;&gt;V1D_Deliver -->
<g id="edge5" class="edge">
<title>deliver:s&#45;&gt;V1D_Deliver</title>
<path fill="none" stroke="blue" stroke-width="2" d="M223.5,-146C229.96,-131.12 243.9,-119.97 258.29,-111.78"/>
<polygon fill="blue" stroke="blue" stroke-width="2" points="260.02,-114.82 267.24,-107.06 256.76,-108.63 260.02,-114.82"/>
</g>
<!-- DONE -->
<g id="node9" class="node">
<title>DONE</title>
<ellipse fill="none" stroke="black" cx="497.5" cy="-18" rx="40.09" ry="18"/>
<text text-anchor="middle" x="497.5" y="-14.3" font-family="Times,serif" font-size="14.00">DONE</text>
</g>
<!-- V1D_Deliver&#45;&gt;DONE -->
<g id="edge7" class="edge">
<title>V1D_Deliver&#45;&gt;DONE</title>
<path fill="none" stroke="black" d="M338.15,-76.14C372.46,-63.84 422.42,-45.92 457.22,-33.44"/>
<polygon fill="black" stroke="black" points="458.82,-36.59 467.05,-29.92 456.46,-30 458.82,-36.59"/>
</g>
<!-- stream -->
<g id="node8" class="node">
<title>stream</title>
<ellipse fill="turquoise" stroke="turquoise" cx="560.5" cy="-204" rx="52.15" ry="26.74"/>
<text text-anchor="middle" x="560.5" y="-207.8" font-family="Times,serif" font-size="14.00">stream?</text>
<text text-anchor="middle" x="560.5" y="-192.8" font-family="Times,serif" font-size="14.00">body</text>
</g>
<!-- stream&#45;&gt;V1D_Deliver -->
<g id="edge6" class="edge">
<title>stream&#45;&gt;V1D_Deliver</title>
<path fill="none" stroke="black" stroke-dasharray="1,5" d="M540.01,-178.99C529.05,-167.51 514.7,-154.45 499.5,-146 458.93,-123.44 408.44,-109.9 368.33,-102.02"/>
<polygon fill="black" stroke="black" points="368.85,-98.56 358.37,-100.14 367.55,-105.43 368.85,-98.56"/>
</g>
<!-- synth&#45;&gt;V1D_Deliver -->
<g id="edge9" class="edge">
<title>synth:s&#45;&gt;V1D_Deliver</title>
<path fill="none" stroke="sienna" d="M370.5,-157C370.5,-138.11 356.65,-123.22 341.19,-112.49"/>
<polygon fill="sienna" stroke="sienna" points="342.82,-109.38 332.51,-106.96 339.06,-115.29 342.82,-109.38"/>
</g>
<!-- see backend graph -->
<g id="node11" class="node">
<title>see backend graph</title>
<text text-anchor="middle" x="346.5" y="-386.3" font-family="Times,serif" font-size="14.00">see backend graph</text>
</g>
<!-- BGFETCH -->
<g id="node12" class="node">
<title>BGFETCH</title>
<polygon fill="turquoise" stroke="turquoise" points="166.5,-408 76.5,-408 76.5,-372 166.5,-372 166.5,-408"/>
<text text-anchor="middle" x="121.5" y="-386.3" font-family="Times,serif" font-size="14.00">BGFETCH</text>
</g>
<!-- FETCH -->
<g id="node13" class="node">
<title>FETCH</title>
<polygon fill="turquoise" stroke="turquoise" points="252.5,-408 184.5,-408 184.5,-372 252.5,-372 252.5,-408"/>
<text text-anchor="middle" x="218.5" y="-386.3" font-family="Times,serif" font-size="14.00">FETCH</text>
</g>
<!-- FETCH_DONE -->
<g id="node14" class="node">
<title>FETCH_DONE</title>
<polygon fill="turquoise" stroke="turquoise" points="278.5,-335 158.5,-335 158.5,-299 278.5,-299 278.5,-335"/>
<text text-anchor="middle" x="218.5" y="-313.3" font-family="Times,serif" font-size="14.00">FETCH_DONE</text>
</g>
<!-- FETCH&#45;&gt;FETCH_DONE -->
<g id="edge14" class="edge">
<title>FETCH&#45;&gt;FETCH_DONE</title>
<path fill="none" stroke="black" stroke-dasharray="1,5" d="M218.5,-371.81C218.5,-363.79 218.5,-354.05 218.5,-345.07"/>
<polygon fill="black" stroke="black" points="222,-345.03 218.5,-335.03 215,-345.03 222,-345.03"/>
</g>
<!-- FETCH_FAIL -->
<g id="node15" class="node">
<title>FETCH_FAIL</title>
<polygon fill="turquoise" stroke="turquoise" points="414,-335 307,-335 307,-299 414,-299 414,-335"/>
<text text-anchor="middle" x="360.5" y="-313.3" font-family="Times,serif" font-size="14.00">FETCH_FAIL</text>
</g>
<!-- FETCH&#45;&gt;FETCH_FAIL -->
<g id="edge15" class="edge">
<title>FETCH&#45;&gt;FETCH_FAIL</title>
<path fill="none" stroke="black" stroke-dasharray="1,5" d="M252.51,-371.99C271.95,-362.27 296.53,-349.99 317.32,-339.59"/>
<polygon fill="black" stroke="black" points="318.89,-342.72 326.27,-335.11 315.76,-336.46 318.89,-342.72"/>
</g>
<!-- FETCH_DONE&#45;&gt;deliver -->
<g id="edge12" class="edge">
<title>FETCH_DONE&#45;&gt;deliver</title>
<path fill="none" stroke="red" stroke-width="2" d="M213.44,-298.66C212.62,-291.06 212.1,-281.63 211.87,-271.69"/>
<polygon fill="red" stroke="red" stroke-width="2" points="215.37,-271.59 211.75,-261.64 208.37,-271.68 215.37,-271.59"/>
</g>
<!-- FETCH_DONE&#45;&gt;deliver -->
<g id="edge13" class="edge">
<title>FETCH_DONE&#45;&gt;deliver</title>
<path fill="none" stroke="blue" stroke-width="2" d="M223.56,-298.66C224.38,-291.06 224.9,-281.63 225.13,-271.69"/>
<polygon fill="blue" stroke="blue" stroke-width="2" points="228.63,-271.68 225.25,-261.64 221.63,-271.59 228.63,-271.68"/>
</g>
<!-- FETCH_FAIL&#45;&gt;synth -->
<g id="edge11" class="edge">
<title>FETCH_FAIL&#45;&gt;synth</title>
<path fill="none" stroke="sienna" d="M368.31,-298.66C373.09,-288.05 379.49,-273.85 385.86,-259.71"/>
<polygon fill="sienna" stroke="sienna" points="389.1,-261.02 390.02,-250.47 382.72,-258.15 389.1,-261.02"/>
</g>
<!-- lookup2 -->
<g id="node16" class="node">
<title>lookup2</title>
<polygon fill="none" stroke="black" points="0,-688.5 0,-780.5 287,-780.5 287,-688.5 0,-688.5"/>
<text text-anchor="middle" x="143.5" y="-765.3" font-family="Times,serif" font-size="14.00">cnt_lookup:</text>
<polyline fill="none" stroke="black" points="0,-757.5 287,-757.5 "/>
<text text-anchor="middle" x="79" y="-730.8" font-family="Times,serif" font-size="14.00">vcl_hit{}</text>
<polyline fill="none" stroke="black" points="158,-711.5 158,-757.5 "/>
<text text-anchor="middle" x="222.5" y="-742.3" font-family="Times,serif" font-size="14.00">req.*</text>
<polyline fill="none" stroke="black" points="158,-734.5 287,-734.5 "/>
<text text-anchor="middle" x="222.5" y="-719.3" font-family="Times,serif" font-size="14.00">obj.*</text>
<polyline fill="none" stroke="black" points="0,-711.5 287,-711.5 "/>
<text text-anchor="middle" x="33" y="-696.3" font-family="Times,serif" font-size="14.00">deliver</text>
<polyline fill="none" stroke="black" points="66,-688.5 66,-711.5 "/>
<text text-anchor="middle" x="91" y="-696.3" font-family="Times,serif" font-size="14.00">miss</text>
<polyline fill="none" stroke="black" points="116,-688.5 116,-711.5 "/>
<text text-anchor="middle" x="149" y="-696.3" font-family="Times,serif" font-size="14.00">restart</text>
<polyline fill="none" stroke="black" points="182,-688.5 182,-711.5 "/>
<text text-anchor="middle" x="210" y="-696.3" font-family="Times,serif" font-size="14.00">synth</text>
<polyline fill="none" stroke="black" points="238,-688.5 238,-711.5 "/>
<text text-anchor="middle" x="262.5" y="-696.3" font-family="Times,serif" font-size="14.00">pass</text>
</g>
<!-- lookup2&#45;&gt;deliver -->
<g id="edge20" class="edge">
<title>lookup2:s&#45;&gt;deliver:n</title>
<path fill="none" stroke="green" stroke-width="2" d="M32.5,-688C32.5,-656.44 32.5,-648.56 32.5,-617 32.5,-617 32.5,-617 32.5,-316 32.5,-276.66 187.9,-300.08 214.62,-271.53"/>
<polygon fill="green" stroke="green" stroke-width="2" points="217.97,-272.58 218.5,-262 211.48,-269.94 217.97,-272.58"/>
</g>
<!-- lookup2&#45;&gt;BGFETCH -->
<g id="edge10" class="edge">
<title>lookup2:s&#45;&gt;BGFETCH</title>
<path fill="none" stroke="green" d="M32.5,-688C32.5,-677.87 42.39,-679.27 46.5,-670 71.55,-613.49 54.66,-592.75 70.5,-533 81.38,-491.96 98.93,-445.96 110.34,-417.74"/>
<polygon fill="green" stroke="green" points="113.7,-418.77 114.24,-408.18 107.22,-416.12 113.7,-418.77"/>
<text text-anchor="middle" x="118" y="-551.8" font-family="Times,serif" font-size="14.00">parallel</text>
<text text-anchor="middle" x="118" y="-536.8" font-family="Times,serif" font-size="14.00">if obj expired</text>
</g>
<!-- miss -->
<g id="node18" class="node">
<title>miss</title>
<polygon fill="none" stroke="black" points="98.5,-581.5 98.5,-650.5 322.5,-650.5 322.5,-581.5 98.5,-581.5"/>
<text text-anchor="middle" x="210.5" y="-635.3" font-family="Times,serif" font-size="14.00">cnt_miss:</text>
<polyline fill="none" stroke="black" points="98.5,-627.5 322.5,-627.5 "/>
<text text-anchor="middle" x="165" y="-612.3" font-family="Times,serif" font-size="14.00">vcl_miss{}</text>
<polyline fill="none" stroke="black" points="231.5,-604.5 231.5,-627.5 "/>
<text text-anchor="middle" x="277" y="-612.3" font-family="Times,serif" font-size="14.00">req.*</text>
<polyline fill="none" stroke="black" points="98.5,-604.5 322.5,-604.5 "/>
<text text-anchor="middle" x="125" y="-589.3" font-family="Times,serif" font-size="14.00">fetch</text>
<polyline fill="none" stroke="black" points="151.5,-581.5 151.5,-604.5 "/>
<text text-anchor="middle" x="179.5" y="-589.3" font-family="Times,serif" font-size="14.00">synth</text>
<polyline fill="none" stroke="black" points="207.5,-581.5 207.5,-604.5 "/>
<text text-anchor="middle" x="240.5" y="-589.3" font-family="Times,serif" font-size="14.00">restart</text>
<polyline fill="none" stroke="black" points="273.5,-581.5 273.5,-604.5 "/>
<text text-anchor="middle" x="298" y="-589.3" font-family="Times,serif" font-size="14.00">pass</text>
</g>
<!-- lookup2&#45;&gt;miss -->
<g id="edge21" class="edge">
<title>lookup2:s&#45;&gt;miss</title>
<path fill="none" stroke="blue" stroke-width="2" d="M90.5,-688C90.5,-676.05 94.97,-666.06 102.17,-657.73"/>
<polygon fill="blue" stroke="blue" stroke-width="2" points="104.82,-660.04 109.51,-650.54 99.92,-655.04 104.82,-660.04"/>
</g>
<!-- pass -->
<g id="node19" class="node">
<title>pass</title>
<polygon fill="none" stroke="black" points="263,-445.5 263,-514.5 438,-514.5 438,-445.5 263,-445.5"/>
<text text-anchor="middle" x="350.5" y="-499.3" font-family="Times,serif" font-size="14.00">cnt_pass:</text>
<polyline fill="none" stroke="black" points="263,-491.5 438,-491.5 "/>
<text text-anchor="middle" x="317" y="-476.3" font-family="Times,serif" font-size="14.00">vcl_pass{}</text>
<polyline fill="none" stroke="black" points="371,-468.5 371,-491.5 "/>
<text text-anchor="middle" x="404.5" y="-476.3" font-family="Times,serif" font-size="14.00">req.*</text>
<polyline fill="none" stroke="black" points="263,-468.5 438,-468.5 "/>
<text text-anchor="middle" x="289.5" y="-453.3" font-family="Times,serif" font-size="14.00">fetch</text>
<polyline fill="none" stroke="black" points="316,-445.5 316,-468.5 "/>
<text text-anchor="middle" x="344" y="-453.3" font-family="Times,serif" font-size="14.00">synth</text>
<polyline fill="none" stroke="black" points="372,-445.5 372,-468.5 "/>
<text text-anchor="middle" x="405" y="-453.3" font-family="Times,serif" font-size="14.00">restart</text>
</g>
<!-- lookup2&#45;&gt;pass -->
<g id="edge22" class="edge">
<title>lookup2:s&#45;&gt;pass</title>
<path fill="none" stroke="red" stroke-width="2" d="M262.5,-688C262.5,-653.2 312,-679.82 331.5,-651 356.5,-614.06 358.7,-561.96 356.26,-525.2"/>
<polygon fill="red" stroke="red" stroke-width="2" points="359.71,-524.47 355.42,-514.79 352.73,-525.04 359.71,-524.47"/>
</g>
<!-- lookup -->
<g id="node17" class="node">
<title>lookup</title>
<polygon fill="none" stroke="grey" points="97.5,-841.5 97.5,-910.5 361.5,-910.5 361.5,-841.5 97.5,-841.5"/>
<text text-anchor="middle" x="229.5" y="-895.3" font-family="Times,serif" font-size="14.00" fill="grey">cnt_lookup:</text>
<polyline fill="none" stroke="grey" points="97.5,-887.5 361.5,-887.5 "/>
<text text-anchor="middle" x="229.5" y="-872.3" font-family="Times,serif" font-size="14.00" fill="grey">hash lookup</text>
<polyline fill="none" stroke="grey" points="97.5,-864.5 361.5,-864.5 "/>
<text text-anchor="middle" x="119.5" y="-849.3" font-family="Times,serif" font-size="14.00" fill="grey">hit?</text>
<polyline fill="none" stroke="grey" points="141.5,-841.5 141.5,-864.5 "/>
<text text-anchor="middle" x="170" y="-849.3" font-family="Times,serif" font-size="14.00" fill="grey">miss?</text>
<polyline fill="none" stroke="grey" points="198.5,-841.5 198.5,-864.5 "/>
<text text-anchor="middle" x="251" y="-849.3" font-family="Times,serif" font-size="14.00" fill="grey">hit&#45;for&#45;pass?</text>
<polyline fill="none" stroke="grey" points="303.5,-841.5 303.5,-864.5 "/>
<text text-anchor="middle" x="332.5" y="-849.3" font-family="Times,serif" font-size="14.00" fill="grey">busy?</text>
</g>
<!-- lookup&#45;&gt;lookup2 -->
<g id="edge19" class="edge">
<title>lookup:s&#45;&gt;lookup2</title>
<path fill="none" stroke="green" stroke-width="2" d="M119.5,-840C119.5,-823.74 122.3,-806.4 125.98,-790.63"/>
<polygon fill="green" stroke="green" stroke-width="2" points="129.48,-791.06 128.5,-780.51 122.69,-789.36 129.48,-791.06"/>
</g>
<!-- lookup&#45;&gt;lookup -->
<g id="edge16" class="edge">
<title>lookup:e&#45;&gt;lookup:e</title>
<path fill="none" stroke="grey" d="M361.5,-853C367.5,-834 379.5,-834 379.5,-876 379.5,-908.81 372.18,-915.99 366.11,-908.5"/>
<polygon fill="grey" stroke="grey" points="369.01,-906.47 361.5,-899 362.72,-909.52 369.01,-906.47"/>
<text text-anchor="middle" x="423" y="-872.3" font-family="Times,serif" font-size="14.00" fill="grey">(waitinglist)</text>
</g>
<!-- lookup&#45;&gt;miss -->
<g id="edge17" class="edge">
<title>lookup:s&#45;&gt;miss</title>
<path fill="none" stroke="blue" stroke-width="2" d="M169.5,-840C169.5,-777.76 263.02,-833.47 296.5,-781 318.73,-746.16 314.12,-725.39 296.5,-688 291.1,-676.53 282.83,-666.28 273.51,-657.38"/>
<polygon fill="blue" stroke="blue" stroke-width="2" points="275.64,-654.59 265.86,-650.53 270.98,-659.81 275.64,-654.59"/>
</g>
<!-- lookup&#45;&gt;pass -->
<g id="edge18" class="edge">
<title>lookup:s&#45;&gt;pass</title>
<path fill="none" stroke="red" stroke-width="2" d="M251.5,-840C251.5,-800.65 296.39,-814.2 317.5,-781 349.87,-730.1 343.06,-709.81 356.5,-651 368.26,-599.51 380.14,-584.92 370.5,-533 369.97,-530.15 369.29,-527.25 368.5,-524.35"/>
<polygon fill="red" stroke="red" stroke-width="2" points="371.78,-523.11 365.47,-514.6 365.1,-525.19 371.78,-523.11"/>
</g>
<!-- miss&#45;&gt;FETCH -->
<g id="edge23" class="edge">
<title>miss:s&#45;&gt;FETCH</title>
<path fill="none" stroke="blue" stroke-width="2" d="M124.5,-581C124.5,-559.46 155.07,-579 169.5,-563 206.31,-522.19 215.64,-455.57 217.9,-418.35"/>
<polygon fill="blue" stroke="blue" stroke-width="2" points="221.4,-418.4 218.38,-408.25 214.41,-418.07 221.4,-418.4"/>
</g>
<!-- miss&#45;&gt;pass -->
<g id="edge24" class="edge">
<title>miss:s&#45;&gt;pass</title>
<path fill="none" stroke="red" stroke-width="2" d="M298.5,-581C298.5,-560.67 307.06,-540.37 317.24,-523.43"/>
<polygon fill="red" stroke="red" stroke-width="2" points="320.26,-525.21 322.67,-514.89 314.35,-521.45 320.26,-525.21"/>
</g>
<!-- pass&#45;&gt;FETCH -->
<g id="edge25" class="edge">
<title>pass:s&#45;&gt;FETCH</title>
<path fill="none" stroke="red" stroke-width="2" d="M289.5,-445C289.5,-435.9 274.54,-423.78 258.35,-413.32"/>
<polygon fill="red" stroke="red" stroke-width="2" points="260.19,-410.34 249.85,-408.03 256.49,-416.29 260.19,-410.34"/>
</g>
<!-- pipe -->
<g id="node20" class="node">
<title>pipe</title>
<polygon fill="none" stroke="black" points="561,-818.5 561,-933.5 722,-933.5 722,-818.5 561,-818.5"/>
<text text-anchor="middle" x="641.5" y="-918.3" font-family="Times,serif" font-size="14.00">cnt_pipe:</text>
<polyline fill="none" stroke="black" points="561,-910.5 722,-910.5 "/>
<text text-anchor="middle" x="641.5" y="-895.3" font-family="Times,serif" font-size="14.00">filter req.*&#45;&gt;bereq.*</text>
<polyline fill="none" stroke="black" points="561,-887.5 722,-887.5 "/>
<text text-anchor="middle" x="607" y="-860.8" font-family="Times,serif" font-size="14.00">vcl_pipe{}</text>
<polyline fill="none" stroke="black" points="653,-841.5 653,-887.5 "/>
<text text-anchor="middle" x="687.5" y="-872.3" font-family="Times,serif" font-size="14.00">req.*</text>
<polyline fill="none" stroke="black" points="653,-864.5 722,-864.5 "/>
<text text-anchor="middle" x="687.5" y="-849.3" font-family="Times,serif" font-size="14.00">bereq.*</text>
<polyline fill="none" stroke="black" points="561,-841.5 722,-841.5 "/>
<text text-anchor="middle" x="599" y="-826.3" font-family="Times,serif" font-size="14.00">pipe</text>
<polyline fill="none" stroke="black" points="637,-818.5 637,-841.5 "/>
<text text-anchor="middle" x="679.5" y="-826.3" font-family="Times,serif" font-size="14.00">synth</text>
</g>
<!-- pipe_do -->
<g id="node21" class="node">
<title>pipe_do</title>
<ellipse fill="none" stroke="black" cx="681.5" cy="-734.5" rx="120.83" ry="26.74"/>
<text text-anchor="middle" x="681.5" y="-738.3" font-family="Times,serif" font-size="14.00">send bereq,</text>
<text text-anchor="middle" x="681.5" y="-723.3" font-family="Times,serif" font-size="14.00">copy bytes until close</text>
</g>
<!-- pipe&#45;&gt;pipe_do -->
<g id="edge26" class="edge">
<title>pipe:pipe&#45;&gt;pipe_do</title>
<path fill="none" stroke="orange" stroke-width="2" d="M598.5,-818C598.5,-796.87 612.19,-779.3 628.46,-765.87"/>
<polygon fill="orange" stroke="orange" stroke-width="2" points="630.8,-768.49 636.6,-759.62 626.54,-762.94 630.8,-768.49"/>
</g>
<!-- pipe_do&#45;&gt;DONE -->
<g id="edge27" class="edge">
<title>pipe_do&#45;&gt;DONE</title>
<path fill="none" stroke="orange" stroke-width="2" d="M678.35,-707.63C675.76,-684.05 672.5,-648.24 672.5,-617 672.5,-617 672.5,-617 672.5,-90 672.5,-35.9 599.8,-22.04 548.12,-19.03"/>
<polygon fill="orange" stroke="orange" stroke-width="2" points="548.24,-15.53 538.09,-18.56 547.91,-22.52 548.24,-15.53"/>
</g>
<!-- restart&#45;&gt;recv -->
<g id="edge29" class="edge">
<title>restart:s&#45;&gt;recv</title>
<path fill="none" stroke="black" d="M631.5,-1185C631.5,-1173.15 626.81,-1163.12 619.43,-1154.67"/>
<polygon fill="black" stroke="black" points="621.89,-1152.18 612.31,-1147.65 616.97,-1157.16 621.89,-1152.18"/>
</g>
<!-- err_restart -->
<g id="node23" class="node">
<title>err_restart</title>
<text text-anchor="middle" x="712.5" y="-1109.3" font-family="Times,serif" font-size="14.00">SYNTH</text>
</g>
<!-- restart&#45;&gt;err_restart -->
<g id="edge30" class="edge">
<title>restart:s&#45;&gt;err_restart</title>
<path fill="none" stroke="sienna" d="M711.5,-1185C711.5,-1170.65 711.71,-1154.67 711.93,-1141.51"/>
<polygon fill="sienna" stroke="sienna" points="715.44,-1141.28 712.12,-1131.22 708.44,-1141.15 715.44,-1141.28"/>
</g>
<!-- hash&#45;&gt;SYNTH -->
<g id="edge40" class="edge">
<title>hash:lookup&#45;&gt;SYNTH</title>
<path fill="none" stroke="sienna" d="M532.5,-971C532.5,-929.22 532.5,-918.78 532.5,-877 532.5,-877 532.5,-877 532.5,-389 532.5,-374.15 528.75,-358.07 524.68,-344.98"/>
<polygon fill="sienna" stroke="sienna" points="527.9,-343.57 521.41,-335.2 521.26,-345.79 527.9,-343.57"/>
</g>
<!-- hash&#45;&gt;lookup -->
<g id="edge36" class="edge">
<title>hash:lookup&#45;&gt;lookup:n</title>
<path fill="none" stroke="green" stroke-width="2" d="M457.5,-983C407.85,-983 251.54,-967.3 231.6,-921.83"/>
<polygon fill="green" stroke="green" stroke-width="2" points="235.01,-921.05 229.5,-912 228.17,-922.51 235.01,-921.05"/>
</g>
<!-- hash&#45;&gt;pass -->
<g id="edge38" class="edge">
<title>hash:lookup&#45;&gt;pass</title>
<path fill="none" stroke="red" stroke-width="2" d="M532.5,-971C532.5,-960.87 523.21,-961.97 518.5,-953 502.03,-921.64 494.5,-912.42 494.5,-877 494.5,-877 494.5,-877 494.5,-615 494.5,-574.39 463.43,-542.59 430.15,-520.18"/>
<polygon fill="red" stroke="red" stroke-width="2" points="431.95,-517.18 421.66,-514.69 428.15,-523.06 431.95,-517.18"/>
</g>
<!-- hash&#45;&gt;pipe -->
<g id="edge39" class="edge">
<title>hash:lookup&#45;&gt;pipe:n</title>
<path fill="none" stroke="orange" stroke-width="2" d="M607.5,-983C630.59,-983 639.25,-965.93 641.1,-944.01"/>
<polygon fill="orange" stroke="orange" stroke-width="2" points="644.6,-944.13 641.5,-934 637.61,-943.85 644.6,-944.13"/>
</g>
<!-- purge -->
<g id="node25" class="node">
<title>purge</title>
<polygon fill="none" stroke="black" points="740.5,-841.5 740.5,-910.5 896.5,-910.5 896.5,-841.5 740.5,-841.5"/>
<text text-anchor="middle" x="818.5" y="-895.3" font-family="Times,serif" font-size="14.00">cnt_purge:</text>
<polyline fill="none" stroke="black" points="740.5,-887.5 896.5,-887.5 "/>
<text text-anchor="middle" x="792.5" y="-872.3" font-family="Times,serif" font-size="14.00">vcl_purge{}</text>
<polyline fill="none" stroke="black" points="844.5,-864.5 844.5,-887.5 "/>
<text text-anchor="middle" x="870.5" y="-872.3" font-family="Times,serif" font-size="14.00">req.*</text>
<polyline fill="none" stroke="black" points="740.5,-864.5 896.5,-864.5 "/>
<text text-anchor="middle" x="777" y="-849.3" font-family="Times,serif" font-size="14.00">synth</text>
<polyline fill="none" stroke="black" points="813.5,-841.5 813.5,-864.5 "/>
<text text-anchor="middle" x="855" y="-849.3" font-family="Times,serif" font-size="14.00">restart</text>
</g>
<!-- hash&#45;&gt;purge -->
<g id="edge37" class="edge">
<title>hash:lookup&#45;&gt;purge:n</title>
<path fill="none" stroke="purple" stroke-width="2" d="M607.5,-983C653.49,-983 796.34,-964.39 816.2,-922.02"/>
<polygon fill="purple" stroke="purple" stroke-width="2" points="819.67,-922.53 818.5,-912 812.85,-920.96 819.67,-922.53"/>
</g>
</g>
</svg>
