<?xml version="1.0" encoding="UTF-8" standalone="no"?>
<!DOCTYPE svg PUBLIC "-//W3C//DTD SVG 1.1//EN"
 "http://www.w3.org/Graphics/SVG/1.1/DTD/svg11.dtd">
<!-- Generated by graphviz version 2.36.0 (20140111.2315)
 -->
<!-- Title: cache_req_fsm Pages: 1 -->
<svg width="838pt" height="1362pt"
 viewBox="18.00 18.00 820.00 1344.00" xmlns="http://www.w3.org/2000/svg" xmlns:xlink="http://www.w3.org/1999/xlink">
<g id="graph0" class="graph" transform="scale(1 1) rotate(0) translate(22 1340)">
<title>cache_req_fsm</title>
<polygon fill="white" stroke="none" points="-4,4 -4,-1322 798,-1322 798,4 -4,4"/>
<g id="clust3" class="cluster"><title>cluster_backend</title>
<polygon fill="aliceblue" stroke="aliceblue" points="48,-302 48,-412 339,-412 339,-302 48,-302"/>
</g>
<!-- acceptor -->
<g id="node1" class="node"><title>acceptor</title>
<polygon fill="none" stroke="black" points="503.33,-1220 462.165,-1238 379.835,-1238 338.67,-1220 379.835,-1202 462.165,-1202 503.33,-1220"/>
<text text-anchor="middle" x="421" y="-1216.3" font-family="Times,serif" font-size="14.00">Request received</text>
</g>
<!-- recv -->
<g id="node4" class="node"><title>recv</title>
<polygon fill="none" stroke="black" points="467,-1088.5 467,-1157.5 681,-1157.5 681,-1088.5 467,-1088.5"/>
<text text-anchor="middle" x="574" y="-1142.3" font-family="Times,serif" font-size="14.00">cnt_recv:</text>
<polyline fill="none" stroke="black" points="467,-1134.5 681,-1134.5 "/>
<text text-anchor="middle" x="528.5" y="-1119.3" font-family="Times,serif" font-size="14.00">vcl_recv{}</text>
<polyline fill="none" stroke="black" points="590,-1111.5 590,-1134.5 "/>
<text text-anchor="middle" x="635.5" y="-1119.3" font-family="Times,serif" font-size="14.00">req.*</text>
<polyline fill="none" stroke="black" points="467,-1111.5 681,-1111.5 "/>
<text text-anchor="middle" x="487.5" y="-1096.3" font-family="Times,serif" font-size="14.00">hash</text>
<polyline fill="none" stroke="black" points="508,-1088.5 508,-1111.5 "/>
<text text-anchor="middle" x="531.5" y="-1096.3" font-family="Times,serif" font-size="14.00">purge</text>
<polyline fill="none" stroke="black" points="555,-1088.5 555,-1111.5 "/>
<text text-anchor="middle" x="575" y="-1096.3" font-family="Times,serif" font-size="14.00">pass</text>
<polyline fill="none" stroke="black" points="595,-1088.5 595,-1111.5 "/>
<text text-anchor="middle" x="615" y="-1096.3" font-family="Times,serif" font-size="14.00">pipe</text>
<polyline fill="none" stroke="black" points="635,-1088.5 635,-1111.5 "/>
<text text-anchor="middle" x="658" y="-1096.3" font-family="Times,serif" font-size="14.00">synth</text>
</g>
<!-- acceptor&#45;&gt;recv -->
<g id="edge2" class="edge"><title>acceptor&#45;&gt;recv</title>
<path fill="none" stroke="black" stroke-width="2" d="M448.707,-1201.8C466.192,-1190.94 489.514,-1176.46 511.293,-1162.94"/>
<polygon fill="black" stroke="black" stroke-width="2" points="513.219,-1165.86 519.868,-1157.61 509.526,-1159.91 513.219,-1165.86"/>
</g>
<!-- ESI_REQ -->
<g id="node2" class="node"><title>ESI_REQ</title>
<polygon fill="none" stroke="black" points="627.928,-1220 601.464,-1238 548.536,-1238 522.072,-1220 548.536,-1202 601.464,-1202 627.928,-1220"/>
<text text-anchor="middle" x="575" y="-1216.3" font-family="Times,serif" font-size="14.00">ESI_REQ</text>
</g>
<!-- ESI_REQ&#45;&gt;recv -->
<g id="edge1" class="edge"><title>ESI_REQ&#45;&gt;recv</title>
<path fill="none" stroke="black" d="M574.817,-1201.58C574.717,-1192.13 574.589,-1179.99 574.465,-1168.13"/>
<polygon fill="black" stroke="black" points="577.962,-1167.82 574.356,-1157.85 570.962,-1167.89 577.962,-1167.82"/>
</g>
<!-- RESTART -->
<g id="node3" class="node"><title>RESTART</title>
<text text-anchor="middle" x="711" y="-1296.3" font-family="Times,serif" font-size="14.00">RESTART</text>
</g>
<!-- restart -->
<g id="node22" class="node"><title>restart</title>
<polygon fill="none" stroke="grey" points="647,-1197 647,-1243 775,-1243 775,-1197 647,-1197"/>
<text text-anchor="middle" x="711" y="-1227.8" font-family="Times,serif" font-size="14.00" fill="grey">cnt_restart:</text>
<polyline fill="none" stroke="grey" points="647,-1220 775,-1220 "/>
<text text-anchor="middle" x="665" y="-1204.8" font-family="Times,serif" font-size="14.00" fill="grey">ok?</text>
<polyline fill="none" stroke="grey" points="683,-1197 683,-1220 "/>
<text text-anchor="middle" x="729" y="-1204.8" font-family="Times,serif" font-size="14.00" fill="grey">max_restarts?</text>
</g>
<!-- RESTART&#45;&gt;restart -->
<g id="edge28" class="edge"><title>RESTART&#45;&gt;restart</title>
<path fill="none" stroke="purple" d="M711,-1281.69C711,-1273.32 711,-1262.99 711,-1253.24"/>
<polygon fill="purple" stroke="purple" points="714.5,-1253.02 711,-1243.02 707.5,-1253.02 714.5,-1253.02"/>
</g>
<!-- pass -->
<g id="node19" class="node"><title>pass</title>
<polygon fill="none" stroke="black" points="224,-450.5 224,-519.5 364,-519.5 364,-450.5 224,-450.5"/>
<text text-anchor="middle" x="294" y="-504.3" font-family="Times,serif" font-size="14.00">cnt_pass:</text>
<polyline fill="none" stroke="black" points="224,-496.5 364,-496.5 "/>
<text text-anchor="middle" x="267" y="-481.3" font-family="Times,serif" font-size="14.00">vcl_pass{}</text>
<polyline fill="none" stroke="black" points="310,-473.5 310,-496.5 "/>
<text text-anchor="middle" x="337" y="-481.3" font-family="Times,serif" font-size="14.00">req.*</text>
<polyline fill="none" stroke="black" points="224,-473.5 364,-473.5 "/>
<text text-anchor="middle" x="246" y="-458.3" font-family="Times,serif" font-size="14.00">fetch</text>
<polyline fill="none" stroke="black" points="268,-450.5 268,-473.5 "/>
<text text-anchor="middle" x="291" y="-458.3" font-family="Times,serif" font-size="14.00">synth</text>
<polyline fill="none" stroke="black" points="314,-450.5 314,-473.5 "/>
<text text-anchor="middle" x="339" y="-458.3" font-family="Times,serif" font-size="14.00">restart</text>
</g>
<!-- recv&#45;&gt;pass -->
<g id="edge33" class="edge"><title>recv:pass&#45;&gt;pass</title>
<path fill="none" stroke="red" stroke-width="2" d="M575,-1088C575,-1045.78 576,-1035.22 576,-993 576,-993 576,-993 576,-620 576,-530.019 457.424,-500.389 374.053,-490.677"/>
<polygon fill="red" stroke="red" stroke-width="2" points="374.391,-487.193 364.07,-489.588 373.632,-494.152 374.391,-487.193"/>
</g>
<!-- pipe -->
<g id="node20" class="node"><title>pipe</title>
<polygon fill="none" stroke="black" points="620,-934.5 620,-1049.5 754,-1049.5 754,-934.5 620,-934.5"/>
<text text-anchor="middle" x="687" y="-1034.3" font-family="Times,serif" font-size="14.00">cnt_pipe:</text>
<polyline fill="none" stroke="black" points="620,-1026.5 754,-1026.5 "/>
<text text-anchor="middle" x="687" y="-1011.3" font-family="Times,serif" font-size="14.00">filter req.*&#45;&gt;bereq.*</text>
<polyline fill="none" stroke="black" points="620,-1003.5 754,-1003.5 "/>
<text text-anchor="middle" x="658.5" y="-976.8" font-family="Times,serif" font-size="14.00">vcl_pipe{}</text>
<polyline fill="none" stroke="black" points="697,-957.5 697,-1003.5 "/>
<text text-anchor="middle" x="725.5" y="-988.3" font-family="Times,serif" font-size="14.00">req.*</text>
<polyline fill="none" stroke="black" points="697,-980.5 754,-980.5 "/>
<text text-anchor="middle" x="725.5" y="-965.3" font-family="Times,serif" font-size="14.00">bereq.*</text>
<polyline fill="none" stroke="black" points="620,-957.5 754,-957.5 "/>
<text text-anchor="middle" x="652" y="-942.3" font-family="Times,serif" font-size="14.00">pipe</text>
<polyline fill="none" stroke="black" points="684,-934.5 684,-957.5 "/>
<text text-anchor="middle" x="719" y="-942.3" font-family="Times,serif" font-size="14.00">synth</text>
</g>
<!-- recv&#45;&gt;pipe -->
<g id="edge32" class="edge"><title>recv:pipe&#45;&gt;pipe</title>
<path fill="none" stroke="orange" stroke-width="2" d="M615,-1088C615,-1077.76 617.692,-1067.92 622.035,-1058.72"/>
<polygon fill="orange" stroke="orange" stroke-width="2" points="625.213,-1060.2 626.889,-1049.74 619.055,-1056.87 625.213,-1060.2"/>
</g>
<!-- hash -->
<g id="node24" class="node"><title>hash</title>
<polygon fill="none" stroke="black" points="424,-957.5 424,-1026.5 546,-1026.5 546,-957.5 424,-957.5"/>
<text text-anchor="middle" x="485" y="-1011.3" font-family="Times,serif" font-size="14.00">cnt_recv:</text>
<polyline fill="none" stroke="black" points="424,-1003.5 546,-1003.5 "/>
<text text-anchor="middle" x="463" y="-988.3" font-family="Times,serif" font-size="14.00">vcl_hash{}</text>
<polyline fill="none" stroke="black" points="502,-980.5 502,-1003.5 "/>
<text text-anchor="middle" x="524" y="-988.3" font-family="Times,serif" font-size="14.00">req.*</text>
<polyline fill="none" stroke="black" points="424,-980.5 546,-980.5 "/>
<text text-anchor="middle" x="485" y="-965.3" font-family="Times,serif" font-size="14.00">lookup</text>
</g>
<!-- recv&#45;&gt;hash -->
<g id="edge31" class="edge"><title>recv:hash&#45;&gt;hash</title>
<path fill="none" stroke="green" stroke-width="2" d="M487,-1088C487,-1071.36 486.689,-1053.07 486.313,-1037.03"/>
<polygon fill="green" stroke="green" stroke-width="2" points="489.807,-1036.76 486.059,-1026.85 482.809,-1036.94 489.807,-1036.76"/>
</g>
<!-- recv&#45;&gt;hash -->
<g id="edge36" class="edge"><title>recv:purge:s&#45;&gt;hash</title>
<path fill="none" stroke="purple" stroke-width="2" d="M531,-1088C531,-1069.77 524.054,-1051.36 515.561,-1035.67"/>
<polygon fill="purple" stroke="purple" stroke-width="2" points="518.452,-1033.68 510.422,-1026.77 512.389,-1037.18 518.452,-1033.68"/>
</g>
<!-- SYNTH -->
<g id="node5" class="node"><title>SYNTH</title>
<text text-anchor="middle" x="379" y="-316.3" font-family="Times,serif" font-size="14.00">SYNTH</text>
</g>
<!-- synth -->
<g id="node10" class="node"><title>synth</title>
<polygon fill="none" stroke="black" points="257.5,-160 257.5,-252 390.5,-252 390.5,-160 257.5,-160"/>
<text text-anchor="middle" x="324" y="-236.8" font-family="Times,serif" font-size="14.00">cnt_synth:</text>
<polyline fill="none" stroke="black" points="257.5,-229 390.5,-229 "/>
<text text-anchor="middle" x="299" y="-202.3" font-family="Times,serif" font-size="14.00">vcl_synth{}</text>
<polyline fill="none" stroke="black" points="340.5,-183 340.5,-229 "/>
<text text-anchor="middle" x="365.5" y="-213.8" font-family="Times,serif" font-size="14.00">req.*</text>
<polyline fill="none" stroke="black" points="340.5,-206 390.5,-206 "/>
<text text-anchor="middle" x="365.5" y="-190.8" font-family="Times,serif" font-size="14.00">resp.*</text>
<polyline fill="none" stroke="black" points="257.5,-183 390.5,-183 "/>
<text text-anchor="middle" x="291.5" y="-167.8" font-family="Times,serif" font-size="14.00">deliver</text>
<polyline fill="none" stroke="black" points="325.5,-160 325.5,-183 "/>
<text text-anchor="middle" x="358" y="-167.8" font-family="Times,serif" font-size="14.00">restart</text>
</g>
<!-- SYNTH&#45;&gt;synth -->
<g id="edge8" class="edge"><title>SYNTH&#45;&gt;synth</title>
<path fill="none" stroke="purple" d="M370.647,-301.99C365.271,-291.043 357.958,-276.152 350.718,-261.407"/>
<polygon fill="purple" stroke="purple" points="353.786,-259.716 346.237,-252.282 347.503,-262.801 353.786,-259.716"/>
</g>
<!-- deliver -->
<g id="node6" class="node"><title>deliver</title>
<polygon fill="none" stroke="black" points="89,-148.5 89,-263.5 239,-263.5 239,-148.5 89,-148.5"/>
<text text-anchor="middle" x="164" y="-248.3" font-family="Times,serif" font-size="14.00">cnt_deliver:</text>
<polyline fill="none" stroke="black" points="89,-240.5 239,-240.5 "/>
<text text-anchor="middle" x="164" y="-225.3" font-family="Times,serif" font-size="14.00">Filter obj.&#45;&gt;resp.</text>
<polyline fill="none" stroke="black" points="89,-217.5 239,-217.5 "/>
<text text-anchor="middle" x="136.5" y="-190.8" font-family="Times,serif" font-size="14.00">vcl_deliver{}</text>
<polyline fill="none" stroke="black" points="184,-171.5 184,-217.5 "/>
<text text-anchor="middle" x="211.5" y="-202.3" font-family="Times,serif" font-size="14.00">req.*</text>
<polyline fill="none" stroke="black" points="184,-194.5 239,-194.5 "/>
<text text-anchor="middle" x="211.5" y="-179.3" font-family="Times,serif" font-size="14.00">resp.*</text>
<polyline fill="none" stroke="black" points="89,-171.5 239,-171.5 "/>
<text text-anchor="middle" x="114" y="-156.3" font-family="Times,serif" font-size="14.00">restart</text>
<polyline fill="none" stroke="black" points="139,-148.5 139,-171.5 "/>
<text text-anchor="middle" x="166" y="-156.3" font-family="Times,serif" font-size="14.00">deliver</text>
<polyline fill="none" stroke="black" points="193,-148.5 193,-171.5 "/>
<text text-anchor="middle" x="216" y="-156.3" font-family="Times,serif" font-size="14.00">synth</text>
</g>
<!-- V1D_Deliver -->
<g id="node7" class="node"><title>V1D_Deliver</title>
<ellipse fill="none" stroke="black" cx="219" cy="-92" rx="58.2422" ry="18"/>
<text text-anchor="middle" x="219" y="-88.3" font-family="Times,serif" font-size="14.00">V1D_Deliver</text>
</g>
<!-- deliver&#45;&gt;V1D_Deliver -->
<g id="edge3" class="edge"><title>deliver:deliver:s&#45;&gt;V1D_Deliver</title>
<path fill="none" stroke="green" stroke-width="2" d="M166,-148C158.305,-133.488 163.585,-121.332 173.56,-112.17"/>
<polygon fill="green" stroke="green" stroke-width="2" points="175.741,-114.908 181.534,-106.037 171.473,-109.36 175.741,-114.908"/>
</g>
<!-- deliver&#45;&gt;V1D_Deliver -->
<g id="edge4" class="edge"><title>deliver:deliver:s&#45;&gt;V1D_Deliver</title>
<path fill="none" stroke="red" stroke-width="2" d="M166,-148C166,-134.58 174.283,-123.175 184.3,-114.289"/>
<polygon fill="red" stroke="red" stroke-width="2" points="186.556,-116.967 192.189,-107.993 182.19,-111.495 186.556,-116.967"/>
</g>
<!-- deliver&#45;&gt;V1D_Deliver -->
<g id="edge5" class="edge"><title>deliver:deliver:s&#45;&gt;V1D_Deliver</title>
<path fill="none" stroke="blue" stroke-width="2" d="M166,-148C172.724,-135.32 184.331,-124.438 195.297,-115.781"/>
<polygon fill="blue" stroke="blue" stroke-width="2" points="197.602,-118.426 203.466,-109.602 193.379,-112.843 197.602,-118.426"/>
</g>
<!-- DONE -->
<g id="node9" class="node"><title>DONE</title>
<ellipse fill="none" stroke="black" cx="553" cy="-18" rx="35.1455" ry="18"/>
<text text-anchor="middle" x="553" y="-14.3" font-family="Times,serif" font-size="14.00">DONE</text>
</g>
<!-- V1D_Deliver&#45;&gt;DONE -->
<g id="edge7" class="edge"><title>V1D_Deliver&#45;&gt;DONE</title>
<path fill="none" stroke="black" d="M265.441,-80.9887C330.642,-66.9334 448.341,-41.5612 511.034,-28.0465"/>
<polygon fill="black" stroke="black" points="511.937,-31.4324 520.975,-25.9037 510.462,-24.5896 511.937,-31.4324"/>
</g>
<!-- stream -->
<g id="node8" class="node"><title>stream</title>
<ellipse fill="turquoise" stroke="turquoise" cx="450" cy="-206" rx="41.5782" ry="26.7407"/>
<text text-anchor="middle" x="450" y="-209.8" font-family="Times,serif" font-size="14.00">stream?</text>
<text text-anchor="middle" x="450" y="-194.8" font-family="Times,serif" font-size="14.00">body</text>
</g>
<!-- stream&#45;&gt;V1D_Deliver -->
<g id="edge6" class="edge"><title>stream&#45;&gt;V1D_Deliver</title>
<path fill="none" stroke="black" stroke-dasharray="1,5" d="M433.48,-181.097C424.471,-169.642 412.426,-156.582 399,-148 362.886,-124.917 316.525,-111.049 279.898,-103.013"/>
<polygon fill="black" stroke="black" points="280.348,-99.5317 269.842,-100.899 278.908,-106.382 280.348,-99.5317"/>
</g>
<!-- synth&#45;&gt;V1D_Deliver -->
<g id="edge9" class="edge"><title>synth:del:s&#45;&gt;V1D_Deliver</title>
<path fill="none" stroke="purple" d="M291,-159C291,-139.073 275.828,-123.533 259.413,-112.551"/>
<polygon fill="purple" stroke="purple" points="261.137,-109.502 250.79,-107.225 257.459,-115.458 261.137,-109.502"/>
</g>
<!-- see backend graph -->
<g id="node11" class="node"><title>see backend graph</title>
<text text-anchor="middle" x="280" y="-390.3" font-family="Times,serif" font-size="14.00">see backend graph</text>
</g>
<!-- BGFETCH -->
<g id="node12" class="node"><title>BGFETCH</title>
<polygon fill="turquoise" stroke="turquoise" points="126,-412 48,-412 48,-376 126,-376 126,-412"/>
<text text-anchor="middle" x="87" y="-390.3" font-family="Times,serif" font-size="14.00">BGFETCH</text>
</g>
<!-- FETCH -->
<g id="node13" class="node"><title>FETCH</title>
<polygon fill="turquoise" stroke="turquoise" points="203.25,-412 144.75,-412 144.75,-376 203.25,-376 203.25,-412"/>
<text text-anchor="middle" x="174" y="-390.3" font-family="Times,serif" font-size="14.00">FETCH</text>
</g>
<!-- FETCH_DONE -->
<g id="node14" class="node"><title>FETCH_DONE</title>
<polygon fill="turquoise" stroke="turquoise" points="216,-338 112,-338 112,-302 216,-302 216,-338"/>
<text text-anchor="middle" x="164" y="-316.3" font-family="Times,serif" font-size="14.00">FETCH_DONE</text>
</g>
<!-- FETCH&#45;&gt;FETCH_DONE -->
<g id="edge14" class="edge"><title>FETCH&#45;&gt;FETCH_DONE</title>
<path fill="none" stroke="black" stroke-dasharray="1,5" d="M171.63,-375.937C170.489,-367.719 169.092,-357.66 167.806,-348.406"/>
<polygon fill="black" stroke="black" points="171.265,-347.864 166.422,-338.441 164.331,-348.827 171.265,-347.864"/>
</g>
<!-- FETCH_FAIL -->
<g id="node15" class="node"><title>FETCH_FAIL</title>
<polygon fill="turquoise" stroke="turquoise" points="330,-338 234,-338 234,-302 330,-302 330,-338"/>
<text text-anchor="middle" x="282" y="-316.3" font-family="Times,serif" font-size="14.00">FETCH_FAIL</text>
</g>
<!-- FETCH&#45;&gt;FETCH_FAIL -->
<g id="edge15" class="edge"><title>FETCH&#45;&gt;FETCH_FAIL</title>
<path fill="none" stroke="black" stroke-dasharray="1,5" d="M199.594,-375.937C214.015,-366.323 232.214,-354.19 247.839,-343.774"/>
<polygon fill="black" stroke="black" points="249.836,-346.649 256.215,-338.19 245.953,-340.825 249.836,-346.649"/>
</g>
<!-- FETCH_DONE&#45;&gt;deliver -->
<g id="edge12" class="edge"><title>FETCH_DONE&#45;&gt;deliver</title>
<path fill="none" stroke="red" stroke-width="2" d="M158.991,-301.99C158.124,-294.106 157.581,-284.176 157.361,-273.728"/>
<polygon fill="red" stroke="red" stroke-width="2" points="160.86,-273.563 157.25,-263.602 153.86,-273.64 160.86,-273.563"/>
</g>
<!-- FETCH_DONE&#45;&gt;deliver -->
<g id="edge13" class="edge"><title>FETCH_DONE&#45;&gt;deliver</title>
<path fill="none" stroke="blue" stroke-width="2" d="M169.009,-301.99C169.876,-294.106 170.419,-284.176 170.639,-273.728"/>
<polygon fill="blue" stroke="blue" stroke-width="2" points="174.14,-273.64 170.75,-263.602 167.14,-273.563 174.14,-273.64"/>
</g>
<!-- FETCH_FAIL&#45;&gt;synth -->
<g id="edge11" class="edge"><title>FETCH_FAIL&#45;&gt;synth</title>
<path fill="none" stroke="purple" d="M288.379,-301.99C292.445,-291.147 297.963,-276.432 303.441,-261.824"/>
<polygon fill="purple" stroke="purple" points="306.785,-262.875 307.019,-252.282 300.231,-260.417 306.785,-262.875"/>
</g>
<!-- lookup2 -->
<g id="node16" class="node"><title>lookup2</title>
<polygon fill="none" stroke="black" points="0,-695 0,-787 234,-787 234,-695 0,-695"/>
<text text-anchor="middle" x="117" y="-771.8" font-family="Times,serif" font-size="14.00">cnt_lookup:</text>
<polyline fill="none" stroke="black" points="0,-764 234,-764 "/>
<text text-anchor="middle" x="64.5" y="-737.3" font-family="Times,serif" font-size="14.00">vcl_hit{}</text>
<polyline fill="none" stroke="black" points="129,-718 129,-764 "/>
<text text-anchor="middle" x="181.5" y="-748.8" font-family="Times,serif" font-size="14.00">req.*</text>
<polyline fill="none" stroke="black" points="129,-741 234,-741 "/>
<text text-anchor="middle" x="181.5" y="-725.8" font-family="Times,serif" font-size="14.00">obj.*</text>
<polyline fill="none" stroke="black" points="0,-718 234,-718 "/>
<text text-anchor="middle" x="27" y="-702.8" font-family="Times,serif" font-size="14.00">deliver</text>
<polyline fill="none" stroke="black" points="54,-695 54,-718 "/>
<text text-anchor="middle" x="76" y="-702.8" font-family="Times,serif" font-size="14.00">fetch</text>
<polyline fill="none" stroke="black" points="98,-695 98,-718 "/>
<text text-anchor="middle" x="123" y="-702.8" font-family="Times,serif" font-size="14.00">restart</text>
<polyline fill="none" stroke="black" points="148,-695 148,-718 "/>
<text text-anchor="middle" x="171" y="-702.8" font-family="Times,serif" font-size="14.00">synth</text>
<polyline fill="none" stroke="black" points="194,-695 194,-718 "/>
<text text-anchor="middle" x="214" y="-702.8" font-family="Times,serif" font-size="14.00">pass</text>
</g>
<!-- lookup2&#45;&gt;deliver -->
<g id="edge20" class="edge"><title>lookup2:deliver:s&#45;&gt;deliver:n</title>
<path fill="none" stroke="green" stroke-width="2" d="M27,-694C27,-661.849 20,-654.151 20,-622 20,-622 20,-622 20,-319 20,-254.237 148.681,-323.989 162.755,-273.938"/>
<polygon fill="green" stroke="green" stroke-width="2" points="166.23,-274.358 164,-264 159.284,-273.487 166.23,-274.358"/>
</g>
<!-- lookup2&#45;&gt;BGFETCH -->
<g id="edge10" class="edge"><title>lookup2:deliver:s&#45;&gt;BGFETCH</title>
<path fill="none" stroke="green" d="M27,-694C27,-685.416 31.6977,-684.269 34,-676 50.6975,-616.027 46.479,-599.179 58,-538 65.6072,-497.604 75.2223,-450.964 81.2433,-422.226"/>
<polygon fill="green" stroke="green" points="84.7317,-422.645 83.3633,-412.139 77.8814,-421.205 84.7317,-422.645"/>
<text text-anchor="middle" x="95" y="-556.8" font-family="Times,serif" font-size="14.00">parallel</text>
<text text-anchor="middle" x="95" y="-541.8" font-family="Times,serif" font-size="14.00">if obj expired</text>
</g>
<!-- miss -->
<g id="node18" class="node"><title>miss</title>
<polygon fill="none" stroke="black" points="86,-586.5 86,-655.5 266,-655.5 266,-586.5 86,-586.5"/>
<text text-anchor="middle" x="176" y="-640.3" font-family="Times,serif" font-size="14.00">cnt_miss:</text>
<polyline fill="none" stroke="black" points="86,-632.5 266,-632.5 "/>
<text text-anchor="middle" x="139.5" y="-617.3" font-family="Times,serif" font-size="14.00">vcl_miss{}</text>
<polyline fill="none" stroke="black" points="193,-609.5 193,-632.5 "/>
<text text-anchor="middle" x="229.5" y="-617.3" font-family="Times,serif" font-size="14.00">req.*</text>
<polyline fill="none" stroke="black" points="86,-609.5 266,-609.5 "/>
<text text-anchor="middle" x="108" y="-594.3" font-family="Times,serif" font-size="14.00">fetch</text>
<polyline fill="none" stroke="black" points="130,-586.5 130,-609.5 "/>
<text text-anchor="middle" x="153" y="-594.3" font-family="Times,serif" font-size="14.00">synth</text>
<polyline fill="none" stroke="black" points="176,-586.5 176,-609.5 "/>
<text text-anchor="middle" x="201" y="-594.3" font-family="Times,serif" font-size="14.00">restart</text>
<polyline fill="none" stroke="black" points="226,-586.5 226,-609.5 "/>
<text text-anchor="middle" x="246" y="-594.3" font-family="Times,serif" font-size="14.00">pass</text>
</g>
<!-- lookup2&#45;&gt;miss -->
<g id="edge21" class="edge"><title>lookup2:fetch:s&#45;&gt;miss</title>
<path fill="none" stroke="blue" stroke-width="2" d="M76,-694C76,-681.921 80.8643,-671.668 88.4471,-663.023"/>
<polygon fill="blue" stroke="blue" stroke-width="2" points="91.0812,-665.342 95.7568,-655.834 86.1728,-660.351 91.0812,-665.342"/>
</g>
<!-- lookup2&#45;&gt;pass -->
<g id="edge22" class="edge"><title>lookup2:pass:s&#45;&gt;pass</title>
<path fill="none" stroke="red" stroke-width="2" d="M214,-694C214,-662.059 257.966,-683.02 275,-656 298.712,-618.387 301.187,-566.622 299.155,-530.124"/>
<polygon fill="red" stroke="red" stroke-width="2" points="302.622,-529.523 298.438,-519.79 295.639,-530.008 302.622,-529.523"/>
</g>
<!-- lookup -->
<g id="node17" class="node"><title>lookup</title>
<polygon fill="none" stroke="grey" points="99,-826.5 99,-895.5 317,-895.5 317,-826.5 99,-826.5"/>
<text text-anchor="middle" x="208" y="-880.3" font-family="Times,serif" font-size="14.00" fill="grey">cnt_lookup:</text>
<polyline fill="none" stroke="grey" points="99,-872.5 317,-872.5 "/>
<text text-anchor="middle" x="208" y="-857.3" font-family="Times,serif" font-size="14.00" fill="grey">hash lookup</text>
<polyline fill="none" stroke="grey" points="99,-849.5 317,-849.5 "/>
<text text-anchor="middle" x="117.5" y="-834.3" font-family="Times,serif" font-size="14.00" fill="grey">hit?</text>
<polyline fill="none" stroke="grey" points="136,-826.5 136,-849.5 "/>
<text text-anchor="middle" x="160" y="-834.3" font-family="Times,serif" font-size="14.00" fill="grey">miss?</text>
<polyline fill="none" stroke="grey" points="184,-826.5 184,-849.5 "/>
<text text-anchor="middle" x="226.5" y="-834.3" font-family="Times,serif" font-size="14.00" fill="grey">hit&#45;for&#45;pass?</text>
<polyline fill="none" stroke="grey" points="269,-826.5 269,-849.5 "/>
<text text-anchor="middle" x="293" y="-834.3" font-family="Times,serif" font-size="14.00" fill="grey">busy?</text>
</g>
<!-- lookup&#45;&gt;lookup2 -->
<g id="edge19" class="edge"><title>lookup:h:s&#45;&gt;lookup2</title>
<path fill="none" stroke="green" stroke-width="2" d="M117,-826C117,-816.79 117,-807.011 117,-797.506"/>
<polygon fill="green" stroke="green" stroke-width="2" points="120.5,-797.338 117,-787.338 113.5,-797.338 120.5,-797.338"/>
</g>
<!-- lookup&#45;&gt;lookup -->
<g id="edge16" class="edge"><title>lookup:busy:e&#45;&gt;lookup:top:e</title>
<path fill="none" stroke="grey" d="M317,-838C323,-824.5 335,-824.5 335,-861 335,-886.664 329.067,-894.283 323.459,-891.852"/>
<polygon fill="grey" stroke="grey" points="326.056,-889.499 317,-884 320.65,-893.946 326.056,-889.499"/>
<text text-anchor="middle" x="368.5" y="-857.3" font-family="Times,serif" font-size="14.00" fill="grey">(waitinglist)</text>
</g>
<!-- lookup&#45;&gt;miss -->
<g id="edge17" class="edge"><title>lookup:miss:s&#45;&gt;miss</title>
<path fill="none" stroke="blue" stroke-width="2" d="M160,-826C160,-785.429 221.082,-822.141 243,-788 265.57,-752.844 258.291,-732.879 243,-694 238.606,-682.827 231.571,-672.36 223.678,-663.055"/>
<polygon fill="blue" stroke="blue" stroke-width="2" points="226.181,-660.604 216.885,-655.521 220.982,-665.291 226.181,-660.604"/>
</g>
<!-- lookup&#45;&gt;pass -->
<g id="edge18" class="edge"><title>lookup:hfp:s&#45;&gt;pass</title>
<path fill="none" stroke="red" stroke-width="2" d="M227,-826C227,-802.116 253.012,-808.658 265,-788 315.28,-701.359 306.661,-667.904 314,-568 314.977,-554.703 316.434,-551.109 314,-538 313.47,-535.147 312.79,-532.249 312.002,-529.355"/>
<polygon fill="red" stroke="red" stroke-width="2" points="315.281,-528.113 308.968,-519.604 308.597,-530.193 315.281,-528.113"/>
</g>
<!-- miss&#45;&gt;FETCH -->
<g id="edge23" class="edge"><title>miss:fetch:s&#45;&gt;FETCH</title>
<path fill="none" stroke="blue" stroke-width="2" d="M108,-586C108,-571.206 127.551,-580.144 136,-568 166.796,-523.734 173.232,-458.937 174.231,-422.507"/>
<polygon fill="blue" stroke="blue" stroke-width="2" points="177.736,-422.218 174.387,-412.166 170.736,-422.112 177.736,-422.218"/>
</g>
<!-- miss&#45;&gt;pass -->
<g id="edge24" class="edge"><title>miss:pass:s&#45;&gt;pass</title>
<path fill="none" stroke="red" stroke-width="2" d="M246,-586C246,-566.014 253.889,-545.798 263.27,-528.823"/>
<polygon fill="red" stroke="red" stroke-width="2" points="266.553,-530.144 268.594,-519.748 260.515,-526.602 266.553,-530.144"/>
</g>
<!-- pass&#45;&gt;FETCH -->
<g id="edge25" class="edge"><title>pass:fetch:s&#45;&gt;FETCH</title>
<path fill="none" stroke="red" stroke-width="2" d="M246,-450C246,-440.356 229.48,-427.331 212.266,-416.378"/>
<polygon fill="red" stroke="red" stroke-width="2" points="213.639,-413.114 203.285,-410.867 209.978,-419.08 213.639,-413.114"/>
</g>
<!-- pipe_do -->
<g id="node21" class="node"><title>pipe_do</title>
<ellipse fill="none" stroke="black" cx="699" cy="-861" rx="95.1892" ry="26.7407"/>
<text text-anchor="middle" x="699" y="-864.8" font-family="Times,serif" font-size="14.00">send bereq,</text>
<text text-anchor="middle" x="699" y="-849.8" font-family="Times,serif" font-size="14.00">copy bytes until close</text>
</g>
<!-- pipe&#45;&gt;pipe_do -->
<g id="edge26" class="edge"><title>pipe:pipe&#45;&gt;pipe_do</title>
<path fill="none" stroke="orange" stroke-width="2" d="M652,-934C652,-919.826 658.466,-906.261 666.601,-894.803"/>
<polygon fill="orange" stroke="orange" stroke-width="2" points="669.4,-896.905 672.752,-886.854 663.864,-892.622 669.4,-896.905"/>
</g>
<!-- pipe_do&#45;&gt;DONE -->
<g id="edge27" class="edge"><title>pipe_do&#45;&gt;DONE</title>
<path fill="none" stroke="orange" stroke-width="2" d="M683.719,-834.266C671.359,-810.993 656,-775.36 656,-742 656,-742 656,-742 656,-91 656,-59.0489 622.294,-40.0917 593.445,-29.7177"/>
<polygon fill="orange" stroke="orange" stroke-width="2" points="594.497,-26.3791 583.903,-26.5223 592.274,-33.0168 594.497,-26.3791"/>
</g>
<!-- restart&#45;&gt;recv -->
<g id="edge29" class="edge"><title>restart:ok:s&#45;&gt;recv</title>
<path fill="none" stroke="black" d="M665,-1196C665,-1184 660.075,-1173.69 652.517,-1164.93"/>
<polygon fill="black" stroke="black" points="654.787,-1162.25 645.254,-1157.63 649.824,-1167.18 654.787,-1162.25"/>
</g>
<!-- err_restart -->
<g id="node23" class="node"><title>err_restart</title>
<text text-anchor="middle" x="730" y="-1119.3" font-family="Times,serif" font-size="14.00">SYNTH</text>
</g>
<!-- restart&#45;&gt;err_restart -->
<g id="edge30" class="edge"><title>restart:max:s&#45;&gt;err_restart</title>
<path fill="none" stroke="purple" d="M729,-1196C729,-1181.2 729.214,-1164.7 729.444,-1151.23"/>
<polygon fill="purple" stroke="purple" points="732.944,-1151.23 729.628,-1141.17 725.945,-1151.1 732.944,-1151.23"/>
</g>
<!-- hash&#45;&gt;lookup -->
<g id="edge34" class="edge"><title>hash:lookup:w&#45;&gt;lookup</title>
<path fill="none" stroke="green" stroke-width="2" d="M423,-969C360.395,-969 297.264,-932.188 255.762,-901.748"/>
<polygon fill="green" stroke="green" stroke-width="2" points="257.602,-898.754 247.5,-895.562 253.407,-904.357 257.602,-898.754"/>
</g>
<!-- purge -->
<g id="node25" class="node"><title>purge</title>
<polygon fill="none" stroke="black" points="420,-826.5 420,-895.5 548,-895.5 548,-826.5 420,-826.5"/>
<text text-anchor="middle" x="484" y="-880.3" font-family="Times,serif" font-size="14.00">cnt_purge:</text>
<polyline fill="none" stroke="black" points="420,-872.5 548,-872.5 "/>
<text text-anchor="middle" x="462" y="-857.3" font-family="Times,serif" font-size="14.00">vcl_purge{}</text>
<polyline fill="none" stroke="black" points="504,-849.5 504,-872.5 "/>
<text text-anchor="middle" x="526" y="-857.3" font-family="Times,serif" font-size="14.00">req.*</text>
<polyline fill="none" stroke="black" points="420,-849.5 548,-849.5 "/>
<text text-anchor="middle" x="451" y="-834.3" font-family="Times,serif" font-size="14.00">synth</text>
<polyline fill="none" stroke="black" points="482,-826.5 482,-849.5 "/>
<text text-anchor="middle" x="515" y="-834.3" font-family="Times,serif" font-size="14.00">restart</text>
</g>
<!-- hash&#45;&gt;purge -->
<g id="edge35" class="edge"><title>hash:lookup:s&#45;&gt;purge:top:n</title>
<path fill="none" stroke="purple" stroke-width="2" d="M485,-956C485,-933.08 484.261,-924.939 484.054,-906.176"/>
<polygon fill="purple" stroke="purple" stroke-width="2" points="487.553,-905.981 484,-896 480.553,-906.018 487.553,-905.981"/>
</g>
</g>
</svg>
