<?xml version="1.0" encoding="UTF-8" standalone="no"?>
<!DOCTYPE svg PUBLIC "-//W3C//DTD SVG 1.1//EN"
 "http://www.w3.org/Graphics/SVG/1.1/DTD/svg11.dtd">
<!-- Generated by graphviz version 2.36.0 (20140111.2315)
 -->
<!-- Title: cache_req_fsm Pages: 1 -->
<svg width="781pt" height="1362pt"
 viewBox="18.00 18.00 763.00 1344.00" xmlns="http://www.w3.org/2000/svg" xmlns:xlink="http://www.w3.org/1999/xlink">
<g id="graph0" class="graph" transform="scale(1 1) rotate(0) translate(22 1340)">
<title>cache_req_fsm</title>
<polygon fill="white" stroke="none" points="-4,4 -4,-1322 741,-1322 741,4 -4,4"/>
<g id="clust3" class="cluster"><title>cluster_backend</title>
<polygon fill="aliceblue" stroke="aliceblue" points="47,-302 47,-412 338,-412 338,-302 47,-302"/>
</g>
<!-- acceptor -->
<g id="node1" class="node"><title>acceptor</title>
<polygon fill="none" stroke="black" points="562.33,-1220 521.165,-1238 438.835,-1238 397.67,-1220 438.835,-1202 521.165,-1202 562.33,-1220"/>
<text text-anchor="middle" x="480" y="-1216.3" font-family="Times,serif" font-size="14.00">Request received</text>
</g>
<!-- recv -->
<g id="node4" class="node"><title>recv</title>
<polygon fill="none" stroke="black" points="373,-1088.5 373,-1157.5 587,-1157.5 587,-1088.5 373,-1088.5"/>
<text text-anchor="middle" x="480" y="-1142.3" font-family="Times,serif" font-size="14.00">cnt_recv:</text>
<polyline fill="none" stroke="black" points="373,-1134.5 587,-1134.5 "/>
<text text-anchor="middle" x="434.5" y="-1119.3" font-family="Times,serif" font-size="14.00">vcl_recv{}</text>
<polyline fill="none" stroke="black" points="496,-1111.5 496,-1134.5 "/>
<text text-anchor="middle" x="541.5" y="-1119.3" font-family="Times,serif" font-size="14.00">req.*</text>
<polyline fill="none" stroke="black" points="373,-1111.5 587,-1111.5 "/>
<text text-anchor="middle" x="393.5" y="-1096.3" font-family="Times,serif" font-size="14.00">hash</text>
<polyline fill="none" stroke="black" points="414,-1088.5 414,-1111.5 "/>
<text text-anchor="middle" x="437.5" y="-1096.3" font-family="Times,serif" font-size="14.00">purge</text>
<polyline fill="none" stroke="black" points="461,-1088.5 461,-1111.5 "/>
<text text-anchor="middle" x="481" y="-1096.3" font-family="Times,serif" font-size="14.00">pass</text>
<polyline fill="none" stroke="black" points="501,-1088.5 501,-1111.5 "/>
<text text-anchor="middle" x="521" y="-1096.3" font-family="Times,serif" font-size="14.00">pipe</text>
<polyline fill="none" stroke="black" points="541,-1088.5 541,-1111.5 "/>
<text text-anchor="middle" x="564" y="-1096.3" font-family="Times,serif" font-size="14.00">synth</text>
</g>
<!-- acceptor&#45;&gt;recv -->
<g id="edge2" class="edge"><title>acceptor&#45;&gt;recv</title>
<path fill="none" stroke="black" stroke-width="2" d="M480,-1201.58C480,-1192.13 480,-1179.99 480,-1168.13"/>
<polygon fill="black" stroke="black" stroke-width="2" points="483.5,-1167.85 480,-1157.85 476.5,-1167.85 483.5,-1167.85"/>
</g>
<!-- ESI_REQ -->
<g id="node2" class="node"><title>ESI_REQ</title>
<polygon fill="none" stroke="black" points="378.928,-1220 352.464,-1238 299.536,-1238 273.072,-1220 299.536,-1202 352.464,-1202 378.928,-1220"/>
<text text-anchor="middle" x="326" y="-1216.3" font-family="Times,serif" font-size="14.00">ESI_REQ</text>
</g>
<!-- ESI_REQ&#45;&gt;recv -->
<g id="edge1" class="edge"><title>ESI_REQ&#45;&gt;recv</title>
<path fill="none" stroke="black" d="M353.178,-1202.23C370.863,-1191.32 394.693,-1176.62 416.922,-1162.91"/>
<polygon fill="black" stroke="black" points="418.998,-1165.74 425.672,-1157.51 415.323,-1159.79 418.998,-1165.74"/>
</g>
<!-- RESTART -->
<g id="node3" class="node"><title>RESTART</title>
<text text-anchor="middle" x="645" y="-1296.3" font-family="Times,serif" font-size="14.00">RESTART</text>
</g>
<!-- restart -->
<g id="node22" class="node"><title>restart</title>
<polygon fill="none" stroke="grey" points="581,-1197 581,-1243 709,-1243 709,-1197 581,-1197"/>
<text text-anchor="middle" x="645" y="-1227.8" font-family="Times,serif" font-size="14.00" fill="grey">cnt_restart:</text>
<polyline fill="none" stroke="grey" points="581,-1220 709,-1220 "/>
<text text-anchor="middle" x="599" y="-1204.8" font-family="Times,serif" font-size="14.00" fill="grey">ok?</text>
<polyline fill="none" stroke="grey" points="617,-1197 617,-1220 "/>
<text text-anchor="middle" x="663" y="-1204.8" font-family="Times,serif" font-size="14.00" fill="grey">max_restarts?</text>
</g>
<!-- RESTART&#45;&gt;restart -->
<g id="edge28" class="edge"><title>RESTART&#45;&gt;restart</title>
<path fill="none" stroke="purple" d="M645,-1281.69C645,-1273.32 645,-1262.99 645,-1253.24"/>
<polygon fill="purple" stroke="purple" points="648.5,-1253.02 645,-1243.02 641.5,-1253.02 648.5,-1253.02"/>
</g>
<!-- hash -->
<g id="node24" class="node"><title>hash</title>
<polygon fill="none" stroke="black" points="398,-980.5 398,-1049.5 520,-1049.5 520,-980.5 398,-980.5"/>
<text text-anchor="middle" x="459" y="-1034.3" font-family="Times,serif" font-size="14.00">cnt_recv:</text>
<polyline fill="none" stroke="black" points="398,-1026.5 520,-1026.5 "/>
<text text-anchor="middle" x="437" y="-1011.3" font-family="Times,serif" font-size="14.00">vcl_hash{}</text>
<polyline fill="none" stroke="black" points="476,-1003.5 476,-1026.5 "/>
<text text-anchor="middle" x="498" y="-1011.3" font-family="Times,serif" font-size="14.00">req.*</text>
<polyline fill="none" stroke="black" points="398,-1003.5 520,-1003.5 "/>
<text text-anchor="middle" x="459" y="-988.3" font-family="Times,serif" font-size="14.00">lookup</text>
</g>
<!-- recv&#45;&gt;hash -->
<g id="edge31" class="edge"><title>recv:hash:s&#45;&gt;hash</title>
<path fill="none" stroke="green" stroke-width="2" d="M393,-1088C393,-1076.83 397.366,-1066.65 403.852,-1057.68"/>
<polygon fill="green" stroke="green" stroke-width="2" points="406.692,-1059.74 410.341,-1049.79 401.286,-1055.29 406.692,-1059.74"/>
</g>
<!-- recv&#45;&gt;hash -->
<g id="edge32" class="edge"><title>recv:purge:s&#45;&gt;hash</title>
<path fill="none" stroke="purple" stroke-width="2" d="M437,-1088C437,-1078.59 438.739,-1068.79 441.239,-1059.54"/>
<polygon fill="purple" stroke="purple" stroke-width="2" points="444.645,-1060.37 444.204,-1049.79 437.947,-1058.34 444.645,-1060.37"/>
</g>
<!-- recv&#45;&gt;hash -->
<g id="edge33" class="edge"><title>recv:pass:s&#45;&gt;hash</title>
<path fill="none" stroke="red" stroke-width="2" d="M481,-1088C481,-1078.59 479.261,-1068.79 476.761,-1059.54"/>
<polygon fill="red" stroke="red" stroke-width="2" points="480.053,-1058.34 473.796,-1049.79 473.355,-1060.37 480.053,-1058.34"/>
</g>
<!-- recv&#45;&gt;hash -->
<g id="edge34" class="edge"><title>recv:pipe:s&#45;&gt;hash</title>
<path fill="none" stroke="orange" stroke-width="2" d="M521,-1088C521,-1076.89 516.706,-1066.63 510.377,-1057.56"/>
<polygon fill="orange" stroke="orange" stroke-width="2" points="513.006,-1055.24 504.058,-1049.57 507.515,-1059.59 513.006,-1055.24"/>
</g>
<!-- SYNTH -->
<g id="node5" class="node"><title>SYNTH</title>
<text text-anchor="middle" x="375" y="-316.3" font-family="Times,serif" font-size="14.00">SYNTH</text>
</g>
<!-- synth -->
<g id="node10" class="node"><title>synth</title>
<polygon fill="none" stroke="black" points="253.5,-160 253.5,-252 386.5,-252 386.5,-160 253.5,-160"/>
<text text-anchor="middle" x="320" y="-236.8" font-family="Times,serif" font-size="14.00">cnt_synth:</text>
<polyline fill="none" stroke="black" points="253.5,-229 386.5,-229 "/>
<text text-anchor="middle" x="295" y="-202.3" font-family="Times,serif" font-size="14.00">vcl_synth{}</text>
<polyline fill="none" stroke="black" points="336.5,-183 336.5,-229 "/>
<text text-anchor="middle" x="361.5" y="-213.8" font-family="Times,serif" font-size="14.00">req.*</text>
<polyline fill="none" stroke="black" points="336.5,-206 386.5,-206 "/>
<text text-anchor="middle" x="361.5" y="-190.8" font-family="Times,serif" font-size="14.00">resp.*</text>
<polyline fill="none" stroke="black" points="253.5,-183 386.5,-183 "/>
<text text-anchor="middle" x="287.5" y="-167.8" font-family="Times,serif" font-size="14.00">deliver</text>
<polyline fill="none" stroke="black" points="321.5,-160 321.5,-183 "/>
<text text-anchor="middle" x="354" y="-167.8" font-family="Times,serif" font-size="14.00">restart</text>
</g>
<!-- SYNTH&#45;&gt;synth -->
<g id="edge8" class="edge"><title>SYNTH&#45;&gt;synth</title>
<path fill="none" stroke="purple" d="M366.647,-301.99C361.271,-291.043 353.958,-276.152 346.718,-261.407"/>
<polygon fill="purple" stroke="purple" points="349.786,-259.716 342.237,-252.282 343.503,-262.801 349.786,-259.716"/>
</g>
<!-- deliver -->
<g id="node6" class="node"><title>deliver</title>
<polygon fill="none" stroke="black" points="85,-148.5 85,-263.5 235,-263.5 235,-148.5 85,-148.5"/>
<text text-anchor="middle" x="160" y="-248.3" font-family="Times,serif" font-size="14.00">cnt_deliver:</text>
<polyline fill="none" stroke="black" points="85,-240.5 235,-240.5 "/>
<text text-anchor="middle" x="160" y="-225.3" font-family="Times,serif" font-size="14.00">Filter obj.&#45;&gt;resp.</text>
<polyline fill="none" stroke="black" points="85,-217.5 235,-217.5 "/>
<text text-anchor="middle" x="132.5" y="-190.8" font-family="Times,serif" font-size="14.00">vcl_deliver{}</text>
<polyline fill="none" stroke="black" points="180,-171.5 180,-217.5 "/>
<text text-anchor="middle" x="207.5" y="-202.3" font-family="Times,serif" font-size="14.00">req.*</text>
<polyline fill="none" stroke="black" points="180,-194.5 235,-194.5 "/>
<text text-anchor="middle" x="207.5" y="-179.3" font-family="Times,serif" font-size="14.00">resp.*</text>
<polyline fill="none" stroke="black" points="85,-171.5 235,-171.5 "/>
<text text-anchor="middle" x="110" y="-156.3" font-family="Times,serif" font-size="14.00">restart</text>
<polyline fill="none" stroke="black" points="135,-148.5 135,-171.5 "/>
<text text-anchor="middle" x="162" y="-156.3" font-family="Times,serif" font-size="14.00">deliver</text>
<polyline fill="none" stroke="black" points="189,-148.5 189,-171.5 "/>
<text text-anchor="middle" x="212" y="-156.3" font-family="Times,serif" font-size="14.00">synth</text>
</g>
<!-- V1D_Deliver -->
<g id="node7" class="node"><title>V1D_Deliver</title>
<ellipse fill="none" stroke="black" cx="215" cy="-92" rx="58.2422" ry="18"/>
<text text-anchor="middle" x="215" y="-88.3" font-family="Times,serif" font-size="14.00">V1D_Deliver</text>
</g>
<!-- deliver&#45;&gt;V1D_Deliver -->
<g id="edge3" class="edge"><title>deliver:deliver:s&#45;&gt;V1D_Deliver</title>
<path fill="none" stroke="green" stroke-width="2" d="M162,-148C154.305,-133.488 159.585,-121.332 169.56,-112.17"/>
<polygon fill="green" stroke="green" stroke-width="2" points="171.741,-114.908 177.534,-106.037 167.473,-109.36 171.741,-114.908"/>
</g>
<!-- deliver&#45;&gt;V1D_Deliver -->
<g id="edge4" class="edge"><title>deliver:deliver:s&#45;&gt;V1D_Deliver</title>
<path fill="none" stroke="red" stroke-width="2" d="M162,-148C162,-134.58 170.283,-123.175 180.3,-114.289"/>
<polygon fill="red" stroke="red" stroke-width="2" points="182.556,-116.967 188.189,-107.993 178.19,-111.495 182.556,-116.967"/>
</g>
<!-- deliver&#45;&gt;V1D_Deliver -->
<g id="edge5" class="edge"><title>deliver:deliver:s&#45;&gt;V1D_Deliver</title>
<path fill="none" stroke="blue" stroke-width="2" d="M162,-148C168.724,-135.32 180.331,-124.438 191.297,-115.781"/>
<polygon fill="blue" stroke="blue" stroke-width="2" points="193.602,-118.426 199.466,-109.602 189.379,-112.843 193.602,-118.426"/>
</g>
<!-- DONE -->
<g id="node9" class="node"><title>DONE</title>
<ellipse fill="none" stroke="black" cx="445" cy="-18" rx="35.1455" ry="18"/>
<text text-anchor="middle" x="445" y="-14.3" font-family="Times,serif" font-size="14.00">DONE</text>
</g>
<!-- V1D_Deliver&#45;&gt;DONE -->
<g id="edge7" class="edge"><title>V1D_Deliver&#45;&gt;DONE</title>
<path fill="none" stroke="black" d="M254.277,-78.7046C296.681,-65.4302 363.813,-44.4151 406.078,-31.1841"/>
<polygon fill="black" stroke="black" points="407.241,-34.4878 415.739,-28.1601 405.15,-27.8075 407.241,-34.4878"/>
</g>
<!-- stream -->
<g id="node8" class="node"><title>stream</title>
<ellipse fill="turquoise" stroke="turquoise" cx="446" cy="-206" rx="41.5782" ry="26.7407"/>
<text text-anchor="middle" x="446" y="-209.8" font-family="Times,serif" font-size="14.00">stream?</text>
<text text-anchor="middle" x="446" y="-194.8" font-family="Times,serif" font-size="14.00">body</text>
</g>
<!-- stream&#45;&gt;V1D_Deliver -->
<g id="edge6" class="edge"><title>stream&#45;&gt;V1D_Deliver</title>
<path fill="none" stroke="black" stroke-dasharray="1,5" d="M429.48,-181.097C420.471,-169.642 408.426,-156.582 395,-148 358.886,-124.917 312.525,-111.049 275.898,-103.013"/>
<polygon fill="black" stroke="black" points="276.348,-99.5317 265.842,-100.899 274.908,-106.382 276.348,-99.5317"/>
</g>
<!-- synth&#45;&gt;V1D_Deliver -->
<g id="edge9" class="edge"><title>synth:del:s&#45;&gt;V1D_Deliver</title>
<path fill="none" stroke="purple" d="M287,-159C287,-139.073 271.828,-123.533 255.413,-112.551"/>
<polygon fill="purple" stroke="purple" points="257.137,-109.502 246.79,-107.225 253.459,-115.458 257.137,-109.502"/>
</g>
<!-- see backend graph -->
<g id="node11" class="node"><title>see backend graph</title>
<text text-anchor="middle" x="279" y="-390.3" font-family="Times,serif" font-size="14.00">see backend graph</text>
</g>
<!-- BGFETCH -->
<g id="node12" class="node"><title>BGFETCH</title>
<polygon fill="turquoise" stroke="turquoise" points="125,-412 47,-412 47,-376 125,-376 125,-412"/>
<text text-anchor="middle" x="86" y="-390.3" font-family="Times,serif" font-size="14.00">BGFETCH</text>
</g>
<!-- FETCH -->
<g id="node13" class="node"><title>FETCH</title>
<polygon fill="turquoise" stroke="turquoise" points="202.25,-412 143.75,-412 143.75,-376 202.25,-376 202.25,-412"/>
<text text-anchor="middle" x="173" y="-390.3" font-family="Times,serif" font-size="14.00">FETCH</text>
</g>
<!-- FETCH_DONE -->
<g id="node14" class="node"><title>FETCH_DONE</title>
<polygon fill="turquoise" stroke="turquoise" points="212,-338 108,-338 108,-302 212,-302 212,-338"/>
<text text-anchor="middle" x="160" y="-316.3" font-family="Times,serif" font-size="14.00">FETCH_DONE</text>
</g>
<!-- FETCH&#45;&gt;FETCH_DONE -->
<g id="edge14" class="edge"><title>FETCH&#45;&gt;FETCH_DONE</title>
<path fill="none" stroke="black" stroke-dasharray="1,5" d="M169.919,-375.937C168.435,-367.719 166.619,-357.66 164.948,-348.406"/>
<polygon fill="black" stroke="black" points="168.37,-347.66 163.149,-338.441 161.482,-348.903 168.37,-347.66"/>
</g>
<!-- FETCH_FAIL -->
<g id="node15" class="node"><title>FETCH_FAIL</title>
<polygon fill="turquoise" stroke="turquoise" points="326,-338 230,-338 230,-302 326,-302 326,-338"/>
<text text-anchor="middle" x="278" y="-316.3" font-family="Times,serif" font-size="14.00">FETCH_FAIL</text>
</g>
<!-- FETCH&#45;&gt;FETCH_FAIL -->
<g id="edge15" class="edge"><title>FETCH&#45;&gt;FETCH_FAIL</title>
<path fill="none" stroke="black" stroke-dasharray="1,5" d="M197.884,-375.937C211.774,-366.412 229.27,-354.415 244.366,-344.063"/>
<polygon fill="black" stroke="black" points="246.663,-346.732 252.931,-338.19 242.705,-340.959 246.663,-346.732"/>
</g>
<!-- FETCH_DONE&#45;&gt;deliver -->
<g id="edge12" class="edge"><title>FETCH_DONE&#45;&gt;deliver</title>
<path fill="none" stroke="red" stroke-width="2" d="M154.991,-301.99C154.124,-294.106 153.581,-284.176 153.361,-273.728"/>
<polygon fill="red" stroke="red" stroke-width="2" points="156.86,-273.563 153.25,-263.602 149.86,-273.64 156.86,-273.563"/>
</g>
<!-- FETCH_DONE&#45;&gt;deliver -->
<g id="edge13" class="edge"><title>FETCH_DONE&#45;&gt;deliver</title>
<path fill="none" stroke="blue" stroke-width="2" d="M165.009,-301.99C165.876,-294.106 166.419,-284.176 166.639,-273.728"/>
<polygon fill="blue" stroke="blue" stroke-width="2" points="170.14,-273.64 166.75,-263.602 163.14,-273.563 170.14,-273.64"/>
</g>
<!-- FETCH_FAIL&#45;&gt;synth -->
<g id="edge11" class="edge"><title>FETCH_FAIL&#45;&gt;synth</title>
<path fill="none" stroke="purple" d="M284.379,-301.99C288.445,-291.147 293.963,-276.432 299.441,-261.824"/>
<polygon fill="purple" stroke="purple" points="302.785,-262.875 303.019,-252.282 296.231,-260.417 302.785,-262.875"/>
</g>
<!-- lookup2 -->
<g id="node16" class="node"><title>lookup2</title>
<polygon fill="none" stroke="black" points="0,-695 0,-787 232,-787 232,-695 0,-695"/>
<text text-anchor="middle" x="116" y="-771.8" font-family="Times,serif" font-size="14.00">cnt_lookup:</text>
<polyline fill="none" stroke="black" points="0,-764 232,-764 "/>
<text text-anchor="middle" x="64" y="-737.3" font-family="Times,serif" font-size="14.00">vcl_hit{}</text>
<polyline fill="none" stroke="black" points="128,-718 128,-764 "/>
<text text-anchor="middle" x="180" y="-748.8" font-family="Times,serif" font-size="14.00">req.*</text>
<polyline fill="none" stroke="black" points="128,-741 232,-741 "/>
<text text-anchor="middle" x="180" y="-725.8" font-family="Times,serif" font-size="14.00">obj.*</text>
<polyline fill="none" stroke="black" points="0,-718 232,-718 "/>
<text text-anchor="middle" x="27" y="-702.8" font-family="Times,serif" font-size="14.00">deliver</text>
<polyline fill="none" stroke="black" points="54,-695 54,-718 "/>
<text text-anchor="middle" x="75" y="-702.8" font-family="Times,serif" font-size="14.00">miss</text>
<polyline fill="none" stroke="black" points="96,-695 96,-718 "/>
<text text-anchor="middle" x="121" y="-702.8" font-family="Times,serif" font-size="14.00">restart</text>
<polyline fill="none" stroke="black" points="146,-695 146,-718 "/>
<text text-anchor="middle" x="169" y="-702.8" font-family="Times,serif" font-size="14.00">synth</text>
<polyline fill="none" stroke="black" points="192,-695 192,-718 "/>
<text text-anchor="middle" x="212" y="-702.8" font-family="Times,serif" font-size="14.00">pass</text>
</g>
<!-- lookup2&#45;&gt;deliver -->
<g id="edge20" class="edge"><title>lookup2:deliver:s&#45;&gt;deliver:n</title>
<path fill="none" stroke="green" stroke-width="2" d="M27,-694C27,-661.803 19,-654.197 19,-622 19,-622 19,-622 19,-319 19,-255.544 144.48,-322.727 158.694,-274.07"/>
<polygon fill="green" stroke="green" stroke-width="2" points="162.185,-274.367 160,-264 155.243,-273.467 162.185,-274.367"/>
</g>
<!-- lookup2&#45;&gt;BGFETCH -->
<g id="edge10" class="edge"><title>lookup2:deliver:s&#45;&gt;BGFETCH</title>
<path fill="none" stroke="green" d="M27,-694C27,-685.567 30.9385,-684.177 33,-676 48.2191,-615.635 45.479,-599.179 57,-538 64.6072,-497.604 74.2223,-450.964 80.2433,-422.226"/>
<polygon fill="green" stroke="green" points="83.7317,-422.645 82.3633,-412.139 76.8814,-421.205 83.7317,-422.645"/>
<text text-anchor="middle" x="94" y="-556.8" font-family="Times,serif" font-size="14.00">parallel</text>
<text text-anchor="middle" x="94" y="-541.8" font-family="Times,serif" font-size="14.00">if obj expired</text>
</g>
<!-- miss -->
<g id="node18" class="node"><title>miss</title>
<polygon fill="none" stroke="black" points="85,-586.5 85,-655.5 265,-655.5 265,-586.5 85,-586.5"/>
<text text-anchor="middle" x="175" y="-640.3" font-family="Times,serif" font-size="14.00">cnt_miss:</text>
<polyline fill="none" stroke="black" points="85,-632.5 265,-632.5 "/>
<text text-anchor="middle" x="138.5" y="-617.3" font-family="Times,serif" font-size="14.00">vcl_miss{}</text>
<polyline fill="none" stroke="black" points="192,-609.5 192,-632.5 "/>
<text text-anchor="middle" x="228.5" y="-617.3" font-family="Times,serif" font-size="14.00">req.*</text>
<polyline fill="none" stroke="black" points="85,-609.5 265,-609.5 "/>
<text text-anchor="middle" x="107" y="-594.3" font-family="Times,serif" font-size="14.00">fetch</text>
<polyline fill="none" stroke="black" points="129,-586.5 129,-609.5 "/>
<text text-anchor="middle" x="152" y="-594.3" font-family="Times,serif" font-size="14.00">synth</text>
<polyline fill="none" stroke="black" points="175,-586.5 175,-609.5 "/>
<text text-anchor="middle" x="200" y="-594.3" font-family="Times,serif" font-size="14.00">restart</text>
<polyline fill="none" stroke="black" points="225,-586.5 225,-609.5 "/>
<text text-anchor="middle" x="245" y="-594.3" font-family="Times,serif" font-size="14.00">pass</text>
</g>
<!-- lookup2&#45;&gt;miss -->
<g id="edge21" class="edge"><title>lookup2:miss:s&#45;&gt;miss</title>
<path fill="none" stroke="blue" stroke-width="2" d="M75,-694C75,-681.921 79.8643,-671.668 87.4471,-663.023"/>
<polygon fill="blue" stroke="blue" stroke-width="2" points="90.0812,-665.342 94.7568,-655.834 85.1728,-660.351 90.0812,-665.342"/>
</g>
<!-- pass -->
<g id="node19" class="node"><title>pass</title>
<polygon fill="none" stroke="black" points="223,-450.5 223,-519.5 363,-519.5 363,-450.5 223,-450.5"/>
<text text-anchor="middle" x="293" y="-504.3" font-family="Times,serif" font-size="14.00">cnt_pass:</text>
<polyline fill="none" stroke="black" points="223,-496.5 363,-496.5 "/>
<text text-anchor="middle" x="266" y="-481.3" font-family="Times,serif" font-size="14.00">vcl_pass{}</text>
<polyline fill="none" stroke="black" points="309,-473.5 309,-496.5 "/>
<text text-anchor="middle" x="336" y="-481.3" font-family="Times,serif" font-size="14.00">req.*</text>
<polyline fill="none" stroke="black" points="223,-473.5 363,-473.5 "/>
<text text-anchor="middle" x="245" y="-458.3" font-family="Times,serif" font-size="14.00">fetch</text>
<polyline fill="none" stroke="black" points="267,-450.5 267,-473.5 "/>
<text text-anchor="middle" x="290" y="-458.3" font-family="Times,serif" font-size="14.00">synth</text>
<polyline fill="none" stroke="black" points="313,-450.5 313,-473.5 "/>
<text text-anchor="middle" x="338" y="-458.3" font-family="Times,serif" font-size="14.00">restart</text>
</g>
<!-- lookup2&#45;&gt;pass -->
<g id="edge22" class="edge"><title>lookup2:pass:s&#45;&gt;pass</title>
<path fill="none" stroke="red" stroke-width="2" d="M212,-694C212,-661.681 256.665,-683.277 274,-656 297.849,-618.473 300.301,-566.694 298.226,-530.168"/>
<polygon fill="red" stroke="red" stroke-width="2" points="301.691,-529.555 297.496,-519.826 294.709,-530.048 301.691,-529.555"/>
</g>
<!-- lookup -->
<g id="node17" class="node"><title>lookup</title>
<polygon fill="none" stroke="grey" points="98,-849.5 98,-918.5 316,-918.5 316,-849.5 98,-849.5"/>
<text text-anchor="middle" x="207" y="-903.3" font-family="Times,serif" font-size="14.00" fill="grey">cnt_lookup:</text>
<polyline fill="none" stroke="grey" points="98,-895.5 316,-895.5 "/>
<text text-anchor="middle" x="207" y="-880.3" font-family="Times,serif" font-size="14.00" fill="grey">hash lookup</text>
<polyline fill="none" stroke="grey" points="98,-872.5 316,-872.5 "/>
<text text-anchor="middle" x="116.5" y="-857.3" font-family="Times,serif" font-size="14.00" fill="grey">hit?</text>
<polyline fill="none" stroke="grey" points="135,-849.5 135,-872.5 "/>
<text text-anchor="middle" x="159" y="-857.3" font-family="Times,serif" font-size="14.00" fill="grey">miss?</text>
<polyline fill="none" stroke="grey" points="183,-849.5 183,-872.5 "/>
<text text-anchor="middle" x="225.5" y="-857.3" font-family="Times,serif" font-size="14.00" fill="grey">hit&#45;for&#45;pass?</text>
<polyline fill="none" stroke="grey" points="268,-849.5 268,-872.5 "/>
<text text-anchor="middle" x="292" y="-857.3" font-family="Times,serif" font-size="14.00" fill="grey">busy?</text>
</g>
<!-- lookup&#45;&gt;lookup2 -->
<g id="edge19" class="edge"><title>lookup:h:s&#45;&gt;lookup2</title>
<path fill="none" stroke="green" stroke-width="2" d="M116,-848C116,-831.621 116,-813.818 116,-797.561"/>
<polygon fill="green" stroke="green" stroke-width="2" points="119.5,-797.132 116,-787.132 112.5,-797.132 119.5,-797.132"/>
</g>
<!-- lookup&#45;&gt;lookup -->
<g id="edge16" class="edge"><title>lookup:busy:e&#45;&gt;lookup:top:e</title>
<path fill="none" stroke="grey" d="M316,-861C322,-842 334,-842 334,-884 334,-916.812 326.676,-923.99 320.61,-916.5"/>
<polygon fill="grey" stroke="grey" points="323.515,-914.469 316,-907 317.217,-917.525 323.515,-914.469"/>
<text text-anchor="middle" x="367.5" y="-880.3" font-family="Times,serif" font-size="14.00" fill="grey">(waitinglist)</text>
</g>
<!-- lookup&#45;&gt;miss -->
<g id="edge17" class="edge"><title>lookup:miss:s&#45;&gt;miss</title>
<path fill="none" stroke="blue" stroke-width="2" d="M159,-848C159,-803.199 219.845,-828.011 240,-788 258.795,-750.689 254.997,-732.993 240,-694 235.749,-682.948 228.93,-672.536 221.274,-663.246"/>
<polygon fill="blue" stroke="blue" stroke-width="2" points="223.904,-660.936 214.684,-655.716 218.637,-665.546 223.904,-660.936"/>
</g>
<!-- lookup&#45;&gt;pass -->
<g id="edge18" class="edge"><title>lookup:hfp:s&#45;&gt;pass</title>
<path fill="none" stroke="red" stroke-width="2" d="M226,-848C226,-817.128 248.76,-816.342 261,-788 300.835,-695.762 305.639,-668.202 313,-568 313.977,-554.703 315.434,-551.109 313,-538 312.47,-535.147 311.79,-532.249 311.002,-529.355"/>
<polygon fill="red" stroke="red" stroke-width="2" points="314.281,-528.113 307.968,-519.604 307.597,-530.193 314.281,-528.113"/>
</g>
<!-- miss&#45;&gt;FETCH -->
<g id="edge23" class="edge"><title>miss:fetch:s&#45;&gt;FETCH</title>
<path fill="none" stroke="blue" stroke-width="2" d="M107,-586C107,-571.206 126.551,-580.144 135,-568 165.796,-523.734 172.232,-458.937 173.231,-422.507"/>
<polygon fill="blue" stroke="blue" stroke-width="2" points="176.736,-422.218 173.387,-412.166 169.736,-422.112 176.736,-422.218"/>
</g>
<!-- miss&#45;&gt;pass -->
<g id="edge24" class="edge"><title>miss:pass:s&#45;&gt;pass</title>
<path fill="none" stroke="red" stroke-width="2" d="M245,-586C245,-566.014 252.889,-545.798 262.27,-528.823"/>
<polygon fill="red" stroke="red" stroke-width="2" points="265.553,-530.144 267.594,-519.748 259.515,-526.602 265.553,-530.144"/>
</g>
<!-- pass&#45;&gt;FETCH -->
<g id="edge25" class="edge"><title>pass:fetch:s&#45;&gt;FETCH</title>
<path fill="none" stroke="red" stroke-width="2" d="M245,-450C245,-440.356 228.48,-427.331 211.266,-416.378"/>
<polygon fill="red" stroke="red" stroke-width="2" points="212.639,-413.114 202.285,-410.867 208.978,-419.08 212.639,-413.114"/>
</g>
<!-- pipe -->
<g id="node20" class="node"><title>pipe</title>
<polygon fill="none" stroke="black" points="457,-826.5 457,-941.5 591,-941.5 591,-826.5 457,-826.5"/>
<text text-anchor="middle" x="524" y="-926.3" font-family="Times,serif" font-size="14.00">cnt_pipe:</text>
<polyline fill="none" stroke="black" points="457,-918.5 591,-918.5 "/>
<text text-anchor="middle" x="524" y="-903.3" font-family="Times,serif" font-size="14.00">filter req.*&#45;&gt;bereq.*</text>
<polyline fill="none" stroke="black" points="457,-895.5 591,-895.5 "/>
<text text-anchor="middle" x="495.5" y="-868.8" font-family="Times,serif" font-size="14.00">vcl_pipe{}</text>
<polyline fill="none" stroke="black" points="534,-849.5 534,-895.5 "/>
<text text-anchor="middle" x="562.5" y="-880.3" font-family="Times,serif" font-size="14.00">req.*</text>
<polyline fill="none" stroke="black" points="534,-872.5 591,-872.5 "/>
<text text-anchor="middle" x="562.5" y="-857.3" font-family="Times,serif" font-size="14.00">bereq.*</text>
<polyline fill="none" stroke="black" points="457,-849.5 591,-849.5 "/>
<text text-anchor="middle" x="489" y="-834.3" font-family="Times,serif" font-size="14.00">pipe</text>
<polyline fill="none" stroke="black" points="521,-826.5 521,-849.5 "/>
<text text-anchor="middle" x="556" y="-834.3" font-family="Times,serif" font-size="14.00">synth</text>
</g>
<!-- pipe_do -->
<g id="node21" class="node"><title>pipe_do</title>
<ellipse fill="none" stroke="black" cx="552" cy="-741" rx="95.1892" ry="26.7407"/>
<text text-anchor="middle" x="552" y="-744.8" font-family="Times,serif" font-size="14.00">send bereq,</text>
<text text-anchor="middle" x="552" y="-729.8" font-family="Times,serif" font-size="14.00">copy bytes until close</text>
</g>
<!-- pipe&#45;&gt;pipe_do -->
<g id="edge26" class="edge"><title>pipe:pipe&#45;&gt;pipe_do</title>
<path fill="none" stroke="orange" stroke-width="2" d="M489,-826C489,-806.313 500.213,-788.286 513.177,-774.023"/>
<polygon fill="orange" stroke="orange" stroke-width="2" points="516.033,-776.107 520.5,-766.5 511.017,-771.225 516.033,-776.107"/>
</g>
<!-- pipe_do&#45;&gt;DONE -->
<g id="edge27" class="edge"><title>pipe_do&#45;&gt;DONE</title>
<path fill="none" stroke="orange" stroke-width="2" d="M544.305,-714.013C537.961,-690.275 530,-654.092 530,-622 530,-622 530,-622 530,-91 530,-64.1437 504.989,-45.2377 482.101,-33.5592"/>
<polygon fill="orange" stroke="orange" stroke-width="2" points="483.365,-30.2847 472.832,-29.1418 480.353,-36.6037 483.365,-30.2847"/>
</g>
<!-- restart&#45;&gt;recv -->
<g id="edge29" class="edge"><title>restart:ok:s&#45;&gt;recv</title>
<path fill="none" stroke="black" d="M599,-1196C599,-1183.58 594.196,-1173.24 586.52,-1164.66"/>
<polygon fill="black" stroke="black" points="588.731,-1161.93 579.082,-1157.55 583.895,-1166.99 588.731,-1161.93"/>
</g>
<!-- err_restart -->
<g id="node23" class="node"><title>err_restart</title>
<text text-anchor="middle" x="663" y="-1119.3" font-family="Times,serif" font-size="14.00">SYNTH</text>
</g>
<!-- restart&#45;&gt;err_restart -->
<g id="edge30" class="edge"><title>restart:max:s&#45;&gt;err_restart</title>
<path fill="none" stroke="purple" d="M663,-1196C663,-1181.21 663,-1164.7 663,-1151.23"/>
<polygon fill="purple" stroke="purple" points="666.5,-1151.17 663,-1141.17 659.5,-1151.17 666.5,-1151.17"/>
</g>
<!-- hash&#45;&gt;lookup -->
<g id="edge35" class="edge"><title>hash:lookup&#45;&gt;lookup</title>
<path fill="none" stroke="green" stroke-width="2" d="M397,-992C340.511,-992 285.324,-955.648 249.112,-925.321"/>
<polygon fill="green" stroke="green" stroke-width="2" points="251.098,-922.414 241.229,-918.562 246.542,-927.728 251.098,-922.414"/>
</g>
<!-- hash&#45;&gt;pass -->
<g id="edge37" class="edge"><title>hash:lookup&#45;&gt;pass</title>
<path fill="none" stroke="red" stroke-width="2" d="M459,-980C459,-957.861 429,-907.139 429,-885 429,-885 429,-885 429,-620 429,-580.14 398.991,-548.16 367.165,-525.452"/>
<polygon fill="red" stroke="red" stroke-width="2" points="368.837,-522.354 358.61,-519.587 364.879,-528.128 368.837,-522.354"/>
</g>
<!-- hash&#45;&gt;pipe -->
<g id="edge38" class="edge"><title>hash:lookup&#45;&gt;pipe</title>
<path fill="none" stroke="orange" stroke-width="2" d="M459,-980C459,-969.883 461.542,-960.052 465.62,-950.79"/>
<polygon fill="orange" stroke="orange" stroke-width="2" points="468.811,-952.235 470.174,-941.728 462.557,-949.092 468.811,-952.235"/>
</g>
<!-- purge -->
<g id="node25" class="node"><title>purge</title>
<polygon fill="none" stroke="black" points="609,-849.5 609,-918.5 737,-918.5 737,-849.5 609,-849.5"/>
<text text-anchor="middle" x="673" y="-903.3" font-family="Times,serif" font-size="14.00">cnt_purge:</text>
<polyline fill="none" stroke="black" points="609,-895.5 737,-895.5 "/>
<text text-anchor="middle" x="651" y="-880.3" font-family="Times,serif" font-size="14.00">vcl_purge{}</text>
<polyline fill="none" stroke="black" points="693,-872.5 693,-895.5 "/>
<text text-anchor="middle" x="715" y="-880.3" font-family="Times,serif" font-size="14.00">req.*</text>
<polyline fill="none" stroke="black" points="609,-872.5 737,-872.5 "/>
<text text-anchor="middle" x="640" y="-857.3" font-family="Times,serif" font-size="14.00">synth</text>
<polyline fill="none" stroke="black" points="671,-849.5 671,-872.5 "/>
<text text-anchor="middle" x="704" y="-857.3" font-family="Times,serif" font-size="14.00">restart</text>
</g>
<!-- hash&#45;&gt;purge -->
<g id="edge36" class="edge"><title>hash:lookup&#45;&gt;purge:top:n</title>
<path fill="none" stroke="purple" stroke-width="2" d="M521,-992C555.018,-992 653.027,-963.318 670.363,-929.984"/>
<polygon fill="purple" stroke="purple" stroke-width="2" points="673.831,-930.562 673,-920 667.063,-928.775 673.831,-930.562"/>
</g>
</g>
</svg>
