<?xml version="1.0" encoding="UTF-8" standalone="no"?>
<!DOCTYPE svg PUBLIC "-//W3C//DTD SVG 1.1//EN"
 "http://www.w3.org/Graphics/SVG/1.1/DTD/svg11.dtd">
<!-- Generated by graphviz version 2.36.0 (20140111.2315)
 -->
<!-- Title: cache_req_fsm Pages: 1 -->
<svg width="793pt" height="1362pt"
 viewBox="18.00 18.00 775.00 1344.00" xmlns="http://www.w3.org/2000/svg" xmlns:xlink="http://www.w3.org/1999/xlink">
<g id="graph0" class="graph" transform="scale(1 1) rotate(0) translate(22 1340)">
<title>cache_req_fsm</title>
<polygon fill="white" stroke="none" points="-4,4 -4,-1322 753,-1322 753,4 -4,4"/>
<g id="clust3" class="cluster"><title>cluster_backend</title>
<polygon fill="aliceblue" stroke="aliceblue" points="56,-302 56,-412 347,-412 347,-302 56,-302"/>
</g>
<!-- acceptor -->
<g id="node1" class="node"><title>acceptor</title>
<polygon fill="none" stroke="black" points="369.33,-1220 328.165,-1238 245.835,-1238 204.67,-1220 245.835,-1202 328.165,-1202 369.33,-1220"/>
<text text-anchor="middle" x="287" y="-1216.3" font-family="Times,serif" font-size="14.00">Request received</text>
</g>
<!-- recv -->
<g id="node4" class="node"><title>recv</title>
<polygon fill="none" stroke="black" points="333,-1088.5 333,-1157.5 547,-1157.5 547,-1088.5 333,-1088.5"/>
<text text-anchor="middle" x="440" y="-1142.3" font-family="Times,serif" font-size="14.00">cnt_recv:</text>
<polyline fill="none" stroke="black" points="333,-1134.5 547,-1134.5 "/>
<text text-anchor="middle" x="394.5" y="-1119.3" font-family="Times,serif" font-size="14.00">vcl_recv{}</text>
<polyline fill="none" stroke="black" points="456,-1111.5 456,-1134.5 "/>
<text text-anchor="middle" x="501.5" y="-1119.3" font-family="Times,serif" font-size="14.00">req.*</text>
<polyline fill="none" stroke="black" points="333,-1111.5 547,-1111.5 "/>
<text text-anchor="middle" x="353.5" y="-1096.3" font-family="Times,serif" font-size="14.00">hash</text>
<polyline fill="none" stroke="black" points="374,-1088.5 374,-1111.5 "/>
<text text-anchor="middle" x="397.5" y="-1096.3" font-family="Times,serif" font-size="14.00">purge</text>
<polyline fill="none" stroke="black" points="421,-1088.5 421,-1111.5 "/>
<text text-anchor="middle" x="441" y="-1096.3" font-family="Times,serif" font-size="14.00">pass</text>
<polyline fill="none" stroke="black" points="461,-1088.5 461,-1111.5 "/>
<text text-anchor="middle" x="481" y="-1096.3" font-family="Times,serif" font-size="14.00">pipe</text>
<polyline fill="none" stroke="black" points="501,-1088.5 501,-1111.5 "/>
<text text-anchor="middle" x="524" y="-1096.3" font-family="Times,serif" font-size="14.00">synth</text>
</g>
<!-- acceptor&#45;&gt;recv -->
<g id="edge2" class="edge"><title>acceptor&#45;&gt;recv</title>
<path fill="none" stroke="black" stroke-width="2" d="M314.707,-1201.8C332.192,-1190.94 355.514,-1176.46 377.293,-1162.94"/>
<polygon fill="black" stroke="black" stroke-width="2" points="379.219,-1165.86 385.868,-1157.61 375.526,-1159.91 379.219,-1165.86"/>
</g>
<!-- ESI_REQ -->
<g id="node2" class="node"><title>ESI_REQ</title>
<polygon fill="none" stroke="black" points="493.928,-1220 467.464,-1238 414.536,-1238 388.072,-1220 414.536,-1202 467.464,-1202 493.928,-1220"/>
<text text-anchor="middle" x="441" y="-1216.3" font-family="Times,serif" font-size="14.00">ESI_REQ</text>
</g>
<!-- ESI_REQ&#45;&gt;recv -->
<g id="edge1" class="edge"><title>ESI_REQ&#45;&gt;recv</title>
<path fill="none" stroke="black" d="M440.817,-1201.58C440.717,-1192.13 440.589,-1179.99 440.465,-1168.13"/>
<polygon fill="black" stroke="black" points="443.962,-1167.82 440.356,-1157.85 436.962,-1167.89 443.962,-1167.82"/>
</g>
<!-- RESTART -->
<g id="node3" class="node"><title>RESTART</title>
<text text-anchor="middle" x="577" y="-1296.3" font-family="Times,serif" font-size="14.00">RESTART</text>
</g>
<!-- restart -->
<g id="node22" class="node"><title>restart</title>
<polygon fill="none" stroke="grey" points="513,-1197 513,-1243 641,-1243 641,-1197 513,-1197"/>
<text text-anchor="middle" x="577" y="-1227.8" font-family="Times,serif" font-size="14.00" fill="grey">cnt_restart:</text>
<polyline fill="none" stroke="grey" points="513,-1220 641,-1220 "/>
<text text-anchor="middle" x="531" y="-1204.8" font-family="Times,serif" font-size="14.00" fill="grey">ok?</text>
<polyline fill="none" stroke="grey" points="549,-1197 549,-1220 "/>
<text text-anchor="middle" x="595" y="-1204.8" font-family="Times,serif" font-size="14.00" fill="grey">max_restarts?</text>
</g>
<!-- RESTART&#45;&gt;restart -->
<g id="edge28" class="edge"><title>RESTART&#45;&gt;restart</title>
<path fill="none" stroke="black" d="M577,-1281.69C577,-1273.32 577,-1262.99 577,-1253.24"/>
<polygon fill="black" stroke="black" points="580.5,-1253.02 577,-1243.02 573.5,-1253.02 580.5,-1253.02"/>
</g>
<!-- hash -->
<g id="node24" class="node"><title>hash</title>
<polygon fill="none" stroke="black" points="380,-980.5 380,-1049.5 502,-1049.5 502,-980.5 380,-980.5"/>
<text text-anchor="middle" x="441" y="-1034.3" font-family="Times,serif" font-size="14.00">cnt_recv:</text>
<polyline fill="none" stroke="black" points="380,-1026.5 502,-1026.5 "/>
<text text-anchor="middle" x="419" y="-1011.3" font-family="Times,serif" font-size="14.00">vcl_hash{}</text>
<polyline fill="none" stroke="black" points="458,-1003.5 458,-1026.5 "/>
<text text-anchor="middle" x="480" y="-1011.3" font-family="Times,serif" font-size="14.00">req.*</text>
<polyline fill="none" stroke="black" points="380,-1003.5 502,-1003.5 "/>
<text text-anchor="middle" x="441" y="-988.3" font-family="Times,serif" font-size="14.00">lookup</text>
</g>
<!-- recv&#45;&gt;hash -->
<g id="edge31" class="edge"><title>recv:hash:s&#45;&gt;hash</title>
<path fill="none" stroke="green" stroke-width="2" d="M353,-1088C353,-1072.92 360.833,-1060.43 371.824,-1050.33"/>
<polygon fill="green" stroke="green" stroke-width="2" points="374.374,-1052.77 379.881,-1043.71 369.932,-1047.36 374.374,-1052.77"/>
</g>
<!-- recv&#45;&gt;hash -->
<g id="edge32" class="edge"><title>recv:purge:s&#45;&gt;hash</title>
<path fill="none" stroke="purple" stroke-width="2" d="M397,-1088C397,-1077.78 400.266,-1067.79 405.019,-1058.65"/>
<polygon fill="purple" stroke="purple" stroke-width="2" points="408.155,-1060.22 410.201,-1049.83 402.119,-1056.68 408.155,-1060.22"/>
</g>
<!-- recv&#45;&gt;hash -->
<g id="edge33" class="edge"><title>recv:pass:s&#45;&gt;hash</title>
<path fill="none" stroke="red" stroke-width="2" d="M441,-1088C441,-1078.92 441,-1069.19 441,-1059.92"/>
<polygon fill="red" stroke="red" stroke-width="2" points="444.5,-1059.7 441,-1049.7 437.5,-1059.7 444.5,-1059.7"/>
</g>
<!-- recv&#45;&gt;hash -->
<g id="edge34" class="edge"><title>recv:pipe:s&#45;&gt;hash</title>
<path fill="none" stroke="orange" stroke-width="2" d="M481,-1088C481,-1077.92 477.966,-1067.93 473.57,-1058.75"/>
<polygon fill="orange" stroke="orange" stroke-width="2" points="476.606,-1057 468.781,-1049.86 470.443,-1060.32 476.606,-1057"/>
</g>
<!-- recv&#45;&gt;hash -->
<g id="edge35" class="edge"><title>recv:synth:s&#45;&gt;hash</title>
<path fill="none" stroke="sienna" stroke-width="2" d="M524,-1088C524,-1075.06 518.168,-1063.91 509.596,-1054.53"/>
<polygon fill="sienna" stroke="sienna" stroke-width="2" points="511.817,-1051.81 502.193,-1047.38 506.954,-1056.84 511.817,-1051.81"/>
</g>
<!-- SYNTH -->
<g id="node5" class="node"><title>SYNTH</title>
<text text-anchor="middle" x="432" y="-316.3" font-family="Times,serif" font-size="14.00">SYNTH</text>
</g>
<!-- synth -->
<g id="node10" class="node"><title>synth</title>
<polygon fill="none" stroke="black" points="274.5,-160 274.5,-252 407.5,-252 407.5,-160 274.5,-160"/>
<text text-anchor="middle" x="341" y="-236.8" font-family="Times,serif" font-size="14.00">cnt_synth:</text>
<polyline fill="none" stroke="black" points="274.5,-229 407.5,-229 "/>
<text text-anchor="middle" x="316" y="-202.3" font-family="Times,serif" font-size="14.00">vcl_synth{}</text>
<polyline fill="none" stroke="black" points="357.5,-183 357.5,-229 "/>
<text text-anchor="middle" x="382.5" y="-213.8" font-family="Times,serif" font-size="14.00">req.*</text>
<polyline fill="none" stroke="black" points="357.5,-206 407.5,-206 "/>
<text text-anchor="middle" x="382.5" y="-190.8" font-family="Times,serif" font-size="14.00">resp.*</text>
<polyline fill="none" stroke="black" points="274.5,-183 407.5,-183 "/>
<text text-anchor="middle" x="308.5" y="-167.8" font-family="Times,serif" font-size="14.00">deliver</text>
<polyline fill="none" stroke="black" points="342.5,-160 342.5,-183 "/>
<text text-anchor="middle" x="375" y="-167.8" font-family="Times,serif" font-size="14.00">restart</text>
</g>
<!-- SYNTH&#45;&gt;synth -->
<g id="edge8" class="edge"><title>SYNTH&#45;&gt;synth</title>
<path fill="none" stroke="sienna" d="M418.179,-301.99C409.034,-290.734 396.498,-275.306 384.189,-260.156"/>
<polygon fill="sienna" stroke="sienna" points="386.814,-257.836 377.792,-252.282 381.381,-262.251 386.814,-257.836"/>
</g>
<!-- deliver -->
<g id="node6" class="node"><title>deliver</title>
<polygon fill="none" stroke="black" points="106,-148.5 106,-263.5 256,-263.5 256,-148.5 106,-148.5"/>
<text text-anchor="middle" x="181" y="-248.3" font-family="Times,serif" font-size="14.00">cnt_deliver:</text>
<polyline fill="none" stroke="black" points="106,-240.5 256,-240.5 "/>
<text text-anchor="middle" x="181" y="-225.3" font-family="Times,serif" font-size="14.00">Filter obj.&#45;&gt;resp.</text>
<polyline fill="none" stroke="black" points="106,-217.5 256,-217.5 "/>
<text text-anchor="middle" x="153.5" y="-190.8" font-family="Times,serif" font-size="14.00">vcl_deliver{}</text>
<polyline fill="none" stroke="black" points="201,-171.5 201,-217.5 "/>
<text text-anchor="middle" x="228.5" y="-202.3" font-family="Times,serif" font-size="14.00">req.*</text>
<polyline fill="none" stroke="black" points="201,-194.5 256,-194.5 "/>
<text text-anchor="middle" x="228.5" y="-179.3" font-family="Times,serif" font-size="14.00">resp.*</text>
<polyline fill="none" stroke="black" points="106,-171.5 256,-171.5 "/>
<text text-anchor="middle" x="131" y="-156.3" font-family="Times,serif" font-size="14.00">restart</text>
<polyline fill="none" stroke="black" points="156,-148.5 156,-171.5 "/>
<text text-anchor="middle" x="183" y="-156.3" font-family="Times,serif" font-size="14.00">deliver</text>
<polyline fill="none" stroke="black" points="210,-148.5 210,-171.5 "/>
<text text-anchor="middle" x="233" y="-156.3" font-family="Times,serif" font-size="14.00">synth</text>
</g>
<!-- V1D_Deliver -->
<g id="node7" class="node"><title>V1D_Deliver</title>
<ellipse fill="none" stroke="black" cx="236" cy="-92" rx="58.2422" ry="18"/>
<text text-anchor="middle" x="236" y="-88.3" font-family="Times,serif" font-size="14.00">V1D_Deliver</text>
</g>
<!-- deliver&#45;&gt;V1D_Deliver -->
<g id="edge3" class="edge"><title>deliver:deliver:s&#45;&gt;V1D_Deliver</title>
<path fill="none" stroke="green" stroke-width="2" d="M183,-148C175.305,-133.488 180.585,-121.332 190.56,-112.17"/>
<polygon fill="green" stroke="green" stroke-width="2" points="192.741,-114.908 198.534,-106.037 188.473,-109.36 192.741,-114.908"/>
</g>
<!-- deliver&#45;&gt;V1D_Deliver -->
<g id="edge4" class="edge"><title>deliver:deliver:s&#45;&gt;V1D_Deliver</title>
<path fill="none" stroke="red" stroke-width="2" d="M183,-148C183,-134.58 191.283,-123.175 201.3,-114.289"/>
<polygon fill="red" stroke="red" stroke-width="2" points="203.556,-116.967 209.189,-107.993 199.19,-111.495 203.556,-116.967"/>
</g>
<!-- deliver&#45;&gt;V1D_Deliver -->
<g id="edge5" class="edge"><title>deliver:deliver:s&#45;&gt;V1D_Deliver</title>
<path fill="none" stroke="blue" stroke-width="2" d="M183,-148C189.724,-135.32 201.331,-124.438 212.297,-115.781"/>
<polygon fill="blue" stroke="blue" stroke-width="2" points="214.602,-118.426 220.466,-109.602 210.379,-112.843 214.602,-118.426"/>
</g>
<!-- DONE -->
<g id="node9" class="node"><title>DONE</title>
<ellipse fill="none" stroke="black" cx="455" cy="-18" rx="35.1455" ry="18"/>
<text text-anchor="middle" x="455" y="-14.3" font-family="Times,serif" font-size="14.00">DONE</text>
</g>
<!-- V1D_Deliver&#45;&gt;DONE -->
<g id="edge7" class="edge"><title>V1D_Deliver&#45;&gt;DONE</title>
<path fill="none" stroke="black" d="M274.397,-78.3762C314.318,-65.2517 376.451,-44.8243 416.434,-31.6793"/>
<polygon fill="black" stroke="black" points="417.688,-34.9514 426.095,-28.5032 415.502,-28.3015 417.688,-34.9514"/>
</g>
<!-- stream -->
<g id="node8" class="node"><title>stream</title>
<ellipse fill="turquoise" stroke="turquoise" cx="467" cy="-206" rx="41.5782" ry="26.7407"/>
<text text-anchor="middle" x="467" y="-209.8" font-family="Times,serif" font-size="14.00">stream?</text>
<text text-anchor="middle" x="467" y="-194.8" font-family="Times,serif" font-size="14.00">body</text>
</g>
<!-- stream&#45;&gt;V1D_Deliver -->
<g id="edge6" class="edge"><title>stream&#45;&gt;V1D_Deliver</title>
<path fill="none" stroke="black" stroke-dasharray="1,5" d="M450.48,-181.097C441.471,-169.642 429.426,-156.582 416,-148 379.886,-124.917 333.525,-111.049 296.898,-103.013"/>
<polygon fill="black" stroke="black" points="297.348,-99.5317 286.842,-100.899 295.908,-106.382 297.348,-99.5317"/>
</g>
<!-- synth&#45;&gt;V1D_Deliver -->
<g id="edge9" class="edge"><title>synth:del:s&#45;&gt;V1D_Deliver</title>
<path fill="none" stroke="sienna" d="M308,-159C308,-139.073 292.828,-123.533 276.413,-112.551"/>
<polygon fill="sienna" stroke="sienna" points="278.137,-109.502 267.79,-107.225 274.459,-115.458 278.137,-109.502"/>
</g>
<!-- see backend graph -->
<g id="node11" class="node"><title>see backend graph</title>
<text text-anchor="middle" x="288" y="-390.3" font-family="Times,serif" font-size="14.00">see backend graph</text>
</g>
<!-- BGFETCH -->
<g id="node12" class="node"><title>BGFETCH</title>
<polygon fill="turquoise" stroke="turquoise" points="134,-412 56,-412 56,-376 134,-376 134,-412"/>
<text text-anchor="middle" x="95" y="-390.3" font-family="Times,serif" font-size="14.00">BGFETCH</text>
</g>
<!-- FETCH -->
<g id="node13" class="node"><title>FETCH</title>
<polygon fill="turquoise" stroke="turquoise" points="211.25,-412 152.75,-412 152.75,-376 211.25,-376 211.25,-412"/>
<text text-anchor="middle" x="182" y="-390.3" font-family="Times,serif" font-size="14.00">FETCH</text>
</g>
<!-- FETCH_DONE -->
<g id="node14" class="node"><title>FETCH_DONE</title>
<polygon fill="turquoise" stroke="turquoise" points="233,-338 129,-338 129,-302 233,-302 233,-338"/>
<text text-anchor="middle" x="181" y="-316.3" font-family="Times,serif" font-size="14.00">FETCH_DONE</text>
</g>
<!-- FETCH&#45;&gt;FETCH_DONE -->
<g id="edge14" class="edge"><title>FETCH&#45;&gt;FETCH_DONE</title>
<path fill="none" stroke="black" stroke-dasharray="1,5" d="M181.763,-375.937C181.65,-367.807 181.512,-357.876 181.385,-348.705"/>
<polygon fill="black" stroke="black" points="184.881,-348.391 181.242,-338.441 177.882,-348.488 184.881,-348.391"/>
</g>
<!-- FETCH_FAIL -->
<g id="node15" class="node"><title>FETCH_FAIL</title>
<polygon fill="turquoise" stroke="turquoise" points="347,-338 251,-338 251,-302 347,-302 347,-338"/>
<text text-anchor="middle" x="299" y="-316.3" font-family="Times,serif" font-size="14.00">FETCH_FAIL</text>
</g>
<!-- FETCH&#45;&gt;FETCH_FAIL -->
<g id="edge15" class="edge"><title>FETCH&#45;&gt;FETCH_FAIL</title>
<path fill="none" stroke="black" stroke-dasharray="1,5" d="M209.727,-375.937C225.495,-366.234 245.431,-353.966 262.462,-343.485"/>
<polygon fill="black" stroke="black" points="264.384,-346.412 271.066,-338.19 260.715,-340.45 264.384,-346.412"/>
</g>
<!-- FETCH_DONE&#45;&gt;deliver -->
<g id="edge12" class="edge"><title>FETCH_DONE&#45;&gt;deliver</title>
<path fill="none" stroke="red" stroke-width="2" d="M175.991,-301.99C175.124,-294.106 174.581,-284.176 174.361,-273.728"/>
<polygon fill="red" stroke="red" stroke-width="2" points="177.86,-273.563 174.25,-263.602 170.86,-273.64 177.86,-273.563"/>
</g>
<!-- FETCH_DONE&#45;&gt;deliver -->
<g id="edge13" class="edge"><title>FETCH_DONE&#45;&gt;deliver</title>
<path fill="none" stroke="blue" stroke-width="2" d="M186.009,-301.99C186.876,-294.106 187.419,-284.176 187.639,-273.728"/>
<polygon fill="blue" stroke="blue" stroke-width="2" points="191.14,-273.64 187.75,-263.602 184.14,-273.563 191.14,-273.64"/>
</g>
<!-- FETCH_FAIL&#45;&gt;synth -->
<g id="edge11" class="edge"><title>FETCH_FAIL&#45;&gt;synth</title>
<path fill="none" stroke="sienna" d="M305.379,-301.99C309.445,-291.147 314.963,-276.432 320.441,-261.824"/>
<polygon fill="sienna" stroke="sienna" points="323.785,-262.875 324.019,-252.282 317.231,-260.417 323.785,-262.875"/>
</g>
<!-- lookup2 -->
<g id="node16" class="node"><title>lookup2</title>
<polygon fill="none" stroke="black" points="0,-695 0,-787 232,-787 232,-695 0,-695"/>
<text text-anchor="middle" x="116" y="-771.8" font-family="Times,serif" font-size="14.00">cnt_lookup:</text>
<polyline fill="none" stroke="black" points="0,-764 232,-764 "/>
<text text-anchor="middle" x="64" y="-737.3" font-family="Times,serif" font-size="14.00">vcl_hit{}</text>
<polyline fill="none" stroke="black" points="128,-718 128,-764 "/>
<text text-anchor="middle" x="180" y="-748.8" font-family="Times,serif" font-size="14.00">req.*</text>
<polyline fill="none" stroke="black" points="128,-741 232,-741 "/>
<text text-anchor="middle" x="180" y="-725.8" font-family="Times,serif" font-size="14.00">obj.*</text>
<polyline fill="none" stroke="black" points="0,-718 232,-718 "/>
<text text-anchor="middle" x="27" y="-702.8" font-family="Times,serif" font-size="14.00">deliver</text>
<polyline fill="none" stroke="black" points="54,-695 54,-718 "/>
<text text-anchor="middle" x="75" y="-702.8" font-family="Times,serif" font-size="14.00">miss</text>
<polyline fill="none" stroke="black" points="96,-695 96,-718 "/>
<text text-anchor="middle" x="121" y="-702.8" font-family="Times,serif" font-size="14.00">restart</text>
<polyline fill="none" stroke="black" points="146,-695 146,-718 "/>
<text text-anchor="middle" x="169" y="-702.8" font-family="Times,serif" font-size="14.00">synth</text>
<polyline fill="none" stroke="black" points="192,-695 192,-718 "/>
<text text-anchor="middle" x="212" y="-702.8" font-family="Times,serif" font-size="14.00">pass</text>
</g>
<!-- lookup2&#45;&gt;deliver -->
<g id="edge20" class="edge"><title>lookup2:deliver:s&#45;&gt;deliver:n</title>
<path fill="none" stroke="green" stroke-width="2" d="M27,-694C27,-662 27,-654 27,-622 27,-622 27,-622 27,-319 27,-250.154 165.186,-327.602 179.76,-274.186"/>
<polygon fill="green" stroke="green" stroke-width="2" points="183.266,-274.35 181,-264 176.317,-273.504 183.266,-274.35"/>
</g>
<!-- lookup2&#45;&gt;BGFETCH -->
<g id="edge10" class="edge"><title>lookup2:deliver:s&#45;&gt;BGFETCH</title>
<path fill="none" stroke="green" d="M27,-694C27,-683.865 36.8987,-685.268 41,-676 66.1923,-619.071 53.2739,-599.14 65,-538 72.7534,-497.574 82.7311,-450.942 88.9981,-422.214"/>
<polygon fill="green" stroke="green" points="92.486,-422.648 91.206,-412.131 85.648,-421.151 92.486,-422.648"/>
<text text-anchor="middle" x="102" y="-556.8" font-family="Times,serif" font-size="14.00">parallel</text>
<text text-anchor="middle" x="102" y="-541.8" font-family="Times,serif" font-size="14.00">if obj expired</text>
</g>
<!-- miss -->
<g id="node18" class="node"><title>miss</title>
<polygon fill="none" stroke="black" points="93,-586.5 93,-655.5 273,-655.5 273,-586.5 93,-586.5"/>
<text text-anchor="middle" x="183" y="-640.3" font-family="Times,serif" font-size="14.00">cnt_miss:</text>
<polyline fill="none" stroke="black" points="93,-632.5 273,-632.5 "/>
<text text-anchor="middle" x="146.5" y="-617.3" font-family="Times,serif" font-size="14.00">vcl_miss{}</text>
<polyline fill="none" stroke="black" points="200,-609.5 200,-632.5 "/>
<text text-anchor="middle" x="236.5" y="-617.3" font-family="Times,serif" font-size="14.00">req.*</text>
<polyline fill="none" stroke="black" points="93,-609.5 273,-609.5 "/>
<text text-anchor="middle" x="115" y="-594.3" font-family="Times,serif" font-size="14.00">fetch</text>
<polyline fill="none" stroke="black" points="137,-586.5 137,-609.5 "/>
<text text-anchor="middle" x="160" y="-594.3" font-family="Times,serif" font-size="14.00">synth</text>
<polyline fill="none" stroke="black" points="183,-586.5 183,-609.5 "/>
<text text-anchor="middle" x="208" y="-594.3" font-family="Times,serif" font-size="14.00">restart</text>
<polyline fill="none" stroke="black" points="233,-586.5 233,-609.5 "/>
<text text-anchor="middle" x="253" y="-594.3" font-family="Times,serif" font-size="14.00">pass</text>
</g>
<!-- lookup2&#45;&gt;miss -->
<g id="edge21" class="edge"><title>lookup2:miss:s&#45;&gt;miss</title>
<path fill="none" stroke="blue" stroke-width="2" d="M75,-694C75,-683.93 88.1636,-672.115 105.3,-661.002"/>
<polygon fill="blue" stroke="blue" stroke-width="2" points="107.336,-663.857 113.99,-655.613 103.647,-657.908 107.336,-663.857"/>
</g>
<!-- pass -->
<g id="node19" class="node"><title>pass</title>
<polygon fill="none" stroke="black" points="231,-450.5 231,-519.5 371,-519.5 371,-450.5 231,-450.5"/>
<text text-anchor="middle" x="301" y="-504.3" font-family="Times,serif" font-size="14.00">cnt_pass:</text>
<polyline fill="none" stroke="black" points="231,-496.5 371,-496.5 "/>
<text text-anchor="middle" x="274" y="-481.3" font-family="Times,serif" font-size="14.00">vcl_pass{}</text>
<polyline fill="none" stroke="black" points="317,-473.5 317,-496.5 "/>
<text text-anchor="middle" x="344" y="-481.3" font-family="Times,serif" font-size="14.00">req.*</text>
<polyline fill="none" stroke="black" points="231,-473.5 371,-473.5 "/>
<text text-anchor="middle" x="253" y="-458.3" font-family="Times,serif" font-size="14.00">fetch</text>
<polyline fill="none" stroke="black" points="275,-450.5 275,-473.5 "/>
<text text-anchor="middle" x="298" y="-458.3" font-family="Times,serif" font-size="14.00">synth</text>
<polyline fill="none" stroke="black" points="321,-450.5 321,-473.5 "/>
<text text-anchor="middle" x="346" y="-458.3" font-family="Times,serif" font-size="14.00">restart</text>
</g>
<!-- lookup2&#45;&gt;pass -->
<g id="edge22" class="edge"><title>lookup2:pass:s&#45;&gt;pass</title>
<path fill="none" stroke="red" stroke-width="2" d="M212,-694C212,-658.6 262.235,-685.368 282,-656 306.901,-619 309.125,-566.909 306.709,-530.164"/>
<polygon fill="red" stroke="red" stroke-width="2" points="310.163,-529.449 305.876,-519.761 303.186,-530.009 310.163,-529.449"/>
</g>
<!-- lookup -->
<g id="node17" class="node"><title>lookup</title>
<polygon fill="none" stroke="grey" points="72,-849.5 72,-918.5 290,-918.5 290,-849.5 72,-849.5"/>
<text text-anchor="middle" x="181" y="-903.3" font-family="Times,serif" font-size="14.00" fill="grey">cnt_lookup:</text>
<polyline fill="none" stroke="grey" points="72,-895.5 290,-895.5 "/>
<text text-anchor="middle" x="181" y="-880.3" font-family="Times,serif" font-size="14.00" fill="grey">hash lookup</text>
<polyline fill="none" stroke="grey" points="72,-872.5 290,-872.5 "/>
<text text-anchor="middle" x="90.5" y="-857.3" font-family="Times,serif" font-size="14.00" fill="grey">hit?</text>
<polyline fill="none" stroke="grey" points="109,-849.5 109,-872.5 "/>
<text text-anchor="middle" x="133" y="-857.3" font-family="Times,serif" font-size="14.00" fill="grey">miss?</text>
<polyline fill="none" stroke="grey" points="157,-849.5 157,-872.5 "/>
<text text-anchor="middle" x="199.5" y="-857.3" font-family="Times,serif" font-size="14.00" fill="grey">hit&#45;for&#45;pass?</text>
<polyline fill="none" stroke="grey" points="242,-849.5 242,-872.5 "/>
<text text-anchor="middle" x="266" y="-857.3" font-family="Times,serif" font-size="14.00" fill="grey">busy?</text>
</g>
<!-- lookup&#45;&gt;lookup2 -->
<g id="edge19" class="edge"><title>lookup:h:s&#45;&gt;lookup2</title>
<path fill="none" stroke="green" stroke-width="2" d="M90,-848C90,-831.132 93.1441,-813.177 97.2457,-796.931"/>
<polygon fill="green" stroke="green" stroke-width="2" points="100.683,-797.627 99.9037,-787.061 93.9235,-795.807 100.683,-797.627"/>
</g>
<!-- lookup&#45;&gt;lookup -->
<g id="edge16" class="edge"><title>lookup:busy:e&#45;&gt;lookup:top:e</title>
<path fill="none" stroke="grey" d="M290,-861C296,-842 308,-842 308,-884 308,-916.812 300.676,-923.99 294.61,-916.5"/>
<polygon fill="grey" stroke="grey" points="297.515,-914.469 290,-907 291.217,-917.525 297.515,-914.469"/>
<text text-anchor="middle" x="341.5" y="-880.3" font-family="Times,serif" font-size="14.00" fill="grey">(waitinglist)</text>
</g>
<!-- lookup&#45;&gt;miss -->
<g id="edge17" class="edge"><title>lookup:miss:s&#45;&gt;miss</title>
<path fill="none" stroke="blue" stroke-width="2" d="M133,-848C133,-793.478 212.443,-835.046 240,-788 261.115,-751.951 253.728,-733.458 240,-694 236.272,-683.286 230.213,-672.965 223.406,-663.647"/>
<polygon fill="blue" stroke="blue" stroke-width="2" points="226.164,-661.492 217.272,-655.731 220.631,-665.779 226.164,-661.492"/>
</g>
<!-- lookup&#45;&gt;pass -->
<g id="edge18" class="edge"><title>lookup:hfp:s&#45;&gt;pass</title>
<path fill="none" stroke="red" stroke-width="2" d="M200,-848C200,-809.972 240.547,-820.06 261,-788 294.493,-735.499 292.598,-716.34 308,-656 321.062,-604.828 332.073,-589.843 322,-538 321.443,-535.133 320.728,-532.223 319.9,-529.321"/>
<polygon fill="red" stroke="red" stroke-width="2" points="323.142,-527.974 316.713,-519.553 316.487,-530.145 323.142,-527.974"/>
</g>
<!-- miss&#45;&gt;FETCH -->
<g id="edge23" class="edge"><title>miss:fetch:s&#45;&gt;FETCH</title>
<path fill="none" stroke="blue" stroke-width="2" d="M115,-586C115,-571.206 134.518,-580.121 143,-568 173.956,-523.765 180.802,-458.957 182.043,-422.516"/>
<polygon fill="blue" stroke="blue" stroke-width="2" points="185.55,-422.246 182.269,-412.172 178.552,-422.093 185.55,-422.246"/>
</g>
<!-- miss&#45;&gt;pass -->
<g id="edge24" class="edge"><title>miss:pass:s&#45;&gt;pass</title>
<path fill="none" stroke="red" stroke-width="2" d="M253,-586C253,-566.014 260.889,-545.798 270.27,-528.823"/>
<polygon fill="red" stroke="red" stroke-width="2" points="273.553,-530.144 275.594,-519.748 267.515,-526.602 273.553,-530.144"/>
</g>
<!-- pass&#45;&gt;FETCH -->
<g id="edge25" class="edge"><title>pass:fetch:s&#45;&gt;FETCH</title>
<path fill="none" stroke="red" stroke-width="2" d="M253,-450C253,-440.506 236.935,-427.6 220.088,-416.675"/>
<polygon fill="red" stroke="red" stroke-width="2" points="221.623,-413.507 211.288,-411.172 217.911,-419.442 221.623,-413.507"/>
</g>
<!-- pipe -->
<g id="node20" class="node"><title>pipe</title>
<polygon fill="none" stroke="black" points="469,-826.5 469,-941.5 603,-941.5 603,-826.5 469,-826.5"/>
<text text-anchor="middle" x="536" y="-926.3" font-family="Times,serif" font-size="14.00">cnt_pipe:</text>
<polyline fill="none" stroke="black" points="469,-918.5 603,-918.5 "/>
<text text-anchor="middle" x="536" y="-903.3" font-family="Times,serif" font-size="14.00">filter req.*&#45;&gt;bereq.*</text>
<polyline fill="none" stroke="black" points="469,-895.5 603,-895.5 "/>
<text text-anchor="middle" x="507.5" y="-868.8" font-family="Times,serif" font-size="14.00">vcl_pipe{}</text>
<polyline fill="none" stroke="black" points="546,-849.5 546,-895.5 "/>
<text text-anchor="middle" x="574.5" y="-880.3" font-family="Times,serif" font-size="14.00">req.*</text>
<polyline fill="none" stroke="black" points="546,-872.5 603,-872.5 "/>
<text text-anchor="middle" x="574.5" y="-857.3" font-family="Times,serif" font-size="14.00">bereq.*</text>
<polyline fill="none" stroke="black" points="469,-849.5 603,-849.5 "/>
<text text-anchor="middle" x="501" y="-834.3" font-family="Times,serif" font-size="14.00">pipe</text>
<polyline fill="none" stroke="black" points="533,-826.5 533,-849.5 "/>
<text text-anchor="middle" x="568" y="-834.3" font-family="Times,serif" font-size="14.00">synth</text>
</g>
<!-- pipe_do -->
<g id="node21" class="node"><title>pipe_do</title>
<ellipse fill="none" stroke="black" cx="564" cy="-741" rx="95.1892" ry="26.7407"/>
<text text-anchor="middle" x="564" y="-744.8" font-family="Times,serif" font-size="14.00">send bereq,</text>
<text text-anchor="middle" x="564" y="-729.8" font-family="Times,serif" font-size="14.00">copy bytes until close</text>
</g>
<!-- pipe&#45;&gt;pipe_do -->
<g id="edge26" class="edge"><title>pipe:pipe&#45;&gt;pipe_do</title>
<path fill="none" stroke="orange" stroke-width="2" d="M501,-826C501,-806.313 512.213,-788.286 525.177,-774.023"/>
<polygon fill="orange" stroke="orange" stroke-width="2" points="528.033,-776.107 532.5,-766.5 523.017,-771.225 528.033,-776.107"/>
</g>
<!-- pipe_do&#45;&gt;DONE -->
<g id="edge27" class="edge"><title>pipe_do&#45;&gt;DONE</title>
<path fill="none" stroke="orange" stroke-width="2" d="M554.557,-714.143C546.771,-690.492 537,-654.364 537,-622 537,-622 537,-622 537,-91 537,-64.9742 513.387,-46.1471 491.504,-34.2872"/>
<polygon fill="orange" stroke="orange" stroke-width="2" points="492.808,-31.0244 482.305,-29.6303 489.646,-37.2697 492.808,-31.0244"/>
</g>
<!-- restart&#45;&gt;recv -->
<g id="edge29" class="edge"><title>restart:ok:s&#45;&gt;recv</title>
<path fill="none" stroke="black" d="M531,-1196C531,-1184 526.075,-1173.69 518.517,-1164.93"/>
<polygon fill="black" stroke="black" points="520.787,-1162.25 511.254,-1157.63 515.824,-1167.18 520.787,-1162.25"/>
</g>
<!-- err_restart -->
<g id="node23" class="node"><title>err_restart</title>
<text text-anchor="middle" x="596" y="-1119.3" font-family="Times,serif" font-size="14.00">SYNTH</text>
</g>
<!-- restart&#45;&gt;err_restart -->
<g id="edge30" class="edge"><title>restart:max:s&#45;&gt;err_restart</title>
<path fill="none" stroke="sienna" d="M595,-1196C595,-1181.2 595.214,-1164.7 595.444,-1151.23"/>
<polygon fill="sienna" stroke="sienna" points="598.944,-1151.23 595.628,-1141.17 591.945,-1151.1 598.944,-1151.23"/>
</g>
<!-- hash&#45;&gt;SYNTH -->
<g id="edge40" class="edge"><title>hash:lookup&#45;&gt;SYNTH</title>
<path fill="none" stroke="sienna" d="M441,-980C441,-937.778 441,-927.222 441,-885 441,-885 441,-885 441,-393 441,-378.09 439.076,-361.576 437.007,-348.129"/>
<polygon fill="sienna" stroke="sienna" points="440.433,-347.388 435.351,-338.091 433.526,-348.528 440.433,-347.388"/>
</g>
<!-- hash&#45;&gt;lookup -->
<g id="edge36" class="edge"><title>hash:lookup&#45;&gt;lookup:top:n</title>
<path fill="none" stroke="green" stroke-width="2" d="M379,-992C335.565,-992 202.305,-970.327 183.272,-929.81"/>
<polygon fill="green" stroke="green" stroke-width="2" points="186.666,-928.952 181,-920 179.847,-930.532 186.666,-928.952"/>
</g>
<!-- hash&#45;&gt;pass -->
<g id="edge38" class="edge"><title>hash:lookup&#45;&gt;pass</title>
<path fill="none" stroke="red" stroke-width="2" d="M379,-992C354.631,-992 403,-909.369 403,-885 403,-885 403,-885 403,-620 403,-583.411 378.624,-550.572 353.705,-526.561"/>
<polygon fill="red" stroke="red" stroke-width="2" points="356.042,-523.955 346.333,-519.714 351.278,-529.084 356.042,-523.955"/>
</g>
<!-- hash&#45;&gt;pipe -->
<g id="edge39" class="edge"><title>hash:lookup&#45;&gt;pipe:top:n</title>
<path fill="none" stroke="orange" stroke-width="2" d="M503,-992C526.194,-992 534.02,-974.264 535.653,-952.092"/>
<polygon fill="orange" stroke="orange" stroke-width="2" points="539.154,-952.115 536,-942 532.158,-951.874 539.154,-952.115"/>
</g>
<!-- purge -->
<g id="node25" class="node"><title>purge</title>
<polygon fill="none" stroke="black" points="621,-849.5 621,-918.5 749,-918.5 749,-849.5 621,-849.5"/>
<text text-anchor="middle" x="685" y="-903.3" font-family="Times,serif" font-size="14.00">cnt_purge:</text>
<polyline fill="none" stroke="black" points="621,-895.5 749,-895.5 "/>
<text text-anchor="middle" x="663" y="-880.3" font-family="Times,serif" font-size="14.00">vcl_purge{}</text>
<polyline fill="none" stroke="black" points="705,-872.5 705,-895.5 "/>
<text text-anchor="middle" x="727" y="-880.3" font-family="Times,serif" font-size="14.00">req.*</text>
<polyline fill="none" stroke="black" points="621,-872.5 749,-872.5 "/>
<text text-anchor="middle" x="652" y="-857.3" font-family="Times,serif" font-size="14.00">synth</text>
<polyline fill="none" stroke="black" points="683,-849.5 683,-872.5 "/>
<text text-anchor="middle" x="716" y="-857.3" font-family="Times,serif" font-size="14.00">restart</text>
</g>
<!-- hash&#45;&gt;purge -->
<g id="edge37" class="edge"><title>hash:lookup&#45;&gt;purge:top:n</title>
<path fill="none" stroke="purple" stroke-width="2" d="M503,-992C543.096,-992 663.938,-967.774 682.575,-929.913"/>
<polygon fill="purple" stroke="purple" stroke-width="2" points="686.024,-930.545 685,-920 679.224,-928.882 686.024,-930.545"/>
</g>
</g>
</svg>
