<?xml version="1.0" encoding="UTF-8" standalone="no"?>
<!DOCTYPE svg PUBLIC "-//W3C//DTD SVG 1.1//EN"
 "http://www.w3.org/Graphics/SVG/1.1/DTD/svg11.dtd">
<!-- Generated by graphviz version 2.38.0 (20140413.2041)
 -->
<!-- Title: cache_req_fsm Pages: 1 -->
<svg width="793pt" height="1349pt"
 viewBox="18.00 18.00 775.00 1331.00" xmlns="http://www.w3.org/2000/svg" xmlns:xlink="http://www.w3.org/1999/xlink">
<g id="graph0" class="graph" transform="scale(1 1) rotate(0) translate(22 1327)">
<title>cache_req_fsm</title>
<polygon fill="white" stroke="none" points="-4,4 -4,-1309 753,-1309 753,4 -4,4"/>
<g id="clust3" class="cluster"><title>cluster_backend</title>
<polygon fill="aliceblue" stroke="aliceblue" points="56,-299 56,-408 347,-408 347,-299 56,-299"/>
</g>
<!-- acceptor -->
<g id="node1" class="node"><title>acceptor</title>
<polygon fill="none" stroke="black" points="369.608,-1208.5 328.304,-1226.5 245.696,-1226.5 204.392,-1208.5 245.696,-1190.5 328.304,-1190.5 369.608,-1208.5"/>
<text text-anchor="middle" x="287" y="-1204.8" font-family="Times,serif" font-size="14.00">Request received</text>
</g>
<!-- recv -->
<g id="node4" class="node"><title>recv</title>
<polygon fill="none" stroke="black" points="333,-1078.5 333,-1147.5 547,-1147.5 547,-1078.5 333,-1078.5"/>
<text text-anchor="middle" x="440" y="-1132.3" font-family="Times,serif" font-size="14.00">cnt_recv:</text>
<polyline fill="none" stroke="black" points="333,-1124.5 547,-1124.5 "/>
<text text-anchor="middle" x="394.5" y="-1109.3" font-family="Times,serif" font-size="14.00">vcl_recv{}</text>
<polyline fill="none" stroke="black" points="456,-1101.5 456,-1124.5 "/>
<text text-anchor="middle" x="501.5" y="-1109.3" font-family="Times,serif" font-size="14.00">req.*</text>
<polyline fill="none" stroke="black" points="333,-1101.5 547,-1101.5 "/>
<text text-anchor="middle" x="353.5" y="-1086.3" font-family="Times,serif" font-size="14.00">hash</text>
<polyline fill="none" stroke="black" points="374,-1078.5 374,-1101.5 "/>
<text text-anchor="middle" x="397.5" y="-1086.3" font-family="Times,serif" font-size="14.00">purge</text>
<polyline fill="none" stroke="black" points="421,-1078.5 421,-1101.5 "/>
<text text-anchor="middle" x="441" y="-1086.3" font-family="Times,serif" font-size="14.00">pass</text>
<polyline fill="none" stroke="black" points="461,-1078.5 461,-1101.5 "/>
<text text-anchor="middle" x="481" y="-1086.3" font-family="Times,serif" font-size="14.00">pipe</text>
<polyline fill="none" stroke="black" points="501,-1078.5 501,-1101.5 "/>
<text text-anchor="middle" x="524" y="-1086.3" font-family="Times,serif" font-size="14.00">synth</text>
</g>
<!-- acceptor&#45;&gt;recv -->
<g id="edge2" class="edge"><title>acceptor&#45;&gt;recv</title>
<path fill="none" stroke="black" stroke-width="2" d="M315.063,-1190.35C332.274,-1179.83 355.043,-1165.92 376.425,-1152.85"/>
<polygon fill="black" stroke="black" stroke-width="2" points="378.458,-1155.71 385.165,-1147.51 374.807,-1149.74 378.458,-1155.71"/>
</g>
<!-- ESI_REQ -->
<g id="node2" class="node"><title>ESI_REQ</title>
<polygon fill="none" stroke="black" points="494.07,-1208.5 467.535,-1226.5 414.465,-1226.5 387.93,-1208.5 414.465,-1190.5 467.535,-1190.5 494.07,-1208.5"/>
<text text-anchor="middle" x="441" y="-1204.8" font-family="Times,serif" font-size="14.00">ESI_REQ</text>
</g>
<!-- ESI_REQ&#45;&gt;recv -->
<g id="edge1" class="edge"><title>ESI_REQ&#45;&gt;recv</title>
<path fill="none" stroke="black" d="M440.817,-1190.35C440.718,-1181.14 440.592,-1169.31 440.468,-1157.74"/>
<polygon fill="black" stroke="black" points="443.967,-1157.66 440.36,-1147.7 436.968,-1157.74 443.967,-1157.66"/>
</g>
<!-- RESTART -->
<g id="node3" class="node"><title>RESTART</title>
<text text-anchor="middle" x="577" y="-1283.3" font-family="Times,serif" font-size="14.00">RESTART</text>
</g>
<!-- restart -->
<g id="node22" class="node"><title>restart</title>
<polygon fill="none" stroke="grey" points="513,-1185.5 513,-1231.5 641,-1231.5 641,-1185.5 513,-1185.5"/>
<text text-anchor="middle" x="577" y="-1216.3" font-family="Times,serif" font-size="14.00" fill="grey">cnt_restart:</text>
<polyline fill="none" stroke="grey" points="513,-1208.5 641,-1208.5 "/>
<text text-anchor="middle" x="531" y="-1193.3" font-family="Times,serif" font-size="14.00" fill="grey">ok?</text>
<polyline fill="none" stroke="grey" points="549,-1185.5 549,-1208.5 "/>
<text text-anchor="middle" x="595" y="-1193.3" font-family="Times,serif" font-size="14.00" fill="grey">max_restarts?</text>
</g>
<!-- RESTART&#45;&gt;restart -->
<g id="edge28" class="edge"><title>RESTART&#45;&gt;restart</title>
<path fill="none" stroke="black" d="M577,-1268.64C577,-1260.7 577,-1251.02 577,-1241.81"/>
<polygon fill="black" stroke="black" points="580.5,-1241.74 577,-1231.74 573.5,-1241.74 580.5,-1241.74"/>
</g>
<!-- hash -->
<g id="node24" class="node"><title>hash</title>
<polygon fill="none" stroke="black" points="380,-971.5 380,-1040.5 502,-1040.5 502,-971.5 380,-971.5"/>
<text text-anchor="middle" x="441" y="-1025.3" font-family="Times,serif" font-size="14.00">cnt_recv:</text>
<polyline fill="none" stroke="black" points="380,-1017.5 502,-1017.5 "/>
<text text-anchor="middle" x="419" y="-1002.3" font-family="Times,serif" font-size="14.00">vcl_hash{}</text>
<polyline fill="none" stroke="black" points="458,-994.5 458,-1017.5 "/>
<text text-anchor="middle" x="480" y="-1002.3" font-family="Times,serif" font-size="14.00">req.*</text>
<polyline fill="none" stroke="black" points="380,-994.5 502,-994.5 "/>
<text text-anchor="middle" x="441" y="-979.3" font-family="Times,serif" font-size="14.00">lookup</text>
</g>
<!-- recv&#45;&gt;hash -->
<g id="edge31" class="edge"><title>recv:hash:s&#45;&gt;hash</title>
<path fill="none" stroke="green" stroke-width="2" d="M353,-1078C353,-1063.01 360.833,-1050.64 371.824,-1040.67"/>
<polygon fill="green" stroke="green" stroke-width="2" points="374.312,-1043.16 379.881,-1034.14 369.907,-1037.72 374.312,-1043.16"/>
</g>
<!-- recv&#45;&gt;hash -->
<g id="edge32" class="edge"><title>recv:purge:s&#45;&gt;hash</title>
<path fill="none" stroke="purple" stroke-width="2" d="M397,-1078C397,-1067.99 400.196,-1058.22 404.866,-1049.29"/>
<polygon fill="purple" stroke="purple" stroke-width="2" points="407.893,-1051.05 409.963,-1040.66 401.866,-1047.49 407.893,-1051.05"/>
</g>
<!-- recv&#45;&gt;hash -->
<g id="edge33" class="edge"><title>recv:pass:s&#45;&gt;hash</title>
<path fill="none" stroke="red" stroke-width="2" d="M441,-1078C441,-1069.23 441,-1059.85 441,-1050.88"/>
<polygon fill="red" stroke="red" stroke-width="2" points="444.5,-1050.59 441,-1040.59 437.5,-1050.59 444.5,-1050.59"/>
</g>
<!-- recv&#45;&gt;hash -->
<g id="edge34" class="edge"><title>recv:pipe:s&#45;&gt;hash</title>
<path fill="none" stroke="orange" stroke-width="2" d="M481,-1078C481,-1068.23 478.092,-1058.57 473.844,-1049.67"/>
<polygon fill="orange" stroke="orange" stroke-width="2" points="476.829,-1047.83 468.999,-1040.69 470.669,-1051.16 476.829,-1047.83"/>
</g>
<!-- recv&#45;&gt;hash -->
<g id="edge35" class="edge"><title>recv:synth:s&#45;&gt;hash</title>
<path fill="none" stroke="sienna" stroke-width="2" d="M524,-1078C524,-1065.13 518.168,-1054.1 509.596,-1044.83"/>
<polygon fill="sienna" stroke="sienna" stroke-width="2" points="511.846,-1042.14 502.193,-1037.77 507.016,-1047.2 511.846,-1042.14"/>
</g>
<!-- SYNTH -->
<g id="node5" class="node"><title>SYNTH</title>
<text text-anchor="middle" x="432" y="-313.3" font-family="Times,serif" font-size="14.00">SYNTH</text>
</g>
<!-- synth -->
<g id="node10" class="node"><title>synth</title>
<polygon fill="none" stroke="black" points="274.5,-158 274.5,-250 407.5,-250 407.5,-158 274.5,-158"/>
<text text-anchor="middle" x="341" y="-234.8" font-family="Times,serif" font-size="14.00">cnt_synth:</text>
<polyline fill="none" stroke="black" points="274.5,-227 407.5,-227 "/>
<text text-anchor="middle" x="316" y="-200.3" font-family="Times,serif" font-size="14.00">vcl_synth{}</text>
<polyline fill="none" stroke="black" points="357.5,-181 357.5,-227 "/>
<text text-anchor="middle" x="382.5" y="-211.8" font-family="Times,serif" font-size="14.00">req.*</text>
<polyline fill="none" stroke="black" points="357.5,-204 407.5,-204 "/>
<text text-anchor="middle" x="382.5" y="-188.8" font-family="Times,serif" font-size="14.00">resp.*</text>
<polyline fill="none" stroke="black" points="274.5,-181 407.5,-181 "/>
<text text-anchor="middle" x="308.5" y="-165.8" font-family="Times,serif" font-size="14.00">deliver</text>
<polyline fill="none" stroke="black" points="342.5,-158 342.5,-181 "/>
<text text-anchor="middle" x="375" y="-165.8" font-family="Times,serif" font-size="14.00">restart</text>
</g>
<!-- SYNTH&#45;&gt;synth -->
<g id="edge8" class="edge"><title>SYNTH&#45;&gt;synth</title>
<path fill="none" stroke="sienna" d="M417.781,-298.656C408.84,-287.75 396.774,-273.032 384.859,-258.498"/>
<polygon fill="sienna" stroke="sienna" points="387.322,-255.983 378.276,-250.468 381.909,-260.421 387.322,-255.983"/>
</g>
<!-- deliver -->
<g id="node6" class="node"><title>deliver</title>
<polygon fill="none" stroke="black" points="106,-146.5 106,-261.5 256,-261.5 256,-146.5 106,-146.5"/>
<text text-anchor="middle" x="181" y="-246.3" font-family="Times,serif" font-size="14.00">cnt_deliver:</text>
<polyline fill="none" stroke="black" points="106,-238.5 256,-238.5 "/>
<text text-anchor="middle" x="181" y="-223.3" font-family="Times,serif" font-size="14.00">Filter obj.&#45;&gt;resp.</text>
<polyline fill="none" stroke="black" points="106,-215.5 256,-215.5 "/>
<text text-anchor="middle" x="153.5" y="-188.8" font-family="Times,serif" font-size="14.00">vcl_deliver{}</text>
<polyline fill="none" stroke="black" points="201,-169.5 201,-215.5 "/>
<text text-anchor="middle" x="228.5" y="-200.3" font-family="Times,serif" font-size="14.00">req.*</text>
<polyline fill="none" stroke="black" points="201,-192.5 256,-192.5 "/>
<text text-anchor="middle" x="228.5" y="-177.3" font-family="Times,serif" font-size="14.00">resp.*</text>
<polyline fill="none" stroke="black" points="106,-169.5 256,-169.5 "/>
<text text-anchor="middle" x="131" y="-154.3" font-family="Times,serif" font-size="14.00">restart</text>
<polyline fill="none" stroke="black" points="156,-146.5 156,-169.5 "/>
<text text-anchor="middle" x="183" y="-154.3" font-family="Times,serif" font-size="14.00">deliver</text>
<polyline fill="none" stroke="black" points="210,-146.5 210,-169.5 "/>
<text text-anchor="middle" x="233" y="-154.3" font-family="Times,serif" font-size="14.00">synth</text>
</g>
<!-- V1D_Deliver -->
<g id="node7" class="node"><title>V1D_Deliver</title>
<ellipse fill="none" stroke="black" cx="236" cy="-91" rx="58.4896" ry="18"/>
<text text-anchor="middle" x="236" y="-87.3" font-family="Times,serif" font-size="14.00">V1D_Deliver</text>
</g>
<!-- deliver&#45;&gt;V1D_Deliver -->
<g id="edge3" class="edge"><title>deliver:deliver:s&#45;&gt;V1D_Deliver</title>
<path fill="none" stroke="green" stroke-width="2" d="M183,-146C175.436,-131.868 180.41,-120.078 190.056,-111.156"/>
<polygon fill="green" stroke="green" stroke-width="2" points="192.406,-113.764 198.212,-104.902 188.147,-108.21 192.406,-113.764"/>
</g>
<!-- deliver&#45;&gt;V1D_Deliver -->
<g id="edge4" class="edge"><title>deliver:deliver:s&#45;&gt;V1D_Deliver</title>
<path fill="none" stroke="red" stroke-width="2" d="M183,-146C183,-133.044 190.868,-122.055 200.54,-113.441"/>
<polygon fill="red" stroke="red" stroke-width="2" points="202.925,-116.016 208.569,-107.05 198.565,-110.54 202.925,-116.016"/>
</g>
<!-- deliver&#45;&gt;V1D_Deliver -->
<g id="edge5" class="edge"><title>deliver:deliver:s&#45;&gt;V1D_Deliver</title>
<path fill="none" stroke="blue" stroke-width="2" d="M183,-146C189.668,-133.543 201.138,-122.906 212.023,-114.449"/>
<polygon fill="blue" stroke="blue" stroke-width="2" points="214.205,-117.187 220.143,-108.412 210.029,-111.569 214.205,-117.187"/>
</g>
<!-- DONE -->
<g id="node9" class="node"><title>DONE</title>
<ellipse fill="none" stroke="black" cx="455" cy="-18" rx="35.194" ry="18"/>
<text text-anchor="middle" x="455" y="-14.3" font-family="Times,serif" font-size="14.00">DONE</text>
</g>
<!-- V1D_Deliver&#45;&gt;DONE -->
<g id="edge7" class="edge"><title>V1D_Deliver&#45;&gt;DONE</title>
<path fill="none" stroke="black" d="M274.649,-77.4701C314.609,-64.515 376.63,-44.4078 416.525,-31.4735"/>
<polygon fill="black" stroke="black" points="417.731,-34.7619 426.165,-28.3485 415.573,-28.1031 417.731,-34.7619"/>
</g>
<!-- stream -->
<g id="node8" class="node"><title>stream</title>
<ellipse fill="turquoise" stroke="turquoise" cx="467" cy="-204" rx="41.9398" ry="26.7407"/>
<text text-anchor="middle" x="467" y="-207.8" font-family="Times,serif" font-size="14.00">stream?</text>
<text text-anchor="middle" x="467" y="-192.8" font-family="Times,serif" font-size="14.00">body</text>
</g>
<!-- stream&#45;&gt;V1D_Deliver -->
<g id="edge6" class="edge"><title>stream&#45;&gt;V1D_Deliver</title>
<path fill="none" stroke="black" stroke-dasharray="1,5" d="M450.499,-179.068C441.495,-167.606 429.448,-154.547 416,-146 380.135,-123.204 334.167,-109.626 297.663,-101.787"/>
<polygon fill="black" stroke="black" points="298.134,-98.3108 287.634,-99.7253 296.724,-105.167 298.134,-98.3108"/>
</g>
<!-- synth&#45;&gt;V1D_Deliver -->
<g id="edge9" class="edge"><title>synth:del:s&#45;&gt;V1D_Deliver</title>
<path fill="none" stroke="sienna" d="M308,-157C308,-137.353 293.047,-122.114 276.77,-111.346"/>
<polygon fill="sienna" stroke="sienna" points="278.569,-108.343 268.209,-106.122 274.923,-114.319 278.569,-108.343"/>
</g>
<!-- see backend graph -->
<g id="node11" class="node"><title>see backend graph</title>
<text text-anchor="middle" x="288" y="-386.3" font-family="Times,serif" font-size="14.00">see backend graph</text>
</g>
<!-- BGFETCH -->
<g id="node12" class="node"><title>BGFETCH</title>
<polygon fill="turquoise" stroke="turquoise" points="134,-408 56,-408 56,-372 134,-372 134,-408"/>
<text text-anchor="middle" x="95" y="-386.3" font-family="Times,serif" font-size="14.00">BGFETCH</text>
</g>
<!-- FETCH -->
<g id="node13" class="node"><title>FETCH</title>
<polygon fill="turquoise" stroke="turquoise" points="211.5,-408 152.5,-408 152.5,-372 211.5,-372 211.5,-408"/>
<text text-anchor="middle" x="182" y="-386.3" font-family="Times,serif" font-size="14.00">FETCH</text>
</g>
<!-- FETCH_DONE -->
<g id="node14" class="node"><title>FETCH_DONE</title>
<polygon fill="turquoise" stroke="turquoise" points="233,-335 129,-335 129,-299 233,-299 233,-335"/>
<text text-anchor="middle" x="181" y="-313.3" font-family="Times,serif" font-size="14.00">FETCH_DONE</text>
</g>
<!-- FETCH&#45;&gt;FETCH_DONE -->
<g id="edge14" class="edge"><title>FETCH&#45;&gt;FETCH_DONE</title>
<path fill="none" stroke="black" stroke-dasharray="1,5" d="M181.758,-371.813C181.645,-363.789 181.508,-354.047 181.381,-345.069"/>
<polygon fill="black" stroke="black" points="184.88,-344.979 181.24,-335.029 177.881,-345.077 184.88,-344.979"/>
</g>
<!-- FETCH_FAIL -->
<g id="node15" class="node"><title>FETCH_FAIL</title>
<polygon fill="turquoise" stroke="turquoise" points="347,-335 251,-335 251,-299 347,-299 347,-335"/>
<text text-anchor="middle" x="299" y="-313.3" font-family="Times,serif" font-size="14.00">FETCH_FAIL</text>
</g>
<!-- FETCH&#45;&gt;FETCH_FAIL -->
<g id="edge15" class="edge"><title>FETCH&#45;&gt;FETCH_FAIL</title>
<path fill="none" stroke="black" stroke-dasharray="1,5" d="M210.024,-371.994C225.54,-362.579 245.023,-350.755 261.799,-340.575"/>
<polygon fill="black" stroke="black" points="264.065,-343.294 270.799,-335.114 260.434,-337.309 264.065,-343.294"/>
</g>
<!-- FETCH_DONE&#45;&gt;deliver -->
<g id="edge12" class="edge"><title>FETCH_DONE&#45;&gt;deliver</title>
<path fill="none" stroke="red" stroke-width="2" d="M175.938,-298.656C175.117,-291.065 174.595,-281.628 174.373,-271.691"/>
<polygon fill="red" stroke="red" stroke-width="2" points="177.873,-271.595 174.251,-261.638 170.873,-271.68 177.873,-271.595"/>
</g>
<!-- FETCH_DONE&#45;&gt;deliver -->
<g id="edge13" class="edge"><title>FETCH_DONE&#45;&gt;deliver</title>
<path fill="none" stroke="blue" stroke-width="2" d="M186.062,-298.656C186.883,-291.065 187.405,-281.628 187.627,-271.691"/>
<polygon fill="blue" stroke="blue" stroke-width="2" points="191.127,-271.68 187.749,-261.638 184.127,-271.595 191.127,-271.68"/>
</g>
<!-- FETCH_FAIL&#45;&gt;synth -->
<g id="edge11" class="edge"><title>FETCH_FAIL&#45;&gt;synth</title>
<path fill="none" stroke="sienna" d="M305.562,-298.656C309.537,-288.153 314.848,-274.117 320.146,-260.114"/>
<polygon fill="sienna" stroke="sienna" points="323.53,-261.06 323.796,-250.468 316.983,-258.582 323.53,-261.06"/>
</g>
<!-- lookup2 -->
<g id="node16" class="node"><title>lookup2</title>
<polygon fill="none" stroke="black" points="0,-688.5 0,-780.5 232,-780.5 232,-688.5 0,-688.5"/>
<text text-anchor="middle" x="116" y="-765.3" font-family="Times,serif" font-size="14.00">cnt_lookup:</text>
<polyline fill="none" stroke="black" points="0,-757.5 232,-757.5 "/>
<text text-anchor="middle" x="64" y="-730.8" font-family="Times,serif" font-size="14.00">vcl_hit{}</text>
<polyline fill="none" stroke="black" points="128,-711.5 128,-757.5 "/>
<text text-anchor="middle" x="180" y="-742.3" font-family="Times,serif" font-size="14.00">req.*</text>
<polyline fill="none" stroke="black" points="128,-734.5 232,-734.5 "/>
<text text-anchor="middle" x="180" y="-719.3" font-family="Times,serif" font-size="14.00">obj.*</text>
<polyline fill="none" stroke="black" points="0,-711.5 232,-711.5 "/>
<text text-anchor="middle" x="27" y="-696.3" font-family="Times,serif" font-size="14.00">deliver</text>
<polyline fill="none" stroke="black" points="54,-688.5 54,-711.5 "/>
<text text-anchor="middle" x="75" y="-696.3" font-family="Times,serif" font-size="14.00">miss</text>
<polyline fill="none" stroke="black" points="96,-688.5 96,-711.5 "/>
<text text-anchor="middle" x="121" y="-696.3" font-family="Times,serif" font-size="14.00">restart</text>
<polyline fill="none" stroke="black" points="146,-688.5 146,-711.5 "/>
<text text-anchor="middle" x="169" y="-696.3" font-family="Times,serif" font-size="14.00">synth</text>
<polyline fill="none" stroke="black" points="192,-688.5 192,-711.5 "/>
<text text-anchor="middle" x="212" y="-696.3" font-family="Times,serif" font-size="14.00">pass</text>
</g>
<!-- lookup2&#45;&gt;deliver -->
<g id="edge20" class="edge"><title>lookup2:deliver:s&#45;&gt;deliver:n</title>
<path fill="none" stroke="green" stroke-width="2" d="M27,-688C27,-656.444 27,-648.556 27,-617 27,-617 27,-617 27,-316 27,-247.295 165.186,-325.381 179.76,-272.158"/>
<polygon fill="green" stroke="green" stroke-width="2" points="183.263,-272.35 181,-262 176.314,-271.502 183.263,-272.35"/>
</g>
<!-- lookup2&#45;&gt;BGFETCH -->
<g id="edge10" class="edge"><title>lookup2:deliver:s&#45;&gt;BGFETCH</title>
<path fill="none" stroke="green" d="M27,-688C27,-677.865 36.893,-679.265 41,-670 66.0499,-613.487 53.276,-593.694 65,-533 72.7546,-492.855 82.732,-446.55 88.9986,-418.023"/>
<polygon fill="green" stroke="green" points="92.4709,-418.53 91.2063,-408.011 85.6351,-417.022 92.4709,-418.53"/>
<text text-anchor="middle" x="102" y="-551.8" font-family="Times,serif" font-size="14.00">parallel</text>
<text text-anchor="middle" x="102" y="-536.8" font-family="Times,serif" font-size="14.00">if obj expired</text>
</g>
<!-- miss -->
<g id="node18" class="node"><title>miss</title>
<polygon fill="none" stroke="black" points="93,-581.5 93,-650.5 273,-650.5 273,-581.5 93,-581.5"/>
<text text-anchor="middle" x="183" y="-635.3" font-family="Times,serif" font-size="14.00">cnt_miss:</text>
<polyline fill="none" stroke="black" points="93,-627.5 273,-627.5 "/>
<text text-anchor="middle" x="146.5" y="-612.3" font-family="Times,serif" font-size="14.00">vcl_miss{}</text>
<polyline fill="none" stroke="black" points="200,-604.5 200,-627.5 "/>
<text text-anchor="middle" x="236.5" y="-612.3" font-family="Times,serif" font-size="14.00">req.*</text>
<polyline fill="none" stroke="black" points="93,-604.5 273,-604.5 "/>
<text text-anchor="middle" x="115" y="-589.3" font-family="Times,serif" font-size="14.00">fetch</text>
<polyline fill="none" stroke="black" points="137,-581.5 137,-604.5 "/>
<text text-anchor="middle" x="160" y="-589.3" font-family="Times,serif" font-size="14.00">synth</text>
<polyline fill="none" stroke="black" points="183,-581.5 183,-604.5 "/>
<text text-anchor="middle" x="208" y="-589.3" font-family="Times,serif" font-size="14.00">restart</text>
<polyline fill="none" stroke="black" points="233,-581.5 233,-604.5 "/>
<text text-anchor="middle" x="253" y="-589.3" font-family="Times,serif" font-size="14.00">pass</text>
</g>
<!-- lookup2&#45;&gt;miss -->
<g id="edge21" class="edge"><title>lookup2:miss:s&#45;&gt;miss</title>
<path fill="none" stroke="blue" stroke-width="2" d="M75,-688C75,-678.117 87.7867,-666.629 104.561,-655.811"/>
<polygon fill="blue" stroke="blue" stroke-width="2" points="106.399,-658.79 113.077,-650.564 102.727,-652.83 106.399,-658.79"/>
</g>
<!-- pass -->
<g id="node19" class="node"><title>pass</title>
<polygon fill="none" stroke="black" points="231,-445.5 231,-514.5 371,-514.5 371,-445.5 231,-445.5"/>
<text text-anchor="middle" x="301" y="-499.3" font-family="Times,serif" font-size="14.00">cnt_pass:</text>
<polyline fill="none" stroke="black" points="231,-491.5 371,-491.5 "/>
<text text-anchor="middle" x="274" y="-476.3" font-family="Times,serif" font-size="14.00">vcl_pass{}</text>
<polyline fill="none" stroke="black" points="317,-468.5 317,-491.5 "/>
<text text-anchor="middle" x="344" y="-476.3" font-family="Times,serif" font-size="14.00">req.*</text>
<polyline fill="none" stroke="black" points="231,-468.5 371,-468.5 "/>
<text text-anchor="middle" x="253" y="-453.3" font-family="Times,serif" font-size="14.00">fetch</text>
<polyline fill="none" stroke="black" points="275,-445.5 275,-468.5 "/>
<text text-anchor="middle" x="298" y="-453.3" font-family="Times,serif" font-size="14.00">synth</text>
<polyline fill="none" stroke="black" points="321,-445.5 321,-468.5 "/>
<text text-anchor="middle" x="346" y="-453.3" font-family="Times,serif" font-size="14.00">restart</text>
</g>
<!-- lookup2&#45;&gt;pass -->
<g id="edge22" class="edge"><title>lookup2:pass:s&#45;&gt;pass</title>
<path fill="none" stroke="red" stroke-width="2" d="M212,-688C212,-652.81 262.191,-680.084 282,-651 307.106,-614.139 309.295,-562.023 306.814,-525.235"/>
<polygon fill="red" stroke="red" stroke-width="2" points="310.266,-524.499 305.961,-514.819 303.289,-525.071 310.266,-524.499"/>
</g>
<!-- lookup -->
<g id="node17" class="node"><title>lookup</title>
<polygon fill="none" stroke="grey" points="72,-841.5 72,-910.5 290,-910.5 290,-841.5 72,-841.5"/>
<text text-anchor="middle" x="181" y="-895.3" font-family="Times,serif" font-size="14.00" fill="grey">cnt_lookup:</text>
<polyline fill="none" stroke="grey" points="72,-887.5 290,-887.5 "/>
<text text-anchor="middle" x="181" y="-872.3" font-family="Times,serif" font-size="14.00" fill="grey">hash lookup</text>
<polyline fill="none" stroke="grey" points="72,-864.5 290,-864.5 "/>
<text text-anchor="middle" x="90.5" y="-849.3" font-family="Times,serif" font-size="14.00" fill="grey">hit?</text>
<polyline fill="none" stroke="grey" points="109,-841.5 109,-864.5 "/>
<text text-anchor="middle" x="133" y="-849.3" font-family="Times,serif" font-size="14.00" fill="grey">miss?</text>
<polyline fill="none" stroke="grey" points="157,-841.5 157,-864.5 "/>
<text text-anchor="middle" x="199.5" y="-849.3" font-family="Times,serif" font-size="14.00" fill="grey">hit&#45;for&#45;pass?</text>
<polyline fill="none" stroke="grey" points="242,-841.5 242,-864.5 "/>
<text text-anchor="middle" x="266" y="-849.3" font-family="Times,serif" font-size="14.00" fill="grey">busy?</text>
</g>
<!-- lookup&#45;&gt;lookup2 -->
<g id="edge19" class="edge"><title>lookup:h:s&#45;&gt;lookup2</title>
<path fill="none" stroke="green" stroke-width="2" d="M90,-840C90,-823.744 92.9996,-806.475 96.9611,-790.756"/>
<polygon fill="green" stroke="green" stroke-width="2" points="100.455,-791.244 99.6814,-780.677 93.6965,-789.419 100.455,-791.244"/>
</g>
<!-- lookup&#45;&gt;lookup -->
<g id="edge16" class="edge"><title>lookup:busy:e&#45;&gt;lookup:top:e</title>
<path fill="none" stroke="grey" d="M290,-853C296,-834 308,-834 308,-876 308,-908.812 300.676,-915.99 294.61,-908.5"/>
<polygon fill="grey" stroke="grey" points="297.515,-906.469 290,-899 291.217,-909.525 297.515,-906.469"/>
<text text-anchor="middle" x="341.5" y="-872.3" font-family="Times,serif" font-size="14.00" fill="grey">(waitinglist)</text>
</g>
<!-- lookup&#45;&gt;miss -->
<g id="edge17" class="edge"><title>lookup:miss:s&#45;&gt;miss</title>
<path fill="none" stroke="blue" stroke-width="2" d="M133,-840C133,-785.304 213.095,-828.042 241,-781 262.088,-745.451 254.881,-726.933 241,-688 237.317,-677.67 231.414,-667.756 224.754,-658.784"/>
<polygon fill="blue" stroke="blue" stroke-width="2" points="227.412,-656.502 218.466,-650.824 221.918,-660.841 227.412,-656.502"/>
</g>
<!-- lookup&#45;&gt;pass -->
<g id="edge18" class="edge"><title>lookup:hfp:s&#45;&gt;pass</title>
<path fill="none" stroke="red" stroke-width="2" d="M200,-840C200,-801.962 241.309,-812.919 262,-781 295.338,-729.572 292.9,-710.399 308,-651 321.011,-599.816 332.073,-584.843 322,-533 321.443,-530.133 320.728,-527.223 319.9,-524.321"/>
<polygon fill="red" stroke="red" stroke-width="2" points="323.142,-522.974 316.713,-514.553 316.487,-525.145 323.142,-522.974"/>
</g>
<!-- miss&#45;&gt;FETCH -->
<g id="edge23" class="edge"><title>miss:fetch:s&#45;&gt;FETCH</title>
<path fill="none" stroke="blue" stroke-width="2" d="M115,-581C115,-566.206 134.51,-575.116 143,-563 173.813,-519.028 180.712,-454.591 182.001,-418.359"/>
<polygon fill="blue" stroke="blue" stroke-width="2" points="185.507,-418.153 182.241,-408.074 178.508,-417.989 185.507,-418.153"/>
</g>
<!-- miss&#45;&gt;pass -->
<g id="edge24" class="edge"><title>miss:pass:s&#45;&gt;pass</title>
<path fill="none" stroke="red" stroke-width="2" d="M253,-581C253,-561.014 260.889,-540.798 270.27,-523.823"/>
<polygon fill="red" stroke="red" stroke-width="2" points="273.553,-525.144 275.594,-514.748 267.515,-521.602 273.553,-525.144"/>
</g>
<!-- pass&#45;&gt;FETCH -->
<g id="edge25" class="edge"><title>pass:fetch:s&#45;&gt;FETCH</title>
<path fill="none" stroke="red" stroke-width="2" d="M253,-445C253,-435.637 237.159,-423.071 220.442,-412.417"/>
<polygon fill="red" stroke="red" stroke-width="2" points="222.052,-409.298 211.699,-407.047 218.388,-415.263 222.052,-409.298"/>
</g>
<!-- pipe -->
<g id="node20" class="node"><title>pipe</title>
<polygon fill="none" stroke="black" points="469,-818.5 469,-933.5 603,-933.5 603,-818.5 469,-818.5"/>
<text text-anchor="middle" x="536" y="-918.3" font-family="Times,serif" font-size="14.00">cnt_pipe:</text>
<polyline fill="none" stroke="black" points="469,-910.5 603,-910.5 "/>
<text text-anchor="middle" x="536" y="-895.3" font-family="Times,serif" font-size="14.00">filter req.*&#45;&gt;bereq.*</text>
<polyline fill="none" stroke="black" points="469,-887.5 603,-887.5 "/>
<text text-anchor="middle" x="507.5" y="-860.8" font-family="Times,serif" font-size="14.00">vcl_pipe{}</text>
<polyline fill="none" stroke="black" points="546,-841.5 546,-887.5 "/>
<text text-anchor="middle" x="574.5" y="-872.3" font-family="Times,serif" font-size="14.00">req.*</text>
<polyline fill="none" stroke="black" points="546,-864.5 603,-864.5 "/>
<text text-anchor="middle" x="574.5" y="-849.3" font-family="Times,serif" font-size="14.00">bereq.*</text>
<polyline fill="none" stroke="black" points="469,-841.5 603,-841.5 "/>
<text text-anchor="middle" x="501" y="-826.3" font-family="Times,serif" font-size="14.00">pipe</text>
<polyline fill="none" stroke="black" points="533,-818.5 533,-841.5 "/>
<text text-anchor="middle" x="568" y="-826.3" font-family="Times,serif" font-size="14.00">synth</text>
</g>
<!-- pipe_do -->
<g id="node21" class="node"><title>pipe_do</title>
<ellipse fill="none" stroke="black" cx="564" cy="-734.5" rx="95.4188" ry="26.7407"/>
<text text-anchor="middle" x="564" y="-738.3" font-family="Times,serif" font-size="14.00">send bereq,</text>
<text text-anchor="middle" x="564" y="-723.3" font-family="Times,serif" font-size="14.00">copy bytes until close</text>
</g>
<!-- pipe&#45;&gt;pipe_do -->
<g id="edge26" class="edge"><title>pipe:pipe&#45;&gt;pipe_do</title>
<path fill="none" stroke="orange" stroke-width="2" d="M501,-818C501,-798.841 511.865,-781.367 524.571,-767.482"/>
<polygon fill="orange" stroke="orange" stroke-width="2" points="527.259,-769.74 531.762,-760.15 522.261,-764.839 527.259,-769.74"/>
</g>
<!-- pipe_do&#45;&gt;DONE -->
<g id="edge27" class="edge"><title>pipe_do&#45;&gt;DONE</title>
<path fill="none" stroke="orange" stroke-width="2" d="M554.405,-707.525C546.644,-684.174 537,-648.766 537,-617 537,-617 537,-617 537,-90 537,-64.1309 513.387,-45.5803 491.504,-33.943"/>
<polygon fill="orange" stroke="orange" stroke-width="2" points="492.818,-30.6881 482.305,-29.3777 489.706,-36.9584 492.818,-30.6881"/>
</g>
<!-- restart&#45;&gt;recv -->
<g id="edge29" class="edge"><title>restart:ok:s&#45;&gt;recv</title>
<path fill="none" stroke="black" d="M531,-1185C531,-1173.49 526.422,-1163.58 519.319,-1155.12"/>
<polygon fill="black" stroke="black" points="521.629,-1152.47 512.145,-1147.75 516.615,-1157.36 521.629,-1152.47"/>
</g>
<!-- err_restart -->
<g id="node23" class="node"><title>err_restart</title>
<text text-anchor="middle" x="596" y="-1109.3" font-family="Times,serif" font-size="14.00">SYNTH</text>
</g>
<!-- restart&#45;&gt;err_restart -->
<g id="edge30" class="edge"><title>restart:max:s&#45;&gt;err_restart</title>
<path fill="none" stroke="sienna" d="M595,-1185C595,-1170.65 595.207,-1154.67 595.432,-1141.51"/>
<polygon fill="sienna" stroke="sienna" points="598.937,-1141.28 595.622,-1131.22 591.938,-1141.15 598.937,-1141.28"/>
</g>
<!-- hash&#45;&gt;SYNTH -->
<g id="edge40" class="edge"><title>hash:lookup&#45;&gt;SYNTH</title>
<path fill="none" stroke="sienna" d="M441,-971C441,-929.222 441,-918.778 441,-877 441,-877 441,-877 441,-389 441,-374.392 439.102,-358.226 437.049,-345.015"/>
<polygon fill="sienna" stroke="sienna" points="440.499,-344.428 435.403,-335.139 433.595,-345.579 440.499,-344.428"/>
</g>
<!-- hash&#45;&gt;lookup -->
<g id="edge36" class="edge"><title>hash:lookup&#45;&gt;lookup:top:n</title>
<path fill="none" stroke="green" stroke-width="2" d="M379,-983C335.635,-983 202.316,-962.122 183.273,-921.781"/>
<polygon fill="green" stroke="green" stroke-width="2" points="186.673,-920.948 181,-912 179.855,-922.533 186.673,-920.948"/>
</g>
<!-- hash&#45;&gt;pass -->
<g id="edge38" class="edge"><title>hash:lookup&#45;&gt;pass</title>
<path fill="none" stroke="red" stroke-width="2" d="M379,-983C366.924,-983 403,-889.076 403,-877 403,-877 403,-877 403,-615 403,-578.411 378.624,-545.572 353.705,-521.561"/>
<polygon fill="red" stroke="red" stroke-width="2" points="356.042,-518.955 346.333,-514.714 351.278,-524.084 356.042,-518.955"/>
</g>
<!-- hash&#45;&gt;pipe -->
<g id="edge39" class="edge"><title>hash:lookup&#45;&gt;pipe:top:n</title>
<path fill="none" stroke="orange" stroke-width="2" d="M503,-983C525.769,-983 533.864,-965.896 535.613,-944.231"/>
<polygon fill="orange" stroke="orange" stroke-width="2" points="539.12,-944.125 536,-934 532.125,-943.861 539.12,-944.125"/>
</g>
<!-- purge -->
<g id="node25" class="node"><title>purge</title>
<polygon fill="none" stroke="black" points="621,-841.5 621,-910.5 749,-910.5 749,-841.5 621,-841.5"/>
<text text-anchor="middle" x="685" y="-895.3" font-family="Times,serif" font-size="14.00">cnt_purge:</text>
<polyline fill="none" stroke="black" points="621,-887.5 749,-887.5 "/>
<text text-anchor="middle" x="663" y="-872.3" font-family="Times,serif" font-size="14.00">vcl_purge{}</text>
<polyline fill="none" stroke="black" points="705,-864.5 705,-887.5 "/>
<text text-anchor="middle" x="727" y="-872.3" font-family="Times,serif" font-size="14.00">req.*</text>
<polyline fill="none" stroke="black" points="621,-864.5 749,-864.5 "/>
<text text-anchor="middle" x="652" y="-849.3" font-family="Times,serif" font-size="14.00">synth</text>
<polyline fill="none" stroke="black" points="683,-841.5 683,-864.5 "/>
<text text-anchor="middle" x="716" y="-849.3" font-family="Times,serif" font-size="14.00">restart</text>
</g>
<!-- hash&#45;&gt;purge -->
<g id="edge37" class="edge"><title>hash:lookup&#45;&gt;purge:top:n</title>
<path fill="none" stroke="purple" stroke-width="2" d="M503,-983C543.021,-983 663.927,-959.555 682.574,-921.88"/>
<polygon fill="purple" stroke="purple" stroke-width="2" points="686.014,-922.546 685,-912 679.216,-920.877 686.014,-922.546"/>
</g>
</g>
</svg>
