<?xml version="1.0" encoding="UTF-8" standalone="no"?>
<!DOCTYPE svg PUBLIC "-//W3C//DTD SVG 1.1//EN"
 "http://www.w3.org/Graphics/SVG/1.1/DTD/svg11.dtd">
<!-- Generated by graphviz version 2.36.0 (20140111.2315)
 -->
<!-- Title: cache_fetch Pages: 1 -->
<svg width="836pt" height="728pt"
 viewBox="36.00 36.00 800.00 692.00" xmlns="http://www.w3.org/2000/svg" xmlns:xlink="http://www.w3.org/1999/xlink">
<g id="graph0" class="graph" transform="scale(1 1) rotate(0) translate(40 688)">
<title>cache_fetch</title>
<polygon fill="white" stroke="none" points="-4,4 -4,-652 760,-652 760,4 -4,4"/>
<g id="clust1" class="cluster"><title>cluster_backend</title>
<polygon fill="aliceblue" stroke="aliceblue" points="8,-8 8,-640 748,-640 748,-8 8,-8"/>
</g>
<!-- RETRY -->
<g id="node1" class="node"><title>RETRY</title>
<text text-anchor="middle" x="411" y="-618.3" font-family="Times,serif" font-size="14.00">RETRY</text>
</g>
<!-- v_b_f -->
<g id="node4" class="node"><title>v_b_f</title>
<polygon fill="none" stroke="black" points="185.5,-496.5 185.5,-565.5 374.5,-565.5 374.5,-496.5 185.5,-496.5"/>
<text text-anchor="middle" x="280" y="-550.3" font-family="Times,serif" font-size="14.00">vbf_stp_startfetch:</text>
<polyline fill="none" stroke="black" points="185.5,-542.5 374.5,-542.5 "/>
<text text-anchor="middle" x="251.5" y="-527.3" font-family="Times,serif" font-size="14.00">vcl_backend_fetch{}</text>
<polyline fill="none" stroke="black" points="317.5,-519.5 317.5,-542.5 "/>
<text text-anchor="middle" x="346" y="-527.3" font-family="Times,serif" font-size="14.00">bereq.*</text>
<polyline fill="none" stroke="black" points="185.5,-519.5 374.5,-519.5 "/>
<text text-anchor="middle" x="237" y="-504.3" font-family="Times,serif" font-size="14.00">abandon</text>
<polyline fill="none" stroke="black" points="288.5,-496.5 288.5,-519.5 "/>
<text text-anchor="middle" x="331.5" y="-504.3" font-family="Times,serif" font-size="14.00">fetch</text>
</g>
<!-- RETRY&#45;&gt;v_b_f -->
<g id="edge4" class="edge"><title>RETRY&#45;&gt;v_b_f</title>
<path fill="none" stroke="purple" d="M385.742,-603.84C372.129,-594.592 354.731,-582.772 337.995,-571.401"/>
<polygon fill="purple" stroke="purple" points="339.566,-568.237 329.327,-565.512 335.632,-574.027 339.566,-568.237"/>
</g>
<!-- v_b_f_BGFETCH -->
<g id="node2" class="node"><title>v_b_f_BGFETCH</title>
<polygon fill="turquoise" stroke="turquoise" points="362,-640 284,-640 284,-604 362,-604 362,-640"/>
<text text-anchor="middle" x="323" y="-618.3" font-family="Times,serif" font-size="14.00">BGFETCH</text>
</g>
<!-- v_b_f_BGFETCH&#45;&gt;v_b_f -->
<g id="edge1" class="edge"><title>v_b_f_BGFETCH&#45;&gt;v_b_f</title>
<path fill="none" stroke="green" stroke-width="2" d="M314.709,-603.84C310.711,-595.564 305.717,-585.228 300.774,-574.998"/>
<polygon fill="green" stroke="green" stroke-width="2" points="303.781,-573.176 296.279,-565.695 297.478,-576.221 303.781,-573.176"/>
</g>
<!-- v_b_f_FETCH -->
<g id="node3" class="node"><title>v_b_f_FETCH</title>
<polygon fill="turquoise" stroke="turquoise" points="265.25,-640 206.75,-640 206.75,-604 265.25,-604 265.25,-640"/>
<text text-anchor="middle" x="236" y="-618.3" font-family="Times,serif" font-size="14.00">FETCH</text>
</g>
<!-- v_b_f_FETCH&#45;&gt;v_b_f -->
<g id="edge2" class="edge"><title>v_b_f_FETCH&#45;&gt;v_b_f</title>
<path fill="none" stroke="blue" stroke-width="2" d="M239.026,-603.84C242.244,-595.479 246.988,-585.017 252.153,-574.685"/>
<polygon fill="blue" stroke="blue" stroke-width="2" points="255.315,-576.189 256.772,-565.695 249.088,-572.989 255.315,-576.189"/>
</g>
<!-- v_b_f_FETCH&#45;&gt;v_b_f -->
<g id="edge3" class="edge"><title>v_b_f_FETCH&#45;&gt;v_b_f</title>
<path fill="none" stroke="red" stroke-width="2" d="M249.942,-603.84C254.939,-595.564 260.478,-585.228 265.489,-574.998"/>
<polygon fill="red" stroke="red" stroke-width="2" points="268.779,-576.229 269.912,-565.695 262.457,-573.223 268.779,-576.229"/>
</g>
<!-- v_b_hdrs -->
<g id="node5" class="node"><title>v_b_hdrs</title>
<ellipse fill="none" stroke="black" cx="332" cy="-431" rx="94.0678" ry="26.7407"/>
<text text-anchor="middle" x="332" y="-434.8" font-family="Times,serif" font-size="14.00">send bereq,</text>
<text text-anchor="middle" x="332" y="-419.8" font-family="Times,serif" font-size="14.00">read beresp (headers)</text>
</g>
<!-- v_b_f&#45;&gt;v_b_hdrs -->
<g id="edge5" class="edge"><title>v_b_f:fetch:s&#45;&gt;v_b_hdrs</title>
<path fill="none" stroke="black" stroke-width="2" d="M332,-496C332,-487.056 332,-477.408 332,-468.384"/>
<polygon fill="black" stroke="black" stroke-width="2" points="335.5,-468.156 332,-458.156 328.5,-468.156 335.5,-468.156"/>
</g>
<!-- v_b_r -->
<g id="node6" class="node"><title>v_b_r</title>
<polygon fill="none" stroke="black" points="337,-250.5 337,-365.5 575,-365.5 575,-250.5 337,-250.5"/>
<text text-anchor="middle" x="456" y="-350.3" font-family="Times,serif" font-size="14.00">vbf_stp_startfetch:</text>
<polyline fill="none" stroke="black" points="337,-342.5 575,-342.5 "/>
<text text-anchor="middle" x="419" y="-315.8" font-family="Times,serif" font-size="14.00">vcl_backend_response{}</text>
<polyline fill="none" stroke="black" points="501,-296.5 501,-342.5 "/>
<text text-anchor="middle" x="538" y="-327.3" font-family="Times,serif" font-size="14.00">bereq.*</text>
<polyline fill="none" stroke="black" points="501,-319.5 575,-319.5 "/>
<text text-anchor="middle" x="538" y="-304.3" font-family="Times,serif" font-size="14.00">beresp.*</text>
<polyline fill="none" stroke="black" points="337,-296.5 575,-296.5 "/>
<text text-anchor="middle" x="378.5" y="-281.3" font-family="Times,serif" font-size="14.00">retry</text>
<polyline fill="none" stroke="black" points="337,-273.5 420,-273.5 "/>
<text text-anchor="middle" x="360.5" y="-258.3" font-family="Times,serif" font-size="14.00">max?</text>
<polyline fill="none" stroke="black" points="384,-250.5 384,-273.5 "/>
<text text-anchor="middle" x="402" y="-258.3" font-family="Times,serif" font-size="14.00">ok?</text>
<polyline fill="none" stroke="black" points="420,-250.5 420,-296.5 "/>
<text text-anchor="middle" x="451" y="-269.8" font-family="Times,serif" font-size="14.00">abandon</text>
<polyline fill="none" stroke="black" points="482,-250.5 482,-296.5 "/>
<text text-anchor="middle" x="528.5" y="-281.3" font-family="Times,serif" font-size="14.00">deliver</text>
<polyline fill="none" stroke="black" points="482,-273.5 575,-273.5 "/>
<text text-anchor="middle" x="503.5" y="-258.3" font-family="Times,serif" font-size="14.00">304?</text>
<polyline fill="none" stroke="black" points="525,-250.5 525,-273.5 "/>
<text text-anchor="middle" x="550" y="-258.3" font-family="Times,serif" font-size="14.00">other?</text>
</g>
<!-- v_b_hdrs&#45;&gt;v_b_r -->
<g id="edge6" class="edge"><title>v_b_hdrs&#45;&gt;v_b_r</title>
<path fill="none" stroke="black" stroke-width="2" d="M357.693,-404.929C367.386,-395.47 378.907,-384.228 390.59,-372.827"/>
<polygon fill="black" stroke="black" stroke-width="2" points="393.158,-375.212 397.87,-365.723 388.269,-370.202 393.158,-375.212"/>
</g>
<!-- v_b_e -->
<g id="node7" class="node"><title>v_b_e</title>
<polygon fill="none" stroke="black" points="160.5,-96.5 160.5,-211.5 353.5,-211.5 353.5,-96.5 160.5,-96.5"/>
<text text-anchor="middle" x="257" y="-196.3" font-family="Times,serif" font-size="14.00">vbf_stp_error:</text>
<polyline fill="none" stroke="black" points="160.5,-188.5 353.5,-188.5 "/>
<text text-anchor="middle" x="226" y="-161.8" font-family="Times,serif" font-size="14.00">vcl_backend_error{}</text>
<polyline fill="none" stroke="black" points="291.5,-142.5 291.5,-188.5 "/>
<text text-anchor="middle" x="322.5" y="-173.3" font-family="Times,serif" font-size="14.00">bereq.*</text>
<polyline fill="none" stroke="black" points="291.5,-165.5 353.5,-165.5 "/>
<text text-anchor="middle" x="322.5" y="-150.3" font-family="Times,serif" font-size="14.00">beresp.*</text>
<polyline fill="none" stroke="black" points="160.5,-142.5 353.5,-142.5 "/>
<text text-anchor="middle" x="216" y="-127.3" font-family="Times,serif" font-size="14.00">retry</text>
<polyline fill="none" stroke="black" points="160.5,-119.5 271.5,-119.5 "/>
<text text-anchor="middle" x="191" y="-104.3" font-family="Times,serif" font-size="14.00">max?</text>
<polyline fill="none" stroke="black" points="221.5,-96.5 221.5,-119.5 "/>
<text text-anchor="middle" x="246.5" y="-104.3" font-family="Times,serif" font-size="14.00">ok?</text>
<polyline fill="none" stroke="black" points="271.5,-96.5 271.5,-142.5 "/>
<text text-anchor="middle" x="312.5" y="-115.8" font-family="Times,serif" font-size="14.00">deliver</text>
</g>
<!-- v_b_hdrs&#45;&gt;v_b_e -->
<g id="edge7" class="edge"><title>v_b_hdrs&#45;&gt;v_b_e</title>
<path fill="none" stroke="black" d="M324.944,-404.129C313.655,-362.735 291.176,-280.313 275.167,-221.614"/>
<polygon fill="black" stroke="black" points="278.465,-220.404 272.457,-211.677 271.712,-222.246 278.465,-220.404"/>
</g>
<!-- v_b_r&#45;&gt;v_b_e -->
<g id="edge9" class="edge"><title>v_b_r:max&#45;&gt;v_b_e</title>
<path fill="none" stroke="black" d="M336,-262C310.926,-262 292.91,-242.749 280.476,-220.578"/>
<polygon fill="black" stroke="black" points="283.54,-218.885 275.815,-211.633 277.332,-222.119 283.54,-218.885"/>
</g>
<!-- v_b_r_retry -->
<g id="node8" class="node"><title>v_b_r_retry</title>
<text text-anchor="middle" x="402" y="-150.3" font-family="Times,serif" font-size="14.00">RETRY</text>
</g>
<!-- v_b_r&#45;&gt;v_b_r_retry -->
<g id="edge8" class="edge"><title>v_b_r:retry&#45;&gt;v_b_r_retry</title>
<path fill="none" stroke="purple" d="M402,-250C402,-227.145 402,-201.197 402,-182.201"/>
<polygon fill="purple" stroke="purple" points="405.5,-182.162 402,-172.162 398.5,-182.162 405.5,-182.162"/>
</g>
<!-- vbf_stp_condfetch -->
<g id="node9" class="node"><title>vbf_stp_condfetch</title>
<polygon fill="none" stroke="grey" points="450.5,-108 450.5,-200 571.5,-200 571.5,-108 450.5,-108"/>
<text text-anchor="middle" x="511" y="-184.8" font-family="Times,serif" font-size="14.00" fill="grey">vbf_stp_condfetch:</text>
<polyline fill="none" stroke="grey" points="450.5,-177 571.5,-177 "/>
<text text-anchor="middle" x="511" y="-161.8" font-family="Times,serif" font-size="14.00" fill="grey">copy obj attr</text>
<polyline fill="none" stroke="grey" points="450.5,-154 571.5,-154 "/>
<text text-anchor="middle" x="511" y="-138.8" font-family="Times,serif" font-size="14.00" fill="grey">steal body</text>
<polyline fill="none" stroke="grey" points="450.5,-131 571.5,-131 "/>
<text text-anchor="middle" x="490" y="-115.8" font-family="Times,serif" font-size="14.00" fill="grey">fetch_fail?</text>
<polyline fill="none" stroke="grey" points="529.5,-108 529.5,-131 "/>
<text text-anchor="middle" x="550.5" y="-115.8" font-family="Times,serif" font-size="14.00" fill="grey">ok?</text>
</g>
<!-- v_b_r&#45;&gt;vbf_stp_condfetch -->
<g id="edge10" class="edge"><title>v_b_r:fetch_304:s&#45;&gt;vbf_stp_condfetch</title>
<path fill="none" stroke="black" d="M504,-250C504,-237.212 504.639,-223.481 505.53,-210.544"/>
<polygon fill="black" stroke="black" points="509.035,-210.606 506.292,-200.373 502.055,-210.083 509.035,-210.606"/>
</g>
<!-- vbf_stp_fetch -->
<g id="node10" class="node"><title>vbf_stp_fetch</title>
<polygon fill="none" stroke="grey" points="589.5,-108 589.5,-200 748.5,-200 748.5,-108 589.5,-108"/>
<text text-anchor="middle" x="669" y="-184.8" font-family="Times,serif" font-size="14.00" fill="grey">vbf_stp_fetch:</text>
<polyline fill="none" stroke="grey" points="589.5,-177 748.5,-177 "/>
<text text-anchor="middle" x="669" y="-161.8" font-family="Times,serif" font-size="14.00" fill="grey">setup VFPs</text>
<polyline fill="none" stroke="grey" points="589.5,-154 748.5,-154 "/>
<text text-anchor="middle" x="669" y="-138.8" font-family="Times,serif" font-size="14.00" fill="grey">fetch</text>
<polyline fill="none" stroke="grey" points="589.5,-131 748.5,-131 "/>
<text text-anchor="middle" x="626.5" y="-115.8" font-family="Times,serif" font-size="14.00" fill="grey">fetch_fail?</text>
<polyline fill="none" stroke="grey" points="663.5,-108 663.5,-131 "/>
<text text-anchor="middle" x="688" y="-115.8" font-family="Times,serif" font-size="14.00" fill="grey">error?</text>
<polyline fill="none" stroke="grey" points="712.5,-108 712.5,-131 "/>
<text text-anchor="middle" x="730.5" y="-115.8" font-family="Times,serif" font-size="14.00" fill="grey">ok?</text>
</g>
<!-- v_b_r&#45;&gt;vbf_stp_fetch -->
<g id="edge11" class="edge"><title>v_b_r:non_304:s&#45;&gt;vbf_stp_fetch</title>
<path fill="none" stroke="black" d="M550,-250C550,-242.844 571.29,-224.745 595.86,-206.241"/>
<polygon fill="black" stroke="black" points="597.999,-209.012 603.929,-200.233 593.818,-203.398 597.999,-209.012"/>
</g>
<!-- FETCH_DONE -->
<g id="node11" class="node"><title>FETCH_DONE</title>
<polygon fill="turquoise" stroke="turquoise" points="603,-44 499,-44 499,-8 603,-8 603,-44"/>
<text text-anchor="middle" x="551" y="-22.3" font-family="Times,serif" font-size="14.00">FETCH_DONE</text>
</g>
<!-- v_b_e&#45;&gt;FETCH_DONE -->
<g id="edge15" class="edge"><title>v_b_e:deliver&#45;&gt;FETCH_DONE</title>
<path fill="none" stroke="black" d="M355,-119C365.823,-119 355.412,-103.718 363,-96 396.551,-61.8725 448.376,-44.4964 489.123,-35.7242"/>
<polygon fill="black" stroke="black" points="489.857,-39.1467 498.959,-33.7252 488.462,-32.2869 489.857,-39.1467"/>
<text text-anchor="middle" x="451.5" y="-66.3" font-family="Times,serif" font-size="14.00">&quot;backend synth&quot;</text>
</g>
<!-- FETCH_FAIL -->
<g id="node13" class="node"><title>FETCH_FAIL</title>
<polygon fill="turquoise" stroke="turquoise" points="159,-44 63,-44 63,-8 159,-8 159,-44"/>
<text text-anchor="middle" x="111" y="-22.3" font-family="Times,serif" font-size="14.00">FETCH_FAIL</text>
</g>
<!-- v_b_e&#45;&gt;FETCH_FAIL -->
<g id="edge17" class="edge"><title>v_b_e:max:s&#45;&gt;FETCH_FAIL</title>
<path fill="none" stroke="black" d="M191,-96C191,-76.1642 176.723,-60.7736 160.231,-49.6124"/>
<polygon fill="black" stroke="black" points="161.808,-46.4718 151.469,-44.1602 158.11,-52.4151 161.808,-46.4718"/>
</g>
<!-- v_b_e_retry -->
<g id="node14" class="node"><title>v_b_e_retry</title>
<text text-anchor="middle" x="246" y="-22.3" font-family="Times,serif" font-size="14.00">RETRY</text>
</g>
<!-- v_b_e&#45;&gt;v_b_e_retry -->
<g id="edge16" class="edge"><title>v_b_e:retry&#45;&gt;v_b_e_retry</title>
<path fill="none" stroke="purple" d="M246,-96C246,-82.2876 246,-67.0423 246,-54.3767"/>
<polygon fill="purple" stroke="purple" points="249.5,-54.0136 246,-44.0136 242.5,-54.0137 249.5,-54.0136"/>
</g>
<!-- vbf_stp_condfetch&#45;&gt;FETCH_DONE -->
<g id="edge13" class="edge"><title>vbf_stp_condfetch:ok:s&#45;&gt;FETCH_DONE</title>
<path fill="none" stroke="black" d="M551,-107C551,-89.5651 551,-69.9929 551,-54.5716"/>
<polygon fill="black" stroke="black" points="554.5,-54.1661 551,-44.1661 547.5,-54.1662 554.5,-54.1661"/>
</g>
<!-- vbf_stp_fetch&#45;&gt;FETCH_DONE -->
<g id="edge12" class="edge"><title>vbf_stp_fetch:ok:s&#45;&gt;FETCH_DONE</title>
<path fill="none" stroke="black" d="M731,-107C731,-54.1009 665.279,-35.9209 613.261,-29.8164"/>
<polygon fill="black" stroke="black" points="613.373,-26.3091 603.063,-28.7498 612.645,-33.2711 613.373,-26.3091"/>
</g>
<!-- error -->
<g id="node12" class="node"><title>error</title>
<text text-anchor="middle" x="35" y="-150.3" font-family="Times,serif" font-size="14.00">error</text>
</g>
<!-- error&#45;&gt;FETCH_FAIL -->
<g id="edge14" class="edge"><title>error&#45;&gt;FETCH_FAIL</title>
<path fill="none" stroke="black" d="M45.4081,-135.744C58.3133,-114.349 80.4302,-77.6816 95.3751,-52.9044"/>
<polygon fill="black" stroke="black" points="98.5496,-54.4178 100.718,-44.0472 92.5556,-50.8024 98.5496,-54.4178"/>
</g>
<!-- abandon -->
<g id="node15" class="node"><title>abandon</title>
<text text-anchor="middle" x="111" y="-150.3" font-family="Times,serif" font-size="14.00">abandon</text>
</g>
<!-- abandon&#45;&gt;FETCH_FAIL -->
<g id="edge18" class="edge"><title>abandon&#45;&gt;FETCH_FAIL</title>
<path fill="none" stroke="black" d="M111,-135.744C111,-114.726 111,-78.9691 111,-54.2252"/>
<polygon fill="black" stroke="black" points="114.5,-54.0471 111,-44.0472 107.5,-54.0472 114.5,-54.0471"/>
</g>
</g>
</svg>
