<?xml version="1.0" encoding="UTF-8" standalone="no"?>
<!-- Created with Inkscape (http://www.inkscape.org/) -->

<svg
   xmlns:dc="http://purl.org/dc/elements/1.1/"
   xmlns:cc="http://creativecommons.org/ns#"
   xmlns:rdf="http://www.w3.org/1999/02/22-rdf-syntax-ns#"
   xmlns:svg="http://www.w3.org/2000/svg"
   xmlns="http://www.w3.org/2000/svg"
   xmlns:sodipodi="http://sodipodi.sourceforge.net/DTD/sodipodi-0.dtd"
   xmlns:inkscape="http://www.inkscape.org/namespaces/inkscape"
   id="svg2"
   version="1.1"
   inkscape:version="0.47 r22583"
   width="744.095"
   height="1052.3625"
   xml:space="preserve"
   sodipodi:docname="Frontpage2.svg"><metadata
     id="metadata8"><rdf:RDF><cc:Work
         rdf:about=""><dc:format>image/svg+xml</dc:format><dc:type
           rdf:resource="http://purl.org/dc/dcmitype/StillImage" /><dc:title /></cc:Work></rdf:RDF></metadata><defs
     id="defs6"><inkscape:perspective
       sodipodi:type="inkscape:persp3d"
       inkscape:vp_x="0 : 0.5 : 1"
       inkscape:vp_y="0 : 1000 : 0"
       inkscape:vp_z="1 : 0.5 : 1"
       inkscape:persp3d-origin="0.5 : 0.33333333 : 1"
       id="perspective10" /><clipPath
       clipPathUnits="userSpaceOnUse"
       id="clipPath28"><path
         d="m 144.212,342.284 306.85,0 0,157.323 -306.85,0 0,-157.323 z"
         id="path30" /></clipPath><clipPath
       clipPathUnits="userSpaceOnUse"
       id="clipPath58"><path
         d="m 144.212,420.552 306.85,0 0,79.054 -306.85,0 0,-79.054 z"
         id="path60" /></clipPath><clipPath
       clipPathUnits="userSpaceOnUse"
       id="clipPath70"><path
         d="m 195.79,497.787 c -6.6,-2.384 -10.803,-8.455 -11.124,-15.052 l 0,0 0,-1.629 c 0.079,-1.64 0.402,-3.295 0.989,-4.92 l 0,0 c 3.166,-8.766 12.835,-13.303 21.599,-10.135 l 0,0 c 8.765,3.167 13.304,12.836 10.136,21.601 l 0,0 c -2.48,6.87 -8.96,11.144 -15.867,11.144 l 0,0 c -1.904,0 -3.84,-0.325 -5.733,-1.009"
         id="path72" /></clipPath><radialGradient
       fx="0"
       fy="0"
       cx="0"
       cy="0"
       r="1"
       gradientUnits="userSpaceOnUse"
       gradientTransform="matrix(-17.117035,-6.1843414,6.1843414,-17.117035,200.8943,481.69305)"
       spreadMethod="pad"
       id="radialGradient78"><stop
         style="stop-opacity:1;stop-color:#4c9ed8"
         offset="0"
         id="stop80" /><stop
         style="stop-opacity:1;stop-color:#6fb9e4"
         offset="0.390106"
         id="stop82" /><stop
         style="stop-opacity:1;stop-color:#b0e1f6"
         offset="0.68132"
         id="stop84" /><stop
         style="stop-opacity:1;stop-color:#c9e9f7"
         offset="1"
         id="stop86" /></radialGradient><clipPath
       clipPathUnits="userSpaceOnUse"
       id="clipPath94"><path
         d="m 204.051,481.791 c -7.036,-4.19 -14.925,-8.378 -18.865,-3.085 l 0,0 c 1.865,-8.981 10.651,-14.75 19.627,-12.888 l 0,0 c 8.981,1.862 14.75,10.648 12.892,19.626 l 0,0 c -0.282,1.359 -1.047,1.914 -2.169,1.914 l 0,0 c -2.511,10e-4 -6.809,-2.784 -11.485,-5.567"
         id="path96" /></clipPath><radialGradient
       fx="0"
       fy="0"
       cx="0"
       cy="0"
       r="1"
       gradientUnits="userSpaceOnUse"
       gradientTransform="matrix(17.670395,3.6636658,-3.6636658,17.670395,201.34436,477.4852)"
       spreadMethod="pad"
       id="radialGradient102"><stop
         style="stop-opacity:1;stop-color:#4c9ed8"
         offset="0"
         id="stop104" /><stop
         style="stop-opacity:1;stop-color:#b0e1f6"
         offset="0.779144"
         id="stop106" /><stop
         style="stop-opacity:1;stop-color:#c4e7f7"
         offset="1"
         id="stop108" /></radialGradient><clipPath
       clipPathUnits="userSpaceOnUse"
       id="clipPath116"><path
         d="m 195.915,497.444 c -8.628,-3.116 -13.09,-12.633 -9.976,-21.258 l 0,0 c 3.118,-8.622 34.35,2.658 31.23,11.284 l 0,0 c -2.442,6.761 -8.817,10.965 -15.613,10.965 l 0,0 c -1.873,0 -3.777,-0.318 -5.641,-0.991"
         id="path118" /></clipPath><radialGradient
       fx="0"
       fy="0"
       cx="0"
       cy="0"
       r="1"
       gradientUnits="userSpaceOnUse"
       gradientTransform="matrix(-17.54837,-6.3401642,6.3401642,-17.54837,201.9769,483.69568)"
       spreadMethod="pad"
       id="radialGradient124"><stop
         style="stop-opacity:1;stop-color:#4c9ed8"
         offset="0"
         id="stop126" /><stop
         style="stop-opacity:1;stop-color:#6fb9e4"
         offset="0.453995"
         id="stop128" /><stop
         style="stop-opacity:1;stop-color:#b0e1f6"
         offset="0.77301"
         id="stop130" /><stop
         style="stop-opacity:1;stop-color:#c9e9f7"
         offset="1"
         id="stop132" /></radialGradient><clipPath
       clipPathUnits="userSpaceOnUse"
       id="clipPath140"><path
         d="m 196.319,496.876 c -8.708,-3.005 -12.794,-12.626 -10.108,-20.429 l 0,0 c 2.915,-8.485 33.501,3.514 30.747,11.29 l 0,0 c -2.155,6.072 -7.999,10.144 -14.779,10.144 l 0,0 c -1.9,0 -3.873,-0.32 -5.86,-1.005"
         id="path142" /></clipPath><radialGradient
       fx="0"
       fy="0"
       cx="0"
       cy="0"
       r="1"
       gradientUnits="userSpaceOnUse"
       gradientTransform="matrix(-22.133377,-8.1428528,7.9026031,-22.275589,203.75652,475.53154)"
       spreadMethod="pad"
       id="radialGradient148"><stop
         style="stop-opacity:1;stop-color:#6fb9e4"
         offset="0"
         id="stop150" /><stop
         style="stop-opacity:1;stop-color:#b0e1f6"
         offset="1"
         id="stop152" /></radialGradient><clipPath
       clipPathUnits="userSpaceOnUse"
       id="clipPath160"><path
         d="m 195.91,496.023 c -5.957,-1.989 -9.843,-9.328 -7.967,-14.608 l 0,0 c 2.037,-5.74 26.887,4.298 24.964,9.562 l 0,0 c -1.409,3.849 -6.527,5.877 -11.605,5.877 l 0,0 c -1.865,0.001 -3.723,-0.273 -5.392,-0.831"
         id="path162" /></clipPath><radialGradient
       fx="0"
       fy="0"
       cx="0"
       cy="0"
       r="1"
       gradientUnits="userSpaceOnUse"
       gradientTransform="matrix(-18.124542,-6.470459,6.5981903,-18.048294,201.93378,481.72617)"
       spreadMethod="pad"
       id="radialGradient168"><stop
         style="stop-opacity:1;stop-color:#6fb9e4"
         offset="0"
         id="stop170" /><stop
         style="stop-opacity:1;stop-color:#c9e9f7"
         offset="1"
         id="stop172" /></radialGradient><clipPath
       clipPathUnits="userSpaceOnUse"
       id="clipPath180"><path
         d="m 144.212,342.284 306.85,0 0,157.323 -306.85,0 0,-157.323 z"
         id="path182" /></clipPath><clipPath
       clipPathUnits="userSpaceOnUse"
       id="clipPath192"><path
         d="m 162.895,443.163 c -3.31,-5.858 -1.244,-13.292 4.612,-16.604 l 0,0 c 5.86,-3.31 13.292,-1.247 16.605,4.611 l 0,0 c 3.31,5.86 1.246,13.292 -4.615,16.604 l 0,0 c -1.893,1.07 -3.952,1.578 -5.981,1.578 l 0,0 c -4.251,0.001 -8.38,-2.226 -10.621,-6.189"
         id="path194" /></clipPath><radialGradient
       fx="0"
       fy="0"
       cx="0"
       cy="0"
       r="1"
       gradientUnits="userSpaceOnUse"
       gradientTransform="matrix(-11.443466,6.4670105,-6.4670105,-11.443466,173.08389,437.40195)"
       spreadMethod="pad"
       id="radialGradient200"><stop
         style="stop-opacity:1;stop-color:#4c9ed8"
         offset="0"
         id="stop202" /><stop
         style="stop-opacity:1;stop-color:#6fb9e4"
         offset="0.390106"
         id="stop204" /><stop
         style="stop-opacity:1;stop-color:#b0e1f6"
         offset="0.68132"
         id="stop206" /><stop
         style="stop-opacity:1;stop-color:#c9e9f7"
         offset="1"
         id="stop208" /></radialGradient><clipPath
       clipPathUnits="userSpaceOnUse"
       id="clipPath216"><path
         d="m 166.229,427.786 c 5.246,-4.044 12.777,-3.07 16.819,2.176 l 0,0 c 4.045,5.245 -21.041,5.519 -18.993,14.641 l 0,0 c -4.04,-5.245 -3.07,-12.775 2.174,-16.817"
         id="path218" /></clipPath><radialGradient
       fx="0"
       fy="0"
       cx="0"
       cy="0"
       r="1"
       gradientUnits="userSpaceOnUse"
       gradientTransform="matrix(10.320358,-7.9562836,7.9562836,10.320358,170.9894,435.18085)"
       spreadMethod="pad"
       id="radialGradient224"><stop
         style="stop-opacity:1;stop-color:#4c9ed8"
         offset="0"
         id="stop226" /><stop
         style="stop-opacity:1;stop-color:#b0e1f6"
         offset="0.779144"
         id="stop228" /><stop
         style="stop-opacity:1;stop-color:#c4e7f7"
         offset="1"
         id="stop230" /></radialGradient><clipPath
       clipPathUnits="userSpaceOnUse"
       id="clipPath238"><path
         d="m 163.03,443.007 c -3.259,-5.765 17.62,-17.566 20.878,-11.8 l 0,0 c 3.257,5.766 1.226,13.08 -4.541,16.339 l 0,0 c -1.864,1.053 -3.891,1.553 -5.89,1.553 l 0,0 c -4.183,0 -8.246,-2.19 -10.447,-6.092"
         id="path240" /></clipPath><radialGradient
       fx="0"
       fy="0"
       cx="0"
       cy="0"
       r="1"
       gradientUnits="userSpaceOnUse"
       gradientTransform="matrix(-11.732925,6.6305847,-6.6305847,-11.732925,174.6897,437.75426)"
       spreadMethod="pad"
       id="radialGradient246"><stop
         style="stop-opacity:1;stop-color:#4c9ed8"
         offset="0"
         id="stop248" /><stop
         style="stop-opacity:1;stop-color:#6fb9e4"
         offset="0.453995"
         id="stop250" /><stop
         style="stop-opacity:1;stop-color:#b0e1f6"
         offset="0.77301"
         id="stop252" /><stop
         style="stop-opacity:1;stop-color:#c9e9f7"
         offset="1"
         id="stop254" /></radialGradient><clipPath
       clipPathUnits="userSpaceOnUse"
       id="clipPath262"><path
         d="m 163.295,442.982 c -3.275,-5.59 17.693,-16.702 20.656,-11.533 l 0,0 c 2.964,5.17 1.283,12.106 -4.705,15.603 l 0,0 c -1.857,1.087 -3.866,1.583 -5.836,1.583 l 0,0 c -4.122,0 -8.074,-2.173 -10.115,-5.653"
         id="path264" /></clipPath><radialGradient
       fx="0"
       fy="0"
       cx="0"
       cy="0"
       r="1"
       gradientUnits="userSpaceOnUse"
       gradientTransform="matrix(-14.877823,8.2956085,-8.4859772,-14.813782,171.05257,432.93823)"
       spreadMethod="pad"
       id="radialGradient270"><stop
         style="stop-opacity:1;stop-color:#6fb9e4"
         offset="0"
         id="stop272" /><stop
         style="stop-opacity:1;stop-color:#b0e1f6"
         offset="1"
         id="stop274" /></radialGradient><clipPath
       clipPathUnits="userSpaceOnUse"
       id="clipPath282"><path
         d="m 166.84,444.369 c -2.188,-3.817 15.003,-12.707 16.982,-9.178 l 0,0 c 1.978,3.532 -1.175,9.262 -5.231,11.688 l 0,0 c -1.332,0.796 -2.892,1.164 -4.449,1.164 l 0,0 c -2.997,0 -5.982,-1.364 -7.302,-3.674"
         id="path284" /></clipPath><radialGradient
       fx="0"
       fy="0"
       cx="0"
       cy="0"
       r="1"
       gradientUnits="userSpaceOnUse"
       gradientTransform="matrix(-12.071411,6.8830109,-6.7825165,-12.105835,173.59137,436.85144)"
       spreadMethod="pad"
       id="radialGradient290"><stop
         style="stop-opacity:1;stop-color:#6fb9e4"
         offset="0"
         id="stop292" /><stop
         style="stop-opacity:1;stop-color:#c9e9f7"
         offset="1"
         id="stop294" /></radialGradient><clipPath
       clipPathUnits="userSpaceOnUse"
       id="clipPath302"><path
         d="m 144.212,420.552 306.85,0 0,79.054 -306.85,0 0,-79.054 z"
         id="path304" /></clipPath><clipPath
       clipPathUnits="userSpaceOnUse"
       id="clipPath314"><path
         d="m 144.693,468.172 c -0.77,-3.822 1.7,-7.541 5.516,-8.313 l 0,0 c 3.821,-0.769 7.54,1.7 8.312,5.519 l 0,0 c 0.774,3.819 -1.698,7.54 -5.516,8.31 l 0,0 c -0.471,0.095 -0.942,0.141 -1.405,0.141 l 0,0 c -3.29,0 -6.232,-2.31 -6.907,-5.657"
         id="path316" /></clipPath><radialGradient
       fx="0"
       fy="0"
       cx="0"
       cy="0"
       r="1"
       gradientUnits="userSpaceOnUse"
       gradientTransform="matrix(-7.458786,1.5059052,-1.5059052,-7.458786,151.33441,466.82907)"
       spreadMethod="pad"
       id="radialGradient322"><stop
         style="stop-opacity:1;stop-color:#4c9ed8"
         offset="0"
         id="stop324" /><stop
         style="stop-opacity:1;stop-color:#6fb9e4"
         offset="0.390106"
         id="stop326" /><stop
         style="stop-opacity:1;stop-color:#b0e1f6"
         offset="0.68132"
         id="stop328" /><stop
         style="stop-opacity:1;stop-color:#c9e9f7"
         offset="1"
         id="stop330" /></radialGradient><clipPath
       clipPathUnits="userSpaceOnUse"
       id="clipPath338"><path
         d="m 149.287,460.308 c 3.614,-1.286 7.582,0.604 8.867,4.215 l 0,0 c 1.285,3.611 -12.575,-0.738 -13.082,4.649 l 0,0 c -1.284,-3.612 0.599,-7.582 4.215,-8.864"
         id="path340" /></clipPath><radialGradient
       fx="0"
       fy="0"
       cx="0"
       cy="0"
       r="1"
       gradientUnits="userSpaceOnUse"
       gradientTransform="matrix(7.1080322,-2.5265198,2.5265198,7.1080322,150.58044,465.23108)"
       spreadMethod="pad"
       id="radialGradient346"><stop
         style="stop-opacity:1;stop-color:#4c9ed8"
         offset="0"
         id="stop348" /><stop
         style="stop-opacity:1;stop-color:#b0e1f6"
         offset="0.779144"
         id="stop350" /><stop
         style="stop-opacity:1;stop-color:#c4e7f7"
         offset="1"
         id="stop352" /></radialGradient><clipPath
       clipPathUnits="userSpaceOnUse"
       id="clipPath360"><path
         d="m 144.795,468.109 c -0.761,-3.759 12.849,-6.505 13.608,-2.749 l 0,0 c 0.757,3.759 -1.672,7.421 -5.43,8.18 l 0,0 c -0.464,0.094 -0.926,0.139 -1.382,0.139 l 0,0 c -3.236,0 -6.13,-2.275 -6.796,-5.57"
         id="path362" /></clipPath><radialGradient
       fx="0"
       fy="0"
       cx="0"
       cy="0"
       r="1"
       gradientUnits="userSpaceOnUse"
       gradientTransform="matrix(-7.647171,1.5439453,-1.5439453,-7.647171,152.15533,467.31058)"
       spreadMethod="pad"
       id="radialGradient368"><stop
         style="stop-opacity:1;stop-color:#4c9ed8"
         offset="0"
         id="stop370" /><stop
         style="stop-opacity:1;stop-color:#6fb9e4"
         offset="0.453995"
         id="stop372" /><stop
         style="stop-opacity:1;stop-color:#b0e1f6"
         offset="0.77301"
         id="stop374" /><stop
         style="stop-opacity:1;stop-color:#c9e9f7"
         offset="1"
         id="stop376" /></radialGradient><clipPath
       clipPathUnits="userSpaceOnUse"
       id="clipPath384"><path
         d="m 144.946,468.143 c -0.013,-0.057 -0.021,-0.113 -0.027,-0.169 l 0,0 0,-0.285 c 0.34,-3.397 12.793,-5.422 13.464,-2.186 l 0,0 c 0.703,3.377 -1.468,6.893 -5.387,7.746 l 0,0 c -0.479,0.103 -0.955,0.153 -1.422,0.153 l 0,0 c -3.203,0.001 -5.985,-2.317 -6.628,-5.259"
         id="path386" /></clipPath><radialGradient
       fx="0"
       fy="0"
       cx="0"
       cy="0"
       r="1"
       gradientUnits="userSpaceOnUse"
       gradientTransform="matrix(-9.6769714,1.8948364,-2.0118561,-9.6750183,151.01743,464.0085)"
       spreadMethod="pad"
       id="radialGradient392"><stop
         style="stop-opacity:1;stop-color:#6fb9e4"
         offset="0"
         id="stop394" /><stop
         style="stop-opacity:1;stop-color:#b0e1f6"
         offset="1"
         id="stop396" /></radialGradient><clipPath
       clipPathUnits="userSpaceOnUse"
       id="clipPath404"><path
         d="m 146.645,469.543 c -0.52,-2.494 10.544,-4.301 10.999,-2.002 l 0,0 c 0.452,2.296 -2.315,4.885 -4.982,5.492 l 0,0 c -0.332,0.075 -0.672,0.11 -1.011,0.11 l 0,0 c -2.281,0.001 -4.591,-1.605 -5.006,-3.6"
         id="path406" /></clipPath><radialGradient
       fx="0"
       fy="0"
       cx="0"
       cy="0"
       r="1"
       gradientUnits="userSpaceOnUse"
       gradientTransform="matrix(-7.8825378,1.6224365,-1.5602417,-7.8833313,151.71255,466.61765)"
       spreadMethod="pad"
       id="radialGradient412"><stop
         style="stop-opacity:1;stop-color:#6fb9e4"
         offset="0"
         id="stop414" /><stop
         style="stop-opacity:1;stop-color:#c9e9f7"
         offset="1"
         id="stop416" /></radialGradient></defs><sodipodi:namedview
     pagecolor="#ffffff"
     bordercolor="#666666"
     borderopacity="1"
     objecttolerance="10"
     gridtolerance="10"
     guidetolerance="10"
     inkscape:pageopacity="0"
     inkscape:pageshadow="2"
     inkscape:window-width="1097"
     inkscape:window-height="937"
     id="namedview4"
     showgrid="false"
     inkscape:zoom="0.70710678"
     inkscape:cx="516.59778"
     inkscape:cy="490.43679"
     inkscape:window-x="642"
     inkscape:window-y="24"
     inkscape:window-maximized="0"
     inkscape:current-layer="g12" /><g
     id="g12"
     inkscape:groupmode="layer"
     inkscape:label="Frontpage1"
     transform="matrix(1.25,0,0,-1.25,0,1052.3625)"><path
   d="m 0,0 595.275,0 0,841.89 L 0,841.89 0,0 z"
   style="fill:#3871c1;fill-opacity:1;fill-rule:nonzero;stroke:none"
   id="path14" />
<g
   id="g3034"><g
     transform="translate(247.4668,485.2986)"
     id="g16"><path
       id="path18"
       style="fill:#ffffff;fill-opacity:1;fill-rule:nonzero;stroke:none"
       d="M 0,0 8.354,-25.052 16.744,0 l 6.764,0 -11.754,-31.808 -7.471,0 L -7.467,0 0,0 z" /></g><g
     transform="translate(289.6619,465.551)"
     id="g20"><path
       id="path22"
       style="fill:#ffffff;fill-opacity:1;fill-rule:nonzero;stroke:none"
       d="M 0,0 -4.421,13.608 -9.148,0 0,0 z m -0.18,19.881 11.089,-31.942 -6.893,0 -2.298,6.892 -12.634,0 -2.386,-6.892 -6.538,0 11.532,31.942 8.128,0 z" /></g><g
     id="g24"><g
       clip-path="url(#clipPath28)"
       id="g26"><g
         transform="translate(313.5576,471.4725)"
         id="g32"><path
           id="path34"
           style="fill:#ffffff;fill-opacity:1;fill-rule:nonzero;stroke:none"
           d="m 0,0 5.522,0 c 0.799,0 2.388,0 3.489,0.883 0.493,0.353 1.775,1.457 1.775,3.71 0,2.164 -1.066,3.181 -1.685,3.578 C 8.044,8.923 6.761,8.923 4.594,8.923 L 0,8.923 0,0 z m -6.76,13.96 12.239,0 c 3.532,0.044 7.112,0.044 9.679,-2.164 1.988,-1.725 2.783,-4.067 2.783,-6.143 0,-5.964 -5.128,-7.377 -6.675,-7.818 4.814,-0.441 5.169,-3.183 5.749,-7.335 0.487,-3.755 0.749,-5.302 0.965,-6.186 0.356,-1.414 0.619,-1.767 0.975,-2.296 l -7.557,0 c -0.307,1.768 -1.277,9.852 -1.722,11.088 -0.62,1.812 -2.296,1.812 -3.446,1.812 l -6.009,0 0,-12.9 -6.981,0 0,31.942 z" /></g><g
         transform="translate(339.4489,485.4323)"
         id="g36"><path
           id="path38"
           style="fill:#ffffff;fill-opacity:1;fill-rule:nonzero;stroke:none"
           d="m 0,0 9.895,0 11.975,-25.139 0,25.139 6.361,0 0,-31.942 -9.41,0 -12.37,26.507 0,-26.507 -6.451,0 L 0,0 z" /></g><path
         id="path40"
         style="fill:#ffffff;fill-opacity:1;fill-rule:nonzero;stroke:none"
         d="m 375.939,485.521 6.847,0 0,-32.031 -6.847,0 0,32.031 z" /><g
         transform="translate(396.7505,463.6943)"
         id="g42"><path
           id="path44"
           style="fill:#ffffff;fill-opacity:1;fill-rule:nonzero;stroke:none"
           d="m 0,0 c 0,-1.502 -0.091,-6.051 5.787,-6.051 3.711,0 6.047,1.765 6.047,4.461 0,2.826 -1.987,3.313 -6.047,4.286 -7.602,1.9 -11.758,4.153 -11.758,9.675 0,5.257 3.763,9.898 12.64,9.898 3.313,0 7.244,-0.752 9.63,-3.758 1.812,-2.296 1.812,-4.859 1.812,-5.918 l -6.577,0 c -0.096,1.105 -0.448,4.858 -5.173,4.858 -3.183,0 -5.257,-1.722 -5.257,-4.329 0,-2.959 2.342,-3.489 6.937,-4.638 5.519,-1.325 10.956,-2.826 10.956,-9.06 0,-5.741 -4.772,-10.38 -13.612,-10.38 C -6.85,-10.956 -6.938,-3.092 -6.982,0 L 0,0 z" /></g><g
         transform="translate(423.2999,485.4323)"
         id="g46"><path
           id="path48"
           style="fill:#ffffff;fill-opacity:1;fill-rule:nonzero;stroke:none"
           d="m 0,0 6.847,0 0,-12.768 12.065,0 0,12.768 6.934,0 0,-31.942 -6.848,0 0,14.004 -12.151,0 0,-14.004 -6.847,0 L 0,0 z" /></g></g></g><text
     id="text50"
     transform="matrix(1,0,0,-0.75166555,330.4028,424.7462)"><tspan
       id="tspan52"
       sodipodi:role="line"
       y="0"
       x="0 13.6374589 31.0023411 43.4122055 55.8220699 77.2491739 92.1365472 107.0239205"
       style="fill:#ffffff;fill-opacity:1;fill-rule:nonzero;stroke:none;font-family:Univers LT Std;font-variant:normal;font-weight:300;font-stretch:normal;font-size:22.3199;writing-mode:lr;-inkscape-font-specification:UniversLTStd-Light">SOFTWARE</tspan></text>
<g
     id="g54"><g
       clip-path="url(#clipPath58)"
       id="g56"><g
         transform="translate(184.891,475.9103)"
         id="g62"><path
           id="path64"
           style="fill:#c9e9f7;fill-opacity:1;fill-rule:nonzero;stroke:none"
           d="M 0,0 C 3.318,-9.186 13.456,-13.94 22.639,-10.624 31.823,-7.305 36.581,2.833 33.262,12.016 29.944,21.202 19.807,25.957 10.62,22.64 1.44,19.321 -3.315,9.185 0,0" /></g></g></g><g
     id="g66"><g
       clip-path="url(#clipPath70)"
       id="g68"><g
         id="g74"><g
           id="g76"><path
             id="path88"
             style="fill:url(#radialGradient78);stroke:none"
             d="m 195.79,497.787 c -6.6,-2.384 -10.803,-8.455 -11.124,-15.052 l 0,0 0,-1.629 c 0.079,-1.64 0.402,-3.295 0.989,-4.92 l 0,0 c 3.166,-8.766 12.835,-13.303 21.599,-10.135 l 0,0 c 8.765,3.167 13.304,12.836 10.136,21.601 l 0,0 c -2.48,6.87 -8.96,11.144 -15.867,11.144 l 0,0 c -1.904,0 -3.84,-0.325 -5.733,-1.009" /></g></g></g></g><g
     id="g90"><g
       clip-path="url(#clipPath94)"
       id="g92"><g
         id="g98"><g
           id="g100"><path
             id="path110"
             style="fill:url(#radialGradient102);stroke:none"
             d="m 204.051,481.791 c -7.036,-4.19 -14.925,-8.378 -18.865,-3.085 l 0,0 c 1.865,-8.981 10.651,-14.75 19.627,-12.888 l 0,0 c 8.981,1.862 14.75,10.648 12.892,19.626 l 0,0 c -0.282,1.359 -1.047,1.914 -2.169,1.914 l 0,0 c -2.511,10e-4 -6.809,-2.784 -11.485,-5.567" /></g></g></g></g><g
     id="g112"><g
       clip-path="url(#clipPath116)"
       id="g114"><g
         id="g120"><g
           id="g122"><path
             id="path134"
             style="fill:url(#radialGradient124);stroke:none"
             d="m 195.915,497.444 c -8.628,-3.116 -13.09,-12.633 -9.976,-21.258 l 0,0 c 3.118,-8.622 34.35,2.658 31.23,11.284 l 0,0 c -2.442,6.761 -8.817,10.965 -15.613,10.965 l 0,0 c -1.873,0 -3.777,-0.318 -5.641,-0.991" /></g></g></g></g><g
     id="g136"><g
       clip-path="url(#clipPath140)"
       id="g138"><g
         id="g144"><g
           id="g146"><path
             id="path154"
             style="fill:url(#radialGradient148);stroke:none"
             d="m 196.319,496.876 c -8.708,-3.005 -12.794,-12.626 -10.108,-20.429 l 0,0 c 2.915,-8.485 33.501,3.514 30.747,11.29 l 0,0 c -2.155,6.072 -7.999,10.144 -14.779,10.144 l 0,0 c -1.9,0 -3.873,-0.32 -5.86,-1.005" /></g></g></g></g><g
     id="g156"><g
       clip-path="url(#clipPath160)"
       id="g158"><g
         id="g164"><g
           id="g166"><path
             id="path174"
             style="fill:url(#radialGradient168);stroke:none"
             d="m 195.91,496.023 c -5.957,-1.989 -9.843,-9.328 -7.967,-14.608 l 0,0 c 2.037,-5.74 26.887,4.298 24.964,9.562 l 0,0 c -1.409,3.849 -6.527,5.877 -11.605,5.877 l 0,0 c -1.865,0.001 -3.723,-0.273 -5.392,-0.831" /></g></g></g></g><g
     id="g176"><g
       clip-path="url(#clipPath180)"
       id="g178"><g
         transform="translate(162.3867,443.45)"
         id="g184"><path
           id="path186"
           style="fill:#c9e9f7;fill-opacity:1;fill-rule:nonzero;stroke:none"
           d="m 0,0 c -3.473,-6.141 -1.31,-13.929 4.833,-17.401 6.139,-3.473 13.929,-1.307 17.401,4.833 3.47,6.139 1.304,13.931 -4.836,17.401 C 11.259,8.304 3.469,6.141 0,0" /></g></g></g><g
     id="g188"><g
       clip-path="url(#clipPath192)"
       id="g190"><g
         id="g196"><g
           id="g198"><path
             id="path210"
             style="fill:url(#radialGradient200);stroke:none"
             d="m 162.895,443.163 c -3.31,-5.858 -1.244,-13.292 4.612,-16.604 l 0,0 c 5.86,-3.31 13.292,-1.247 16.605,4.611 l 0,0 c 3.31,5.86 1.246,13.292 -4.615,16.604 l 0,0 c -1.893,1.07 -3.952,1.578 -5.981,1.578 l 0,0 c -4.251,0.001 -8.38,-2.226 -10.621,-6.189" /></g></g></g></g><g
     id="g212"><g
       clip-path="url(#clipPath216)"
       id="g214"><g
         id="g220"><g
           id="g222"><path
             id="path232"
             style="fill:url(#radialGradient224);stroke:none"
             d="m 166.229,427.786 c 5.246,-4.044 12.777,-3.07 16.819,2.176 l 0,0 c 4.045,5.245 -21.041,5.519 -18.993,14.641 l 0,0 c -4.04,-5.245 -3.07,-12.775 2.174,-16.817" /></g></g></g></g><g
     id="g234"><g
       clip-path="url(#clipPath238)"
       id="g236"><g
         id="g242"><g
           id="g244"><path
             id="path256"
             style="fill:url(#radialGradient246);stroke:none"
             d="m 163.03,443.007 c -3.259,-5.765 17.62,-17.566 20.878,-11.8 l 0,0 c 3.257,5.766 1.226,13.08 -4.541,16.339 l 0,0 c -1.864,1.053 -3.891,1.553 -5.89,1.553 l 0,0 c -4.183,0 -8.246,-2.19 -10.447,-6.092" /></g></g></g></g><g
     id="g258"><g
       clip-path="url(#clipPath262)"
       id="g260"><g
         id="g266"><g
           id="g268"><path
             id="path276"
             style="fill:url(#radialGradient270);stroke:none"
             d="m 163.295,442.982 c -3.275,-5.59 17.693,-16.702 20.656,-11.533 l 0,0 c 2.964,5.17 1.283,12.106 -4.705,15.603 l 0,0 c -1.857,1.087 -3.866,1.583 -5.836,1.583 l 0,0 c -4.122,0 -8.074,-2.173 -10.115,-5.653" /></g></g></g></g><g
     id="g278"><g
       clip-path="url(#clipPath282)"
       id="g280"><g
         id="g286"><g
           id="g288"><path
             id="path296"
             style="fill:url(#radialGradient290);stroke:none"
             d="m 166.84,444.369 c -2.188,-3.817 15.003,-12.707 16.982,-9.178 l 0,0 c 1.978,3.532 -1.175,9.262 -5.231,11.688 l 0,0 c -1.332,0.796 -2.892,1.164 -4.449,1.164 l 0,0 c -2.997,0 -5.982,-1.364 -7.302,-3.674" /></g></g></g></g><g
     id="g298"><g
       clip-path="url(#clipPath302)"
       id="g300"><g
         transform="translate(144.3606,468.2371)"
         id="g306"><path
           id="path308"
           style="fill:#c9e9f7;fill-opacity:1;fill-rule:nonzero;stroke:none"
           d="m 0,0 c -0.809,-4.002 1.781,-7.901 5.786,-8.71 4,-0.809 7.899,1.783 8.708,5.784 C 15.299,1.076 12.711,4.978 8.71,5.783 4.707,6.594 0.809,4.002 0,0" /></g></g></g><g
     id="g310"><g
       clip-path="url(#clipPath314)"
       id="g312"><g
         id="g318"><g
           id="g320"><path
             id="path332"
             style="fill:url(#radialGradient322);stroke:none"
             d="m 144.693,468.172 c -0.77,-3.822 1.7,-7.541 5.516,-8.313 l 0,0 c 3.821,-0.769 7.54,1.7 8.312,5.519 l 0,0 c 0.774,3.819 -1.698,7.54 -5.516,8.31 l 0,0 c -0.471,0.095 -0.942,0.141 -1.405,0.141 l 0,0 c -3.29,0 -6.232,-2.31 -6.907,-5.657" /></g></g></g></g><g
     id="g334"><g
       clip-path="url(#clipPath338)"
       id="g336"><g
         id="g342"><g
           id="g344"><path
             id="path354"
             style="fill:url(#radialGradient346);stroke:none"
             d="m 149.287,460.308 c 3.614,-1.286 7.582,0.604 8.867,4.215 l 0,0 c 1.285,3.611 -12.575,-0.738 -13.082,4.649 l 0,0 c -1.284,-3.612 0.599,-7.582 4.215,-8.864" /></g></g></g></g><g
     id="g356"><g
       clip-path="url(#clipPath360)"
       id="g358"><g
         id="g364"><g
           id="g366"><path
             id="path378"
             style="fill:url(#radialGradient368);stroke:none"
             d="m 144.795,468.109 c -0.761,-3.759 12.849,-6.505 13.608,-2.749 l 0,0 c 0.757,3.759 -1.672,7.421 -5.43,8.18 l 0,0 c -0.464,0.094 -0.926,0.139 -1.382,0.139 l 0,0 c -3.236,0 -6.13,-2.275 -6.796,-5.57" /></g></g></g></g><g
     id="g380"><g
       clip-path="url(#clipPath384)"
       id="g382"><g
         id="g388"><g
           id="g390"><path
             id="path398"
             style="fill:url(#radialGradient392);stroke:none"
             d="m 144.946,468.143 c -0.013,-0.057 -0.021,-0.113 -0.027,-0.169 l 0,0 0,-0.285 c 0.34,-3.397 12.793,-5.422 13.464,-2.186 l 0,0 c 0.703,3.377 -1.468,6.893 -5.387,7.746 l 0,0 c -0.479,0.103 -0.955,0.153 -1.422,0.153 l 0,0 c -3.203,0.001 -5.985,-2.317 -6.628,-5.259" /></g></g></g></g><g
     id="g400"><g
       clip-path="url(#clipPath404)"
       id="g402"><g
         id="g408"><g
           id="g410"><path
             id="path418"
             style="fill:url(#radialGradient412);stroke:none"
             d="m 146.645,469.543 c -0.52,-2.494 10.544,-4.301 10.999,-2.002 l 0,0 c 0.452,2.296 -2.315,4.885 -4.982,5.492 l 0,0 c -0.332,0.075 -0.672,0.11 -1.011,0.11 l 0,0 c -2.281,0.001 -4.591,-1.605 -5.006,-3.6" /></g></g></g></g></g><g
   id="g3140"><text
     transform="scale(1,-1)"
     sodipodi:linespacing="125%"
     id="text3224"
     y="-325.25574"
     x="143.83585"
     style="font-size:25.6;font-style:normal;font-variant:normal;font-weight:normal;font-stretch:normal;text-align:start;line-height:125%;writing-mode:lr-tb;text-anchor:start;fill:#ffffff;fill-opacity:1;stroke:none;font-family:Univers LT Std;-inkscape-font-specification:Univers LT Std"
     xml:space="preserve"><tspan
       style="font-size:25.6"
       y="-325.25574"
       x="143.83585"
       id="tspan3226"
       sodipodi:role="line">Varnish System Administration</tspan><tspan
       id="tspan3258"
       style="font-size:25.6"
       y="-297.25574"
       x="143.83585"
       sodipodi:role="line" /><tspan
       id="tspan3232"
       y="-269.25574"
       x="143.83585"
       sodipodi:role="line" /></text>
</g>
<text
   xml:space="preserve"
   style="font-size:10px;font-style:normal;font-variant:normal;font-weight:normal;font-stretch:normal;text-align:start;line-height:125%;writing-mode:lr-tb;text-anchor:start;fill:#000000;fill-opacity:1;stroke:none;font-family:Univers LT Std;-inkscape-font-specification:Univers LT Std"
   x="543.54138"
   y="698.65021"
   id="text3228"
   sodipodi:linespacing="125%"
   transform="matrix(0.8,0,0,-0.8,0,841.89)"><tspan
     sodipodi:role="line"
     id="tspan3230"
     x="543.54138"
     y="698.65021" /></text>

<flowRoot
   xml:space="preserve"
   id="flowRoot3234"
   style="fill:black;stroke:none;stroke-opacity:1;stroke-width:1px;stroke-linejoin:miter;stroke-linecap:butt;fill-opacity:1;font-family:Univers LT Std;font-style:normal;font-weight:normal;font-size:10px;-inkscape-font-specification:Univers LT Std;font-stretch:normal;font-variant:normal;text-anchor:start;text-align:start;writing-mode:lr;line-height:125%"><flowRegion
     id="flowRegion3236"><rect
       id="rect3238"
       width="64"
       height="15"
       x="303"
       y="672.36255" /></flowRegion><flowPara
     id="flowPara3240" /></flowRoot><flowRoot
   xml:space="preserve"
   id="flowRoot3242"
   style="fill:black;stroke:none;stroke-opacity:1;stroke-width:1px;stroke-linejoin:miter;stroke-linecap:butt;fill-opacity:1;font-family:Univers LT Std;font-style:normal;font-weight:normal;font-size:10px;-inkscape-font-specification:Univers LT Std;font-stretch:normal;font-variant:normal;text-anchor:start;text-align:start;writing-mode:lr;line-height:125%"><flowRegion
     id="flowRegion3244"><rect
       id="rect3246"
       width="14"
       height="18"
       x="253"
       y="668.36255" /></flowRegion><flowPara
     id="flowPara3248" /></flowRoot>
</g></svg>