<?xml version="1.0" standalone="yes"?>

<svg version="1.1" viewBox="0.0 0.0 747.0 254.0" fill="none" stroke="none" stroke-linecap="square" stroke-miterlimit="10" xmlns="http://www.w3.org/2000/svg" xmlns:xlink="http://www.w3.org/1999/xlink"><clipPath id="p.0"><path d="m0 0l747.0 0l0 254.0l-747.0 0l0 -254.0z" clip-rule="nonzero"></path></clipPath><g clip-path="url(#p.0)"><path fill="#000000" fill-opacity="0.0" d="m0 0l747.0 0l0 254.0l-747.0 0z" fill-rule="nonzero"></path><path fill="#000000" fill-opacity="0.0" d="m43.112247 114.770454l702.42523 0" fill-rule="nonzero"></path><path stroke="#000000" stroke-width="1.0" stroke-linejoin="round" stroke-linecap="butt" d="m43.112247 114.770454l696.42523 0" fill-rule="evenodd"></path><path fill="#000000" stroke="#000000" stroke-width="1.0" stroke-linecap="butt" d="m739.5375 116.42219l4.538086 -1.6517334l-4.538086 -1.6517334z" fill-rule="evenodd"></path><path fill="#000000" fill-opacity="0.0" d="m43.112247 103.04374l0 23.433067" fill-rule="nonzero"></path><path stroke="#000000" stroke-width="1.0" stroke-linejoin="round" stroke-linecap="butt" d="m43.112247 103.04374l0 23.433067" fill-rule="nonzero"></path><path fill="#000000" fill-opacity="0.0" d="m89.868164 59.768845l233.16534 0l0 29.763779l-233.16534 0z" fill-rule="nonzero"></path><path fill="#000000" fill-opacity="0.0" d="m-4.1732284E-5 65.52346l108.50394 0l0 37.543312l-108.50394 0z" fill-rule="nonzero"></path><path fill="#000000" d="m11.812458 81.82346l2.890625 0q0.1875 0 0.265625 0.078125q0.09375 0.078125 0.09375 0.203125q0 0.109375 -0.09375 0.1875q-0.078125 0.078125 -0.265625 0.078125l-2.890625 0l0 3.546875q0 0.453125 0.359375 0.765625q0.375 0.3125 1.09375 0.3125q0.546875 0 1.171875 -0.15625q0.625 -0.15625 0.96875 -0.359375q0.125 -0.09375 0.21875 -0.09375q0.09375 0 0.171875 0.078125q0.078125 0.078125 0.078125 0.1875q0 0.09375 -0.078125 0.1875q-0.203125 0.203125 -1.0 0.453125q-0.78125 0.234375 -1.5 0.234375q-0.921875 0 -1.484375 -0.4375q-0.546875 -0.4375 -0.546875 -1.171875l0 -3.546875l-0.984375 0q-0.1875 0 -0.28125 -0.078125q-0.078125 -0.078125 -0.078125 -0.203125q0 -0.109375 0.078125 -0.1875q0.09375 -0.078125 0.28125 -0.078125l0.984375 0l0 -1.578125q0 -0.1875 0.078125 -0.265625q0.078125 -0.078125 0.1875 -0.078125q0.125 0 0.203125 0.078125q0.078125 0.078125 0.078125 0.265625l0 1.578125zm12.441895 9.0625l-7.09375 0q-0.1875 0 -0.28125 -0.078125q-0.078125 -0.0625 -0.078125 -0.1875q0 -0.125 0.078125 -0.203125q0.09375 -0.0625 0.28125 -0.0625l7.09375 0q0.1875 0 0.265625 0.0625q0.078125 0.078125 0.078125 0.203125q0 0.125 -0.078125 0.1875q-0.078125 0.078125 -0.265625 0.078125zm7.2231445 -6.296875q0 1.21875 -0.875 2.078125q-0.859375 0.859375 -2.09375 0.859375q-1.25 0 -2.125 -0.859375q-0.859375 -0.875 -0.859375 -2.078125q0 -1.21875 0.859375 -2.078125q0.875 -0.875 2.125 -0.875q1.234375 0 2.09375 0.859375q0.875 0.859375 0.875 2.09375zm-0.53125 0q0 -1.0 -0.71875 -1.703125q-0.71875 -0.703125 -1.734375 -0.703125q-1.015625 0 -1.734375 0.703125q-0.703125 0.703125 -0.703125 1.703125q0 0.984375 0.703125 1.703125q0.71875 0.703125 1.734375 0.703125q1.015625 0 1.734375 -0.703125q0.71875 -0.703125 0.71875 -1.703125zm4.7231445 -2.765625l0 1.34375q1.03125 -0.9375 1.546875 -1.203125q0.53125 -0.265625 0.96875 -0.265625q0.46875 0 0.875 0.328125q0.421875 0.3125 0.421875 0.46875q0 0.125 -0.09375 0.203125q-0.078125 0.078125 -0.1875 0.078125q-0.0625 0 -0.109375 -0.015625q-0.046875 -0.03125 -0.171875 -0.140625q-0.21875 -0.234375 -0.390625 -0.3125q-0.15625 -0.078125 -0.3125 -0.078125q-0.359375 0 -0.859375 0.28125q-0.484375 0.28125 -1.6875 1.359375l0 2.921875l2.359375 0q0.203125 0 0.28125 0.078125q0.078125 0.0625 0.078125 0.1875q0 0.109375 -0.078125 0.1875q-0.078125 0.078125 -0.28125 0.078125l-4.1875 0q-0.1875 0 -0.28125 -0.0625q-0.078125 -0.078125 -0.078125 -0.203125q0 -0.109375 0.078125 -0.171875q0.09375 -0.078125 0.28125 -0.078125l1.296875 0l0 -4.4375l-0.984375 0q-0.1875 0 -0.28125 -0.078125q-0.078125 -0.078125 -0.078125 -0.203125q0 -0.109375 0.078125 -0.1875q0.078125 -0.078125 0.28125 -0.078125l1.515625 0zm8.70752 -2.734375l0 1.375l-0.796875 0l0 -1.375l0.796875 0zm0.015625 2.734375l0 4.96875l2.09375 0q0.1875 0 0.265625 0.078125q0.09375 0.0625 0.09375 0.1875q0 0.109375 -0.09375 0.1875q-0.078125 0.078125 -0.265625 0.078125l-4.71875 0q-0.203125 0 -0.28125 -0.078125q-0.078125 -0.078125 -0.078125 -0.1875q0 -0.125 0.078125 -0.1875q0.078125 -0.078125 0.28125 -0.078125l2.09375 0l0 -4.421875l-1.5625 0q-0.1875 0 -0.28125 -0.078125q-0.078125 -0.078125 -0.078125 -0.1875q0 -0.125 0.078125 -0.203125q0.078125 -0.078125 0.28125 -0.078125l2.09375 0zm9.30127 0.984375l0 -0.984375l1.25 0q0.203125 0 0.28125 0.078125q0.078125 0.078125 0.078125 0.203125q0 0.109375 -0.078125 0.1875q-0.078125 0.078125 -0.28125 0.078125l-0.703125 0l0 5.328125q0 0.53125 -0.234375 0.953125q-0.15625 0.265625 -0.515625 0.5625q-0.34375 0.3125 -0.640625 0.4375q-0.296875 0.125 -0.78125 0.125l-1.515625 0q-0.1875 0 -0.265625 -0.078125q-0.078125 -0.078125 -0.078125 -0.1875q0 -0.125 0.078125 -0.203125q0.078125 -0.078125 0.265625 -0.078125l1.53125 0.015625q0.46875 0 0.84375 -0.25q0.390625 -0.234375 0.625 -0.703125q0.140625 -0.265625 0.140625 -0.671875l0 -1.609375q-0.84375 1.171875 -2.203125 1.171875q-1.09375 0 -1.890625 -0.8125q-0.796875 -0.8125 -0.796875 -1.953125q0 -1.15625 0.796875 -1.96875q0.796875 -0.8125 1.890625 -0.8125q1.359375 0 2.203125 1.171875zm0 1.609375q0 -0.953125 -0.640625 -1.59375q-0.640625 -0.640625 -1.53125 -0.640625q-0.90625 0 -1.546875 0.65625q-0.640625 0.640625 -0.640625 1.578125q0 0.9375 0.640625 1.59375q0.640625 0.640625 1.546875 0.640625q0.890625 0 1.53125 -0.640625q0.640625 -0.65625 0.640625 -1.59375zm6.2856445 -5.328125l0 1.375l-0.796875 0l0 -1.375l0.796875 0zm0.015625 2.734375l0 4.96875l2.09375 0q0.1875 0 0.265625 0.078125q0.09375 0.0625 0.09375 0.1875q0 0.109375 -0.09375 0.1875q-0.078125 0.078125 -0.265625 0.078125l-4.71875 0q-0.203125 0 -0.28125 -0.078125q-0.078125 -0.078125 -0.078125 -0.1875q0 -0.125 0.078125 -0.1875q0.078125 -0.078125 0.28125 -0.078125l2.09375 0l0 -4.421875l-1.5625 0q-0.1875 0 -0.28125 -0.078125q-0.078125 -0.078125 -0.078125 -0.1875q0 -0.125 0.078125 -0.203125q0.078125 -0.078125 0.28125 -0.078125l2.09375 0zm5.7856483 0l0 0.8125q0.5625 -0.5625 1.015625 -0.78125q0.453125 -0.21875 1.015625 -0.21875q0.609375 0 1.109375 0.265625q0.359375 0.1875 0.640625 0.625q0.296875 0.4375 0.296875 0.90625l0 3.359375l0.453125 0q0.1875 0 0.265625 0.078125q0.078125 0.0625 0.078125 0.1875q0 0.109375 -0.078125 0.1875q-0.078125 0.078125 -0.265625 0.078125l-1.4375 0q-0.1875 0 -0.28125 -0.078125q-0.078125 -0.078125 -0.078125 -0.1875q0 -0.125 0.078125 -0.1875q0.09375 -0.078125 0.28125 -0.078125l0.453125 0l0 -3.265625q0 -0.578125 -0.421875 -0.953125q-0.40625 -0.390625 -1.09375 -0.390625q-0.53125 0 -0.921875 0.21875q-0.390625 0.203125 -1.109375 1.046875l0 3.34375l0.609375 0q0.1875 0 0.265625 0.078125q0.09375 0.0625 0.09375 0.1875q0 0.109375 -0.09375 0.1875q-0.078125 0.078125 -0.265625 0.078125l-1.734375 0q-0.203125 0 -0.28125 -0.078125q-0.078125 -0.078125 -0.078125 -0.1875q0 -0.125 0.078125 -0.1875q0.078125 -0.078125 0.28125 -0.078125l0.59375 0l0 -4.421875l-0.453125 0q-0.1875 0 -0.265625 -0.078125q-0.078125 -0.078125 -0.078125 -0.203125q0 -0.109375 0.078125 -0.1875q0.078125 -0.078125 0.265625 -0.078125l0.984375 0z" fill-rule="nonzero"></path><path fill="#000000" fill-opacity="0.0" d="m680.718 114.770454l95.1496 0l0 51.779533l-95.1496 0z" fill-rule="nonzero"></path><path fill="#000000" d="m692.218 135.82045q0.359375 0 0.921875 -0.15625l0 0.8125q-0.21875 0.09375 -0.53125 0.15625q-0.3125 0.0625 -0.515625 0.0625q-0.78125 0 -1.203125 -0.375q-0.421875 -0.375 -0.421875 -1.125q0 -0.421875 0.109375 -0.953125l0.796875 -3.828125l-1.078125 0l0.078125 -0.453125l1.171875 -0.5l0.796875 -1.453125l0.625 0l-0.34375 1.609375l1.734375 0l-0.171875 0.796875l-1.71875 0l-0.828125 3.84375q-0.109375 0.546875 -0.109375 0.828125q0 0.359375 0.171875 0.546875q0.1875 0.1875 0.515625 0.1875zm3.258728 0.75l-1.0625 0l1.484375 -6.953125l1.0625 0l-1.484375 6.953125zm0.71875 -8.734375q0 -0.359375 0.203125 -0.578125q0.203125 -0.234375 0.53125 -0.234375q0.5625 0 0.5625 0.578125q0 0.34375 -0.21875 0.59375q-0.21875 0.234375 -0.484375 0.234375q-0.265625 0 -0.4375 -0.15625q-0.15625 -0.15625 -0.15625 -0.4375zm5.649719 8.734375l0.9375 -4.390625q0.109375 -0.59375 0.109375 -0.859375q0 -0.4375 -0.203125 -0.6875q-0.1875 -0.25 -0.65625 -0.25q-0.546875 0 -1.046875 0.390625q-0.5 0.375 -0.890625 1.078125q-0.375 0.703125 -0.59375 1.703125l-0.640625 3.015625l-1.0625 0l1.484375 -6.953125l0.890625 0l-0.140625 1.28125l0.0625 0q0.546875 -0.75 1.09375 -1.078125q0.546875 -0.328125 1.140625 -0.328125q0.71875 0 1.09375 0.40625q0.390625 0.40625 0.46875 1.15625l0.046875 0q0.546875 -0.796875 1.15625 -1.171875q0.625 -0.390625 1.25 -0.390625q0.796875 0 1.234375 0.4375q0.453125 0.421875 0.453125 1.25q0 0.421875 -0.140625 1.125l-0.921875 4.265625l-1.078125 0l0.9375 -4.390625q0.140625 -0.65625 0.140625 -0.921875q0 -0.40625 -0.21875 -0.640625q-0.21875 -0.234375 -0.6875 -0.234375q-0.515625 0 -1.03125 0.375q-0.5 0.359375 -0.875 1.046875q-0.375 0.671875 -0.578125 1.59375l-0.671875 3.171875l-1.0625 0zm10.326172 0.125q-1.171875 0 -1.84375 -0.6875q-0.65625 -0.6875 -0.65625 -1.921875q0 -1.1875 0.46875 -2.28125q0.46875 -1.09375 1.25 -1.703125q0.78125 -0.609375 1.71875 -0.609375q0.984375 0 1.46875 0.421875q0.484375 0.421875 0.484375 1.171875q0 1.140625 -1.0625 1.796875q-1.046875 0.640625 -3.0 0.640625l-0.21875 0l-0.015625 0.515625q0 0.828125 0.390625 1.296875q0.390625 0.46875 1.203125 0.46875q0.40625 0 0.828125 -0.109375q0.421875 -0.125 1.046875 -0.421875l0 0.921875q-0.59375 0.28125 -1.0625 0.390625q-0.453125 0.109375 -1.0 0.109375zm0.875 -6.296875q-0.640625 0 -1.21875 0.59375q-0.578125 0.59375 -0.890625 1.65625l0.078125 0q1.453125 0 2.21875 -0.375q0.78125 -0.375 0.78125 -1.09375q0 -0.34375 -0.234375 -0.5625q-0.234375 -0.21875 -0.734375 -0.21875z" fill-rule="nonzero"></path><path fill="#000000" fill-opacity="0.0" d="m269.19485 103.04374l0 23.433067" fill-rule="nonzero"></path><path stroke="#000000" stroke-width="1.0" stroke-linejoin="round" stroke-linecap="butt" d="m269.19485 103.04374l0 23.433067" fill-rule="nonzero"></path><path fill="#000000" fill-opacity="0.0" d="m462.26233 103.04374l0 23.433067" fill-rule="nonzero"></path><path stroke="#000000" stroke-width="1.0" stroke-linejoin="round" stroke-linecap="butt" d="m462.26233 103.04374l0 23.433067" fill-rule="nonzero"></path><path fill="#000000" fill-opacity="0.0" d="m585.2002 103.655334l0 23.433075" fill-rule="nonzero"></path><path stroke="#000000" stroke-width="1.0" stroke-linejoin="round" stroke-linecap="butt" d="m585.2002 103.655334l0 23.433075" fill-rule="nonzero"></path><path fill="#000000" fill-opacity="0.0" d="m248.40076 65.52346l63.748047 0l0 37.543304l-63.748047 0z" fill-rule="nonzero"></path><path fill="#000000" d="m261.57263 80.43284l0 6.359375l1.375 0q0.1875 0 0.265625 0.078125q0.09375 0.0625 0.09375 0.1875q0 0.109375 -0.09375 0.1875q-0.078125 0.078125 -0.265625 0.078125l-3.3125 0q-0.1875 0 -0.265625 -0.078125q-0.078125 -0.078125 -0.078125 -0.1875q0 -0.125 0.078125 -0.1875q0.078125 -0.078125 0.265625 -0.078125l1.390625 0l0 -6.359375l-2.1875 0l0 1.84375q0 0.203125 -0.078125 0.28125q-0.0625 0.078125 -0.1875 0.078125q-0.109375 0 -0.1875 -0.078125q-0.078125 -0.078125 -0.078125 -0.28125l0 -2.375l5.96875 0l0 2.375q0 0.203125 -0.078125 0.28125q-0.0625 0.078125 -0.1875 0.078125q-0.109375 0 -0.1875 -0.078125q-0.078125 -0.078125 -0.078125 -0.28125l0 -1.84375l-2.171875 0zm7.8012695 0l0 6.359375l1.375 0q0.1875 0 0.265625 0.078125q0.09375 0.0625 0.09375 0.1875q0 0.109375 -0.09375 0.1875q-0.078125 0.078125 -0.265625 0.078125l-3.3125 0q-0.1875 0 -0.265625 -0.078125q-0.078125 -0.078125 -0.078125 -0.1875q0 -0.125 0.078125 -0.1875q0.078125 -0.078125 0.265625 -0.078125l1.390625 0l0 -6.359375l-2.1875 0l0 1.84375q0 0.203125 -0.078125 0.28125q-0.0625 0.078125 -0.1875 0.078125q-0.109375 0 -0.1875 -0.078125q-0.078125 -0.078125 -0.078125 -0.28125l0 -2.375l5.96875 0l0 2.375q0 0.203125 -0.078125 0.28125q-0.0625 0.078125 -0.1875 0.078125q-0.109375 0 -0.1875 -0.078125q-0.078125 -0.078125 -0.078125 -0.28125l0 -1.84375l-2.171875 0zm6.6137695 0l0 6.359375l3.53125 0l0 -2.125q0 -0.1875 0.078125 -0.265625q0.078125 -0.09375 0.203125 -0.09375q0.109375 0 0.1875 0.09375q0.078125 0.078125 0.078125 0.265625l0 2.65625l-5.890625 0q-0.1875 0 -0.28125 -0.078125q-0.078125 -0.078125 -0.078125 -0.1875q0 -0.125 0.078125 -0.1875q0.09375 -0.078125 0.28125 -0.078125l1.265625 0l0 -6.359375l-1.265625 0q-0.1875 0 -0.28125 -0.078125q-0.078125 -0.078125 -0.078125 -0.1875q0 -0.125 0.078125 -0.1875q0.09375 -0.078125 0.28125 -0.078125l3.078125 0q0.1875 0 0.265625 0.078125q0.09375 0.0625 0.09375 0.1875q0 0.109375 -0.09375 0.1875q-0.078125 0.078125 -0.265625 0.078125l-1.265625 0z" fill-rule="nonzero"></path><path fill="#000000" fill-opacity="0.0" d="m432.7346 65.52346l95.14963 0l0 37.543304l-95.14963 0z" fill-rule="nonzero"></path><path fill="#000000" d="m447.4221 82.80784l0 -0.984375l1.25 0q0.203125 0 0.28125 0.078125q0.078125 0.078125 0.078125 0.203125q0 0.109375 -0.078125 0.1875q-0.078125 0.078125 -0.28125 0.078125l-0.703125 0l0 5.328125q0 0.53125 -0.234375 0.953125q-0.15625 0.265625 -0.515625 0.5625q-0.34375 0.3125 -0.640625 0.4375q-0.296875 0.125 -0.78125 0.125l-1.515625 0q-0.1875 0 -0.265625 -0.078125q-0.078125 -0.078125 -0.078125 -0.1875q0 -0.125 0.078125 -0.203125q0.078125 -0.078125 0.265625 -0.078125l1.53125 0.015625q0.46875 0 0.84375 -0.25q0.390625 -0.234375 0.625 -0.703125q0.140625 -0.265625 0.140625 -0.671875l0 -1.609375q-0.84375 1.171875 -2.203125 1.171875q-1.09375 0 -1.890625 -0.8125q-0.796875 -0.8125 -0.796875 -1.953125q0 -1.15625 0.796875 -1.96875q0.796875 -0.8125 1.890625 -0.8125q1.359375 0 2.203125 1.171875zm0 1.609375q0 -0.953125 -0.640625 -1.59375q-0.640625 -0.640625 -1.53125 -0.640625q-0.90625 0 -1.546875 0.65625q-0.640625 0.640625 -0.640625 1.578125q0 0.9375 0.640625 1.59375q0.640625 0.640625 1.546875 0.640625q0.890625 0 1.53125 -0.640625q0.640625 -0.65625 0.640625 -1.59375zm5.3793945 -2.59375l0 1.34375q1.03125 -0.9375 1.546875 -1.203125q0.53125 -0.265625 0.96875 -0.265625q0.46875 0 0.875 0.328125q0.421875 0.3125 0.421875 0.46875q0 0.125 -0.09375 0.203125q-0.078125 0.078125 -0.1875 0.078125q-0.0625 0 -0.109375 -0.015625q-0.046875 -0.03125 -0.171875 -0.140625q-0.21875 -0.234375 -0.390625 -0.3125q-0.15625 -0.078125 -0.3125 -0.078125q-0.359375 0 -0.859375 0.28125q-0.484375 0.28125 -1.6875 1.359375l0 2.921875l2.359375 0q0.203125 0 0.28125 0.078125q0.078125 0.0625 0.078125 0.1875q0 0.109375 -0.078125 0.1875q-0.078125 0.078125 -0.28125 0.078125l-4.1875 0q-0.1875 0 -0.28125 -0.0625q-0.078125 -0.078125 -0.078125 -0.203125q0 -0.109375 0.078125 -0.171875q0.09375 -0.078125 0.28125 -0.078125l1.296875 0l0 -4.4375l-0.984375 0q-0.1875 0 -0.28125 -0.078125q-0.078125 -0.078125 -0.078125 -0.203125q0 -0.109375 0.078125 -0.1875q0.078125 -0.078125 0.28125 -0.078125l1.515625 0zm9.973145 5.5l0 -0.765625q-1.171875 0.96875 -2.484375 0.96875q-0.953125 0 -1.5 -0.484375q-0.53125 -0.484375 -0.53125 -1.1875q0 -0.765625 0.703125 -1.34375q0.71875 -0.578125 2.078125 -0.578125q0.359375 0 0.796875 0.046875q0.4375 0.046875 0.9375 0.140625l0 -0.859375q0 -0.4375 -0.40625 -0.75q-0.40625 -0.328125 -1.21875 -0.328125q-0.625 0 -1.75 0.359375q-0.203125 0.0625 -0.265625 0.0625q-0.09375 0 -0.171875 -0.078125q-0.0625 -0.078125 -0.0625 -0.1875q0 -0.109375 0.0625 -0.171875q0.078125 -0.09375 0.71875 -0.265625q0.984375 -0.265625 1.484375 -0.265625q1.015625 0 1.578125 0.5q0.5625 0.5 0.5625 1.125l0 3.53125l0.71875 0q0.1875 0 0.265625 0.078125q0.09375 0.0625 0.09375 0.1875q0 0.109375 -0.09375 0.1875q-0.078125 0.078125 -0.265625 0.078125l-1.25 0zm0 -2.65625q-0.375 -0.109375 -0.796875 -0.15625q-0.421875 -0.046875 -0.875 -0.046875q-1.171875 0 -1.828125 0.5q-0.484375 0.375 -0.484375 0.890625q0 0.484375 0.375 0.8125q0.375 0.328125 1.09375 0.328125q0.703125 0 1.296875 -0.265625q0.59375 -0.28125 1.21875 -0.890625l0 -1.171875zm8.48877 -2.296875l0 -0.1875q0 -0.1875 0.078125 -0.265625q0.078125 -0.09375 0.1875 -0.09375q0.125 0 0.203125 0.09375q0.078125 0.078125 0.078125 0.265625l0 1.21875q-0.015625 0.1875 -0.09375 0.28125q-0.0625 0.078125 -0.1875 0.078125q-0.109375 0 -0.1875 -0.078125q-0.0625 -0.078125 -0.078125 -0.25q-0.03125 -0.4375 -0.59375 -0.84375q-0.546875 -0.40625 -1.5 -0.40625q-1.1875 0 -1.796875 0.75q-0.609375 0.734375 -0.609375 1.6875q0 1.03125 0.671875 1.703125q0.6875 0.671875 1.765625 0.671875q0.609375 0 1.25 -0.21875q0.65625 -0.234375 1.171875 -0.734375q0.140625 -0.140625 0.234375 -0.140625q0.109375 0 0.171875 0.078125q0.078125 0.078125 0.078125 0.1875q0 0.265625 -0.640625 0.6875q-1.03125 0.671875 -2.296875 0.671875q-1.28125 0 -2.125 -0.8125q-0.828125 -0.828125 -0.828125 -2.09375q0 -1.28125 0.84375 -2.125q0.859375 -0.859375 2.140625 -0.859375q1.234375 0 2.0625 0.734375zm8.45752 2.328125l-5.421875 0q0.125 1.03125 0.859375 1.671875q0.734375 0.625 1.796875 0.625q0.59375 0 1.25 -0.1875q0.65625 -0.203125 1.0625 -0.53125q0.125 -0.09375 0.21875 -0.09375q0.09375 0 0.171875 0.078125q0.078125 0.078125 0.078125 0.1875q0 0.109375 -0.09375 0.21875q-0.3125 0.3125 -1.09375 0.59375q-0.765625 0.265625 -1.59375 0.265625q-1.375 0 -2.296875 -0.890625q-0.90625 -0.90625 -0.90625 -2.171875q0 -1.171875 0.859375 -2.0q0.859375 -0.828125 2.125 -0.828125q1.3125 0 2.15625 0.859375q0.84375 0.84375 0.828125 2.203125zm-0.53125 -0.53125q-0.15625 -0.890625 -0.84375 -1.4375q-0.671875 -0.546875 -1.609375 -0.546875q-0.921875 0 -1.59375 0.546875q-0.671875 0.53125 -0.84375 1.4375l4.890625 0z" fill-rule="nonzero"></path><path fill="#000000" fill-opacity="0.0" d="m557.3625 66.13507l63.748047 0l0 37.543312l-63.748047 0z" fill-rule="nonzero"></path><path fill="#000000" d="m569.175 85.560074l0 2.375l-1.25 0q-0.1875 0 -0.265625 -0.078125q-0.078125 -0.078125 -0.078125 -0.1875q0 -0.125 0.078125 -0.1875q0.078125 -0.078125 0.265625 -0.078125l0.71875 0l0 -6.890625l-0.71875 0q-0.1875 0 -0.265625 -0.078125q-0.078125 -0.078125 -0.078125 -0.203125q0 -0.109375 0.078125 -0.1875q0.078125 -0.078125 0.265625 -0.078125l1.25 0l0 4.921875l2.265625 -1.90625l-0.265625 0q-0.1875 0 -0.28125 -0.078125q-0.078125 -0.078125 -0.078125 -0.1875q0 -0.125 0.078125 -0.203125q0.09375 -0.078125 0.28125 -0.078125l1.703125 0q0.203125 0 0.28125 0.078125q0.078125 0.078125 0.078125 0.203125q0 0.109375 -0.078125 0.1875q-0.078125 0.078125 -0.28125 0.078125l-0.609375 0l-2.078125 1.734375l2.625 2.6875l0.625 0q0.1875 0 0.265625 0.078125q0.09375 0.0625 0.09375 0.1875q0 0.109375 -0.09375 0.1875q-0.078125 0.078125 -0.265625 0.078125l-1.734375 0q-0.1875 0 -0.28125 -0.078125q-0.078125 -0.078125 -0.078125 -0.1875q0 -0.125 0.078125 -0.1875q0.09375 -0.078125 0.28125 -0.078125l0.375 0l-2.296875 -2.359375l-0.609375 0.515625zm11.77002 -0.25l-5.421875 0q0.125 1.03125 0.859375 1.671875q0.734375 0.625 1.796875 0.625q0.59375 0 1.25 -0.1875q0.65625 -0.203125 1.0625 -0.53125q0.125 -0.09375 0.21875 -0.09375q0.09375 0 0.171875 0.078125q0.078125 0.078125 0.078125 0.1875q0 0.109375 -0.09375 0.21875q-0.3125 0.3125 -1.09375 0.59375q-0.765625 0.265625 -1.59375 0.265625q-1.375 0 -2.296875 -0.890625q-0.90625 -0.90625 -0.90625 -2.171875q0 -1.171875 0.859375 -2.0q0.859375 -0.828125 2.125 -0.828125q1.3125 0 2.15625 0.859375q0.84375 0.84375 0.828125 2.203125zm-0.53125 -0.53125q-0.15625 -0.890625 -0.84375 -1.4375q-0.671875 -0.546875 -1.609375 -0.546875q-0.921875 0 -1.59375 0.546875q-0.671875 0.53125 -0.84375 1.4375l4.890625 0zm8.33252 0.53125l-5.421875 0q0.125 1.03125 0.859375 1.671875q0.734375 0.625 1.796875 0.625q0.59375 0 1.25 -0.1875q0.65625 -0.203125 1.0625 -0.53125q0.125 -0.09375 0.21875 -0.09375q0.09375 0 0.171875 0.078125q0.078125 0.078125 0.078125 0.1875q0 0.109375 -0.09375 0.21875q-0.3125 0.3125 -1.09375 0.59375q-0.765625 0.265625 -1.59375 0.265625q-1.375 0 -2.296875 -0.890625q-0.90625 -0.90625 -0.90625 -2.171875q0 -1.171875 0.859375 -2.0q0.859375 -0.828125 2.125 -0.828125q1.3125 0 2.15625 0.859375q0.84375 0.84375 0.828125 2.203125zm-0.53125 -0.53125q-0.15625 -0.890625 -0.84375 -1.4375q-0.671875 -0.546875 -1.609375 -0.546875q-0.921875 0 -1.59375 0.546875q-0.671875 0.53125 -0.84375 1.4375l4.890625 0zm3.4418945 -2.34375l0 0.96875q0.484375 -0.578125 1.015625 -0.859375q0.546875 -0.296875 1.296875 -0.296875q0.78125 0 1.453125 0.375q0.671875 0.359375 1.03125 1.015625q0.359375 0.65625 0.359375 1.390625q0 1.140625 -0.828125 1.953125q-0.8125 0.8125 -2.015625 0.8125q-1.421875 0 -2.3125 -1.15625l0 3.21875l1.296875 0q0.1875 0 0.265625 0.0625q0.09375 0.078125 0.09375 0.203125q0 0.109375 -0.09375 0.1875q-0.078125 0.078125 -0.265625 0.078125l-2.546875 0q-0.1875 0 -0.28125 -0.078125q-0.078125 -0.078125 -0.078125 -0.1875q0 -0.125 0.078125 -0.203125q0.09375 -0.0625 0.28125 -0.0625l0.71875 0l0 -6.875l-0.71875 0q-0.1875 0 -0.28125 -0.078125q-0.078125 -0.078125 -0.078125 -0.203125q0 -0.109375 0.078125 -0.1875q0.09375 -0.078125 0.28125 -0.078125l1.25 0zm4.625 2.59375q0 -0.921875 -0.671875 -1.578125q-0.671875 -0.65625 -1.640625 -0.65625q-0.96875 0 -1.640625 0.65625q-0.671875 0.65625 -0.671875 1.578125q0 0.90625 0.671875 1.578125q0.671875 0.65625 1.640625 0.65625q0.96875 0 1.640625 -0.65625q0.671875 -0.65625 0.671875 -1.578125z" fill-rule="nonzero"></path><path fill="#000000" fill-opacity="0.0" d="m290.36053 163.33018l152.15747 0l0 61.133865l-152.15747 0z" fill-rule="nonzero"></path><path fill="#000000" d="m336.59695 183.23956q0 0.96875 -0.734375 1.5q-0.71875 0.515625 -2.03125 0.515625q-1.375 0 -2.15625 -0.4375l0 -0.96875q0.5 0.25 1.078125 0.390625q0.578125 0.140625 1.109375 0.140625q0.828125 0 1.265625 -0.25q0.453125 -0.265625 0.453125 -0.8125q0 -0.40625 -0.359375 -0.6875q-0.34375 -0.296875 -1.375 -0.6875q-0.96875 -0.359375 -1.375 -0.625q-0.40625 -0.28125 -0.609375 -0.625q-0.203125 -0.34375 -0.203125 -0.8125q0 -0.84375 0.6875 -1.328125q0.703125 -0.5 1.90625 -0.5q1.125 0 2.1875 0.453125l-0.375 0.859375q-1.046875 -0.4375 -1.890625 -0.4375q-0.75 0 -1.140625 0.234375q-0.375 0.234375 -0.375 0.65625q0 0.265625 0.140625 0.46875q0.15625 0.203125 0.46875 0.375q0.3125 0.171875 1.21875 0.515625q1.234375 0.453125 1.671875 0.90625q0.4375 0.453125 0.4375 1.15625zm4.1082153 1.140625q0.28125 0 0.546875 -0.03125q0.265625 -0.046875 0.40625 -0.09375l0 0.8125q-0.171875 0.078125 -0.5 0.125q-0.328125 0.0625 -0.59375 0.0625q-2.03125 0 -2.03125 -2.125l0 -4.140625l-0.984375 0l0 -0.5l0.984375 -0.4375l0.453125 -1.484375l0.609375 0l0 1.609375l2.015625 0l0 0.8125l-2.015625 0l0 4.09375q0 0.625 0.296875 0.96875q0.296875 0.328125 0.8125 0.328125zm6.73645 0.75l-0.203125 -0.984375l-0.046875 0q-0.53125 0.640625 -1.046875 0.875q-0.515625 0.234375 -1.28125 0.234375q-1.046875 0 -1.640625 -0.53125q-0.578125 -0.53125 -0.578125 -1.515625q0 -2.109375 3.375 -2.203125l1.171875 -0.046875l0 -0.4375q0 -0.8125 -0.359375 -1.203125q-0.34375 -0.390625 -1.109375 -0.390625q-0.875 0 -1.96875 0.53125l-0.328125 -0.796875q0.515625 -0.28125 1.125 -0.4375q0.609375 -0.171875 1.234375 -0.171875q1.25 0 1.84375 0.5625q0.59375 0.546875 0.59375 1.765625l0 4.75l-0.78125 0zm-2.375 -0.75q0.984375 0 1.546875 -0.53125q0.5625 -0.546875 0.5625 -1.515625l0 -0.625l-1.0625 0.046875q-1.25 0.046875 -1.8125 0.390625q-0.546875 0.34375 -0.546875 1.078125q0 0.5625 0.34375 0.859375q0.34375 0.296875 0.96875 0.296875zm6.5687256 0.75l-1.046875 0l0 -9.875l1.046875 0l0 9.875zm5.261688 0.125q-1.546875 0 -2.4375 -0.9375q-0.890625 -0.9375 -0.890625 -2.609375q0 -1.6875 0.828125 -2.671875q0.828125 -0.984375 2.21875 -0.984375q1.3125 0 2.0625 0.859375q0.765625 0.859375 0.765625 2.265625l0 0.671875l-4.78125 0q0.03125 1.21875 0.609375 1.859375q0.59375 0.625 1.65625 0.625q1.125 0 2.21875 -0.46875l0 0.9375q-0.5625 0.25 -1.0625 0.34375q-0.484375 0.109375 -1.1875 0.109375zm-0.296875 -6.328125q-0.828125 0 -1.328125 0.546875q-0.5 0.546875 -0.59375 1.515625l3.640625 0q0 -1.0 -0.453125 -1.53125q-0.4375 -0.53125 -1.265625 -0.53125zm14.299133 2.71875q0 1.703125 -0.859375 2.65625q-0.859375 0.953125 -2.375 0.953125q-0.921875 0 -1.65625 -0.4375q-0.71875 -0.4375 -1.109375 -1.25q-0.390625 -0.828125 -0.390625 -1.921875q0 -1.703125 0.84375 -2.640625q0.859375 -0.953125 2.359375 -0.953125q1.46875 0 2.328125 0.96875q0.859375 0.96875 0.859375 2.625zm-5.296875 0q0 1.328125 0.53125 2.03125q0.53125 0.703125 1.5625 0.703125q1.03125 0 1.5625 -0.6875q0.546875 -0.703125 0.546875 -2.046875q0 -1.328125 -0.546875 -2.015625q-0.53125 -0.6875 -1.578125 -0.6875q-1.03125 0 -1.5625 0.6875q-0.515625 0.671875 -0.515625 2.015625zm10.581482 -3.59375q1.359375 0 2.125 0.9375q0.765625 0.9375 0.765625 2.65625q0 1.71875 -0.765625 2.671875q-0.765625 0.9375 -2.125 0.9375q-0.6875 0 -1.25 -0.25q-0.5625 -0.25 -0.9375 -0.765625l-0.078125 0l-0.21875 0.890625l-0.75 0l0 -9.875l1.046875 0l0 2.390625q0 0.8125 -0.046875 1.453125l0.046875 0q0.734375 -1.046875 2.1875 -1.046875zm-0.15625 0.890625q-1.078125 0 -1.5625 0.625q-0.46875 0.609375 -0.46875 2.078125q0 1.46875 0.484375 2.109375q0.5 0.625 1.578125 0.625q0.96875 0 1.4375 -0.703125q0.484375 -0.71875 0.484375 -2.046875q0 -1.359375 -0.484375 -2.015625q-0.46875 -0.671875 -1.46875 -0.671875zm4.229889 9.3125q-0.59375 0 -0.96875 -0.15625l0 -0.859375q0.4375 0.125 0.859375 0.125q0.5 0 0.734375 -0.28125q0.234375 -0.265625 0.234375 -0.8125l0 -8.09375l1.046875 0l0 8.015625q0 2.0625 -1.90625 2.0625zm0.765625 -11.96875q0 -0.359375 0.171875 -0.53125q0.1875 -0.171875 0.453125 -0.171875q0.25 0 0.421875 0.171875q0.1875 0.171875 0.1875 0.53125q0 0.359375 -0.1875 0.53125q-0.171875 0.171875 -0.421875 0.171875q-0.265625 0 -0.453125 -0.171875q-0.171875 -0.171875 -0.171875 -0.53125zm6.4023438 8.96875q-1.546875 0 -2.4375 -0.9375q-0.890625 -0.9375 -0.890625 -2.609375q0 -1.6875 0.828125 -2.671875q0.828125 -0.984375 2.21875 -0.984375q1.3125 0 2.0625 0.859375q0.765625 0.859375 0.765625 2.265625l0 0.671875l-4.78125 0q0.03125 1.21875 0.609375 1.859375q0.59375 0.625 1.65625 0.625q1.125 0 2.21875 -0.46875l0 0.9375q-0.5625 0.25 -1.0625 0.34375q-0.484375 0.109375 -1.1875 0.109375zm-0.296875 -6.328125q-0.828125 0 -1.328125 0.546875q-0.5 0.546875 -0.59375 1.515625l3.640625 0q0 -1.0 -0.453125 -1.53125q-0.4375 -0.53125 -1.265625 -0.53125zm7.602539 6.328125q-1.5 0 -2.328125 -0.921875q-0.828125 -0.9375 -0.828125 -2.640625q0 -1.75 0.828125 -2.6875q0.84375 -0.953125 2.40625 -0.953125q0.5 0 1.0 0.109375q0.5 0.09375 0.78125 0.25l-0.3125 0.890625q-0.359375 -0.140625 -0.765625 -0.234375q-0.40625 -0.09375 -0.734375 -0.09375q-2.109375 0 -2.109375 2.703125q0 1.28125 0.515625 1.96875q0.515625 0.6875 1.53125 0.6875q0.859375 0 1.78125 -0.375l0 0.9375q-0.703125 0.359375 -1.765625 0.359375zm5.8139343 -0.875q0.28125 0 0.546875 -0.03125q0.265625 -0.046875 0.40625 -0.09375l0 0.8125q-0.171875 0.078125 -0.5 0.125q-0.328125 0.0625 -0.59375 0.0625q-2.03125 0 -2.03125 -2.125l0 -4.140625l-0.984375 0l0 -0.5l0.984375 -0.4375l0.453125 -1.484375l0.609375 0l0 1.609375l2.015625 0l0 0.8125l-2.015625 0l0 4.09375q0 0.625 0.296875 0.96875q0.296875 0.328125 0.8125 0.328125z" fill-rule="nonzero"></path><path fill="#000000" fill-opacity="0.0" d="m462.8521 133.67848l0 0c0 9.610626 -1.2984314 17.401566 -2.9001465 17.401566l-91.79025 0c-1.6017151 0 -2.9001465 7.7909546 -2.9001465 17.40158l0 0c0 -9.610626 -1.2984314 -17.40158 -2.9001465 -17.40158l-91.79025 0c-1.6017151 0 -2.9001465 -7.7909393 -2.9001465 -17.401566z" fill-rule="nonzero"></path><path fill="#000000" fill-opacity="0.0" d="m462.8521 133.67848l0 0c0 9.610626 -1.2984314 17.401566 -2.9001465 17.401566l-91.79025 0c-1.6017151 0 -2.9001465 7.7909546 -2.9001465 17.40158l0 0c0 -9.610626 -1.2984314 -17.40158 -2.9001465 -17.40158l-91.79025 0c-1.6017151 0 -2.9001465 -7.7909393 -2.9001465 -17.401566" fill-rule="nonzero"></path><path stroke="#000000" stroke-width="1.0" stroke-linejoin="round" stroke-linecap="butt" d="m462.8521 133.67848l0 0c0 9.610626 -1.2984314 17.401566 -2.9001465 17.401566l-91.79025 0c-1.6017151 0 -2.9001465 7.7909546 -2.9001465 17.40158l0 0c0 -9.610626 -1.2984314 -17.40158 -2.9001465 -17.40158l-91.79025 0c-1.6017151 0 -2.9001465 -7.7909393 -2.9001465 -17.401566" fill-rule="nonzero"></path><path fill="#000000" fill-opacity="0.0" d="m45.514816 68.60738l0 0c0 -9.610626 1.298439 -17.401577 2.9001465 -17.401577l264.04224 0c1.6017151 0 2.9001465 -7.790951 2.9001465 -17.401577l0 0c0 9.610626 1.2984619 17.401577 2.9001465 17.401577l264.04227 0c1.6016846 0 2.9001465 7.790951 2.9001465 17.401577z" fill-rule="nonzero"></path><path fill="#000000" fill-opacity="0.0" d="m45.514816 68.60738l0 0c0 -9.610626 1.298439 -17.401577 2.9001465 -17.401577l264.04224 0c1.6017151 0 2.9001465 -7.790951 2.9001465 -17.401577l0 0c0 9.610626 1.2984619 17.401577 2.9001465 17.401577l264.04227 0c1.6016846 0 2.9001465 7.790951 2.9001465 17.401577" fill-rule="nonzero"></path><path stroke="#000000" stroke-width="1.0" stroke-linejoin="round" stroke-linecap="butt" d="m45.514816 68.60738l0 0c0 -9.610626 1.298439 -17.401577 2.9001465 -17.401577l264.04224 0c1.6017151 0 2.9001465 -7.790951 2.9001465 -17.401577l0 0c0 9.610626 1.2984619 17.401577 2.9001465 17.401577l264.04227 0c1.6016846 0 2.9001465 7.790951 2.9001465 17.401577" fill-rule="nonzero"></path><path fill="#000000" fill-opacity="0.0" d="m131.68427 0l367.37006 0l0 43.84252l-367.37006 0z" fill-rule="nonzero"></path><path fill="#000000" d="m276.5064 21.925q-1.5 0 -2.328125 -0.921875q-0.828125 -0.9375 -0.828125 -2.640625q0 -1.75 0.828125 -2.6875q0.84375 -0.953125 2.40625 -0.953125q0.5 0 1.0 0.109375q0.5 0.09375 0.78125 0.25l-0.3125 0.890625q-0.359375 -0.140625 -0.765625 -0.234375q-0.40625 -0.09375 -0.734375 -0.09375q-2.109375 0 -2.109375 2.703125q0 1.28125 0.515625 1.96875q0.515625 0.6875 1.53125 0.6875q0.859375 0 1.78125 -0.375l0 0.9375q-0.703125 0.359375 -1.765625 0.359375zm7.8451843 -0.125l-0.203125 -0.984375l-0.046875 0q-0.53125 0.640625 -1.046875 0.875q-0.515625 0.234375 -1.28125 0.234375q-1.046875 0 -1.640625 -0.53125q-0.578125 -0.53125 -0.578125 -1.515625q0 -2.109375 3.375 -2.203125l1.171875 -0.046875l0 -0.4375q0 -0.8125 -0.359375 -1.203125q-0.34375 -0.390625 -1.109375 -0.390625q-0.875 0 -1.96875 0.53125l-0.328125 -0.796875q0.515625 -0.28125 1.125 -0.4375q0.609375 -0.171875 1.234375 -0.171875q1.25 0 1.84375 0.5625q0.59375 0.546875 0.59375 1.765625l0 4.75l-0.78125 0zm-2.375 -0.75q0.984375 0 1.546875 -0.53125q0.5625 -0.546875 0.5625 -1.515625l0 -0.625l-1.0625 0.046875q-1.25 0.046875 -1.8125 0.390625q-0.546875 0.34375 -0.546875 1.078125q0 0.5625 0.34375 0.859375q0.34375 0.296875 0.96875 0.296875zm8.287476 0.875q-1.5 0 -2.328125 -0.921875q-0.828125 -0.9375 -0.828125 -2.640625q0 -1.75 0.828125 -2.6875q0.84375 -0.953125 2.40625 -0.953125q0.5 0 1.0 0.109375q0.5 0.09375 0.78125 0.25l-0.3125 0.890625q-0.359375 -0.140625 -0.765625 -0.234375q-0.40625 -0.09375 -0.734375 -0.09375q-2.109375 0 -2.109375 2.703125q0 1.28125 0.515625 1.96875q0.515625 0.6875 1.53125 0.6875q0.859375 0 1.78125 -0.375l0 0.9375q-0.703125 0.359375 -1.765625 0.359375zm8.329559 -0.125l0 -4.5q0 -0.84375 -0.390625 -1.265625q-0.375 -0.421875 -1.203125 -0.421875q-1.09375 0 -1.609375 0.59375q-0.5 0.59375 -0.5 1.953125l0 3.640625l-1.046875 0l0 -9.875l1.046875 0l0 2.984375q0 0.546875 -0.046875 0.890625l0.0625 0q0.3125 -0.5 0.875 -0.78125q0.578125 -0.296875 1.3125 -0.296875q1.28125 0 1.921875 0.609375q0.640625 0.609375 0.640625 1.9375l0 4.53125l-1.0625 0zm6.3678894 0.125q-1.546875 0 -2.4375 -0.9375q-0.890625 -0.9375 -0.890625 -2.609375q0 -1.6875 0.828125 -2.671875q0.828125 -0.984375 2.21875 -0.984375q1.3125 0 2.0625 0.859375q0.765625 0.859375 0.765625 2.265625l0 0.671875l-4.78125 0q0.03125 1.21875 0.609375 1.859375q0.59375 0.625 1.65625 0.625q1.125 0 2.21875 -0.46875l0 0.9375q-0.5625 0.25 -1.0625 0.34375q-0.484375 0.109375 -1.1875 0.109375zm-0.296875 -6.328125q-0.828125 0 -1.328125 0.546875q-0.5 0.546875 -0.59375 1.515625l3.640625 0q0 -1.0 -0.453125 -1.53125q-0.4375 -0.53125 -1.265625 -0.53125zm9.57132 5.265625l-0.0625 0q-0.734375 1.0625 -2.1875 1.0625q-1.359375 0 -2.125 -0.921875q-0.75 -0.9375 -0.75 -2.65625q0 -1.734375 0.75 -2.671875q0.765625 -0.953125 2.125 -0.953125q1.421875 0 2.171875 1.015625l0.078125 0l-0.03125 -0.5l-0.03125 -0.484375l0 -2.828125l1.046875 0l0 9.875l-0.84375 0l-0.140625 -0.9375zm-2.109375 0.1875q1.078125 0 1.5625 -0.59375q0.484375 -0.59375 0.484375 -1.890625l0 -0.21875q0 -1.484375 -0.5 -2.109375q-0.484375 -0.640625 -1.5625 -0.640625q-0.921875 0 -1.421875 0.71875q-0.484375 0.71875 -0.484375 2.03125q0 1.34375 0.484375 2.03125q0.484375 0.671875 1.4375 0.671875zm15.004578 -2.734375q0 1.703125 -0.859375 2.65625q-0.859375 0.953125 -2.375 0.953125q-0.921875 0 -1.65625 -0.4375q-0.71875 -0.4375 -1.109375 -1.25q-0.390625 -0.828125 -0.390625 -1.921875q0 -1.703125 0.84375 -2.640625q0.859375 -0.953125 2.359375 -0.953125q1.46875 0 2.328125 0.96875q0.859375 0.96875 0.859375 2.625zm-5.296875 0q0 1.328125 0.53125 2.03125q0.53125 0.703125 1.5625 0.703125q1.03125 0 1.5625 -0.6875q0.546875 -0.703125 0.546875 -2.046875q0 -1.328125 -0.546875 -2.015625q-0.53125 -0.6875 -1.578125 -0.6875q-1.03125 0 -1.5625 0.6875q-0.515625 0.671875 -0.515625 2.015625zm10.581482 -3.59375q1.359375 0 2.125 0.9375q0.765625 0.9375 0.765625 2.65625q0 1.71875 -0.765625 2.671875q-0.765625 0.9375 -2.125 0.9375q-0.6875 0 -1.25 -0.25q-0.5625 -0.25 -0.9375 -0.765625l-0.078125 0l-0.21875 0.890625l-0.75 0l0 -9.875l1.046875 0l0 2.390625q0 0.8125 -0.046875 1.453125l0.046875 0q0.734375 -1.046875 2.1875 -1.046875zm-0.15625 0.890625q-1.078125 0 -1.5625 0.625q-0.46875 0.609375 -0.46875 2.078125q0 1.46875 0.484375 2.109375q0.5 0.625 1.578125 0.625q0.96875 0 1.4375 -0.703125q0.484375 -0.71875 0.484375 -2.046875q0 -1.359375 -0.484375 -2.015625q-0.46875 -0.671875 -1.46875 -0.671875zm4.229889 9.3125q-0.59375 0 -0.96875 -0.15625l0 -0.859375q0.4375 0.125 0.859375 0.125q0.5 0 0.734375 -0.28125q0.234375 -0.265625 0.234375 -0.8125l0 -8.09375l1.046875 0l0 8.015625q0 2.0625 -1.90625 2.0625zm0.765625 -11.96875q0 -0.359375 0.171875 -0.53125q0.1875 -0.171875 0.453125 -0.171875q0.25 0 0.421875 0.171875q0.1875 0.171875 0.1875 0.53125q0 0.359375 -0.1875 0.53125q-0.171875 0.171875 -0.421875 0.171875q-0.265625 0 -0.453125 -0.171875q-0.171875 -0.171875 -0.171875 -0.53125zm6.4023438 8.96875q-1.546875 0 -2.4375 -0.9375q-0.890625 -0.9375 -0.890625 -2.609375q0 -1.6875 0.828125 -2.671875q0.828125 -0.984375 2.21875 -0.984375q1.3125 0 2.0625 0.859375q0.765625 0.859375 0.765625 2.265625l0 0.671875l-4.78125 0q0.03125 1.21875 0.609375 1.859375q0.59375 0.625 1.65625 0.625q1.125 0 2.21875 -0.46875l0 0.9375q-0.5625 0.25 -1.0625 0.34375q-0.484375 0.109375 -1.1875 0.109375zm-0.296875 -6.328125q-0.828125 0 -1.328125 0.546875q-0.5 0.546875 -0.59375 1.515625l3.640625 0q0 -1.0 -0.453125 -1.53125q-0.4375 -0.53125 -1.265625 -0.53125zm7.602539 6.328125q-1.5 0 -2.328125 -0.921875q-0.828125 -0.9375 -0.828125 -2.640625q0 -1.75 0.828125 -2.6875q0.84375 -0.953125 2.40625 -0.953125q0.5 0 1.0 0.109375q0.5 0.09375 0.78125 0.25l-0.3125 0.890625q-0.359375 -0.140625 -0.765625 -0.234375q-0.40625 -0.09375 -0.734375 -0.09375q-2.109375 0 -2.109375 2.703125q0 1.28125 0.515625 1.96875q0.515625 0.6875 1.53125 0.6875q0.859375 0 1.78125 -0.375l0 0.9375q-0.703125 0.359375 -1.765625 0.359375zm5.8139343 -0.875q0.28125 0 0.546875 -0.03125q0.265625 -0.046875 0.40625 -0.09375l0 0.8125q-0.171875 0.078125 -0.5 0.125q-0.328125 0.0625 -0.59375 0.0625q-2.03125 0 -2.03125 -2.125l0 -4.140625l-0.984375 0l0 -0.5l0.984375 -0.4375l0.453125 -1.484375l0.609375 0l0 1.609375l2.015625 0l0 0.8125l-2.015625 0l0 4.09375q0 0.625 0.296875 0.96875q0.296875 0.328125 0.8125 0.328125z" fill-rule="nonzero"></path><path fill="#000000" fill-opacity="0.0" d="m206.28925 218.36514l202.3937 0l0 34.803146l-202.3937 0z" fill-rule="nonzero"></path><path fill="#000000" d="m256.44077 240.16513l0 -9.28125l1.078125 0l0 9.28125l-1.078125 0zm6.6847534 -6.140625l-1.765625 0l0 6.140625l-1.0625 0l0 -6.140625l-1.234375 0l0 -0.46875l1.234375 -0.390625l0 -0.375q0 -2.578125 2.25 -2.578125q0.546875 0 1.296875 0.234375l-0.28125 0.84375q-0.609375 -0.203125 -1.03125 -0.203125q-0.609375 0 -0.890625 0.40625q-0.28125 0.390625 -0.28125 1.265625l0 0.453125l1.765625 0l0 0.8125zm0.797699 3.140625l0 -0.96875l3.125 0l0 0.96875l-3.125 0zm9.148071 3.0l-3.15625 -8.234375l-0.046875 0q0.078125 0.984375 0.078125 2.328125l0 5.90625l-0.984375 0l0 -9.28125l1.625 0l2.9375 7.65625l0.046875 0l2.96875 -7.65625l1.609375 0l0 9.28125l-1.078125 0l0 -5.984375q0 -1.03125 0.09375 -2.234375l-0.0625 0l-3.171875 8.21875l-0.859375 0zm13.767456 -3.484375q0 1.703125 -0.859375 2.65625q-0.859375 0.953125 -2.375 0.953125q-0.921875 0 -1.65625 -0.4375q-0.71875 -0.4375 -1.109375 -1.25q-0.390625 -0.828125 -0.390625 -1.921875q0 -1.703125 0.84375 -2.640625q0.859375 -0.953125 2.359375 -0.953125q1.46875 0 2.328125 0.96875q0.859375 0.96875 0.859375 2.625zm-5.296875 0q0 1.328125 0.53125 2.03125q0.53125 0.703125 1.5625 0.703125q1.03125 0 1.5625 -0.6875q0.546875 -0.703125 0.546875 -2.046875q0 -1.328125 -0.546875 -2.015625q-0.53125 -0.6875 -1.578125 -0.6875q-1.03125 0 -1.5625 0.6875q-0.515625 0.671875 -0.515625 2.015625zm12.081482 2.546875l-0.0625 0q-0.734375 1.0625 -2.1875 1.0625q-1.359375 0 -2.125 -0.921875q-0.75 -0.9375 -0.75 -2.65625q0 -1.734375 0.75 -2.671875q0.765625 -0.953125 2.125 -0.953125q1.421875 0 2.171875 1.015625l0.078125 0l-0.03125 -0.5l-0.03125 -0.484375l0 -2.828125l1.046875 0l0 9.875l-0.84375 0l-0.140625 -0.9375zm-2.109375 0.1875q1.078125 0 1.5625 -0.59375q0.484375 -0.59375 0.484375 -1.890625l0 -0.21875q0 -1.484375 -0.5 -2.109375q-0.484375 -0.640625 -1.5625 -0.640625q-0.921875 0 -1.421875 0.71875q-0.484375 0.71875 -0.484375 2.03125q0 1.34375 0.484375 2.03125q0.484375 0.671875 1.4375 0.671875zm6.589264 0.75l-1.046875 0l0 -6.953125l1.046875 0l0 6.953125zm-1.140625 -8.84375q0 -0.359375 0.171875 -0.53125q0.1875 -0.171875 0.453125 -0.171875q0.25 0 0.421875 0.171875q0.1875 0.171875 0.1875 0.53125q0 0.359375 -0.1875 0.53125q-0.171875 0.171875 -0.421875 0.171875q-0.265625 0 -0.453125 -0.171875q-0.171875 -0.171875 -0.171875 -0.53125zm6.5898438 2.703125l-1.765625 0l0 6.140625l-1.0625 0l0 -6.140625l-1.234375 0l0 -0.46875l1.234375 -0.390625l0 -0.375q0 -2.578125 2.25 -2.578125q0.546875 0 1.296875 0.234375l-0.28125 0.84375q-0.609375 -0.203125 -1.03125 -0.203125q-0.609375 0 -0.890625 0.40625q-0.28125 0.390625 -0.28125 1.265625l0 0.453125l1.765625 0l0 0.8125zm2.438324 6.140625l-1.046875 0l0 -6.953125l1.046875 0l0 6.953125zm-1.140625 -8.84375q0 -0.359375 0.171875 -0.53125q0.1875 -0.171875 0.453125 -0.171875q0.25 0 0.421875 0.171875q0.1875 0.171875 0.1875 0.53125q0 0.359375 -0.1875 0.53125q-0.171875 0.171875 -0.421875 0.171875q-0.265625 0 -0.453125 -0.171875q-0.171875 -0.171875 -0.171875 -0.53125zm6.4023438 8.96875q-1.546875 0 -2.4375 -0.9375q-0.890625 -0.9375 -0.890625 -2.609375q0 -1.6875 0.828125 -2.671875q0.828125 -0.984375 2.21875 -0.984375q1.3125 0 2.0625 0.859375q0.765625 0.859375 0.765625 2.265625l0 0.671875l-4.78125 0q0.03125 1.21875 0.609375 1.859375q0.59375 0.625 1.65625 0.625q1.125 0 2.21875 -0.46875l0 0.9375q-0.5625 0.25 -1.0625 0.34375q-0.484375 0.109375 -1.1875 0.109375zm-0.296875 -6.328125q-0.828125 0 -1.328125 0.546875q-0.5 0.546875 -0.59375 1.515625l3.640625 0q0 -1.0 -0.453125 -1.53125q-0.4375 -0.53125 -1.265625 -0.53125zm9.571289 5.265625l-0.0625 0q-0.734375 1.0625 -2.1875 1.0625q-1.359375 0 -2.125 -0.921875q-0.75 -0.9375 -0.75 -2.65625q0 -1.734375 0.75 -2.671875q0.765625 -0.953125 2.125 -0.953125q1.421875 0 2.171875 1.015625l0.078125 0l-0.03125 -0.5l-0.03125 -0.484375l0 -2.828125l1.046875 0l0 9.875l-0.84375 0l-0.140625 -0.9375zm-2.109375 0.1875q1.078125 0 1.5625 -0.59375q0.484375 -0.59375 0.484375 -1.890625l0 -0.21875q0 -1.484375 -0.5 -2.109375q-0.484375 -0.640625 -1.5625 -0.640625q-0.921875 0 -1.421875 0.71875q-0.484375 0.71875 -0.484375 2.03125q0 1.34375 0.484375 2.03125q0.484375 0.671875 1.4375 0.671875zm4.948639 -2.25l0 -0.96875l3.125 0l0 0.96875l-3.125 0zm10.273071 0.53125q0 1.21875 -0.890625 1.90625q-0.890625 0.6875 -2.40625 0.6875q-1.65625 0 -2.546875 -0.421875l0 -1.046875q0.578125 0.25 1.25 0.390625q0.671875 0.140625 1.328125 0.140625q1.078125 0 1.625 -0.40625q0.546875 -0.421875 0.546875 -1.15625q0 -0.46875 -0.203125 -0.78125q-0.1875 -0.3125 -0.640625 -0.5625q-0.453125 -0.265625 -1.375 -0.59375q-1.296875 -0.46875 -1.859375 -1.09375q-0.546875 -0.640625 -0.546875 -1.671875q0 -1.0625 0.796875 -1.6875q0.8125 -0.640625 2.140625 -0.640625q1.375 0 2.546875 0.5l-0.34375 0.9375q-1.140625 -0.484375 -2.234375 -0.484375q-0.859375 0 -1.34375 0.375q-0.46875 0.359375 -0.46875 1.015625q0 0.484375 0.171875 0.796875q0.171875 0.3125 0.59375 0.5625q0.421875 0.25 1.296875 0.5625q1.46875 0.53125 2.015625 1.125q0.546875 0.59375 0.546875 1.546875zm2.9710999 2.46875l-1.046875 0l0 -6.953125l1.046875 0l0 6.953125zm-1.140625 -8.84375q0 -0.359375 0.171875 -0.53125q0.1875 -0.171875 0.453125 -0.171875q0.25 0 0.421875 0.171875q0.1875 0.171875 0.1875 0.53125q0 0.359375 -0.1875 0.53125q-0.171875 0.171875 -0.421875 0.171875q-0.265625 0 -0.453125 -0.171875q-0.171875 -0.171875 -0.171875 -0.53125zm8.214844 8.84375l0 -4.5q0 -0.84375 -0.390625 -1.265625q-0.375 -0.421875 -1.203125 -0.421875q-1.09375 0 -1.609375 0.59375q-0.5 0.578125 -0.5 1.9375l0 3.65625l-1.046875 0l0 -6.953125l0.84375 0l0.171875 0.953125l0.0625 0q0.3125 -0.515625 0.890625 -0.796875q0.59375 -0.28125 1.3125 -0.28125q1.25 0 1.890625 0.609375q0.640625 0.59375 0.640625 1.9375l0 4.53125l-1.0625 0zm6.1960144 0.125q-1.5 0 -2.328125 -0.921875q-0.828125 -0.9375 -0.828125 -2.640625q0 -1.75 0.828125 -2.6875q0.84375 -0.953125 2.40625 -0.953125q0.5 0 1.0 0.109375q0.5 0.09375 0.78125 0.25l-0.3125 0.890625q-0.359375 -0.140625 -0.765625 -0.234375q-0.40625 -0.09375 -0.734375 -0.09375q-2.109375 0 -2.109375 2.703125q0 1.28125 0.515625 1.96875q0.515625 0.6875 1.53125 0.6875q0.859375 0 1.78125 -0.375l0 0.9375q-0.703125 0.359375 -1.765625 0.359375zm6.5170593 0q-1.546875 0 -2.4375 -0.9375q-0.890625 -0.9375 -0.890625 -2.609375q0 -1.6875 0.828125 -2.671875q0.828125 -0.984375 2.21875 -0.984375q1.3125 0 2.0625 0.859375q0.765625 0.859375 0.765625 2.265625l0 0.671875l-4.78125 0q0.03125 1.21875 0.609375 1.859375q0.59375 0.625 1.65625 0.625q1.125 0 2.21875 -0.46875l0 0.9375q-0.5625 0.25 -1.0625 0.34375q-0.484375 0.109375 -1.1875 0.109375zm-0.296875 -6.328125q-0.828125 0 -1.328125 0.546875q-0.5 0.546875 -0.59375 1.515625l3.640625 0q0 -1.0 -0.453125 -1.53125q-0.4375 -0.53125 -1.265625 -0.53125z" fill-rule="nonzero"></path><path fill="#000000" fill-opacity="0.0" d="m583.8834 185.29892l0 0c0 9.610626 -1.2984619 17.40158 -2.9001465 17.40158l-265.41232 0c-1.6017151 0 -2.9001465 7.7909546 -2.9001465 17.40158l0 0c0 -9.610626 -1.2984314 -17.40158 -2.9001465 -17.40158l-265.41232 0c-1.6017075 0 -2.9001465 -7.7909546 -2.9001465 -17.40158z" fill-rule="nonzero"></path><path fill="#000000" fill-opacity="0.0" d="m583.8834 185.29892l0 0c0 9.610626 -1.2984619 17.40158 -2.9001465 17.40158l-265.41232 0c-1.6017151 0 -2.9001465 7.7909546 -2.9001465 17.40158l0 0c0 -9.610626 -1.2984314 -17.40158 -2.9001465 -17.40158l-265.41232 0c-1.6017075 0 -2.9001465 -7.7909546 -2.9001465 -17.40158" fill-rule="nonzero"></path><path stroke="#000000" stroke-width="1.0" stroke-linejoin="round" stroke-linecap="butt" d="m583.8834 185.29892l0 0c0 9.610626 -1.2984619 17.40158 -2.9001465 17.40158l-265.41232 0c-1.6017151 0 -2.9001465 7.7909546 -2.9001465 17.40158l0 0c0 -9.610626 -1.2984314 -17.40158 -2.9001465 -17.40158l-265.41232 0c-1.6017075 0 -2.9001465 -7.7909546 -2.9001465 -17.40158" fill-rule="nonzero"></path><path fill="#000000" fill-opacity="0.0" d="m83.76827 164.97871l152.15747 0l0 61.133865l-152.15747 0z" fill-rule="nonzero"></path><path fill="#000000" d="m127.32099 180.63809l-1.765625 0l0 6.140625l-1.0625 0l0 -6.140625l-1.234375 0l0 -0.46875l1.234375 -0.390625l0 -0.375q0 -2.578125 2.25 -2.578125q0.546875 0 1.2968674 0.234375l-0.28124237 0.84375q-0.609375 -0.203125 -1.03125 -0.203125q-0.609375 0 -0.890625 0.40625q-0.28125 0.390625 -0.28125 1.265625l0 0.453125l1.765625 0l0 0.8125zm4.5633316 -0.9375q0.453125 0 0.828125 0.0625l-0.140625 0.984375q-0.4375 -0.09375 -0.765625 -0.09375q-0.84375 0 -1.453125 0.6875q-0.59375 0.6875 -0.59375 1.703125l0 3.734375l-1.046875 0l0 -6.953125l0.859375 0l0.125 1.28125l0.046875 0q0.390625 -0.671875 0.9375 -1.03125q0.546875 -0.375 1.203125 -0.375zm5.2062073 7.203125q-1.546875 0 -2.4375 -0.9375q-0.890625 -0.9375 -0.890625 -2.609375q0 -1.6875 0.828125 -2.671875q0.828125 -0.984375 2.21875 -0.984375q1.3125 0 2.0625 0.859375q0.765625 0.859375 0.765625 2.265625l0 0.671875l-4.78125 0q0.03125 1.21875 0.609375 1.859375q0.59375 0.625 1.65625 0.625q1.125 0 2.21875 -0.46875l0 0.9375q-0.5625 0.25 -1.0625 0.34375q-0.484375 0.109375 -1.1875 0.109375zm-0.296875 -6.328125q-0.828125 0 -1.328125 0.546875q-0.5 0.546875 -0.59375 1.515625l3.640625 0q0 -1.0 -0.453125 -1.53125q-0.4375 -0.53125 -1.265625 -0.53125zm9.321304 4.3125q0 0.96875 -0.734375 1.5q-0.71875 0.515625 -2.03125 0.515625q-1.375 0 -2.15625 -0.4375l0 -0.96875q0.5 0.25 1.078125 0.390625q0.578125 0.140625 1.109375 0.140625q0.828125 0 1.265625 -0.25q0.453125 -0.265625 0.453125 -0.8125q0 -0.40625 -0.359375 -0.6875q-0.34375 -0.296875 -1.375 -0.6875q-0.96875 -0.359375 -1.375 -0.625q-0.40625 -0.28125 -0.609375 -0.625q-0.203125 -0.34375 -0.203125 -0.8125q0 -0.84375 0.6875 -1.328125q0.703125 -0.5 1.90625 -0.5q1.125 0 2.1875 0.453125l-0.375 0.859375q-1.046875 -0.4375 -1.890625 -0.4375q-0.75 0 -1.140625 0.234375q-0.375 0.234375 -0.375 0.65625q0 0.265625 0.140625 0.46875q0.15625 0.203125 0.46875 0.375q0.3125 0.171875 1.21875 0.515625q1.234375 0.453125 1.671875 0.90625q0.4375 0.453125 0.4375 1.15625zm6.623825 1.890625l0 -4.5q0 -0.84375 -0.390625 -1.265625q-0.375 -0.421875 -1.203125 -0.421875q-1.09375 0 -1.609375 0.59375q-0.5 0.59375 -0.5 1.953125l0 3.640625l-1.046875 0l0 -9.875l1.046875 0l0 2.984375q0 0.546875 -0.046875 0.890625l0.0625 0q0.3125 -0.5 0.875 -0.78125q0.578125 -0.296875 1.3125 -0.296875q1.28125 0 1.921875 0.609375q0.640625 0.609375 0.640625 1.9375l0 4.53125l-1.0625 0zm12.892593 -3.484375q0 1.703125 -0.859375 2.65625q-0.859375 0.953125 -2.375 0.953125q-0.921875 0 -1.65625 -0.4375q-0.71875 -0.4375 -1.109375 -1.25q-0.390625 -0.828125 -0.390625 -1.921875q0 -1.703125 0.84375 -2.640625q0.859375 -0.953125 2.359375 -0.953125q1.46875 0 2.328125 0.96875q0.859375 0.96875 0.859375 2.625zm-5.296875 0q0 1.328125 0.53125 2.03125q0.53125 0.703125 1.5625 0.703125q1.03125 0 1.5625 -0.6875q0.546875 -0.703125 0.546875 -2.046875q0 -1.328125 -0.546875 -2.015625q-0.53125 -0.6875 -1.578125 -0.6875q-1.03125 0 -1.5625 0.6875q-0.515625 0.671875 -0.515625 2.015625zm10.581497 -3.59375q1.359375 0 2.125 0.9375q0.765625 0.9375 0.765625 2.65625q0 1.71875 -0.765625 2.671875q-0.765625 0.9375 -2.125 0.9375q-0.6875 0 -1.25 -0.25q-0.5625 -0.25 -0.9375 -0.765625l-0.078125 0l-0.21875 0.890625l-0.75 0l0 -9.875l1.046875 0l0 2.390625q0 0.8125 -0.046875 1.453125l0.046875 0q0.734375 -1.046875 2.1875 -1.046875zm-0.15625 0.890625q-1.078125 0 -1.5625 0.625q-0.46875 0.609375 -0.46875 2.078125q0 1.46875 0.484375 2.109375q0.5 0.625 1.578125 0.625q0.96875 0 1.4375 -0.703125q0.484375 -0.71875 0.484375 -2.046875q0 -1.359375 -0.484375 -2.015625q-0.46875 -0.671875 -1.46875 -0.671875zm4.229889 9.3125q-0.59375 0 -0.96875 -0.15625l0 -0.859375q0.4375 0.125 0.859375 0.125q0.5 0 0.734375 -0.28125q0.234375 -0.265625 0.234375 -0.8125l0 -8.09375l1.046875 0l0 8.015625q0 2.0625 -1.90625 2.0625zm0.765625 -11.96875q0 -0.359375 0.171875 -0.53125q0.1875 -0.171875 0.453125 -0.171875q0.25 0 0.421875 0.171875q0.1875 0.171875 0.1875 0.53125q0 0.359375 -0.1875 0.53125q-0.171875 0.171875 -0.421875 0.171875q-0.265625 0 -0.453125 -0.171875q-0.171875 -0.171875 -0.171875 -0.53125zm6.4023285 8.96875q-1.546875 0 -2.4375 -0.9375q-0.890625 -0.9375 -0.890625 -2.609375q0 -1.6875 0.828125 -2.671875q0.828125 -0.984375 2.21875 -0.984375q1.3125 0 2.0625 0.859375q0.765625 0.859375 0.765625 2.265625l0 0.671875l-4.78125 0q0.03125 1.21875 0.609375 1.859375q0.59375 0.625 1.65625 0.625q1.125 0 2.21875 -0.46875l0 0.9375q-0.5625 0.25 -1.0625 0.34375q-0.484375 0.109375 -1.1875 0.109375zm-0.296875 -6.328125q-0.828125 0 -1.328125 0.546875q-0.5 0.546875 -0.59375 1.515625l3.640625 0q0 -1.0 -0.453125 -1.53125q-0.4375 -0.53125 -1.265625 -0.53125zm7.6025543 6.328125q-1.5 0 -2.328125 -0.921875q-0.828125 -0.9375 -0.828125 -2.640625q0 -1.75 0.828125 -2.6875q0.84375 -0.953125 2.40625 -0.953125q0.5 0 1.0 0.109375q0.5 0.09375 0.78125 0.25l-0.3125 0.890625q-0.359375 -0.140625 -0.765625 -0.234375q-0.40625 -0.09375 -0.734375 -0.09375q-2.109375 0 -2.109375 2.703125q0 1.28125 0.515625 1.96875q0.515625 0.6875 1.53125 0.6875q0.859375 0 1.78125 -0.375l0 0.9375q-0.703125 0.359375 -1.765625 0.359375zm5.8139343 -0.875q0.28125 0 0.546875 -0.03125q0.265625 -0.046875 0.40625 -0.09375l0 0.8125q-0.171875 0.078125 -0.5 0.125q-0.328125 0.0625 -0.59375 0.0625q-2.03125 0 -2.03125 -2.125l0 -4.140625l-0.984375 0l0 -0.5l0.984375 -0.4375l0.453125 -1.484375l0.609375 0l0 1.609375l2.015625 0l0 0.8125l-2.015625 0l0 4.09375q0 0.625 0.296875 0.96875q0.296875 0.328125 0.8125 0.328125z" fill-rule="nonzero"></path><path fill="#000000" fill-opacity="0.0" d="m268.38483 133.88002l0 0c0 10.010696 -1.3525085 18.125977 -3.020874 18.125977l-106.477936 0c-1.668396 0 -3.020874 8.11528 -3.020874 18.125977l0 0c0 -10.010696 -1.3524933 -18.125977 -3.0208893 -18.125977l-106.47793 0c-1.6683846 0 -3.0208778 -8.11528 -3.0208778 -18.125977z" fill-rule="nonzero"></path><path fill="#000000" fill-opacity="0.0" d="m268.38483 133.88002l0 0c0 10.010696 -1.3525085 18.125977 -3.020874 18.125977l-106.477936 0c-1.668396 0 -3.020874 8.11528 -3.020874 18.125977l0 0c0 -10.010696 -1.3524933 -18.125977 -3.0208893 -18.125977l-106.47793 0c-1.6683846 0 -3.0208778 -8.11528 -3.0208778 -18.125977" fill-rule="nonzero"></path><path stroke="#000000" stroke-width="1.0" stroke-linejoin="round" stroke-linecap="butt" d="m268.38483 133.88002l0 0c0 10.010696 -1.3525085 18.125977 -3.020874 18.125977l-106.477936 0c-1.668396 0 -3.020874 8.11528 -3.020874 18.125977l0 0c0 -10.010696 -1.3524933 -18.125977 -3.0208893 -18.125977l-106.47793 0c-1.6683846 0 -3.0208778 -8.11528 -3.0208778 -18.125977" fill-rule="nonzero"></path></g></svg>

