<?xml version="1.0" standalone="yes"?>

<svg version="1.1" viewBox="0.0 0.0 1494.0 438.26509186351706" fill="none" stroke="none" stroke-linecap="square" stroke-miterlimit="10" xmlns="http://www.w3.org/2000/svg" xmlns:xlink="http://www.w3.org/1999/xlink"><clipPath id="p.0"><path d="m0 0l1494.0 0l0 438.2651l-1494.0 0l0 -438.2651z" clip-rule="nonzero"></path></clipPath><g clip-path="url(#p.0)"><path fill="#000000" fill-opacity="0.0" d="m0 0l1494.0 0l0 438.2651l-1494.0 0z" fill-rule="nonzero"></path><path fill="#000000" fill-opacity="0.0" d="m83.538055 197.40683l1390.4567 0" fill-rule="nonzero"></path><path stroke="#000000" stroke-width="2.0" stroke-linejoin="round" stroke-linecap="butt" d="m83.538055 197.40683l1378.4567 0" fill-rule="evenodd"></path><path fill="#000000" stroke="#000000" stroke-width="2.0" stroke-linecap="butt" d="m1461.9948 200.7103l9.076172 -3.3034668l-9.076172 -3.3034668z" fill-rule="evenodd"></path><path fill="#000000" fill-opacity="0.0" d="m83.538055 176.17848l0 42.456696" fill-rule="nonzero"></path><path stroke="#000000" stroke-width="2.0" stroke-linejoin="round" stroke-linecap="butt" d="m83.538055 176.17848l0 42.456696" fill-rule="nonzero"></path><path fill="#000000" fill-opacity="0.0" d="m176.09186 97.8399l461.57483 0l0 53.85827l-461.57483 0z" fill-rule="nonzero"></path><path fill="#000000" fill-opacity="0.0" d="m-1.8031496 108.25722l214.77165 0l0 67.93701l-214.77165 0z" fill-rule="nonzero"></path><path fill="#000000" d="m15.837476 138.73534l8.906249 0q0.578125 0 0.828125 0.234375q0.265625 0.234375 0.265625 0.609375q0 0.359375 -0.265625 0.59375q-0.25 0.234375 -0.828125 0.234375l-8.906249 0l0 10.90625q0 1.4375 1.140624 2.390625q1.140625 0.953125 3.34375 0.953125q1.65625 0 3.59375 -0.5q1.9375 -0.5 3.015625 -1.125q0.390625 -0.25 0.640625 -0.25q0.3125 0 0.546875 0.25q0.234375 0.234375 0.234375 0.578125q0 0.28125 -0.25 0.546875q-0.625 0.640625 -3.046875 1.390625q-2.40625 0.75 -4.609375 0.75q-2.875 0 -4.578124 -1.34375q-1.703125 -1.34375 -1.703125 -3.640625l0 -10.90625l-3.015625 0q-0.59375 0 -0.84375 -0.234375q-0.25 -0.234375 -0.25 -0.609375q0 -0.359375 0.25 -0.59375q0.25 -0.234375 0.84375 -0.234375l3.015625 0l0 -4.84375q0 -0.578125 0.234375 -0.828125q0.234375 -0.265625 0.59375 -0.265625q0.375 0 0.609375 0.265625q0.234375 0.25 0.234375 0.828125l0 4.84375zm38.26953 27.875l-21.8125 0q-0.578125 0 -0.84375 -0.21875q-0.25 -0.21875 -0.25 -0.59375q0 -0.375 0.25 -0.609375q0.265625 -0.21875 0.84375 -0.21875l21.8125 0q0.609375 0 0.84375 0.21875q0.25 0.234375 0.25 0.609375q0 0.375 -0.25 0.59375q-0.234375 0.21875 -0.84375 0.21875zm22.269535 -19.375q0 3.75 -2.6875 6.40625q-2.6875 2.65625 -6.46875 2.65625q-3.8281288 0 -6.515629 -2.65625q-2.671875 -2.671875 -2.671875 -6.40625q0 -3.75 2.671875 -6.40625q2.6875 -2.671875 6.515629 -2.671875q3.78125 0 6.46875 2.65625q2.6875 2.65625 2.6875 6.421875zm-1.65625 0q0 -3.078125 -2.203125 -5.25q-2.1875 -2.171875 -5.3125 -2.171875q-3.125 0 -5.328129 2.1875q-2.203125 2.171875 -2.203125 5.234375q0 3.046875 2.203125 5.234375q2.2031288 2.1875 5.328129 2.1875q3.125 0 5.3125 -2.171875q2.203125 -2.1875 2.203125 -5.25zm14.535156 -8.5l0 4.140625q3.203125 -2.890625 4.78125 -3.71875q1.59375 -0.828125 2.953125 -0.828125q1.453125 0 2.71875 0.984375q1.265625 0.984375 1.265625 1.5q0 0.375 -0.25 0.625q-0.25 0.234375 -0.609375 0.234375q-0.203125 0 -0.34375 -0.0625q-0.125 -0.078125 -0.5 -0.453125q-0.6875 -0.671875 -1.203125 -0.921875q-0.5 -0.265625 -0.984375 -0.265625q-1.078125 0 -2.59375 0.859375q-1.515625 0.859375 -5.234375 4.203125l0 8.984375l7.265625 0q0.59375 0 0.84375 0.234375q0.265625 0.21875 0.265625 0.578125q0 0.359375 -0.265625 0.59375q-0.25 0.234375 -0.84375 0.234375l-12.875 0q-0.59375 0 -0.84375 -0.21875q-0.25 -0.234375 -0.25 -0.578125q0 -0.34375 0.234375 -0.5625q0.25 -0.21875 0.859375 -0.21875l3.96875 0l0 -13.671875l-3.03125 0q-0.59375 0 -0.84375 -0.234375q-0.25 -0.234375 -0.25 -0.609375q0 -0.359375 0.234375 -0.59375q0.25 -0.234375 0.859375 -0.234375l4.671875 0zm26.769531 -8.40625l0 4.234375l-2.421875 0l0 -4.234375l2.421875 0zm0.0625 8.40625l0 15.28125l6.4375 0q0.609375 0 0.859375 0.234375q0.265625 0.21875 0.265625 0.578125q0 0.359375 -0.265625 0.59375q-0.25 0.234375 -0.859375 0.234375l-14.53125 0q-0.578125 0 -0.84375 -0.234375q-0.25 -0.234375 -0.25 -0.59375q0 -0.359375 0.25 -0.578125q0.265625 -0.234375 0.84375 -0.234375l6.453125 0l0 -13.609375l-4.78125 0q-0.59375 0 -0.859375 -0.234375q-0.265625 -0.234375 -0.265625 -0.59375q0 -0.375 0.25 -0.609375q0.265625 -0.234375 0.875 -0.234375l6.421875 0zm28.644531 3.015625l0 -3.015625l3.859375 0q0.578125 0 0.828125 0.234375q0.265625 0.234375 0.265625 0.609375q0 0.359375 -0.265625 0.59375q-0.25 0.234375 -0.828125 0.234375l-2.21875 0l0 16.390625q0 1.640625 -0.703125 2.921875q-0.46875 0.859375 -1.5625 1.78125q-1.09375 0.921875 -2.0 1.3125q-0.890625 0.390625 -2.390625 0.390625l-4.640625 0q-0.59375 0 -0.84375 -0.234375q-0.25 -0.21875 -0.25 -0.59375q0 -0.375 0.25 -0.609375q0.25 -0.234375 0.84375 -0.234375l4.703125 0.03125q1.4375 0 2.59375 -0.75q1.171875 -0.734375 1.9375 -2.171875q0.421875 -0.8125 0.421875 -2.078125l0 -4.9375q-2.625 3.625 -6.796875 3.625q-3.375 0 -5.828125 -2.515625q-2.453125 -2.515625 -2.453125 -6.046875q0 -3.53125 2.453125 -6.03125q2.453125 -2.5 5.828125 -2.5q4.171875 0 6.796875 3.59375zm0 4.9375q0 -2.890625 -1.984375 -4.875q-1.96875 -2.0 -4.734375 -2.0q-2.75 0 -4.71875 2.0q-1.96875 2.0 -1.96875 4.875q0 2.890625 1.96875 4.890625q1.96875 2.0 4.71875 2.0q2.765625 0 4.734375 -2.0q1.984375 -2.0 1.984375 -4.890625zm19.300781 -16.359375l0 4.234375l-2.421875 0l0 -4.234375l2.421875 0zm0.0625 8.40625l0 15.28125l6.4375 0q0.609375 0 0.859375 0.234375q0.265625 0.21875 0.265625 0.578125q0 0.359375 -0.265625 0.59375q-0.25 0.234375 -0.859375 0.234375l-14.53125 0q-0.578125 0 -0.84375 -0.234375q-0.25 -0.234375 -0.25 -0.59375q0 -0.359375 0.25 -0.578125q0.265625 -0.234375 0.84375 -0.234375l6.453125 0l0 -13.609375l-4.78125 0q-0.59375 0 -0.859375 -0.234375q-0.265625 -0.234375 -0.265625 -0.59375q0 -0.375 0.25 -0.609375q0.265625 -0.234375 0.875 -0.234375l6.421875 0zm17.832031 0l0 2.484375q1.71875 -1.734375 3.09375 -2.390625q1.390625 -0.671875 3.140625 -0.671875q1.875 0 3.40625 0.796875q1.09375 0.59375 1.984375 1.953125q0.890625 1.34375 0.890625 2.78125l0 10.328125l1.390625 0q0.578125 0 0.828125 0.234375q0.265625 0.21875 0.265625 0.578125q0 0.359375 -0.265625 0.59375q-0.25 0.234375 -0.828125 0.234375l-4.390625 0q-0.609375 0 -0.875 -0.234375q-0.25 -0.234375 -0.25 -0.59375q0 -0.359375 0.25 -0.578125q0.265625 -0.234375 0.875 -0.234375l1.359375 0l0 -10.0625q0 -1.734375 -1.265625 -2.9375q-1.265625 -1.203125 -3.40625 -1.203125q-1.609375 0 -2.8125 0.65625q-1.1875 0.65625 -3.390625 3.25l0 10.296875l1.859375 0q0.578125 0 0.828125 0.234375q0.265625 0.21875 0.265625 0.578125q0 0.359375 -0.265625 0.59375q-0.25 0.234375 -0.828125 0.234375l-5.359375 0q-0.578125 0 -0.84375 -0.234375q-0.25 -0.234375 -0.25 -0.59375q0 -0.359375 0.25 -0.578125q0.265625 -0.234375 0.84375 -0.234375l1.859375 0l0 -13.609375l-1.390625 0q-0.578125 0 -0.84375 -0.234375q-0.25 -0.234375 -0.25 -0.609375q0 -0.359375 0.25 -0.59375q0.265625 -0.234375 0.84375 -0.234375l3.03125 0z" fill-rule="nonzero"></path><path fill="#000000" fill-opacity="0.0" d="m1345.685 197.40683l188.31494 0l0 93.76376l-188.31494 0z" fill-rule="nonzero"></path><path fill="#000000" d="m1362.4038 242.52557q1.078125 0 2.8125 -0.515625l0 2.515625q-0.671875 0.28125 -1.65625 0.46875q-0.96875 0.203125 -1.546875 0.203125q-2.4375 0 -3.75 -1.15625q-1.296875 -1.171875 -1.296875 -3.46875q0 -1.296875 0.359375 -2.9375l2.484375 -11.75l-3.359375 0l0.265625 -1.4375l3.609375 -1.515625l2.453125 -4.453125l1.90625 0l-1.078125 4.921875l5.359375 0l-0.515625 2.484375l-5.328125 0l-2.515625 11.796875q-0.359375 1.6875 -0.359375 2.578125q0 1.09375 0.5625 1.6875q0.578125 0.578125 1.59375 0.578125zm9.6875 2.28125l-3.28125 0l4.5625 -21.40625l3.28125 0l-4.5625 21.40625zm2.203125 -26.875q0 -1.09375 0.625 -1.78125q0.625 -0.703125 1.625 -0.703125q1.71875 0 1.71875 1.765625q0 1.0625 -0.65625 1.8125q-0.65625 0.734375 -1.515625 0.734375q-0.78125 0 -1.296875 -0.46875q-0.5 -0.484375 -0.5 -1.359375zm17.109375 26.875l2.890625 -13.515625q0.359375 -1.84375 0.359375 -2.640625q0 -1.359375 -0.609375 -2.125q-0.609375 -0.765625 -2.078125 -0.765625q-1.640625 0 -3.1875 1.171875q-1.546875 1.171875 -2.734375 3.359375q-1.1875 2.171875 -1.828125 5.234375l-1.96875 9.28125l-3.28125 0l4.5625 -21.40625l2.71875 0l-0.421875 3.96875l0.1875 0q1.703125 -2.328125 3.390625 -3.34375q1.6875 -1.015625 3.484375 -1.015625q2.203125 0 3.390625 1.265625q1.203125 1.265625 1.421875 3.53125l0.15625 0q1.671875 -2.4375 3.5625 -3.609375q1.90625 -1.1875 3.828125 -1.1875q2.484375 0 3.84375 1.328125q1.359375 1.328125 1.359375 3.859375q0 1.328125 -0.4375 3.484375l-2.8125 13.125l-3.3125 0l2.890625 -13.515625q0.390625 -2.03125 0.390625 -2.859375q0 -1.203125 -0.671875 -1.9375q-0.671875 -0.734375 -2.125 -0.734375q-1.578125 0 -3.125 1.140625q-1.546875 1.125 -2.703125 3.203125q-1.15625 2.078125 -1.765625 4.9375l-2.09375 9.765625l-3.28125 0zm30.898438 0.390625q-3.59375 0 -5.640625 -2.125q-2.046875 -2.140625 -2.046875 -5.90625q0 -3.671875 1.453125 -7.03125q1.453125 -3.375 3.84375 -5.25q2.40625 -1.875 5.296875 -1.875q3.0 0 4.5 1.296875q1.5 1.296875 1.5 3.625q0 3.515625 -3.25 5.515625q-3.234375 2.0 -9.265625 2.0l-0.640625 0l-0.078125 1.5625q0 2.5625 1.1875 4.0q1.203125 1.4375 3.734375 1.4375q1.21875 0 2.515625 -0.34375q1.3125 -0.359375 3.234375 -1.296875l0 2.84375q-1.828125 0.859375 -3.234375 1.203125q-1.40625 0.34375 -3.109375 0.34375zm2.71875 -19.390625q-2.015625 0 -3.78125 1.84375q-1.765625 1.828125 -2.703125 5.078125l0.234375 0q4.453125 0 6.828125 -1.15625q2.375 -1.15625 2.375 -3.375q0 -1.03125 -0.71875 -1.703125q-0.71875 -0.6875 -2.234375 -0.6875z" fill-rule="nonzero"></path><path fill="#000000" fill-opacity="0.0" d="m531.07086 176.17848l0 42.456696" fill-rule="nonzero"></path><path stroke="#000000" stroke-width="2.0" stroke-linejoin="round" stroke-linecap="butt" d="m531.07086 176.17848l0 42.456696" fill-rule="nonzero"></path><path fill="#000000" fill-opacity="0.0" d="m913.24994 176.17848l0 42.456696" fill-rule="nonzero"></path><path stroke="#000000" stroke-width="2.0" stroke-linejoin="round" stroke-linecap="butt" d="m913.24994 176.17848l0 42.456696" fill-rule="nonzero"></path><path fill="#000000" fill-opacity="0.0" d="m1156.6066 177.28564l0 42.45668" fill-rule="nonzero"></path><path stroke="#000000" stroke-width="2.0" stroke-linejoin="round" stroke-linecap="butt" d="m1156.6066 177.28564l0 42.45668" fill-rule="nonzero"></path><path fill="#000000" fill-opacity="0.0" d="m497.82678 108.25722l126.236206 0l0 67.93701l-126.236206 0z" fill-rule="nonzero"></path><path fill="#000000" d="m519.6393 134.43846l0 19.578125l4.265625 0q0.578125 0 0.828125 0.234375q0.265625 0.21875 0.265625 0.578125q0 0.359375 -0.265625 0.59375q-0.25 0.234375 -0.828125 0.234375l-10.1875 0q-0.578125 0 -0.84375 -0.234375q-0.25 -0.234375 -0.25 -0.59375q0 -0.359375 0.25 -0.578125q0.265625 -0.234375 0.84375 -0.234375l4.265625 0l0 -19.578125l-6.71875 0l0 5.6875q0 0.609375 -0.234375 0.859375q-0.21875 0.25 -0.59375 0.25q-0.34375 0 -0.578125 -0.25q-0.234375 -0.25 -0.234375 -0.859375l0 -7.328125l18.375 0l0 7.328125q0 0.609375 -0.234375 0.859375q-0.21875 0.25 -0.578125 0.25q-0.375 0 -0.609375 -0.25q-0.21875 -0.25 -0.21875 -0.859375l0 -5.6875l-6.71875 0zm24.003906 0l0 19.578125l4.265625 0q0.578125 0 0.828125 0.234375q0.265625 0.21875 0.265625 0.578125q0 0.359375 -0.265625 0.59375q-0.25 0.234375 -0.828125 0.234375l-10.1875 0q-0.578125 0 -0.84375 -0.234375q-0.25 -0.234375 -0.25 -0.59375q0 -0.359375 0.25 -0.578125q0.265625 -0.234375 0.84375 -0.234375l4.265625 0l0 -19.578125l-6.71875 0l0 5.6875q0 0.609375 -0.234375 0.859375q-0.21875 0.25 -0.59375 0.25q-0.34375 0 -0.578125 -0.25q-0.234375 -0.25 -0.234375 -0.859375l0 -7.328125l18.375 0l0 7.328125q0 0.609375 -0.234375 0.859375q-0.21875 0.25 -0.578125 0.25q-0.375 0 -0.609375 -0.25q-0.21875 -0.25 -0.21875 -0.859375l0 -5.6875l-6.71875 0zm20.347656 0l0 19.578125l10.90625 0l0 -6.53125q0 -0.578125 0.234375 -0.828125q0.234375 -0.265625 0.609375 -0.265625q0.34375 0 0.578125 0.25q0.234375 0.25 0.234375 0.84375l0 8.171875l-18.125 0q-0.578125 0 -0.84375 -0.234375q-0.25 -0.234375 -0.25 -0.59375q0 -0.359375 0.25 -0.578125q0.265625 -0.234375 0.84375 -0.234375l3.90625 0l0 -19.578125l-3.90625 0q-0.578125 0 -0.84375 -0.21875q-0.25 -0.21875 -0.25 -0.59375q0 -0.375 0.25 -0.59375q0.265625 -0.234375 0.84375 -0.234375l9.46875 0q0.59375 0 0.84375 0.234375q0.25 0.21875 0.25 0.59375q0 0.375 -0.25 0.59375q-0.25 0.21875 -0.84375 0.21875l-3.90625 0z" fill-rule="nonzero"></path><path fill="#000000" fill-opacity="0.0" d="m838.9633 108.25722l188.315 0l0 67.93701l-188.315 0z" fill-rule="nonzero"></path><path fill="#000000" d="m865.47894 141.75096l0 -3.015625l3.859375 0q0.578125 0 0.828125 0.234375q0.265625 0.234375 0.265625 0.609375q0 0.359375 -0.265625 0.59375q-0.25 0.234375 -0.828125 0.234375l-2.21875 0l0 16.390625q0 1.640625 -0.703125 2.921875q-0.46875 0.859375 -1.5625 1.78125q-1.09375 0.921875 -2.0 1.3125q-0.890625 0.390625 -2.390625 0.390625l-4.640625 0q-0.59375 0 -0.84375 -0.234375q-0.25 -0.21875 -0.25 -0.59375q0 -0.375 0.25 -0.609375q0.25 -0.234375 0.84375 -0.234375l4.703125 0.03125q1.4375 0 2.59375 -0.75q1.171875 -0.734375 1.9375 -2.171875q0.421875 -0.8125 0.421875 -2.078125l0 -4.9375q-2.625 3.625 -6.796875 3.625q-3.375 0 -5.828125 -2.515625q-2.453125 -2.515625 -2.453125 -6.046875q0 -3.53125 2.453125 -6.03125q2.453125 -2.5 5.828125 -2.5q4.171875 0 6.796875 3.59375zm0 4.9375q0 -2.890625 -1.984375 -4.875q-1.96875 -2.0 -4.734375 -2.0q-2.75 0 -4.71875 2.0q-1.96875 2.0 -1.96875 4.875q0 2.890625 1.96875 4.890625q1.96875 2.0 4.71875 2.0q2.765625 0 4.734375 -2.0q1.984375 -2.0 1.984375 -4.890625zm16.535156 -7.953125l0 4.140625q3.203125 -2.890625 4.78125 -3.71875q1.59375 -0.828125 2.953125 -0.828125q1.453125 0 2.71875 0.984375q1.265625 0.984375 1.265625 1.5q0 0.375 -0.25 0.625q-0.25 0.234375 -0.609375 0.234375q-0.203125 0 -0.34375 -0.0625q-0.125 -0.078125 -0.5 -0.453125q-0.6875 -0.671875 -1.203125 -0.921875q-0.5 -0.265625 -0.984375 -0.265625q-1.078125 0 -2.59375 0.859375q-1.515625 0.859375 -5.234375 4.203125l0 8.984375l7.265625 0q0.59375 0 0.84375 0.234375q0.265625 0.21875 0.265625 0.578125q0 0.359375 -0.265625 0.59375q-0.25 0.234375 -0.84375 0.234375l-12.875 0q-0.59375 0 -0.84375 -0.21875q-0.25 -0.234375 -0.25 -0.578125q0 -0.34375 0.234375 -0.5625q0.25 -0.21875 0.859375 -0.21875l3.96875 0l0 -13.671875l-3.03125 0q-0.59375 0 -0.84375 -0.234375q-0.25 -0.234375 -0.25 -0.609375q0 -0.359375 0.234375 -0.59375q0.25 -0.234375 0.859375 -0.234375l4.671875 0zm30.675781 16.921875l0 -2.359375q-3.578125 3.0 -7.640625 3.0q-2.9375 0 -4.609375 -1.484375q-1.65625 -1.5 -1.65625 -3.671875q0 -2.375 2.1875 -4.15625q2.1875 -1.78125 6.390625 -1.78125q1.125 0 2.453125 0.15625q1.328125 0.140625 2.875 0.453125l0 -2.65625q0 -1.34375 -1.25 -2.34375q-1.25 -1.0 -3.75 -1.0q-1.90625 0 -5.375 1.109375q-0.625 0.203125 -0.796875 0.203125q-0.3125 0 -0.546875 -0.234375q-0.21875 -0.234375 -0.21875 -0.59375q0 -0.328125 0.203125 -0.515625q0.265625 -0.296875 2.203125 -0.8125q3.046875 -0.8125 4.609375 -0.8125q3.109375 0 4.84375 1.53125q1.734375 1.53125 1.734375 3.46875l0 10.859375l2.1875 0q0.609375 0 0.859375 0.234375q0.265625 0.21875 0.265625 0.578125q0 0.359375 -0.265625 0.59375q-0.25 0.234375 -0.859375 0.234375l-3.84375 0zm0 -8.171875q-1.15625 -0.328125 -2.453125 -0.484375q-1.28125 -0.15625 -2.703125 -0.15625q-3.578125 0 -5.578125 1.546875q-1.53125 1.15625 -1.53125 2.75q0 1.484375 1.15625 2.5q1.171875 1.015625 3.390625 1.015625q2.140625 0 3.953125 -0.84375q1.828125 -0.859375 3.765625 -2.703125l0 -3.625zm26.128906 -7.078125l0 -0.546875q0 -0.609375 0.234375 -0.859375q0.234375 -0.265625 0.59375 -0.265625q0.375 0 0.609375 0.265625q0.234375 0.25 0.234375 0.859375l0 3.703125q-0.03125 0.609375 -0.25 0.859375q-0.21875 0.25 -0.59375 0.25q-0.328125 0 -0.5625 -0.21875q-0.21875 -0.21875 -0.265625 -0.75q-0.109375 -1.390625 -1.828125 -2.640625q-1.703125 -1.25 -4.59375 -1.25q-3.65625 0 -5.546875 2.296875q-1.890625 2.28125 -1.890625 5.21875q0 3.1875 2.078125 5.265625q2.09375 2.0625 5.421875 2.0625q1.90625 0 3.890625 -0.703125q1.984375 -0.703125 3.59375 -2.265625q0.40625 -0.390625 0.71875 -0.390625q0.328125 0 0.546875 0.234375q0.234375 0.21875 0.234375 0.546875q0 0.84375 -1.96875 2.125q-3.1875 2.09375 -7.09375 2.09375q-3.96875 0 -6.515625 -2.53125q-2.546875 -2.53125 -2.546875 -6.40625q0 -3.96875 2.609375 -6.578125q2.609375 -2.625 6.5625 -2.625q3.78125 0 6.328125 2.25zm26.035156 7.1875l-16.71875 0q0.4375 3.171875 2.671875 5.125q2.234375 1.9375 5.53125 1.9375q1.84375 0 3.84375 -0.59375q2.015625 -0.609375 3.296875 -1.609375q0.359375 -0.296875 0.640625 -0.296875q0.3125 0 0.546875 0.25q0.234375 0.234375 0.234375 0.578125q0 0.328125 -0.3125 0.640625q-0.9375 0.96875 -3.328125 1.828125q-2.390625 0.84375 -4.921875 0.84375q-4.21875 0 -7.046875 -2.765625q-2.8125 -2.765625 -2.8125 -6.6875q0 -3.578125 2.640625 -6.125q2.65625 -2.5625 6.5625 -2.5625q4.015625 0 6.609375 2.625q2.609375 2.625 2.5625 6.8125zm-1.65625 -1.671875q-0.484375 -2.703125 -2.5625 -4.40625q-2.078125 -1.703125 -4.953125 -1.703125q-2.875 0 -4.953125 1.6875q-2.0625 1.671875 -2.5625 4.421875l15.03125 0z" fill-rule="nonzero"></path><path fill="#000000" fill-opacity="0.0" d="m1101.5016 109.36439l126.20471 0l0 67.937004l-126.20471 0z" fill-rule="nonzero"></path><path fill="#000000" d="m1119.1735 149.45189l0 7.3125l-3.84375 0q-0.59375 0 -0.84375 -0.234375q-0.25 -0.234375 -0.25 -0.59375q0 -0.359375 0.25 -0.578125q0.25 -0.234375 0.84375 -0.234375l2.203125 0l0 -21.21875l-2.203125 0q-0.59375 0 -0.84375 -0.234375q-0.25 -0.234375 -0.25 -0.59375q0 -0.359375 0.25 -0.59375q0.25 -0.234375 0.84375 -0.234375l3.84375 0l0 15.125l6.96875 -5.859375l-0.828125 0q-0.59375 0 -0.84375 -0.234375q-0.25 -0.234375 -0.25 -0.59375q0 -0.375 0.25 -0.609375q0.25 -0.234375 0.84375 -0.234375l5.25 0q0.609375 0 0.859375 0.234375q0.25 0.234375 0.25 0.609375q0 0.359375 -0.25 0.59375q-0.25 0.234375 -0.859375 0.234375l-1.890625 0l-6.40625 5.34375l8.09375 8.265625l1.90625 0q0.59375 0 0.84375 0.234375q0.265625 0.21875 0.265625 0.578125q0 0.359375 -0.265625 0.59375q-0.25 0.234375 -0.84375 0.234375l-5.3125 0q-0.59375 0 -0.84375 -0.234375q-0.25 -0.234375 -0.25 -0.59375q0 -0.359375 0.25 -0.578125q0.25 -0.234375 0.84375 -0.234375l1.140625 0l-7.046875 -7.25l-1.875 1.578125zm36.20703 -0.75l-16.71875 0q0.4375 3.171875 2.671875 5.125q2.234375 1.9375 5.53125 1.9375q1.84375 0 3.84375 -0.59375q2.015625 -0.609375 3.296875 -1.609375q0.359375 -0.296875 0.640625 -0.296875q0.3125 0 0.546875 0.25q0.234375 0.234375 0.234375 0.578125q0 0.328125 -0.3125 0.640625q-0.9375 0.96875 -3.328125 1.828125q-2.390625 0.84375 -4.921875 0.84375q-4.21875 0 -7.046875 -2.765625q-2.8125 -2.765625 -2.8125 -6.6875q0 -3.578125 2.640625 -6.125q2.65625 -2.5625 6.5625 -2.5625q4.015625 0 6.609375 2.625q2.609375 2.625 2.5625 6.8125zm-1.65625 -1.671875q-0.484375 -2.703125 -2.5625 -4.40625q-2.078125 -1.703125 -4.953125 -1.703125q-2.875 0 -4.953125 1.6875q-2.0625 1.671875 -2.5625 4.421875l15.03125 0zm25.660156 1.671875l-16.71875 0q0.4375 3.171875 2.671875 5.125q2.234375 1.9375 5.53125 1.9375q1.84375 0 3.84375 -0.59375q2.015625 -0.609375 3.296875 -1.609375q0.359375 -0.296875 0.640625 -0.296875q0.3125 0 0.546875 0.25q0.234375 0.234375 0.234375 0.578125q0 0.328125 -0.3125 0.640625q-0.9375 0.96875 -3.328125 1.828125q-2.390625 0.84375 -4.921875 0.84375q-4.21875 0 -7.046875 -2.765625q-2.8125 -2.765625 -2.8125 -6.6875q0 -3.578125 2.640625 -6.125q2.65625 -2.5625 6.5625 -2.5625q4.015625 0 6.609375 2.625q2.609375 2.625 2.5625 6.8125zm-1.65625 -1.671875q-0.484375 -2.703125 -2.5625 -4.40625q-2.078125 -1.703125 -4.953125 -1.703125q-2.875 0 -4.953125 1.6875q-2.0625 1.671875 -2.5625 4.421875l15.03125 0zm10.613281 -7.1875l0 3.0q1.453125 -1.78125 3.125 -2.671875q1.6875 -0.90625 3.984375 -0.90625q2.421875 0 4.46875 1.140625q2.046875 1.125 3.171875 3.15625q1.125 2.015625 1.125 4.234375q0 3.53125 -2.53125 6.046875q-2.53125 2.515625 -6.21875 2.515625q-4.390625 0 -7.125 -3.578125l0 9.890625l3.984375 0q0.578125 0 0.828125 0.21875q0.265625 0.21875 0.265625 0.59375q0 0.359375 -0.265625 0.59375q-0.25 0.234375 -0.828125 0.234375l-7.84375 0q-0.578125 0 -0.84375 -0.234375q-0.25 -0.21875 -0.25 -0.59375q0 -0.375 0.25 -0.59375q0.265625 -0.21875 0.84375 -0.21875l2.21875 0l0 -21.15625l-2.21875 0q-0.578125 0 -0.84375 -0.234375q-0.25 -0.234375 -0.25 -0.609375q0 -0.359375 0.25 -0.59375q0.265625 -0.234375 0.84375 -0.234375l3.859375 0zm14.21875 7.953125q0 -2.828125 -2.0625 -4.84375q-2.0625 -2.03125 -5.03125 -2.03125q-2.984375 0 -5.0625 2.03125q-2.0625 2.03125 -2.0625 4.84375q0 2.828125 2.0625 4.859375q2.078125 2.03125 5.0625 2.03125q2.953125 0 5.015625 -2.015625q2.078125 -2.015625 2.078125 -4.875z" fill-rule="nonzero"></path><path fill="#000000" fill-opacity="0.0" d="m572.9685 285.31235l301.22833 0l0 110.61417l-301.22833 0z" fill-rule="nonzero"></path><path fill="#000000" d="m634.43616 326.8686q0 2.984375 -2.234375 4.609375q-2.21875 1.625 -6.25 1.625q-4.25 0 -6.640625 -1.34375l0 -3.015625q1.546875 0.78125 3.3125 1.234375q1.765625 0.453125 3.40625 0.453125q2.546875 0 3.90625 -0.8125q1.375 -0.8125 1.375 -2.46875q0 -1.25 -1.09375 -2.140625q-1.078125 -0.890625 -4.21875 -2.109375q-2.984375 -1.109375 -4.25 -1.9375q-1.265625 -0.828125 -1.875 -1.875q-0.609375 -1.0625 -0.609375 -2.53125q0 -2.609375 2.125 -4.125q2.125 -1.515625 5.84375 -1.515625q3.453125 0 6.75 1.40625l-1.15625 2.640625q-3.21875 -1.328125 -5.828125 -1.328125q-2.3125 0 -3.484375 0.71875q-1.171875 0.71875 -1.171875 1.984375q0 0.859375 0.4375 1.46875q0.4375 0.609375 1.40625 1.15625q0.984375 0.546875 3.765625 1.578125q3.8125 1.390625 5.140625 2.796875q1.34375 1.40625 1.34375 3.53125zm12.191406 3.5625q0.859375 0 1.65625 -0.125q0.796875 -0.140625 1.265625 -0.265625l0 2.46875q-0.53125 0.265625 -1.5625 0.421875q-1.015625 0.171875 -1.828125 0.171875q-6.21875 0 -6.21875 -6.546875l0 -12.734375l-3.0625 0l0 -1.5625l3.0625 -1.34375l1.375 -4.578125l1.875 0l0 4.96875l6.203125 0l0 2.515625l-6.203125 0l0 12.59375q0 1.9375 0.90625 2.984375q0.921875 1.03125 2.53125 1.03125zm20.371094 2.28125l-0.65625 -3.046875l-0.15625 0q-1.59375 2.015625 -3.1875 2.734375q-1.59375 0.703125 -3.96875 0.703125q-3.1875 0 -5.0 -1.640625q-1.796875 -1.640625 -1.796875 -4.671875q0 -6.484375 10.359375 -6.796875l3.640625 -0.109375l0 -1.328125q0 -2.53125 -1.09375 -3.71875q-1.078125 -1.203125 -3.453125 -1.203125q-2.6875 0 -6.0625 1.640625l-1.0 -2.484375q1.59375 -0.859375 3.46875 -1.34375q1.890625 -0.5 3.78125 -0.5q3.828125 0 5.671875 1.703125q1.84375 1.703125 1.84375 5.453125l0 14.609375l-2.390625 0zm-7.328125 -2.28125q3.03125 0 4.75 -1.65625q1.734375 -1.671875 1.734375 -4.65625l0 -1.9375l-3.25 0.140625q-3.859375 0.140625 -5.578125 1.203125q-1.703125 1.0625 -1.703125 3.3125q0 1.75 1.0625 2.671875q1.0625 0.921875 2.984375 0.921875zm19.652344 2.28125l-3.25 0l0 -30.390625l3.25 0l0 30.390625zm15.9140625 0.390625q-4.75 0 -7.5 -2.890625q-2.734375 -2.890625 -2.734375 -8.03125q0 -5.171875 2.546875 -8.21875q2.546875 -3.046875 6.84375 -3.046875q4.03125 0 6.375 2.65625q2.34375 2.640625 2.34375 6.96875l0 2.046875l-14.75 0q0.09375 3.78125 1.890625 5.734375q1.8125 1.953125 5.09375 1.953125q3.46875 0 6.84375 -1.453125l0 2.890625q-1.71875 0.75 -3.25 1.0625q-1.53125 0.328125 -3.703125 0.328125zm-0.875 -19.46875q-2.578125 0 -4.125 1.6875q-1.53125 1.671875 -1.796875 4.640625l11.1875 0q0 -3.078125 -1.375 -4.703125q-1.359375 -1.625 -3.890625 -1.625zm43.14453 8.359375q0 5.234375 -2.640625 8.171875q-2.640625 2.9375 -7.28125 2.9375q-2.875 0 -5.109375 -1.34375q-2.21875 -1.359375 -3.4375 -3.875q-1.203125 -2.515625 -1.203125 -5.890625q0 -5.234375 2.609375 -8.15625q2.625 -2.921875 7.265625 -2.921875q4.5 0 7.140625 2.984375q2.65625 2.984375 2.65625 8.09375zm-16.3125 0q0 4.09375 1.640625 6.25q1.640625 2.140625 4.828125 2.140625q3.171875 0 4.828125 -2.140625q1.65625 -2.140625 1.65625 -6.25q0 -4.09375 -1.65625 -6.203125q-1.65625 -2.125 -4.875 -2.125q-3.1875 0 -4.8125 2.09375q-1.609375 2.09375 -1.609375 6.234375zm31.957031 -11.046875q4.21875 0 6.546875 2.890625q2.328125 2.875 2.328125 8.15625q0 5.265625 -2.359375 8.1875q-2.34375 2.921875 -6.515625 2.921875q-2.09375 0 -3.828125 -0.765625q-1.71875 -0.78125 -2.890625 -2.375l-0.234375 0l-0.6875 2.75l-2.328125 0l0 -30.390625l3.25 0l0 7.375q0 2.484375 -0.15625 4.453125l0.15625 0q2.265625 -3.203125 6.71875 -3.203125zm-0.46875 2.71875q-3.328125 0 -4.796875 1.90625q-1.453125 1.90625 -1.453125 6.421875q0 4.5 1.5 6.453125q1.5 1.9375 4.828125 1.9375q2.984375 0 4.4375 -2.171875q1.46875 -2.1875 1.46875 -6.265625q0 -4.171875 -1.46875 -6.21875q-1.453125 -2.0625 -4.515625 -2.0625zm12.417969 28.65625q-1.859375 0 -3.015625 -0.484375l0 -2.640625q1.34375 0.390625 2.65625 0.390625q1.53125 0 2.234375 -0.828125q0.71875 -0.828125 0.71875 -2.53125l0 -24.921875l3.25 0l0 24.6875q0 6.328125 -5.84375 6.328125zm2.328125 -36.8125q0 -1.125 0.546875 -1.640625q0.546875 -0.515625 1.359375 -0.515625q0.78125 0 1.34375 0.53125q0.578125 0.53125 0.578125 1.625q0 1.09375 -0.578125 1.625q-0.5625 0.53125 -1.34375 0.53125q-0.8125 0 -1.359375 -0.53125q-0.546875 -0.53125 -0.546875 -1.625zm19.429688 27.59375q-4.75 0 -7.5 -2.890625q-2.734375 -2.890625 -2.734375 -8.03125q0 -5.171875 2.546875 -8.21875q2.546875 -3.046875 6.84375 -3.046875q4.03125 0 6.375 2.65625q2.34375 2.640625 2.34375 6.96875l0 2.046875l-14.75 0q0.09375 3.78125 1.890625 5.734375q1.8125 1.953125 5.09375 1.953125q3.46875 0 6.84375 -1.453125l0 2.890625q-1.71875 0.75 -3.25 1.0625q-1.53125 0.328125 -3.703125 0.328125zm-0.875 -19.46875q-2.578125 0 -4.125 1.6875q-1.53125 1.671875 -1.796875 4.640625l11.1875 0q0 -3.078125 -1.375 -4.703125q-1.359375 -1.625 -3.890625 -1.625zm22.832031 19.46875q-4.65625 0 -7.203125 -2.859375q-2.546875 -2.859375 -2.546875 -8.09375q0 -5.375 2.578125 -8.296875q2.59375 -2.9375 7.375 -2.9375q1.546875 0 3.09375 0.328125q1.546875 0.328125 2.421875 0.78125l-1.0 2.75q-1.078125 -0.421875 -2.34375 -0.703125q-1.265625 -0.28125 -2.25 -0.28125q-6.515625 0 -6.515625 8.3125q0 3.953125 1.59375 6.0625q1.59375 2.109375 4.71875 2.109375q2.671875 0 5.484375 -1.15625l0 2.875q-2.15625 1.109375 -5.40625 1.109375zm17.402344 -2.671875q0.859375 0 1.65625 -0.125q0.796875 -0.140625 1.265625 -0.265625l0 2.46875q-0.53125 0.265625 -1.5625 0.421875q-1.015625 0.171875 -1.828125 0.171875q-6.21875 0 -6.21875 -6.546875l0 -12.734375l-3.0625 0l0 -1.5625l3.0625 -1.34375l1.375 -4.578125l1.875 0l0 4.96875l6.203125 0l0 2.515625l-6.203125 0l0 12.59375q0 1.9375 0.90625 2.984375q0.921875 1.03125 2.53125 1.03125z" fill-rule="nonzero"></path><path fill="#000000" fill-opacity="0.0" d="m914.4173 231.63518l0 0c0 17.403488 -2.3512573 31.511795 -5.251709 31.511795l-182.7091 0c-2.9004517 0 -5.25177 14.108337 -5.25177 31.51181l0 0c0 -17.403473 -2.3512573 -31.51181 -5.25177 -31.51181l-182.70905 0c-2.9004517 0 -5.25177 -14.108307 -5.25177 -31.511795z" fill-rule="nonzero"></path><path fill="#000000" fill-opacity="0.0" d="m914.4173 231.63518l0 0c0 17.403488 -2.3512573 31.511795 -5.251709 31.511795l-182.7091 0c-2.9004517 0 -5.25177 14.108337 -5.25177 31.51181l0 0c0 -17.403473 -2.3512573 -31.51181 -5.25177 -31.51181l-182.70905 0c-2.9004517 0 -5.25177 -14.108307 -5.25177 -31.511795" fill-rule="nonzero"></path><path stroke="#000000" stroke-width="2.0" stroke-linejoin="round" stroke-linecap="butt" d="m914.4173 231.63518l0 0c0 17.403488 -2.3512573 31.511795 -5.251709 31.511795l-182.7091 0c-2.9004517 0 -5.25177 14.108337 -5.25177 31.51181l0 0c0 -17.403473 -2.3512573 -31.51181 -5.25177 -31.51181l-182.70905 0c-2.9004517 0 -5.25177 -14.108307 -5.25177 -31.511795" fill-rule="nonzero"></path><path fill="#000000" fill-opacity="0.0" d="m88.29396 113.8399l0 0c0 -17.403496 2.3512955 -31.51181 5.2517624 -31.51181l523.654 0c2.9004517 0 5.25177 -14.108322 5.25177 -31.511814l0 0c0 17.403492 2.3512573 31.511814 5.251709 31.511814l523.654 0c2.9005127 0 5.251709 14.1083145 5.251709 31.51181z" fill-rule="nonzero"></path><path fill="#000000" fill-opacity="0.0" d="m88.29396 113.8399l0 0c0 -17.403496 2.3512955 -31.51181 5.2517624 -31.51181l523.654 0c2.9004517 0 5.25177 -14.108322 5.25177 -31.511814l0 0c0 17.403492 2.3512573 31.511814 5.251709 31.511814l523.654 0c2.9005127 0 5.251709 14.1083145 5.251709 31.51181" fill-rule="nonzero"></path><path stroke="#000000" stroke-width="2.0" stroke-linejoin="round" stroke-linecap="butt" d="m88.29396 113.8399l0 0c0 -17.403496 2.3512955 -31.51181 5.2517624 -31.51181l523.654 0c2.9004517 0 5.25177 -14.108322 5.25177 -31.511814l0 0c0 17.403492 2.3512573 31.511814 5.251709 31.511814l523.654 0c2.9005127 0 5.251709 14.1083145 5.251709 31.51181" fill-rule="nonzero"></path><path fill="#000000" fill-opacity="0.0" d="m258.86725 -10.356956l727.1811 0l0 79.37008l-727.1811 0z" fill-rule="nonzero"></path><path fill="#000000" d="m506.14725 37.433666q-4.65625 0 -7.203125 -2.859375q-2.546875 -2.859373 -2.546875 -8.093748q0 -5.375 2.578125 -8.296875q2.59375 -2.937501 7.375 -2.937501q1.546875 0 3.09375 0.328125q1.546875 0.328125 2.421875 0.78125095l-1.0 2.75q-1.078125 -0.421875 -2.34375 -0.703125q-1.265625 -0.28125 -2.25 -0.28125q-6.515625 0 -6.515625 8.3125q0 3.953125 1.59375 6.062498q1.59375 2.109375 4.71875 2.109375q2.671875 0 5.484375 -1.15625l0 2.875q-2.15625 1.109375 -5.40625 1.109375zm23.652374 -0.390625l-0.65625 -3.046875l-0.15625 0q-1.59375 2.015625 -3.1875 2.734375q-1.59375 0.703125 -3.96875 0.703125q-3.1875 0 -5.0 -1.640625q-1.796875 -1.640625 -1.796875 -4.671873q0 -6.484375 10.359375 -6.796875l3.640625 -0.109375l0 -1.328125q0 -2.53125 -1.09375 -3.71875q-1.078125 -1.203125 -3.453125 -1.203125q-2.6875 0 -6.0625 1.640625l-1.0 -2.484375q1.59375 -0.859375 3.46875 -1.343751q1.890625 -0.5 3.78125 -0.5q3.828125 0 5.671875 1.703126q1.84375 1.703125 1.84375 5.453125l0 14.609373l-2.390625 0zm-7.328125 -2.28125q3.03125 0 4.75 -1.65625q1.734375 -1.6718731 1.734375 -4.656248l0 -1.9375l-3.25 0.140625q-3.859375 0.140625 -5.578125 1.203125q-1.703125 1.0625 -1.703125 3.3125q0 1.7499981 1.0625 2.671873q1.0625 0.921875 2.984375 0.921875zm24.964844 2.671875q-4.65625 0 -7.203125 -2.859375q-2.546875 -2.859373 -2.546875 -8.093748q0 -5.375 2.578125 -8.296875q2.59375 -2.937501 7.375 -2.937501q1.546875 0 3.09375 0.328125q1.546875 0.328125 2.421875 0.78125095l-1.0 2.75q-1.078125 -0.421875 -2.34375 -0.703125q-1.265625 -0.28125 -2.25 -0.28125q-6.515625 0 -6.515625 8.3125q0 3.953125 1.59375 6.062498q1.59375 2.109375 4.71875 2.109375q2.671875 0 5.484375 -1.15625l0 2.875q-2.15625 1.109375 -5.40625 1.109375zm25.136719 -0.390625l0 -13.843748q0 -2.625 -1.203125 -3.90625q-1.1875 -1.296875 -3.71875 -1.296875q-3.390625 0 -4.9375 1.84375q-1.546875 1.828125 -1.546875 6.015625l0 11.187498l-3.25 0l0 -30.390625l3.25 0l0 9.203125q0 1.656251 -0.15625 2.750001l0.1875 0q0.953125 -1.546875 2.71875 -2.4375q1.78125 -0.89062595 4.046875 -0.89062595q3.921875 0 5.875 1.875001q1.96875 1.859375 1.96875 5.921875l0 13.968748l-3.234375 0zm18.941406 0.390625q-4.75 0 -7.5 -2.890625q-2.734375 -2.890623 -2.734375 -8.031248q0 -5.171875 2.546875 -8.21875q2.546875 -3.046876 6.84375 -3.046876q4.03125 0 6.375 2.656251q2.34375 2.640625 2.34375 6.96875l0 2.046875l-14.75 0q0.09375 3.78125 1.890625 5.734373q1.8125 1.953125 5.09375 1.953125q3.46875 0 6.84375 -1.453125l0 2.890625q-1.71875 0.75 -3.25 1.0625q-1.53125 0.328125 -3.703125 0.328125zm-0.875 -19.468748q-2.578125 0 -4.125 1.6875q-1.53125 1.671875 -1.796875 4.640625l11.1875 0q0 -3.078125 -1.375 -4.703125q-1.359375 -1.625 -3.890625 -1.625zm28.847656 16.203123l-0.1875 0q-2.234375 3.265625 -6.71875 3.265625q-4.1875 0 -6.53125 -2.875q-2.328125 -2.874998 -2.328125 -8.156248q0 -5.296875 2.34375 -8.21875q2.34375 -2.937501 6.515625 -2.937501q4.359375 0 6.6875 3.156251l0.25 0l-0.140625 -1.53125l-0.078125 -1.515626l0 -8.703125l3.25 0l0 30.390625l-2.640625 0l-0.421875 -2.875zm-6.484375 0.546875q3.3125 0 4.796875 -1.796875q1.5 -1.8124981 1.5 -5.843748l0 -0.671875q0 -4.5625 -1.515625 -6.5q-1.5 -1.9375 -4.828125 -1.9375q-2.84375 0 -4.359375 2.21875q-1.515625 2.203125 -1.515625 6.25q0 4.109375 1.5 6.203123q1.5 2.078125 4.421875 2.078125zm45.29297 -8.390623q0 5.234375 -2.640625 8.171873q-2.640625 2.9375 -7.28125 2.9375q-2.875 0 -5.109375 -1.34375q-2.21875 -1.359375 -3.4375 -3.875q-1.203125 -2.515623 -1.203125 -5.890623q0 -5.234375 2.609375 -8.15625q2.625 -2.921876 7.265625 -2.921876q4.5 0 7.140625 2.984376q2.65625 2.984375 2.65625 8.09375zm-16.3125 0q0 4.09375 1.640625 6.249998q1.640625 2.140625 4.828125 2.140625q3.171875 0 4.828125 -2.140625q1.65625 -2.140623 1.65625 -6.249998q0 -4.09375 -1.65625 -6.203125q-1.65625 -2.125 -4.875 -2.125q-3.1875 0 -4.8125 2.09375q-1.609375 2.09375 -1.609375 6.234375zm31.957031 -11.046876q4.21875 0 6.546875 2.890626q2.328125 2.875 2.328125 8.15625q0 5.265625 -2.359375 8.187498q-2.34375 2.921875 -6.515625 2.921875q-2.09375 0 -3.828125 -0.765625q-1.71875 -0.78125 -2.890625 -2.375l-0.234375 0l-0.6875 2.75l-2.328125 0l0 -30.390625l3.25 0l0 7.375q0 2.484376 -0.15625 4.453126l0.15625 0q2.265625 -3.203126 6.71875 -3.203126zm-0.46875 2.718751q-3.328125 0 -4.796875 1.90625q-1.453125 1.90625 -1.453125 6.421875q0 4.5 1.5 6.453123q1.5 1.9375 4.828125 1.9375q2.984375 0 4.4375 -2.171875q1.46875 -2.187498 1.46875 -6.265623q0 -4.171875 -1.46875 -6.21875q-1.453125 -2.0625 -4.515625 -2.0625zm12.417969 28.656248q-1.859375 0 -3.015625 -0.484375l0 -2.640625q1.34375 0.390625 2.65625 0.390625q1.53125 0 2.234375 -0.828125q0.71875 -0.828125 0.71875 -2.53125l0 -24.921875l3.25 0l0 24.6875q0 6.328125 -5.84375 6.328125zm2.328125 -36.8125q0 -1.125 0.546875 -1.640625q0.546875 -0.515625 1.359375 -0.515625q0.78125 0 1.34375 0.53125q0.578125 0.53125 0.578125 1.625q0 1.09375 -0.578125 1.625q-0.5625 0.53125 -1.34375 0.53125q-0.8125 0 -1.359375 -0.53125q-0.546875 -0.53125 -0.546875 -1.625zm19.429688 27.59375q-4.75 0 -7.5 -2.890625q-2.734375 -2.890623 -2.734375 -8.031248q0 -5.171875 2.546875 -8.21875q2.546875 -3.046876 6.84375 -3.046876q4.03125 0 6.375 2.656251q2.34375 2.640625 2.34375 6.96875l0 2.046875l-14.75 0q0.09375 3.78125 1.890625 5.734373q1.8125 1.953125 5.09375 1.953125q3.46875 0 6.84375 -1.453125l0 2.890625q-1.71875 0.75 -3.25 1.0625q-1.53125 0.328125 -3.703125 0.328125zm-0.875 -19.468748q-2.578125 0 -4.125 1.6875q-1.53125 1.671875 -1.796875 4.640625l11.1875 0q0 -3.078125 -1.375 -4.703125q-1.359375 -1.625 -3.890625 -1.625zm22.832031 19.468748q-4.65625 0 -7.203125 -2.859375q-2.546875 -2.859373 -2.546875 -8.093748q0 -5.375 2.578125 -8.296875q2.59375 -2.937501 7.375 -2.937501q1.546875 0 3.09375 0.328125q1.546875 0.328125 2.421875 0.78125095l-1.0 2.75q-1.078125 -0.421875 -2.34375 -0.703125q-1.265625 -0.28125 -2.25 -0.28125q-6.515625 0 -6.515625 8.3125q0 3.953125 1.59375 6.062498q1.59375 2.109375 4.71875 2.109375q2.671875 0 5.484375 -1.15625l0 2.875q-2.15625 1.109375 -5.40625 1.109375zm17.402344 -2.671875q0.859375 0 1.65625 -0.125q0.796875 -0.140625 1.265625 -0.265625l0 2.46875q-0.53125 0.265625 -1.5625 0.421875q-1.015625 0.171875 -1.828125 0.171875q-6.21875 0 -6.21875 -6.546873l0 -12.734375l-3.0625 0l0 -1.5625l3.0625 -1.343751l1.375 -4.578125l1.875 0l0 4.96875l6.203125 0l0 2.515626l-6.203125 0l0 12.59375q0 1.9374981 0.90625 2.984373q0.921875 1.03125 2.53125 1.03125z" fill-rule="nonzero"></path><path fill="#000000" fill-opacity="0.0" d="m406.54855 384.93964l400.6614 0l0 63.02362l-400.6614 0z" fill-rule="nonzero"></path><path fill="#000000" d="m453.76013 432.33963l0 -28.5625l3.328125 0l0 28.5625l-3.328125 0zm20.324219 -18.890625l-5.453125 0l0 18.890625l-3.25 0l0 -18.890625l-3.828125 0l0 -1.46875l3.828125 -1.171875l0 -1.1875q0 -7.890625 6.90625 -7.890625q1.6875 0 3.984375 0.6875l-0.84375 2.59375q-1.875 -0.609375 -3.203125 -0.609375q-1.84375 0 -2.71875 1.234375q-0.875 1.21875 -0.875 3.90625l0 1.390625l5.453125 0l0 2.515625zm2.1015625 9.65625l0 -2.96875l9.59375 0l0 2.96875l-9.59375 0zm27.792969 9.234375l-9.6875 -25.3125l-0.15625 0q0.28125 3.0 0.28125 7.140625l0 18.171875l-3.078125 0l0 -28.5625l5.0 0l9.046875 23.5625l0.15625 0l9.125 -23.5625l4.953125 0l0 28.5625l-3.3125 0l0 -18.40625q0 -3.15625 0.265625 -6.875l-0.15625 0l-9.765625 25.28125l-2.671875 0zm41.472656 -10.71875q0 5.234375 -2.640625 8.171875q-2.640625 2.9375 -7.28125 2.9375q-2.875 0 -5.109375 -1.34375q-2.21875 -1.359375 -3.4375 -3.875q-1.203125 -2.515625 -1.203125 -5.890625q0 -5.234375 2.609375 -8.15625q2.625 -2.921875 7.265625 -2.921875q4.5 0 7.140625 2.984375q2.65625 2.984375 2.65625 8.09375zm-16.3125 0q0 4.09375 1.640625 6.25q1.640625 2.140625 4.828125 2.140625q3.171875 0 4.828125 -2.140625q1.65625 -2.140625 1.65625 -6.25q0 -4.09375 -1.65625 -6.203125q-1.65625 -2.125 -4.875 -2.125q-3.1875 0 -4.8125 2.09375q-1.609375 2.09375 -1.609375 6.234375zm36.566406 7.84375l-0.1875 0q-2.234375 3.265625 -6.71875 3.265625q-4.1875 0 -6.53125 -2.875q-2.328125 -2.875 -2.328125 -8.15625q0 -5.296875 2.34375 -8.21875q2.34375 -2.9375 6.515625 -2.9375q4.359375 0 6.6875 3.15625l0.25 0l-0.140625 -1.53125l-0.078125 -1.515625l0 -8.703125l3.25 0l0 30.390625l-2.640625 0l-0.421875 -2.875zm-6.484375 0.546875q3.3125 0 4.796875 -1.796875q1.5 -1.8125 1.5 -5.84375l0 -0.671875q0 -4.5625 -1.515625 -6.5q-1.5 -1.9375 -4.828125 -1.9375q-2.84375 0 -4.359375 2.21875q-1.515625 2.203125 -1.515625 6.25q0 4.109375 1.5 6.203125q1.5 2.078125 4.421875 2.078125zm19.667969 2.328125l-3.25 0l0 -21.40625l3.25 0l0 21.40625zm-3.515625 -27.203125q0 -1.125 0.546875 -1.640625q0.546875 -0.515625 1.359375 -0.515625q0.78125 0 1.34375 0.53125q0.578125 0.53125 0.578125 1.625q0 1.09375 -0.578125 1.625q-0.5625 0.53125 -1.34375 0.53125q-0.8125 0 -1.359375 -0.53125q-0.546875 -0.53125 -0.546875 -1.625zm20.039062 8.3125l-5.453125 0l0 18.890625l-3.25 0l0 -18.890625l-3.828125 0l0 -1.46875l3.828125 -1.171875l0 -1.1875q0 -7.890625 6.90625 -7.890625q1.6875 0 3.984375 0.6875l-0.84375 2.59375q-1.875 -0.609375 -3.203125 -0.609375q-1.84375 0 -2.71875 1.234375q-0.875 1.21875 -0.875 3.90625l0 1.390625l5.453125 0l0 2.515625zm7.1484375 18.890625l-3.25 0l0 -21.40625l3.25 0l0 21.40625zm-3.515625 -27.203125q0 -1.125 0.546875 -1.640625q0.546875 -0.515625 1.359375 -0.515625q0.78125 0 1.34375 0.53125q0.578125 0.53125 0.578125 1.625q0 1.09375 -0.578125 1.625q-0.5625 0.53125 -1.34375 0.53125q-0.8125 0 -1.359375 -0.53125q-0.546875 -0.53125 -0.546875 -1.625zm19.429688 27.59375q-4.75 0 -7.5 -2.890625q-2.734375 -2.890625 -2.734375 -8.03125q0 -5.171875 2.546875 -8.21875q2.546875 -3.046875 6.84375 -3.046875q4.03125 0 6.375 2.65625q2.34375 2.640625 2.34375 6.96875l0 2.046875l-14.75 0q0.09375 3.78125 1.890625 5.734375q1.8125 1.953125 5.09375 1.953125q3.46875 0 6.84375 -1.453125l0 2.890625q-1.71875 0.75 -3.25 1.0625q-1.53125 0.328125 -3.703125 0.328125zm-0.875 -19.46875q-2.578125 0 -4.125 1.6875q-1.53125 1.671875 -1.796875 4.640625l11.1875 0q0 -3.078125 -1.375 -4.703125q-1.359375 -1.625 -3.890625 -1.625zm28.847656 16.203125l-0.1875 0q-2.234375 3.265625 -6.71875 3.265625q-4.1875 0 -6.53125 -2.875q-2.328125 -2.875 -2.328125 -8.15625q0 -5.296875 2.34375 -8.21875q2.34375 -2.9375 6.515625 -2.9375q4.359375 0 6.6875 3.15625l0.25 0l-0.140625 -1.53125l-0.078125 -1.515625l0 -8.703125l3.25 0l0 30.390625l-2.640625 0l-0.421875 -2.875zm-6.484375 0.546875q3.3125 0 4.796875 -1.796875q1.5 -1.8125 1.5 -5.84375l0 -0.671875q0 -4.5625 -1.515625 -6.5q-1.5 -1.9375 -4.828125 -1.9375q-2.84375 0 -4.359375 2.21875q-1.515625 2.203125 -1.515625 6.25q0 4.109375 1.5 6.203125q1.5 2.078125 4.421875 2.078125zm14.621094 -6.90625l0 -2.96875l9.59375 0l0 2.96875l-9.59375 0zm31.277344 1.640625q0 3.765625 -2.734375 5.875q-2.734375 2.109375 -7.421875 2.109375q-5.078125 0 -7.8125 -1.3125l0 -3.203125q1.75 0.75 3.8125 1.1875q2.078125 0.421875 4.109375 0.421875q3.328125 0 5.0 -1.265625q1.6875 -1.265625 1.6875 -3.5q0 -1.484375 -0.609375 -2.4375q-0.59375 -0.953125 -1.984375 -1.75q-1.390625 -0.796875 -4.25 -1.8125q-3.984375 -1.421875 -5.703125 -3.375q-1.703125 -1.953125 -1.703125 -5.109375q0 -3.296875 2.484375 -5.25q2.484375 -1.953125 6.5625 -1.953125q4.265625 0 7.828125 1.5625l-1.03125 2.890625q-3.53125 -1.484375 -6.875 -1.484375q-2.640625 0 -4.125 1.140625q-1.484375 1.125 -1.484375 3.140625q0 1.484375 0.546875 2.4375q0.546875 0.9375 1.84375 1.734375q1.3125 0.78125 3.984375 1.75q4.484375 1.59375 6.171875 3.4375q1.703125 1.828125 1.703125 4.765625zm8.59375 7.59375l-3.25 0l0 -21.40625l3.25 0l0 21.40625zm-3.515625 -27.203125q0 -1.125 0.546875 -1.640625q0.546875 -0.515625 1.359375 -0.515625q0.78125 0 1.34375 0.53125q0.578125 0.53125 0.578125 1.625q0 1.09375 -0.578125 1.625q-0.5625 0.53125 -1.34375 0.53125q-0.8125 0 -1.359375 -0.53125q-0.546875 -0.53125 -0.546875 -1.625zm25.039062 27.203125l0 -13.84375q0 -2.625 -1.203125 -3.90625q-1.1875 -1.296875 -3.71875 -1.296875q-3.359375 0 -4.921875 1.828125q-1.5625 1.8125 -1.5625 5.984375l0 11.234375l-3.25 0l0 -21.40625l2.640625 0l0.53125 2.921875l0.15625 0q0.984375 -1.578125 2.78125 -2.4375q1.796875 -0.875 4.015625 -0.875q3.859375 0 5.8125 1.875q1.953125 1.859375 1.953125 5.953125l0 13.96875l-3.234375 0zm18.457031 0.390625q-4.65625 0 -7.203125 -2.859375q-2.546875 -2.859375 -2.546875 -8.09375q0 -5.375 2.578125 -8.296875q2.59375 -2.9375 7.375 -2.9375q1.546875 0 3.09375 0.328125q1.546875 0.328125 2.421875 0.78125l-1.0 2.75q-1.078125 -0.421875 -2.34375 -0.703125q-1.265625 -0.28125 -2.25 -0.28125q-6.515625 0 -6.515625 8.3125q0 3.953125 1.59375 6.0625q1.59375 2.109375 4.71875 2.109375q2.671875 0 5.484375 -1.15625l0 2.875q-2.15625 1.109375 -5.40625 1.109375zm19.527344 0q-4.75 0 -7.5 -2.890625q-2.734375 -2.890625 -2.734375 -8.03125q0 -5.171875 2.546875 -8.21875q2.546875 -3.046875 6.84375 -3.046875q4.03125 0 6.375 2.65625q2.34375 2.640625 2.34375 6.96875l0 2.046875l-14.75 0q0.09375 3.78125 1.890625 5.734375q1.8125 1.953125 5.09375 1.953125q3.46875 0 6.84375 -1.453125l0 2.890625q-1.71875 0.75 -3.25 1.0625q-1.53125 0.328125 -3.703125 0.328125zm-0.875 -19.46875q-2.578125 0 -4.125 1.6875q-1.53125 1.671875 -1.796875 4.640625l11.1875 0q0 -3.078125 -1.375 -4.703125q-1.359375 -1.625 -3.890625 -1.625z" fill-rule="nonzero"></path><path fill="#000000" fill-opacity="0.0" d="m1154.0 325.08136l0 0c0 17.403503 -2.3513184 31.51181 -5.251709 31.51181l-526.3469 0c-2.9004517 0 -5.25177 14.108337 -5.25177 31.51181l0 0c0 -17.403473 -2.3512573 -31.51181 -5.251709 -31.51181l-526.3469 0c-2.900467 0 -5.2517548 -14.108307 -5.2517548 -31.51181z" fill-rule="nonzero"></path><path fill="#000000" fill-opacity="0.0" d="m1154.0 325.08136l0 0c0 17.403503 -2.3513184 31.51181 -5.251709 31.51181l-526.3469 0c-2.9004517 0 -5.25177 14.108337 -5.25177 31.51181l0 0c0 -17.403473 -2.3512573 -31.51181 -5.251709 -31.51181l-526.3469 0c-2.900467 0 -5.2517548 -14.108307 -5.2517548 -31.51181" fill-rule="nonzero"></path><path stroke="#000000" stroke-width="2.0" stroke-linejoin="round" stroke-linecap="butt" d="m1154.0 325.08136l0 0c0 17.403503 -2.3513184 31.51181 -5.251709 31.51181l-526.3469 0c-2.9004517 0 -5.25177 14.108337 -5.25177 31.51181l0 0c0 -17.403473 -2.3512573 -31.51181 -5.251709 -31.51181l-526.3469 0c-2.900467 0 -5.2517548 -14.108307 -5.2517548 -31.51181" fill-rule="nonzero"></path><path fill="#000000" fill-opacity="0.0" d="m164.01706 288.2966l301.22833 0l0 110.61417l-301.22833 0z" fill-rule="nonzero"></path><path fill="#000000" d="m217.35388 316.80597l-5.453125 0l0 18.890625l-3.25 0l0 -18.890625l-3.828125 0l0 -1.46875l3.828125 -1.171875l0 -1.1875q0 -7.890625 6.90625 -7.890625q1.6875 0 3.984375 0.6875l-0.84375 2.59375q-1.875 -0.609375 -3.203125 -0.609375q-1.84375 0 -2.71875 1.234375q-0.875 1.21875 -0.875 3.90625l0 1.390625l5.453125 0l0 2.515625zm13.6640625 -2.90625q1.421875 0 2.5625 0.234375l-0.453125 3.0q-1.328125 -0.28125 -2.34375 -0.28125q-2.59375 0 -4.4375 2.109375q-1.84375 2.109375 -1.84375 5.25l0 11.484375l-3.25 0l0 -21.40625l2.671875 0l0.375 3.96875l0.15625 0q1.1875 -2.09375 2.859375 -3.21875q1.6875 -1.140625 3.703125 -1.140625zm15.609375 22.1875q-4.75 0 -7.5 -2.890625q-2.734375 -2.890625 -2.734375 -8.03125q0 -5.171875 2.546875 -8.21875q2.546875 -3.046875 6.84375 -3.046875q4.03125 0 6.375 2.65625q2.34375 2.640625 2.34375 6.96875l0 2.046875l-14.75 0q0.09375 3.78125 1.890625 5.734375q1.8125 1.953125 5.09375 1.953125q3.46875 0 6.84375 -1.453125l0 2.890625q-1.71875 0.75 -3.25 1.0625q-1.53125 0.328125 -3.703125 0.328125zm-0.875 -19.46875q-2.578125 0 -4.125 1.6875q-1.53125 1.671875 -1.796875 4.640625l11.1875 0q0 -3.078125 -1.375 -4.703125q-1.359375 -1.625 -3.890625 -1.625zm28.082031 13.234375q0 2.984375 -2.234375 4.609375q-2.21875 1.625 -6.25 1.625q-4.25 0 -6.640625 -1.34375l0 -3.015625q1.546875 0.78125 3.3125 1.234375q1.765625 0.453125 3.40625 0.453125q2.546875 0 3.90625 -0.8125q1.375 -0.8125 1.375 -2.46875q0 -1.25 -1.09375 -2.140625q-1.078125 -0.890625 -4.21875 -2.109375q-2.984375 -1.109375 -4.25 -1.9375q-1.265625 -0.828125 -1.875 -1.875q-0.609375 -1.0625 -0.609375 -2.53125q0 -2.609375 2.125 -4.125q2.125 -1.515625 5.84375 -1.515625q3.453125 0 6.75 1.40625l-1.15625 2.640625q-3.21875 -1.328125 -5.828125 -1.328125q-2.3125 0 -3.484375 0.71875q-1.171875 0.71875 -1.171875 1.984375q0 0.859375 0.4375 1.46875q0.4375 0.609375 1.40625 1.15625q0.984375 0.546875 3.765625 1.578125q3.8125 1.390625 5.140625 2.796875q1.34375 1.40625 1.34375 3.53125zm19.925781 5.84375l0 -13.84375q0 -2.625 -1.203125 -3.90625q-1.1875 -1.296875 -3.71875 -1.296875q-3.390625 0 -4.9375 1.84375q-1.546875 1.828125 -1.546875 6.015625l0 11.1875l-3.25 0l0 -30.390625l3.25 0l0 9.203125q0 1.65625 -0.15625 2.75l0.1875 0q0.953125 -1.546875 2.71875 -2.4375q1.78125 -0.890625 4.046875 -0.890625q3.921875 0 5.875 1.875q1.96875 1.859375 1.96875 5.921875l0 13.96875l-3.234375 0zm38.76953 -10.71875q0 5.234375 -2.640625 8.171875q-2.640625 2.9375 -7.28125 2.9375q-2.875 0 -5.109375 -1.34375q-2.21875 -1.359375 -3.4375 -3.875q-1.203125 -2.515625 -1.203125 -5.890625q0 -5.234375 2.609375 -8.15625q2.625 -2.921875 7.265625 -2.921875q4.5 0 7.140625 2.984375q2.65625 2.984375 2.65625 8.09375zm-16.3125 0q0 4.09375 1.640625 6.25q1.640625 2.140625 4.828125 2.140625q3.171875 0 4.828125 -2.140625q1.65625 -2.140625 1.65625 -6.25q0 -4.09375 -1.65625 -6.203125q-1.65625 -2.125 -4.875 -2.125q-3.1875 0 -4.8125 2.09375q-1.609375 2.09375 -1.609375 6.234375zm31.957031 -11.046875q4.21875 0 6.546875 2.890625q2.328125 2.875 2.328125 8.15625q0 5.265625 -2.359375 8.1875q-2.34375 2.921875 -6.515625 2.921875q-2.09375 0 -3.828125 -0.765625q-1.71875 -0.78125 -2.890625 -2.375l-0.234375 0l-0.6875 2.75l-2.328125 0l0 -30.390625l3.25 0l0 7.375q0 2.484375 -0.15625 4.453125l0.15625 0q2.265625 -3.203125 6.71875 -3.203125zm-0.46875 2.71875q-3.328125 0 -4.796875 1.90625q-1.453125 1.90625 -1.453125 6.421875q0 4.5 1.5 6.453125q1.5 1.9375 4.828125 1.9375q2.984375 0 4.4375 -2.171875q1.46875 -2.1875 1.46875 -6.265625q0 -4.171875 -1.46875 -6.21875q-1.453125 -2.0625 -4.515625 -2.0625zm12.417969 28.65625q-1.859375 0 -3.015625 -0.484375l0 -2.640625q1.34375 0.390625 2.65625 0.390625q1.53125 0 2.234375 -0.828125q0.71875 -0.828125 0.71875 -2.53125l0 -24.921875l3.25 0l0 24.6875q0 6.328125 -5.84375 6.328125zm2.328125 -36.8125q0 -1.125 0.546875 -1.640625q0.546875 -0.515625 1.359375 -0.515625q0.78125 0 1.34375 0.53125q0.578125 0.53125 0.578125 1.625q0 1.09375 -0.578125 1.625q-0.5625 0.53125 -1.34375 0.53125q-0.8125 0 -1.359375 -0.53125q-0.546875 -0.53125 -0.546875 -1.625zm19.429688 27.59375q-4.75 0 -7.5 -2.890625q-2.734375 -2.890625 -2.734375 -8.03125q0 -5.171875 2.546875 -8.21875q2.546875 -3.046875 6.84375 -3.046875q4.03125 0 6.375 2.65625q2.34375 2.640625 2.34375 6.96875l0 2.046875l-14.75 0q0.09375 3.78125 1.890625 5.734375q1.8125 1.953125 5.09375 1.953125q3.46875 0 6.84375 -1.453125l0 2.890625q-1.71875 0.75 -3.25 1.0625q-1.53125 0.328125 -3.703125 0.328125zm-0.875 -19.46875q-2.578125 0 -4.125 1.6875q-1.53125 1.671875 -1.796875 4.640625l11.1875 0q0 -3.078125 -1.375 -4.703125q-1.359375 -1.625 -3.890625 -1.625zm22.832031 19.46875q-4.65625 0 -7.203125 -2.859375q-2.546875 -2.859375 -2.546875 -8.09375q0 -5.375 2.578125 -8.296875q2.59375 -2.9375 7.375 -2.9375q1.546875 0 3.09375 0.328125q1.546875 0.328125 2.421875 0.78125l-1.0 2.75q-1.078125 -0.421875 -2.34375 -0.703125q-1.265625 -0.28125 -2.25 -0.28125q-6.515625 0 -6.515625 8.3125q0 3.953125 1.59375 6.0625q1.59375 2.109375 4.71875 2.109375q2.671875 0 5.484375 -1.15625l0 2.875q-2.15625 1.109375 -5.40625 1.109375zm17.402344 -2.671875q0.859375 0 1.65625 -0.125q0.796875 -0.140625 1.265625 -0.265625l0 2.46875q-0.53125 0.265625 -1.5625 0.421875q-1.015625 0.171875 -1.828125 0.171875q-6.21875 0 -6.21875 -6.546875l0 -12.734375l-3.0625 0l0 -1.5625l3.0625 -1.34375l1.375 -4.578125l1.875 0l0 4.96875l6.203125 0l0 2.515625l-6.203125 0l0 12.59375q0 1.9375 0.90625 2.984375q0.921875 1.03125 2.53125 1.03125z" fill-rule="nonzero"></path><path fill="#000000" fill-opacity="0.0" d="m529.4674 232.0l0 0c0 18.125381 -2.4488525 32.81891 -5.4696045 32.81891l-211.80096 0c-3.0207825 0 -5.4696045 14.693512 -5.4696045 32.81888l0 0c0 -18.125366 -2.448822 -32.81888 -5.469574 -32.81888l-211.80096 0c-3.0207748 0 -5.469597 -14.693527 -5.469597 -32.81891z" fill-rule="nonzero"></path><path fill="#000000" fill-opacity="0.0" d="m529.4674 232.0l0 0c0 18.125381 -2.4488525 32.81891 -5.4696045 32.81891l-211.80096 0c-3.0207825 0 -5.4696045 14.693512 -5.4696045 32.81888l0 0c0 -18.125366 -2.448822 -32.81888 -5.469574 -32.81888l-211.80096 0c-3.0207748 0 -5.469597 -14.693527 -5.469597 -32.81891" fill-rule="nonzero"></path><path stroke="#000000" stroke-width="2.0" stroke-linejoin="round" stroke-linecap="butt" d="m529.4674 232.0l0 0c0 18.125381 -2.4488525 32.81891 -5.4696045 32.81891l-211.80096 0c-3.0207825 0 -5.4696045 14.693512 -5.4696045 32.81888l0 0c0 -18.125366 -2.448822 -32.81888 -5.469574 -32.81888l-211.80096 0c-3.0207748 0 -5.469597 -14.693527 -5.469597 -32.81891" fill-rule="nonzero"></path></g></svg>

