<?xml version="1.0" standalone="yes"?>

<svg version="1.1" viewBox="0.0 0.0 952.0 388.0" fill="none" stroke="none" stroke-linecap="square" stroke-miterlimit="10" xmlns="http://www.w3.org/2000/svg" xmlns:xlink="http://www.w3.org/1999/xlink"><clipPath id="p.0"><path d="m0 0l952.0 0l0 388.0l-952.0 0l0 -388.0z" clip-rule="nonzero"></path></clipPath><g clip-path="url(#p.0)"><path fill="#000000" fill-opacity="0.0" d="m0 0l952.0 0l0 388.0l-952.0 0z" fill-rule="nonzero"></path><path fill="#cfe2f3" d="m31.979763 195.9327l0 0c-2.5882053 -15.9401245 5.9093895 -31.719864 21.886944 -40.643326c15.977554 -8.923447 36.63295 -9.425629 53.20134 -1.2934265l0 0c5.869026 -9.2682495 16.611061 -15.667343 28.976845 -17.261658c12.365799 -1.5943298 24.902924 1.8033752 33.819153 9.165344l0 0c4.9996643 -8.403183 14.816574 -14.049057 25.967194 -14.934158c11.1506195 -0.8851013 22.05687 3.1158295 28.848633 10.583054l0 0c9.032608 -8.907364 23.403717 -12.65773 36.894867 -9.628296c13.49115 3.029419 23.67923 12.29454 26.155762 23.786255l0 0c11.066498 2.5297394 20.284637 8.960632 25.272766 17.63118c4.988159 8.670532 5.256958 18.730148 0.736969 27.579758l0 0c10.897247 11.885986 13.446411 27.723923 6.6961365 41.60338c-6.7502747 13.87944 -21.785797 23.715164 -39.495605 25.836655c-0.124816895 13.026367 -8.649384 24.979187 -22.287964 31.251343c-13.638565 6.272156 -30.261444 5.884247 -43.461426 -1.0142517c-5.6224823 15.601318 -21.447922 27.080597 -40.63913 29.478424c-19.191208 2.3977966 -38.307785 -4.7157593 -49.090668 -18.267334c-13.21756 6.679596 -29.077522 8.60379 -44.002213 5.338501c-14.92469 -3.2653198 -27.656918 -11.445068 -35.324554 -22.694061l0 0c-13.50668 1.3246155 -26.565775 -4.539978 -32.696102 -14.6831665c-6.1303253 -10.143188 -4.026882 -22.405731 5.2663965 -30.701797l0 0c-12.048308 -5.9429016 -18.196083 -17.73558 -15.237497 -29.228638c2.9585845 -11.493042 14.353102 -20.082092 28.241756 -21.288284z" fill-rule="nonzero"></path><path fill="#000000" fill-opacity="0.0" d="m18.708519 247.06398l0 0c5.6856327 2.8044739 12.253874 4.076645 18.822826 3.6457062m8.60392 41.740265c2.8248901 -0.27703857 5.5938187 -0.863678 8.235382 -1.7448425m71.08743 19.09967c-1.9868469 -2.4970093 -3.6503296 -5.165283 -4.96212 -7.9593506m94.69536 -3.2521973l0 0c1.0250702 -2.8443604 1.6892242 -5.77182 1.9813843 -8.733551m63.765533 -21.502441c0.13290405 -13.868561 -9.266296 -26.566772 -24.16034 -32.64035m56.959473 -34.798233c-2.4120483 4.7225037 -6.0942993 8.911789 -10.758026 12.239349m-15.249451 -57.451508l0 0c0.41098022 1.9070435 0.6011963 3.8427734 0.56796265 5.780319m-63.617523 -19.937714l0 0c-2.253189 2.221939 -4.1095123 4.704941 -5.5111847 7.3716583m-49.305145 -3.021515l0 0c-1.2007599 2.0181732 -2.097412 4.1537476 -2.669281 6.3575134m-60.12764 1.7389526l0 0c3.5058594 1.7207642 6.7492523 3.7919006 9.658936 6.167877m-84.74625 35.769104l0 0c0.3567238 2.1969604 0.92036057 4.3668365 1.6856422 6.489319" fill-rule="nonzero"></path><path stroke="#000000" stroke-width="2.0" stroke-linejoin="round" stroke-linecap="butt" d="m31.979763 195.9327l0 0c-2.5882053 -15.9401245 5.9093895 -31.719864 21.886944 -40.643326c15.977554 -8.923447 36.63295 -9.425629 53.20134 -1.2934265l0 0c5.869026 -9.2682495 16.611061 -15.667343 28.976845 -17.261658c12.365799 -1.5943298 24.902924 1.8033752 33.819153 9.165344l0 0c4.9996643 -8.403183 14.816574 -14.049057 25.967194 -14.934158c11.1506195 -0.8851013 22.05687 3.1158295 28.848633 10.583054l0 0c9.032608 -8.907364 23.403717 -12.65773 36.894867 -9.628296c13.49115 3.029419 23.67923 12.29454 26.155762 23.786255l0 0c11.066498 2.5297394 20.284637 8.960632 25.272766 17.63118c4.988159 8.670532 5.256958 18.730148 0.736969 27.579758l0 0c10.897247 11.885986 13.446411 27.723923 6.6961365 41.60338c-6.7502747 13.87944 -21.785797 23.715164 -39.495605 25.836655c-0.124816895 13.026367 -8.649384 24.979187 -22.287964 31.251343c-13.638565 6.272156 -30.261444 5.884247 -43.461426 -1.0142517c-5.6224823 15.601318 -21.447922 27.080597 -40.63913 29.478424c-19.191208 2.3977966 -38.307785 -4.7157593 -49.090668 -18.267334c-13.21756 6.679596 -29.077522 8.60379 -44.002213 5.338501c-14.92469 -3.2653198 -27.656918 -11.445068 -35.324554 -22.694061l0 0c-13.50668 1.3246155 -26.565775 -4.539978 -32.696102 -14.6831665c-6.1303253 -10.143188 -4.026882 -22.405731 5.2663965 -30.701797l0 0c-12.048308 -5.9429016 -18.196083 -17.73558 -15.237497 -29.228638c2.9585845 -11.493042 14.353102 -20.082092 28.241756 -21.288284z" fill-rule="nonzero"></path><path stroke="#000000" stroke-width="2.0" stroke-linejoin="round" stroke-linecap="butt" d="m18.708519 247.06398l0 0c5.6856327 2.8044739 12.253874 4.076645 18.822826 3.6457062m8.60392 41.740265c2.8248901 -0.27703857 5.5938187 -0.863678 8.235382 -1.7448425m71.08743 19.09967c-1.9868469 -2.4970093 -3.6503296 -5.165283 -4.96212 -7.9593506m94.69536 -3.2521973l0 0c1.0250702 -2.8443604 1.6892242 -5.77182 1.9813843 -8.733551m63.765533 -21.502441c0.13290405 -13.868561 -9.266296 -26.566772 -24.16034 -32.64035m56.959473 -34.798233c-2.4120483 4.7225037 -6.0942993 8.911789 -10.758026 12.239349m-15.249451 -57.451508l0 0c0.41098022 1.9070435 0.6011963 3.8427734 0.56796265 5.780319m-63.617523 -19.937714l0 0c-2.253189 2.221939 -4.1095123 4.704941 -5.5111847 7.3716583m-49.305145 -3.021515l0 0c-1.2007599 2.0181732 -2.097412 4.1537476 -2.669281 6.3575134m-60.12764 1.7389526l0 0c3.5058594 1.7207642 6.7492523 3.7919006 9.658936 6.167877m-84.74625 35.769104l0 0c0.3567238 2.1969604 0.92036057 4.3668365 1.6856422 6.489319" fill-rule="nonzero"></path><path fill="#000000" d="m88.00185 238.82587l0 -28.640625l3.78125 0l0 28.640625l-3.78125 0zm10.019531 0l0 -20.75l3.15625 0l0 2.953125q2.296875 -3.421875 6.609375 -3.421875q1.875 0 3.4375 0.6875q1.578125 0.671875 2.359375 1.765625q0.78125 1.09375 1.09375 2.59375q0.203125 0.96875 0.203125 3.421875l0 12.75l-3.515625 0l0 -12.625q0 -2.140625 -0.421875 -3.203125q-0.40625 -1.0625 -1.453125 -1.703125q-1.046875 -0.640625 -2.453125 -0.640625q-2.234375 0 -3.875 1.4375q-1.625 1.421875 -1.625 5.40625l0 11.328125l-3.515625 0zm29.917969 -3.140625l0.515625 3.09375q-1.484375 0.328125 -2.65625 0.328125q-1.921875 0 -2.984375 -0.609375q-1.046875 -0.609375 -1.484375 -1.59375q-0.421875 -0.984375 -0.421875 -4.15625l0 -11.9375l-2.578125 0l0 -2.734375l2.578125 0l0 -5.125l3.5 -2.109375l0 7.234375l3.53125 0l0 2.734375l-3.53125 0l0 12.140625q0 1.5 0.1875 1.9375q0.1875 0.421875 0.59375 0.671875q0.421875 0.25 1.203125 0.25q0.59375 0 1.546875 -0.125zm17.644531 -3.546875l3.625 0.453125q-0.859375 3.1875 -3.1875 4.953125q-2.3125 1.75 -5.9375 1.75q-4.546875 0 -7.21875 -2.796875q-2.65625 -2.8125 -2.65625 -7.875q0 -5.234375 2.6875 -8.125q2.703125 -2.890625 7.0 -2.890625q4.15625 0 6.796875 2.84375q2.640625 2.828125 2.640625 7.96875q0 0.3125 -0.03125 0.9375l-15.46875 0q0.203125 3.40625 1.9375 5.234375q1.734375 1.8125 4.34375 1.8125q1.921875 0 3.28125 -1.015625q1.375 -1.015625 2.1875 -3.25zm-11.546875 -5.671875l11.578125 0q-0.234375 -2.625 -1.328125 -3.9375q-1.671875 -2.03125 -4.359375 -2.03125q-2.421875 0 -4.078125 1.625q-1.640625 1.625 -1.8125 4.34375zm19.542969 12.359375l0 -20.75l3.171875 0l0 3.15625q1.203125 -2.21875 2.234375 -2.921875q1.03125 -0.703125 2.25 -0.703125q1.78125 0 3.625 1.140625l-1.21875 3.265625q-1.28125 -0.765625 -2.578125 -0.765625q-1.15625 0 -2.078125 0.703125q-0.90625 0.6875 -1.296875 1.90625q-0.59375 1.875 -0.59375 4.109375l0 10.859375l-3.515625 0zm13.3671875 0l0 -20.75l3.15625 0l0 2.953125q2.296875 -3.421875 6.6093597 -3.421875q1.875 0 3.4375 0.6875q1.578125 0.671875 2.359375 1.765625q0.78125 1.09375 1.09375 2.59375q0.203125 0.96875 0.203125 3.421875l0 12.75l-3.515625 0l0 -12.625q0 -2.140625 -0.421875 -3.203125q-0.40625 -1.0625 -1.453125 -1.703125q-1.046875 -0.640625 -2.453125 -0.640625q-2.2343597 0 -3.8749847 1.4375q-1.625 1.421875 -1.625 5.40625l0 11.328125l-3.515625 0zm36.449203 -6.6875l3.625 0.453125q-0.859375 3.1875 -3.1875 4.953125q-2.3125 1.75 -5.9375 1.75q-4.546875 0 -7.21875 -2.796875q-2.65625 -2.8125 -2.65625 -7.875q0 -5.234375 2.6875 -8.125q2.703125 -2.890625 7.0 -2.890625q4.15625 0 6.796875 2.84375q2.640625 2.828125 2.640625 7.96875q0 0.3125 -0.03125 0.9375l-15.46875 0q0.203125 3.40625 1.9375 5.234375q1.734375 1.8125 4.34375 1.8125q1.921875 0 3.28125 -1.015625q1.375 -1.015625 2.1875 -3.25zm-11.546875 -5.671875l11.578125 0q-0.234375 -2.625 -1.328125 -3.9375q-1.671875 -2.03125 -4.359375 -2.03125q-2.421875 0 -4.078125 1.625q-1.640625 1.625 -1.8125 4.34375zm27.261719 9.21875l0.515625 3.09375q-1.484375 0.328125 -2.65625 0.328125q-1.921875 0 -2.984375 -0.609375q-1.046875 -0.609375 -1.484375 -1.59375q-0.421875 -0.984375 -0.421875 -4.15625l0 -11.9375l-2.578125 0l0 -2.734375l2.578125 0l0 -5.125l3.5 -2.109375l0 7.234375l3.53125 0l0 2.734375l-3.53125 0l0 12.140625q0 1.5 0.1875 1.9375q0.1875 0.421875 0.59375 0.671875q0.421875 0.25 1.203125 0.25q0.59375 0 1.546875 -0.125z" fill-rule="nonzero"></path><path fill="#ffffff" d="m406.2096 138.87407l0 0c0 -22.019356 17.85022 -39.869568 39.869568 -39.869568l462.05615 0c10.574036 0 20.715027 4.200531 28.192017 11.677528c7.4769897 7.4769897 11.677551 17.617973 11.677551 28.19204l0 159.47346c0 22.019348 -17.85022 39.869568 -39.869568 39.869568l-462.05615 0c-22.019348 0 -39.869568 -17.85022 -39.869568 -39.869568z" fill-rule="nonzero"></path><path stroke="#000000" stroke-width="2.0" stroke-linejoin="round" stroke-linecap="butt" d="m406.2096 138.87407l0 0c0 -22.019356 17.85022 -39.869568 39.869568 -39.869568l462.05615 0c10.574036 0 20.715027 4.200531 28.192017 11.677528c7.4769897 7.4769897 11.677551 17.617973 11.677551 28.19204l0 159.47346c0 22.019348 -17.85022 39.869568 -39.869568 39.869568l-462.05615 0c-22.019348 0 -39.869568 -17.85022 -39.869568 -39.869568z" fill-rule="nonzero"></path><path fill="#cfe2f3" d="m716.0168 156.92493l0 0c0 -14.759476 11.964966 -26.724411 26.724426 -26.724411l106.897644 0l0 0c7.0877686 0 13.885254 2.8155975 18.897034 7.827408c5.01178 5.011795 7.8273926 11.80925 7.8273926 18.897003l0 123.33859c0 14.75946 -11.964905 26.724396 -26.724426 26.724396l-106.897644 0c-14.75946 0 -26.724426 -11.964935 -26.724426 -26.724396z" fill-rule="nonzero"></path><path stroke="#000000" stroke-width="2.0" stroke-linejoin="round" stroke-linecap="butt" d="m716.0168 156.92493l0 0c0 -14.759476 11.964966 -26.724411 26.724426 -26.724411l106.897644 0l0 0c7.0877686 0 13.885254 2.8155975 18.897034 7.827408c5.01178 5.011795 7.8273926 11.80925 7.8273926 18.897003l0 123.33859c0 14.75946 -11.964905 26.724396 -26.724426 26.724396l-106.897644 0c-14.75946 0 -26.724426 -11.964935 -26.724426 -26.724396z" fill-rule="nonzero"></path><path fill="#000000" d="m763.16077 208.99422l-7.609375 -28.640625l3.890625 0l4.359375 18.78125q0.703125 2.9375 1.203125 5.859375q1.09375 -4.59375 1.296875 -5.296875l5.453125 -19.34375l4.5625 0l4.109375 14.5q1.53125 5.390625 2.21875 10.140625q0.546875 -2.71875 1.421875 -6.234375l4.5 -18.40625l3.8125 0l-7.859375 28.640625l-3.65625 0l-6.03125 -21.8125q-0.765625 -2.734375 -0.890625 -3.359375q-0.453125 1.96875 -0.84375 3.359375l-6.078125 21.8125l-3.859375 0zm46.503906 -6.6875l3.625 0.453125q-0.859375 3.1875 -3.1875 4.953125q-2.3125 1.75 -5.9375 1.75q-4.546875 0 -7.21875 -2.796875q-2.65625 -2.8125 -2.65625 -7.875q0 -5.234375 2.6875 -8.125q2.703125 -2.890625 7.0 -2.890625q4.15625 0 6.796875 2.84375q2.640625 2.828125 2.640625 7.96875q0 0.3125 -0.03125 0.9375l-15.46875 0q0.203125 3.40625 1.9375 5.234375q1.734375 1.8125 4.34375 1.8125q1.921875 0 3.28125 -1.015625q1.375 -1.015625 2.1875 -3.25zm-11.546875 -5.671875l11.578125 0q-0.234375 -2.625 -1.328125 -3.9375q-1.671875 -2.03125 -4.359375 -2.03125q-2.421875 0 -4.078125 1.625q-1.640625 1.625 -1.8125 4.34375zm22.824219 12.359375l-3.25 0l0 -28.640625l3.515625 0l0 10.21875q2.21875 -2.796875 5.671875 -2.796875q1.921875 0 3.625 0.78125q1.71875 0.765625 2.8125 2.171875q1.109375 1.390625 1.734375 3.359375q0.625 1.96875 0.625 4.21875q0 5.328125 -2.640625 8.25q-2.640625 2.90625 -6.328125 2.90625q-3.671875 0 -5.765625 -3.0625l0 2.59375zm-0.03125 -10.53125q0 3.734375 1.015625 5.390625q1.65625 2.71875 4.484375 2.71875q2.3125 0 3.984375 -2.0q1.6875 -2.0 1.6875 -5.96875q0 -4.0625 -1.609375 -6.0q-1.609375 -1.9375 -3.90625 -1.9375q-2.296875 0 -3.984375 2.015625q-1.671875 2.0 -1.671875 5.78125z" fill-rule="nonzero"></path><path fill="#000000" d="m739.0807 247.79109l3.578125 -0.3125q0.25 2.15625 1.171875 3.53125q0.9375 1.375 2.890625 2.234375q1.953125 0.84375 4.390625 0.84375q2.171875 0 3.828125 -0.640625q1.65625 -0.65625 2.46875 -1.78125q0.8125 -1.125 0.8125 -2.453125q0 -1.34375 -0.78125 -2.34375q-0.78125 -1.015625 -2.578125 -1.6875q-1.15625 -0.453125 -5.109375 -1.390625q-3.9375 -0.953125 -5.515625 -1.796875q-2.046875 -1.078125 -3.0625 -2.671875q-1.0 -1.59375 -1.0 -3.5625q0 -2.171875 1.234375 -4.046875q1.234375 -1.890625 3.59375 -2.859375q2.359375 -0.984375 5.25 -0.984375q3.1875 0 5.609375 1.03125q2.4375 1.015625 3.75 3.015625q1.3125 1.984375 1.40625 4.515625l-3.640625 0.265625q-0.28125 -2.71875 -1.984375 -4.09375q-1.6875 -1.390625 -4.984375 -1.390625q-3.4375 0 -5.015625 1.265625q-1.5625 1.25 -1.5625 3.03125q0 1.546875 1.109375 2.53125q1.09375 1.0 5.703125 2.046875q4.625 1.046875 6.34375 1.828125q2.5 1.15625 3.6875 2.921875q1.203125 1.765625 1.203125 4.0625q0 2.296875 -1.3125 4.3125q-1.3125 2.015625 -3.765625 3.1406403q-2.4375 1.125 -5.515625 1.125q-3.875 0 -6.515625 -1.125q-2.625 -1.1406403 -4.125 -3.4062653q-1.484375 -2.28125 -1.5625 -5.15625zm41.726562 2.515625l3.625 0.453125q-0.859375 3.1875 -3.1875 4.953125q-2.3125 1.7500153 -5.9375 1.7500153q-4.546875 0 -7.21875 -2.7968903q-2.65625 -2.8125 -2.65625 -7.875q0 -5.234375 2.6875 -8.125q2.703125 -2.890625 7.0 -2.890625q4.15625 0 6.796875 2.84375q2.640625 2.828125 2.640625 7.96875q0 0.3125 -0.03125 0.9375l-15.46875 0q0.203125 3.40625 1.9375 5.234375q1.734375 1.8125 4.34375 1.8125q1.921875 0 3.28125 -1.015625q1.375 -1.015625 2.1875 -3.25zm-11.546875 -5.671875l11.578125 0q-0.234375 -2.625 -1.328125 -3.9375q-1.671875 -2.03125 -4.359375 -2.03125q-2.421875 0 -4.078125 1.625q-1.640625 1.625 -1.8125 4.34375zm19.542969 12.35939l0 -20.750015l3.171875 0l0 3.15625q1.203125 -2.21875 2.234375 -2.921875q1.03125 -0.703125 2.25 -0.703125q1.78125 0 3.625 1.140625l-1.21875 3.265625q-1.28125 -0.765625 -2.578125 -0.765625q-1.15625 0 -2.078125 0.703125q-0.90625 0.6875 -1.296875 1.90625q-0.59375 1.875 -0.59375 4.109375l0 10.85939l-3.515625 0zm19.132812 0l-7.890625 -20.750015l3.703125 0l4.453125 12.421875q0.71875 2.015625 1.328125 4.1875q0.46875 -1.640625 1.3125 -3.953125l4.609375 -12.65625l3.609375 0l-7.84375 20.750015l-3.28125 0zm28.4375 -6.6875153l3.625 0.453125q-0.859375 3.1875 -3.1875 4.953125q-2.3125 1.7500153 -5.9375 1.7500153q-4.546875 0 -7.21875 -2.7968903q-2.65625 -2.8125 -2.65625 -7.875q0 -5.234375 2.6875 -8.125q2.703125 -2.890625 7.0 -2.890625q4.15625 0 6.796875 2.84375q2.640625 2.828125 2.640625 7.96875q0 0.3125 -0.03125 0.9375l-15.46875 0q0.203125 3.40625 1.9375 5.234375q1.734375 1.8125 4.34375 1.8125q1.921875 0 3.28125 -1.015625q1.375 -1.015625 2.1875 -3.25zm-11.546875 -5.671875l11.578125 0q-0.234375 -2.625 -1.328125 -3.9375q-1.671875 -2.03125 -4.359375 -2.03125q-2.421875 0 -4.078125 1.625q-1.640625 1.625 -1.8125 4.34375zm19.542969 12.35939l0 -20.750015l3.171875 0l0 3.15625q1.203125 -2.21875 2.234375 -2.921875q1.03125 -0.703125 2.25 -0.703125q1.78125 0 3.625 1.140625l-1.21875 3.265625q-1.28125 -0.765625 -2.578125 -0.765625q-1.15625 0 -2.078125 0.703125q-0.90625 0.6875 -1.296875 1.90625q-0.59375 1.875 -0.59375 4.109375l0 10.85939l-3.515625 0z" fill-rule="nonzero"></path><path fill="#cfe2f3" d="m466.97556 156.92493l0 0c0 -14.759476 11.964935 -26.724411 26.724426 -26.724411l106.89761 0l0 0c7.0877686 0 13.885254 2.8155975 18.897034 7.827408c5.01178 5.011795 7.8273926 11.80925 7.8273926 18.897003l0 123.33859c0 14.75946 -11.964905 26.724396 -26.724426 26.724396l-106.89761 0c-14.759491 0 -26.724426 -11.964935 -26.724426 -26.724396z" fill-rule="nonzero"></path><path stroke="#000000" stroke-width="2.0" stroke-linejoin="round" stroke-linecap="butt" d="m466.97556 156.92493l0 0c0 -14.759476 11.964935 -26.724411 26.724426 -26.724411l106.89761 0l0 0c7.0877686 0 13.885254 2.8155975 18.897034 7.827408c5.01178 5.011795 7.8273926 11.80925 7.8273926 18.897003l0 123.33859c0 14.75946 -11.964905 26.724396 -26.724426 26.724396l-106.89761 0c-14.759491 0 -26.724426 -11.964935 -26.724426 -26.724396z" fill-rule="nonzero"></path><path fill="#000000" d="m499.1195 232.99422l0 -28.640625l10.796875 0q2.84375 0 4.359375 0.28125q2.109375 0.34375 3.53125 1.34375q1.421875 0.984375 2.28125 2.765625q0.875 1.765625 0.875 3.890625q0 3.65625 -2.328125 6.1875q-2.3125 2.53125 -8.390625 2.53125l-7.34375 0l0 11.640625l-3.78125 0zm3.78125 -15.015625l7.40625 0q3.671875 0 5.203125 -1.359375q1.546875 -1.375 1.546875 -3.859375q0 -1.796875 -0.90625 -3.078125q-0.90625 -1.28125 -2.390625 -1.6875q-0.953125 -0.25 -3.53125 -0.25l-7.328125 0l0 10.234375zm22.398438 15.015625l0 -20.75l3.171875 0l0 3.15625q1.203125 -2.21875 2.234375 -2.921875q1.03125 -0.703125 2.25 -0.703125q1.78125 0 3.625 1.140625l-1.21875 3.265625q-1.28125 -0.765625 -2.578125 -0.765625q-1.15625 0 -2.078125 0.703125q-0.90625 0.6875 -1.296875 1.90625q-0.59375 1.875 -0.59375 4.109375l0 10.859375l-3.515625 0zm12.0546875 -10.375q0 -5.765625 3.203125 -8.53125q2.671875 -2.3125 6.53125 -2.3125q4.265625 0 6.984375 2.8125q2.71875 2.796875 2.71875 7.734375q0 4.015625 -1.203125 6.3125q-1.203125 2.28125 -3.5 3.5625q-2.296875 1.265625 -5.0 1.265625q-4.359375 0 -7.046875 -2.796875q-2.6875 -2.796875 -2.6875 -8.046875zm3.609375 0q0 3.984375 1.734375 5.96875q1.75 1.984375 4.390625 1.984375q2.609375 0 4.34375 -1.984375q1.75 -2.0 1.75 -6.078125q0 -3.859375 -1.75 -5.828125q-1.75 -1.984375 -4.34375 -1.984375q-2.640625 0 -4.390625 1.96875q-1.734375 1.96875 -1.734375 5.953125zm17.605469 10.375l7.578125 -10.78125l-7.015625 -9.96875l4.390625 0l3.1875 4.875q0.90625 1.375 1.453125 2.3125q0.859375 -1.28125 1.578125 -2.28125l3.5 -4.90625l4.1875 0l-7.15625 9.765625l7.703125 10.984375l-4.3125 0l-4.25 -6.453125l-1.140625 -1.734375l-5.453125 8.1875l-4.25 0zm22.1875 7.984375l-0.390625 -3.296875q1.15625 0.3125 2.015625 0.3125q1.171875 0 1.875 -0.390625q0.703125 -0.390625 1.140625 -1.09375q0.34375 -0.53125 1.078125 -2.609375q0.09375 -0.296875 0.3125 -0.859375l-7.875 -20.796875l3.796875 0l4.3125 12.015625q0.84375 2.28125 1.5 4.8125q0.609375 -2.421875 1.453125 -4.734375l4.4375 -12.09375l3.515625 0l-7.890625 21.109375q-1.28125 3.40625 -1.984375 4.703125q-0.9375 1.734375 -2.15625 2.546875q-1.203125 0.8125 -2.875 0.8125q-1.015625 0 -2.265625 -0.4375z" fill-rule="nonzero"></path><path fill="#000000" fill-opacity="0.0" d="m537.4094 338.2021l332.59845 0l0 63.68506l-332.59845 0z" fill-rule="nonzero"></path><path fill="#000000" d="m550.1438 385.6021l0 -28.640625l3.78125 0l0 28.640625l-3.78125 0zm10.019531 0l0 -20.75l3.15625 0l0 2.953125q2.296875 -3.421875 6.609375 -3.421875q1.875 0 3.4375 0.6875q1.578125 0.671875 2.359375 1.765625q0.78125 1.09375 1.09375 2.59375q0.203125 0.96875 0.203125 3.421875l0 12.75l-3.515625 0l0 -12.625q0 -2.140625 -0.421875 -3.203125q-0.40625 -1.0625 -1.453125 -1.703125q-1.046875 -0.640625 -2.453125 -0.640625q-2.234375 0 -3.875 1.4375q-1.625 1.421875 -1.625 5.40625l0 11.328125l-3.515625 0zm29.917969 -3.140625l0.515625 3.09375q-1.484375 0.328125 -2.65625 0.328125q-1.921875 0 -2.984375 -0.609375q-1.046875 -0.609375 -1.484375 -1.59375q-0.421875 -0.984375 -0.421875 -4.15625l0 -11.9375l-2.578125 0l0 -2.734375l2.578125 0l0 -5.125l3.5 -2.109375l0 7.234375l3.53125 0l0 2.734375l-3.53125 0l0 12.140625q0 1.5 0.1875 1.9375q0.1875 0.421875 0.59375 0.671875q0.421875 0.25 1.203125 0.25q0.59375 0 1.546875 -0.125zm17.644531 -3.546875l3.625 0.453125q-0.859375 3.1875 -3.1875 4.953125q-2.3125 1.75 -5.9375 1.75q-4.546875 0 -7.21875 -2.796875q-2.65625 -2.8125 -2.65625 -7.875q0 -5.234375 2.6875 -8.125q2.703125 -2.890625 7.0 -2.890625q4.15625 0 6.796875 2.84375q2.640625 2.828125 2.640625 7.96875q0 0.3125 -0.03125 0.9375l-15.46875 0q0.203125 3.40625 1.9375 5.234375q1.734375 1.8125 4.34375 1.8125q1.921875 0 3.28125 -1.015625q1.375 -1.015625 2.1875 -3.25zm-11.546875 -5.671875l11.578125 0q-0.234375 -2.625 -1.328125 -3.9375q-1.671875 -2.03125 -4.359375 -2.03125q-2.421875 0 -4.078125 1.625q-1.640625 1.625 -1.8125 4.34375zm19.542969 12.359375l0 -20.75l3.171875 0l0 3.15625q1.203125 -2.21875 2.234375 -2.921875q1.03125 -0.703125 2.25 -0.703125q1.78125 0 3.625 1.140625l-1.21875 3.265625q-1.28125 -0.765625 -2.578125 -0.765625q-1.15625 0 -2.078125 0.703125q-0.90625 0.6875 -1.296875 1.90625q-0.59375 1.875 -0.59375 4.109375l0 10.859375l-3.515625 0zm13.3671875 0l0 -20.75l3.15625 0l0 2.953125q2.296875 -3.421875 6.609375 -3.421875q1.875 0 3.4375 0.6875q1.578125 0.671875 2.359375 1.765625q0.78125 1.09375 1.09375 2.59375q0.203125 0.96875 0.203125 3.421875l0 12.75l-3.515625 0l0 -12.625q0 -2.140625 -0.421875 -3.203125q-0.40625 -1.0625 -1.453125 -1.703125q-1.046875 -0.640625 -2.453125 -0.640625q-2.234375 0 -3.875 1.4375q-1.625 1.421875 -1.625 5.40625l0 11.328125l-3.515625 0zm35.777344 -2.5625q-1.953125 1.65625 -3.765625 2.34375q-1.796875 0.6875 -3.875 0.6875q-3.40625 0 -5.25 -1.671875q-1.828125 -1.671875 -1.828125 -4.265625q0 -1.53125 0.6875 -2.78125q0.6875 -1.265625 1.8125 -2.015625q1.125 -0.765625 2.53125 -1.15625q1.03125 -0.28125 3.125 -0.53125q4.265625 -0.515625 6.265625 -1.21875q0.03125 -0.71875 0.03125 -0.90625q0 -2.15625 -1.0 -3.03125q-1.34375 -1.1875 -4.0 -1.1875q-2.484375 0 -3.671875 0.875q-1.171875 0.859375 -1.75 3.0625l-3.4375 -0.46875q0.46875 -2.203125 1.546875 -3.5625q1.078125 -1.359375 3.109375 -2.09375q2.03125 -0.734375 4.703125 -0.734375q2.65625 0 4.3125 0.625q1.671875 0.625 2.453125 1.578125q0.78125 0.953125 1.09375 2.390625q0.171875 0.90625 0.171875 3.25l0 4.6875q0 4.890625 0.21875 6.203125q0.234375 1.296875 0.890625 2.484375l-3.671875 0q-0.546875 -1.09375 -0.703125 -2.5625zm-0.296875 -7.84375q-1.90625 0.78125 -5.734375 1.328125q-2.171875 0.3125 -3.078125 0.703125q-0.890625 0.390625 -1.375 1.140625q-0.484375 0.75 -0.484375 1.671875q0 1.40625 1.0625 2.34375q1.0625 0.9375 3.109375 0.9375q2.03125 0 3.609375 -0.890625q1.59375 -0.890625 2.328125 -2.4375q0.5625 -1.1875 0.5625 -3.515625l0 -1.28125zm8.933594 10.40625l0 -28.640625l3.515625 0l0 28.640625l-3.515625 0zm20.078125 0l0 -20.75l3.15625 0l0 2.953125q2.296875 -3.421875 6.609375 -3.421875q1.875 0 3.4375 0.6875q1.578125 0.671875 2.359375 1.765625q0.78125 1.09375 1.09375 2.59375q0.203125 0.96875 0.203125 3.421875l0 12.75l-3.515625 0l0 -12.625q0 -2.140625 -0.421875 -3.203125q-0.40625 -1.0625 -1.453125 -1.703125q-1.046875 -0.640625 -2.453125 -0.640625q-2.234375 0 -3.875 1.4375q-1.625 1.421875 -1.625 5.40625l0 11.328125l-3.515625 0zm36.44922 -6.6875l3.625 0.453125q-0.859375 3.1875 -3.1875 4.953125q-2.3125 1.75 -5.9375 1.75q-4.546875 0 -7.21875 -2.796875q-2.65625 -2.8125 -2.65625 -7.875q0 -5.234375 2.6875 -8.125q2.703125 -2.890625 7.0 -2.890625q4.15625 0 6.796875 2.84375q2.640625 2.828125 2.640625 7.96875q0 0.3125 -0.03125 0.9375l-15.46875 0q0.203125 3.40625 1.9375 5.234375q1.734375 1.8125 4.34375 1.8125q1.921875 0 3.28125 -1.015625q1.375 -1.015625 2.1875 -3.25zm-11.546875 -5.671875l11.578125 0q-0.234375 -2.625 -1.328125 -3.9375q-1.671875 -2.03125 -4.359375 -2.03125q-2.421875 0 -4.078125 1.625q-1.640625 1.625 -1.8125 4.34375zm27.261719 9.21875l0.515625 3.09375q-1.484375 0.328125 -2.65625 0.328125q-1.921875 0 -2.984375 -0.609375q-1.046875 -0.609375 -1.484375 -1.59375q-0.421875 -0.984375 -0.421875 -4.15625l0 -11.9375l-2.578125 0l0 -2.734375l2.578125 0l0 -5.125l3.5 -2.109375l0 7.234375l3.53125 0l0 2.734375l-3.53125 0l0 12.140625q0 1.5 0.1875 1.9375q0.1875 0.421875 0.59375 0.671875q0.421875 0.25 1.203125 0.25q0.59375 0 1.546875 -0.125zm7.2695312 3.140625l-6.34375 -20.75l3.625 0l3.296875 11.984375l1.234375 4.453125q0.078125 -0.34375 1.078125 -4.28125l3.296875 -12.15625l3.609375 0l3.109375 12.03125l1.03125 3.96875l1.203125 -4.0l3.546875 -12.0l3.421875 0l-6.484375 20.75l-3.65625 0l-3.296875 -12.421875l-0.796875 -3.53125l-4.203125 15.953125l-3.671875 0zm23.746094 -10.375q0 -5.765625 3.203125 -8.53125q2.671875 -2.3125 6.53125 -2.3125q4.265625 0 6.984375 2.8125q2.71875 2.796875 2.71875 7.734375q0 4.015625 -1.203125 6.3125q-1.203125 2.28125 -3.5 3.5625q-2.296875 1.265625 -5.0 1.265625q-4.359375 0 -7.046875 -2.796875q-2.6875 -2.796875 -2.6875 -8.046875zm3.609375 0q0 3.984375 1.734375 5.96875q1.75 1.984375 4.390625 1.984375q2.609375 0 4.34375 -1.984375q1.75 -2.0 1.75 -6.078125q0 -3.859375 -1.75 -5.828125q-1.75 -1.984375 -4.34375 -1.984375q-2.640625 0 -4.390625 1.96875q-1.734375 1.96875 -1.734375 5.953125zm19.902344 10.375l0 -20.75l3.171875 0l0 3.15625q1.203125 -2.21875 2.234375 -2.921875q1.03125 -0.703125 2.25 -0.703125q1.78125 0 3.625 1.140625l-1.21875 3.265625q-1.28125 -0.765625 -2.578125 -0.765625q-1.15625 0 -2.078125 0.703125q-0.90625 0.6875 -1.296875 1.90625q-0.59375 1.875 -0.59375 4.109375l0 10.859375l-3.515625 0zm13.3828125 0l0 -28.640625l3.515625 0l0 16.328125l8.328125 -8.4375l4.546875 0l-7.9375 7.703125l8.734375 13.046875l-4.328125 0l-6.859375 -10.609375l-2.484375 2.390625l0 8.21875l-3.515625 0z" fill-rule="nonzero"></path><path fill="#000000" fill-opacity="0.0" d="m579.0 40.0l263.1496 0l0 63.685036l-263.1496 0z" fill-rule="nonzero"></path><path fill="#000000" d="m604.84375 80.712494l3.625 0.453125q-0.859375 3.1875 -3.1875 4.953125q-2.3125 1.75 -5.9375 1.75q-4.546875 0 -7.21875 -2.796875q-2.65625 -2.8125 -2.65625 -7.875q0 -5.234375 2.6875 -8.125q2.703125 -2.890625 7.0 -2.890625q4.15625 0 6.796875 2.84375q2.640625 2.828125 2.640625 7.96875q0 0.3125 -0.03125 0.9375l-15.46875 0q0.203125 3.40625 1.9375 5.234375q1.734375 1.8125 4.34375 1.8125q1.921875 0 3.28125 -1.015625q1.375 -1.015625 2.1875 -3.25zm-11.546875 -5.671875l11.578125 0q-0.234375 -2.625 -1.328125 -3.9375q-1.671875 -2.03125 -4.359375 -2.03125q-2.421875 0 -4.078125 1.625q-1.640625 1.625 -1.8125 4.34375zm17.246094 12.359375l7.578125 -10.78125l-7.015625 -9.96875l4.390625 0l3.1875 4.875q0.90625 1.375 1.453125 2.3125q0.859375 -1.28125 1.578125 -2.28125l3.5 -4.90625l4.1875 0l-7.15625 9.765625l7.703125 10.984375l-4.3125 0l-4.25 -6.453125l-1.140625 -1.734375l-5.453125 8.1875l-4.25 0zm35.875 -2.5625q-1.953125 1.65625 -3.765625 2.34375q-1.796875 0.6875 -3.875 0.6875q-3.40625 0 -5.25 -1.671875q-1.828125 -1.671875 -1.828125 -4.265625q0 -1.53125 0.6875 -2.78125q0.6875 -1.265625 1.8125 -2.015625q1.125 -0.765625 2.53125 -1.15625q1.03125 -0.28125 3.125 -0.53125q4.265625 -0.515625 6.265625 -1.21875q0.03125 -0.71875 0.03125 -0.90625q0 -2.15625 -1.0 -3.03125q-1.34375 -1.1875 -4.0 -1.1875q-2.484375 0 -3.671875 0.875q-1.171875 0.859375 -1.75 3.0625l-3.4375 -0.46875q0.46875 -2.203125 1.546875 -3.5625q1.078125 -1.359375 3.109375 -2.09375q2.03125 -0.734375 4.703125 -0.734375q2.65625 0 4.3125 0.625q1.671875 0.625 2.453125 1.578125q0.78125 0.953125 1.09375 2.390625q0.171875 0.90625 0.171875 3.25l0 4.6875q0 4.890625 0.21875 6.203125q0.234375 1.296875 0.890625 2.484375l-3.671875 0q-0.546875 -1.09375 -0.703125 -2.5625zm-0.296875 -7.84375q-1.90625 0.78125 -5.734375 1.328125q-2.171875 0.3125 -3.078125 0.703125q-0.890625 0.390625 -1.375 1.140625q-0.484375 0.75 -0.484375 1.671875q0 1.40625 1.0625 2.34375q1.0625 0.9375 3.109375 0.9375q2.03125 0 3.609375 -0.890625q1.59375 -0.890625 2.328125 -2.4375q0.5625 -1.1875 0.5625 -3.515625l0 -1.28125zm9.011719 10.40625l0 -20.75l3.140625 0l0 2.921875q0.984375 -1.53125 2.59375 -2.453125q1.625 -0.9375 3.703125 -0.9375q2.296875 0 3.765625 0.96875q1.484375 0.953125 2.09375 2.671875q2.453125 -3.640625 6.40625 -3.640625q3.078125 0 4.734375 1.71875q1.671875 1.703125 1.671875 5.265625l0 14.234375l-3.5 0l0 -13.0625q0 -2.109375 -0.34375 -3.03125q-0.34375 -0.9375 -1.25 -1.5q-0.890625 -0.578125 -2.09375 -0.578125q-2.1875 0 -3.640625 1.46875q-1.4375 1.453125 -1.4375 4.65625l0 12.046875l-3.515625 0l0 -13.484375q0 -2.34375 -0.859375 -3.515625q-0.859375 -1.171875 -2.8125 -1.171875q-1.484375 0 -2.75 0.78125q-1.265625 0.78125 -1.828125 2.296875q-0.5625 1.5 -0.5625 4.328125l0 10.765625l-3.515625 0zm33.320312 7.953125l0 -28.703125l3.203125 0l0 2.703125q1.125 -1.578125 2.546875 -2.375q1.4375 -0.796875 3.46875 -0.796875q2.65625 0 4.6875 1.375q2.03125 1.359375 3.0625 3.859375q1.03125 2.484375 1.03125 5.453125q0 3.1875 -1.140625 5.734375q-1.140625 2.546875 -3.328125 3.90625q-2.171875 1.359375 -4.5625 1.359375q-1.765625 0 -3.171875 -0.734375q-1.390625 -0.75 -2.28125 -1.890625l0 10.109375l-3.515625 0zm3.1875 -18.203125q0 4.0 1.609375 5.921875q1.625 1.90625 3.9375 1.90625q2.34375 0 4.0 -1.984375q1.671875 -1.984375 1.671875 -6.140625q0 -3.96875 -1.625 -5.9375q-1.625 -1.96875 -3.890625 -1.96875q-2.25 0 -3.984375 2.09375q-1.71875 2.09375 -1.71875 6.109375zm18.980469 10.25l0 -28.640621l3.515625 0l0 28.640621l-3.515625 0zm23.167969 -6.6875l3.625 0.453125q-0.859375 3.1875 -3.1875 4.953125q-2.3125 1.75 -5.9375 1.75q-4.546875 0 -7.21875 -2.796875q-2.65625 -2.8125 -2.65625 -7.875q0 -5.234375 2.6875 -8.125q2.703125 -2.890625 7.0 -2.890625q4.15625 0 6.796875 2.84375q2.640625 2.828125 2.640625 7.96875q0 0.3125 -0.03125 0.9375l-15.46875 0q0.203125 3.40625 1.9375 5.234375q1.734375 1.8125 4.34375 1.8125q1.921875 0 3.28125 -1.015625q1.375 -1.015625 2.1875 -3.25zm-11.546875 -5.671875l11.578125 0q-0.234375 -2.625 -1.328125 -3.9375q-1.671875 -2.03125 -4.359375 -2.03125q-2.421875 0 -4.078125 1.625q-1.640625 1.625 -1.8125 4.34375zm20.589844 12.359375l0 -4.0l4.0 0l0 4.0l-4.0 0zm23.644531 -7.59375l3.453125 0.4375q-0.5625 3.578125 -2.90625 5.609375q-2.328125 2.015625 -5.71875 2.015625q-4.265625 0 -6.859375 -2.78125q-2.578125 -2.78125 -2.578125 -7.984375q0 -3.359375 1.109375 -5.875q1.125 -2.515625 3.390625 -3.78125q2.28125 -1.265625 4.953125 -1.265625q3.375 0 5.515625 1.71875q2.15625 1.703125 2.765625 4.84375l-3.421875 0.53125q-0.484375 -2.09375 -1.734375 -3.140625q-1.234375 -1.0625 -2.984375 -1.0625q-2.65625 0 -4.328125 1.90625q-1.65625 1.90625 -1.65625 6.03125q0 4.171875 1.59375 6.078125q1.609375 1.890625 4.1875 1.890625q2.078125 0 3.453125 -1.265625q1.390625 -1.28125 1.765625 -3.90625zm5.15625 -2.78125q0 -5.765625 3.203125 -8.53125q2.671875 -2.3125 6.53125 -2.3125q4.265625 0 6.984375 2.8125q2.71875 2.796875 2.71875 7.734375q0 4.015625 -1.203125 6.3125q-1.203125 2.28125 -3.5 3.5625q-2.296875 1.265625 -5.0 1.265625q-4.359375 0 -7.046875 -2.796875q-2.6875 -2.796875 -2.6875 -8.046875zm3.609375 0q0 3.984375 1.734375 5.96875q1.75 1.984375 4.390625 1.984375q2.609375 0 4.34375 -1.984375q1.75 -2.0 1.75 -6.078125q0 -3.859375 -1.75 -5.828125q-1.75 -1.984375 -4.34375 -1.984375q-2.640625 0 -4.390625 1.96875q-1.734375 1.96875 -1.734375 5.953125zm19.949219 10.375l0 -20.75l3.140625 0l0 2.921875q0.984375 -1.53125 2.59375 -2.453125q1.625 -0.9375 3.703125 -0.9375q2.296875 0 3.765625 0.96875q1.484375 0.953125 2.09375 2.671875q2.453125 -3.640625 6.40625 -3.640625q3.078125 0 4.734375 1.71875q1.671875 1.703125 1.671875 5.265625l0 14.234375l-3.5 0l0 -13.0625q0 -2.109375 -0.34375 -3.03125q-0.34375 -0.9375 -1.25 -1.5q-0.890625 -0.578125 -2.09375 -0.578125q-2.1875 0 -3.640625 1.46875q-1.4375 1.453125 -1.4375 4.65625l0 12.046875l-3.515625 0l0 -13.484375q0 -2.34375 -0.859375 -3.515625q-0.859375 -1.171875 -2.8125 -1.171875q-1.484375 0 -2.75 0.78125q-1.265625 0.78125 -1.828125 2.296875q-0.5625 1.5 -0.5625 4.328125l0 10.765625l-3.515625 0z" fill-rule="nonzero"></path><path fill="#000000" fill-opacity="0.0" d="m216.27852 154.23811l263.1496 0" fill-rule="nonzero"></path><path stroke="#000000" stroke-width="2.0" stroke-linejoin="round" stroke-linecap="butt" d="m216.27852 154.23811l251.14964 0" fill-rule="evenodd"></path><path fill="#000000" stroke="#000000" stroke-width="2.0" stroke-linecap="butt" d="m467.42816 157.54158l9.076172 -3.3034668l-9.076172 -3.3034668z" fill-rule="evenodd"></path><path fill="#000000" fill-opacity="0.0" d="m606.5614 154.23811l125.44879 0" fill-rule="nonzero"></path><path stroke="#000000" stroke-width="2.0" stroke-linejoin="round" stroke-linecap="butt" d="m606.5614 154.23811l113.44879 0" fill-rule="evenodd"></path><path fill="#000000" stroke="#000000" stroke-width="2.0" stroke-linecap="butt" d="m720.0102 157.54158l9.076172 -3.3034668l-9.076172 -3.3034668z" fill-rule="evenodd"></path><path fill="#000000" fill-opacity="0.0" d="m479.4164 286.43683l-263.1496 0" fill-rule="nonzero"></path><path stroke="#000000" stroke-width="2.0" stroke-linejoin="round" stroke-linecap="butt" d="m479.4164 286.43683l-251.1496 0" fill-rule="evenodd"></path><path fill="#000000" stroke="#000000" stroke-width="2.0" stroke-linecap="butt" d="m228.26682 283.1334l-9.076202 3.3034363l9.076202 3.3034668z" fill-rule="evenodd"></path><path fill="#000000" fill-opacity="0.0" d="m739.8117 286.43683l-125.44885 0" fill-rule="nonzero"></path><path stroke="#000000" stroke-width="2.0" stroke-linejoin="round" stroke-linecap="butt" d="m739.8117 286.43683l-113.44885 0" fill-rule="evenodd"></path><path fill="#000000" stroke="#000000" stroke-width="2.0" stroke-linecap="butt" d="m626.36285 283.1334l-9.076172 3.3034363l9.076172 3.3034668z" fill-rule="evenodd"></path><path fill="#000000" fill-opacity="0.0" d="m0 -8.118111l952.0 0l0 77.13386l-952.0 0z" fill-rule="nonzero"></path><path fill="#000000" d="m344.67188 39.281887l-5.890625 0l5.984375 -28.640625l12.71875 0q3.28125 0 5.109375 0.6875q1.828125 0.671875 2.953125 2.46875q1.125 1.796875 1.125 4.34375q0 3.65625 -2.1875 6.03125q-2.1875 2.375 -6.625 2.9375q1.125 1.015625 2.125 2.671875q1.96875 3.359375 4.390625 9.5l-6.328125 0q-0.75 -2.421875 -2.984375 -7.5625q-1.203125 -2.765625 -2.578125 -3.734375q-0.84375 -0.5625 -2.921875 -0.5625l-2.40625 0l-2.484375 11.859375zm3.375 -16.15625l3.125 0q4.75 0 6.296875 -0.5625q1.5625 -0.5625 2.4375 -1.765625q0.875 -1.21875 0.875 -2.546875q0 -1.5625 -1.265625 -2.34375q-0.78125 -0.46875 -3.375 -0.46875l-6.484375 0l-1.609375 7.6875zm39.652344 7.515625l-14.0625 0q-0.015625 0.34375 -0.015625 0.515625q0 2.0625 1.171875 3.34375q1.1875 1.265625 2.890625 1.265625q2.796875 0 4.359375 -2.890625l5.015625 0.84375q-1.46875 3.015625 -3.921875 4.53125q-2.453125 1.515625 -5.5 1.515625q-4.171875 0 -6.796875 -2.640625q-2.609375 -2.65625 -2.609375 -7.0q0 -4.265625 2.359375 -7.578125q3.21875 -4.5 9.203125 -4.5q3.8125 0 6.046875 2.359375q2.25 2.34375 2.25 6.59375q0 2.03125 -0.390625 3.640625zm-4.71875 -3.40625q0.015625 -0.375 0.015625 -0.578125q0 -2.296875 -1.046875 -3.453125q-1.03125 -1.15625 -2.765625 -1.15625q-1.734375 0 -3.109375 1.3125q-1.375 1.3125 -1.875 3.875l8.78125 0zm17.136719 12.046875l-4.8125 0l-4.171875 -20.75l5.515625 0l1.46875 9.046875q0.59375 3.671875 0.71875 4.890625q0.15625 -0.34375 1.359375 -2.53125q1.203125 -2.203125 1.46875 -2.65625l5.15625 -8.75l6.0625 0l-12.765625 20.75zm32.07422 -8.640625l-14.0625 0q-0.015625 0.34375 -0.015625 0.515625q0 2.0625 1.171875 3.34375q1.1875 1.265625 2.890625 1.265625q2.796875 0 4.359375 -2.890625l5.015625 0.84375q-1.46875 3.015625 -3.921875 4.53125q-2.453125 1.515625 -5.5 1.515625q-4.171875 0 -6.796875 -2.640625q-2.609375 -2.65625 -2.609375 -7.0q0 -4.265625 2.359375 -7.578125q3.21875 -4.5 9.203125 -4.5q3.8125 0 6.046875 2.359375q2.25 2.34375 2.25 6.59375q0 2.03125 -0.390625 3.640625zm-4.71875 -3.40625q0.015625 -0.375 0.015625 -0.578125q0 -2.296875 -1.046875 -3.453125q-1.03125 -1.15625 -2.765625 -1.15625q-1.734375 0 -3.109375 1.3125q-1.375 1.3125 -1.875 3.875l8.78125 0zm10.792969 -8.703125l5.234375 0l-0.84375 4.03125q2.9375 -4.515625 6.359375 -4.515625q1.203125 0 2.59375 0.609375l-2.15625 4.59375q-0.75 -0.28125 -1.609375 -0.28125q-1.453125 0 -2.953125 1.09375q-1.484375 1.09375 -2.328125 2.921875q-0.84375 1.828125 -1.65625 5.796875l-1.375 6.5l-5.59375 0l4.328125 -20.75zm10.816406 14.953125l5.4375 -0.859375q0.71875 1.71875 1.796875 2.4375q1.078125 0.703125 2.921875 0.703125q1.921875 0 3.078125 -0.859375q0.796875 -0.59375 0.796875 -1.421875q0 -0.578125 -0.40625 -1.015625q-0.4375 -0.4375 -2.328125 -1.0625q-5.078125 -1.671875 -6.296875 -2.65625q-1.890625 -1.515625 -1.890625 -3.984375q0 -2.453125 1.84375 -4.234375q2.546875 -2.484375 7.59375 -2.484375q4.0 0 6.046875 1.46875q2.0625 1.46875 2.609375 3.96875l-5.1875 0.890625q-0.40625 -1.125 -1.328125 -1.703125q-1.25 -0.75 -3.0 -0.75q-1.765625 0 -2.53125 0.59375q-0.765625 0.578125 -0.765625 1.328125q0 0.78125 0.78125 1.296875q0.484375 0.3125 3.140625 1.09375q4.09375 1.1875 5.484375 2.34375q1.953125 1.625 1.953125 3.90625q0 2.953125 -2.484375 5.125q-2.46875 2.15625 -6.984375 2.15625q-4.5 0 -6.953125 -1.640625q-2.4375 -1.65625 -3.328125 -4.640625zm43.16797 -2.84375l-14.0625 0q-0.015625 0.34375 -0.015625 0.515625q0 2.0625 1.171875 3.34375q1.1875 1.265625 2.890625 1.265625q2.796875 0 4.359375 -2.890625l5.015625 0.84375q-1.46875 3.015625 -3.921875 4.53125q-2.453125 1.515625 -5.5 1.515625q-4.171875 0 -6.796875 -2.640625q-2.609375 -2.65625 -2.609375 -7.0q0 -4.265625 2.359375 -7.578125q3.21875 -4.5 9.203125 -4.5q3.8125 0 6.046875 2.359375q2.25 2.34375 2.25 6.59375q0 2.03125 -0.390625 3.640625zm-4.71875 -3.40625q0.015625 -0.375 0.015625 -0.578125q0 -2.296875 -1.046875 -3.453125q-1.03125 -1.15625 -2.765625 -1.15625q-1.734375 0 -3.109375 1.3125q-1.375 1.3125 -1.875 3.875l8.78125 0zm23.796875 12.046875l-5.890625 0l6.0 -28.640625l11.640625 0q3.09375 0 4.90625 0.734375q1.8125 0.734375 2.859375 2.421875q1.0625 1.6875 1.0625 4.03125q0 2.171875 -0.84375 4.234375q-0.84375 2.046875 -2.0625 3.28125q-1.21875 1.21875 -2.625 1.859375q-1.40625 0.625 -3.796875 0.96875q-1.375 0.1875 -5.1875 0.1875l-3.765625 0l-2.296875 10.921875zm3.265625 -15.671875l1.8125 0q4.671875 0 6.234375 -0.578125q1.5625 -0.59375 2.453125 -1.875q0.90625 -1.296875 0.90625 -2.828125q0 -1.046875 -0.46875 -1.703125q-0.453125 -0.671875 -1.28125 -0.96875q-0.828125 -0.296875 -3.703125 -0.296875l-4.21875 0l-1.734375 8.25zm21.523438 -5.078125l5.234375 0l-0.84375 4.03125q2.9375 -4.515625 6.359375 -4.515625q1.203125 0 2.59375 0.609375l-2.15625 4.59375q-0.75 -0.28125 -1.609375 -0.28125q-1.453125 0 -2.953125 1.09375q-1.484375 1.09375 -2.328125 2.921875q-0.84375 1.828125 -1.65625 5.796875l-1.375 6.5l-5.59375 0l4.328125 -20.75zm12.363281 12.140625q0 -5.765625 3.25 -9.1875q3.25 -3.4375 8.546875 -3.4375q4.59375 0 7.171875 2.53125q2.578125 2.53125 2.578125 6.8125q0 5.03125 -3.234375 8.703125q-3.21875 3.671875 -8.625 3.671875q-2.921875 0 -5.1875 -1.171875q-2.265625 -1.171875 -3.390625 -3.3125q-1.109375 -2.15625 -1.109375 -4.609375zm15.984375 -4.015625q0 -1.984375 -1.171875 -3.1875q-1.15625 -1.203125 -3.0 -1.203125q-1.8125 0 -3.21875 1.125q-1.40625 1.125 -2.1875 3.265625q-0.78125 2.140625 -0.78125 3.9375q0 2.21875 1.203125 3.53125q1.21875 1.3125 3.0625 1.3125q2.296875 0 3.859375 -1.984375q2.234375 -2.78125 2.234375 -6.796875zm17.183594 6.796875l-5.15625 5.828125l-6.875 0l9.59375 -10.625l-5.28125 -10.125l5.953125 0l3.03125 5.921875l5.25 -5.921875l6.828125 0l-9.640625 10.765625l5.234375 9.984375l-5.953125 0l-2.984375 -5.828125zm14.433594 -14.921875l5.578125 0l1.40625 10.34375q0.53125 3.984375 0.59375 5.578125q1.09375 -3.1875 3.0 -6.71875l4.96875 -9.203125l5.9375 0l-12.8125 22.78125q-1.578125 2.828125 -2.5 3.953125q-0.90625 1.140625 -2.1875 1.78125q-1.265625 0.65625 -3.0625 0.65625q-1.78125 0 -4.015625 -0.625l0.5 -4.1875q1.015625 0.296875 1.96875 0.296875q2.578125 0 4.234375 -3.90625l-3.609375 -20.75z" fill-rule="nonzero"></path></g></svg>

