<?xml version="1.0" encoding="UTF-8" standalone="no"?>
<!DOCTYPE svg PUBLIC "-//W3C//DTD SVG 1.1//EN"
 "http://www.w3.org/Graphics/SVG/1.1/DTD/svg11.dtd">
<!-- Generated by graphviz version 2.26.3 (20100126.1600)
 -->
<!-- Title: v_center Pages: 1 -->
<svg width="655pt" height="808pt"
 viewBox="0.00 0.00 655.00 808.00" xmlns="http://www.w3.org/2000/svg" xmlns:xlink="http://www.w3.org/1999/xlink">
<g id="graph1" class="graph" transform="scale(1 1) rotate(0) translate(4 804)">
<title>v_center</title>
<polygon fill="white" stroke="white" points="-4,5 -4,-804 652,-804 652,5 -4,5"/>
<!-- vcl_recv -->
<g id="node1" class="node"><title>vcl_recv</title>
<ellipse fill="none" stroke="black" cx="219" cy="-781" rx="50.9117" ry="18.3848"/>
<text text-anchor="middle" x="219" y="-777.4" font-family="Times Roman,serif" font-size="14.00">vcl_recv</text>
</g>
<!-- vcl_pass -->
<g id="node3" class="node"><title>vcl_pass</title>
<ellipse fill="none" stroke="black" cx="163" cy="-399" rx="51.1176" ry="18.3848"/>
<text text-anchor="middle" x="163" y="-395.4" font-family="Times Roman,serif" font-size="14.00">vcl_pass</text>
</g>
<!-- vcl_recv&#45;&gt;vcl_pass -->
<g id="edge2" class="edge"><title>vcl_recv&#45;&gt;vcl_pass</title>
<path fill="none" stroke="red" stroke-width="2" d="M174.682,-771.79C110.69,-757.196 0,-726.528 0,-689 0,-689 0,-689 0,-491 0,-441.247 58.3057,-418.098 105.174,-407.527"/>
<polygon fill="red" stroke="red" points="105.915,-410.948 114.976,-405.457 104.469,-404.099 105.915,-410.948"/>
<text text-anchor="middle" x="15.5" y="-586.4" font-family="Times Roman,serif" font-size="14.00">pass</text>
</g>
<!-- vcl_hash -->
<g id="node5" class="node"><title>vcl_hash</title>
<ellipse fill="none" stroke="black" cx="219" cy="-689" rx="53.2379" ry="18.3848"/>
<text text-anchor="middle" x="219" y="-685.4" font-family="Times Roman,serif" font-size="14.00">vcl_hash</text>
</g>
<!-- vcl_recv&#45;&gt;vcl_hash -->
<g id="edge4" class="edge"><title>vcl_recv&#45;&gt;vcl_hash</title>
<path fill="none" stroke="green" stroke-width="2" d="M219,-762.382C219,-749.538 219,-732.216 219,-717.627"/>
<polygon fill="green" stroke="green" points="222.5,-717.59 219,-707.59 215.5,-717.59 222.5,-717.59"/>
<text text-anchor="middle" x="242" y="-731.4" font-family="Times Roman,serif" font-size="14.00">lookup</text>
</g>
<!-- vcl_pipe -->
<g id="node7" class="node"><title>vcl_pipe</title>
<ellipse fill="none" stroke="black" cx="467" cy="-689" rx="50.2046" ry="18.3848"/>
<text text-anchor="middle" x="467" y="-685.4" font-family="Times Roman,serif" font-size="14.00">vcl_pipe</text>
</g>
<!-- vcl_recv&#45;&gt;vcl_pipe -->
<g id="edge6" class="edge"><title>vcl_recv&#45;&gt;vcl_pipe</title>
<path fill="none" stroke="orange" stroke-width="2" d="M254.796,-767.721C298.97,-751.334 374.106,-723.461 422.102,-705.656"/>
<polygon fill="orange" stroke="orange" points="423.458,-708.886 431.616,-702.126 421.023,-702.323 423.458,-708.886"/>
<text text-anchor="middle" x="380.5" y="-731.4" font-family="Times Roman,serif" font-size="14.00">pipe</text>
</g>
<!-- fetch -->
<g id="node20" class="node"><title>fetch</title>
<polygon fill="none" stroke="black" points="250,-326 53,-300 250,-274 447,-300 250,-326"/>
<text text-anchor="middle" x="250" y="-296.4" font-family="Times Roman,serif" font-size="14.00">Fetch object from backend</text>
</g>
<!-- vcl_pass&#45;&gt;fetch -->
<g id="edge24" class="edge"><title>vcl_pass&#45;&gt;fetch</title>
<path fill="none" stroke="red" stroke-width="2" d="M173.984,-380.882C181.09,-369.762 190.877,-355.499 201,-344 205.313,-339.1 210.14,-334.198 215.036,-329.537"/>
<polygon fill="red" stroke="red" points="217.746,-331.8 222.724,-322.448 213,-326.654 217.746,-331.8"/>
<text text-anchor="middle" x="218.5" y="-349.4" font-family="Times Roman,serif" font-size="14.00">fetch</text>
</g>
<!-- lookup -->
<g id="node11" class="node"><title>lookup</title>
<polygon fill="none" stroke="black" points="219,-616 49,-590 219,-564 389,-590 219,-616"/>
<text text-anchor="middle" x="219" y="-586.4" font-family="Times Roman,serif" font-size="14.00">Is the object in cache?</text>
</g>
<!-- vcl_hash&#45;&gt;lookup -->
<g id="edge10" class="edge"><title>vcl_hash&#45;&gt;lookup</title>
<path fill="none" stroke="green" stroke-width="2" d="M219,-670.379C219,-657.909 219,-641.087 219,-626.055"/>
<polygon fill="green" stroke="green" points="222.5,-626.009 219,-616.009 215.5,-626.009 222.5,-626.009"/>
<text text-anchor="middle" x="236" y="-639.4" font-family="Times Roman,serif" font-size="14.00">hash</text>
</g>
<!-- pipe -->
<g id="node9" class="node"><title>pipe</title>
<polygon fill="none" stroke="black" points="527,-616 407,-590 527,-564 647,-590 527,-616"/>
<text text-anchor="middle" x="527" y="-586.4" font-family="Times Roman,serif" font-size="14.00">Pipe until close</text>
</g>
<!-- vcl_pipe&#45;&gt;pipe -->
<g id="edge8" class="edge"><title>vcl_pipe&#45;&gt;pipe</title>
<path fill="none" stroke="orange" stroke-width="2" d="M478.005,-670.842C486.283,-657.183 497.839,-638.116 507.649,-621.929"/>
<polygon fill="orange" stroke="orange" points="510.698,-623.651 512.888,-613.285 504.711,-620.023 510.698,-623.651"/>
<text text-anchor="middle" x="512.5" y="-639.4" font-family="Times Roman,serif" font-size="14.00">pipe</text>
</g>
<!-- vcl_hit -->
<g id="node13" class="node"><title>vcl_hit</title>
<ellipse fill="none" stroke="black" cx="137" cy="-491" rx="43.8406" ry="18.3848"/>
<text text-anchor="middle" x="137" y="-487.4" font-family="Times Roman,serif" font-size="14.00">vcl_hit</text>
</g>
<!-- lookup&#45;&gt;vcl_hit -->
<g id="edge12" class="edge"><title>lookup&#45;&gt;vcl_hit</title>
<path fill="none" stroke="green" stroke-width="2" d="M199.775,-566.789C187.198,-551.605 170.77,-531.771 157.874,-516.202"/>
<polygon fill="green" stroke="green" points="160.566,-513.965 151.492,-508.496 155.175,-518.43 160.566,-513.965"/>
<text text-anchor="middle" x="193" y="-533.4" font-family="Times Roman,serif" font-size="14.00">yes</text>
</g>
<!-- vcl_miss -->
<g id="node15" class="node"><title>vcl_miss</title>
<ellipse fill="none" stroke="black" cx="250" cy="-491" rx="51.1176" ry="18.3848"/>
<text text-anchor="middle" x="250" y="-487.4" font-family="Times Roman,serif" font-size="14.00">vcl_miss</text>
</g>
<!-- lookup&#45;&gt;vcl_miss -->
<g id="edge14" class="edge"><title>lookup&#45;&gt;vcl_miss</title>
<path fill="none" stroke="blue" stroke-width="2" d="M226.823,-565.018C231.181,-551.098 236.624,-533.717 241.14,-519.296"/>
<polygon fill="blue" stroke="blue" points="244.587,-520 244.235,-509.411 237.907,-517.908 244.587,-520"/>
<text text-anchor="middle" x="248" y="-533.4" font-family="Times Roman,serif" font-size="14.00">no</text>
</g>
<!-- vcl_hit&#45;&gt;vcl_pass -->
<g id="edge18" class="edge"><title>vcl_hit&#45;&gt;vcl_pass</title>
<path fill="none" stroke="red" stroke-width="2" d="M138.275,-472.353C139.366,-461.554 141.366,-447.804 145,-436 145.967,-432.859 147.167,-429.653 148.486,-426.505"/>
<polygon fill="red" stroke="red" points="151.691,-427.914 152.684,-417.366 145.33,-424.992 151.691,-427.914"/>
<text text-anchor="middle" x="160.5" y="-441.4" font-family="Times Roman,serif" font-size="14.00">pass</text>
</g>
<!-- vcl_deliver -->
<g id="node17" class="node"><title>vcl_deliver</title>
<ellipse fill="none" stroke="black" cx="112" cy="-19" rx="62.9325" ry="18.3848"/>
<text text-anchor="middle" x="112" y="-15.4" font-family="Times Roman,serif" font-size="14.00">vcl_deliver</text>
</g>
<!-- vcl_hit&#45;&gt;vcl_deliver -->
<g id="edge16" class="edge"><title>vcl_hit&#45;&gt;vcl_deliver</title>
<path fill="none" stroke="green" stroke-width="2" d="M102.482,-479.259C69.5742,-465.617 25,-439.639 25,-399 25,-399 25,-399 25,-102 25,-74.9095 47.3569,-53.9558 69.404,-39.8788"/>
<polygon fill="green" stroke="green" points="71.3501,-42.7926 78.1144,-34.6381 67.7413,-36.7945 71.3501,-42.7926"/>
<text text-anchor="middle" x="48.5" y="-243.4" font-family="Times Roman,serif" font-size="14.00">deliver</text>
</g>
<!-- vcl_miss&#45;&gt;vcl_pass -->
<g id="edge22" class="edge"><title>vcl_miss&#45;&gt;vcl_pass</title>
<path fill="none" stroke="red" stroke-width="2" d="M227.599,-474.267C220.089,-468.228 211.882,-461.134 205,-454 196.57,-445.261 188.25,-434.851 181.268,-425.45"/>
<polygon fill="red" stroke="red" points="183.972,-423.216 175.266,-417.178 178.306,-427.327 183.972,-423.216"/>
<text text-anchor="middle" x="220.5" y="-441.4" font-family="Times Roman,serif" font-size="14.00">pass</text>
</g>
<!-- vcl_miss&#45;&gt;fetch -->
<g id="edge20" class="edge"><title>vcl_miss&#45;&gt;fetch</title>
<path fill="none" stroke="blue" stroke-width="2" d="M250,-472.338C250,-440.906 250,-376.874 250,-336.328"/>
<polygon fill="blue" stroke="blue" points="253.5,-336.31 250,-326.31 246.5,-336.31 253.5,-336.31"/>
<text text-anchor="middle" x="267.5" y="-395.4" font-family="Times Roman,serif" font-size="14.00">fetch</text>
</g>
<!-- vcl_fetch -->
<g id="node24" class="node"><title>vcl_fetch</title>
<ellipse fill="none" stroke="black" cx="250" cy="-201" rx="53.9477" ry="18.3848"/>
<text text-anchor="middle" x="250" y="-197.4" font-family="Times Roman,serif" font-size="14.00">vcl_fetch</text>
</g>
<!-- fetch&#45;&gt;vcl_fetch -->
<g id="edge26" class="edge"><title>fetch&#45;&gt;vcl_fetch</title>
<path fill="none" stroke="black" stroke-width="2" d="M250,-273.989C250,-260.385 250,-243.699 250,-229.716"/>
<polygon fill="black" stroke="black" points="253.5,-229.647 250,-219.647 246.5,-229.647 253.5,-229.647"/>
</g>
<!-- cache -->
<g id="node26" class="node"><title>cache</title>
<polygon fill="none" stroke="black" points="112,-128 53,-102 112,-76 171,-102 112,-128"/>
<text text-anchor="middle" x="112" y="-98.4" font-family="Times Roman,serif" font-size="14.00">Cache</text>
</g>
<!-- vcl_fetch&#45;&gt;cache -->
<g id="edge28" class="edge"><title>vcl_fetch&#45;&gt;cache</title>
<path fill="none" stroke="green" stroke-width="2" d="M226.59,-184.206C203.515,-167.652 168.126,-142.264 142.784,-124.084"/>
<polygon fill="green" stroke="green" points="144.772,-121.203 134.607,-118.218 140.692,-126.891 144.772,-121.203"/>
<text text-anchor="middle" x="221.5" y="-151.4" font-family="Times Roman,serif" font-size="14.00">deliver</text>
</g>
<!-- dont_cache -->
<g id="node28" class="node"><title>dont_cache</title>
<polygon fill="none" stroke="black" points="287,-128 189,-102 287,-76 385,-102 287,-128"/>
<text text-anchor="middle" x="287" y="-98.4" font-family="Times Roman,serif" font-size="14.00">Don&#39;t cache</text>
</g>
<!-- vcl_fetch&#45;&gt;dont_cache -->
<g id="edge30" class="edge"><title>vcl_fetch&#45;&gt;dont_cache</title>
<path fill="none" stroke="red" stroke-width="2" d="M256.959,-182.379C261.917,-169.113 268.717,-150.92 274.593,-135.198"/>
<polygon fill="red" stroke="red" points="277.885,-136.386 278.107,-125.794 271.328,-133.936 277.885,-136.386"/>
<text text-anchor="middle" x="311.5" y="-151.4" font-family="Times Roman,serif" font-size="14.00">hit_for_pass</text>
</g>
<!-- cache&#45;&gt;vcl_deliver -->
<g id="edge32" class="edge"><title>cache&#45;&gt;vcl_deliver</title>
<path fill="none" stroke="green" stroke-width="2" d="M112,-75.7383C112,-66.863 112,-56.908 112,-47.8437"/>
<polygon fill="green" stroke="green" points="115.5,-47.7303 112,-37.7303 108.5,-47.7303 115.5,-47.7303"/>
</g>
<!-- dont_cache&#45;&gt;vcl_deliver -->
<g id="edge34" class="edge"><title>dont_cache&#45;&gt;vcl_deliver</title>
<path fill="none" stroke="red" stroke-width="2" d="M251.586,-85.2037C223.559,-71.9106 184.321,-53.3008 154.582,-39.1959"/>
<polygon fill="red" stroke="red" points="155.821,-35.9102 145.286,-34.7872 152.822,-42.2349 155.821,-35.9102"/>
</g>
</g>
</svg>
