<?xml version="1.0" encoding="UTF-8" standalone="no"?>
<!DOCTYPE svg PUBLIC "-//W3C//DTD SVG 1.0//EN"
 "http://www.w3.org/TR/2001/REC-SVG-20010904/DTD/svg10.dtd" [
 <!ATTLIST svg xmlns:xlink CDATA #FIXED "http://www.w3.org/1999/xlink">
]>
<!-- Generated by Graphviz version 2.20.2 (Tue Mar &#160;2 19:03:41 UTC 2010)
     For user: (kristian) Kristian Lyngstol,,, -->
<!-- Title: v_center Pages: 1 -->
<svg width="474pt" height="748pt"
 viewBox="0.00 0.00 474.00 748.00" xmlns="http://www.w3.org/2000/svg" xmlns:xlink="http://www.w3.org/1999/xlink">
<g id="graph0" class="graph" transform="scale(1 1) rotate(0) translate(4 744)">
<title>v_center</title>
<polygon style="fill:white;stroke:white;" points="-4,4 -4,-744 470,-744 470,4 -4,4"/>
<!-- vcl_recv -->
<g id="node1" class="node"><title>vcl_recv</title>
<ellipse style="fill:none;stroke:black;" cx="165" cy="-722" rx="50.0315" ry="18"/>
<text text-anchor="middle" x="165" y="-717.9" style="font-family:Times New Roman;font-size:14.00;">vcl_recv</text>
</g>
<!-- vcl_pass -->
<g id="node3" class="node"><title>vcl_pass</title>
<ellipse style="fill:none;stroke:black;" cx="103" cy="-362" rx="50.0315" ry="18"/>
<text text-anchor="middle" x="103" y="-357.9" style="font-family:Times New Roman;font-size:14.00;">vcl_pass</text>
</g>
<!-- vcl_recv&#45;&gt;vcl_pass -->
<g id="edge2" class="edge"><title>vcl_recv&#45;&gt;vcl_pass</title>
<path style="fill:none;stroke:red;stroke-width:2;" d="M117,-716C69,-707 0,-685 0,-632 0,-632 0,-632 0,-452 0,-419 32,-394 60,-379"/>
<polygon style="fill:red;stroke:red;" points="61.2834,-382.26 69,-375 58.4404,-375.863 61.2834,-382.26"/>
<text text-anchor="middle" x="15" y="-537.9" style="font-family:Times New Roman;font-size:14.00;">pass</text>
</g>
<!-- vcl_hash -->
<g id="node5" class="node"><title>vcl_hash</title>
<ellipse style="fill:none;stroke:black;" cx="165" cy="-632" rx="52.1162" ry="18"/>
<text text-anchor="middle" x="165" y="-627.9" style="font-family:Times New Roman;font-size:14.00;">vcl_hash</text>
</g>
<!-- vcl_recv&#45;&gt;vcl_hash -->
<g id="edge4" class="edge"><title>vcl_recv&#45;&gt;vcl_hash</title>
<path style="fill:none;stroke:green;stroke-width:2;" d="M165,-704C165,-691 165,-675 165,-660"/>
<polygon style="fill:green;stroke:green;" points="168.5,-660 165,-650 161.5,-660 168.5,-660"/>
<text text-anchor="middle" x="188" y="-672.9" style="font-family:Times New Roman;font-size:14.00;">lookup</text>
</g>
<!-- vcl_pipe -->
<g id="node7" class="node"><title>vcl_pipe</title>
<ellipse style="fill:none;stroke:black;" cx="346" cy="-632" rx="48.8383" ry="18"/>
<text text-anchor="middle" x="346" y="-627.9" style="font-family:Times New Roman;font-size:14.00;">vcl_pipe</text>
</g>
<!-- vcl_recv&#45;&gt;vcl_pipe -->
<g id="edge6" class="edge"><title>vcl_recv&#45;&gt;vcl_pipe</title>
<path style="fill:none;stroke:orange;stroke-width:2;" d="M194,-707C225,-692 274,-668 308,-651"/>
<polygon style="fill:orange;stroke:orange;" points="309.283,-654.26 317,-647 306.44,-647.863 309.283,-654.26"/>
<text text-anchor="middle" x="287" y="-672.9" style="font-family:Times New Roman;font-size:14.00;">pipe</text>
</g>
<!-- fetch -->
<g id="node20" class="node"><title>fetch</title>
<polygon style="fill:none;stroke:black;" points="189,-290 52.8031,-272 189,-254 325.197,-272 189,-290"/>
<text text-anchor="middle" x="189" y="-267.9" style="font-family:Times New Roman;font-size:14.00;">Fetch object from backend</text>
</g>
<!-- vcl_pass&#45;&gt;fetch -->
<g id="edge24" class="edge"><title>vcl_pass&#45;&gt;fetch</title>
<path style="fill:none;stroke:red;stroke-width:2;" d="M113,-344C120,-333 129,-319 140,-308 145,-303 151,-298 157,-293"/>
<polygon style="fill:red;stroke:red;" points="159.1,-295.8 165,-287 154.9,-290.2 159.1,-295.8"/>
<text text-anchor="middle" x="158" y="-312.9" style="font-family:Times New Roman;font-size:14.00;">fetch</text>
</g>
<!-- lookup -->
<g id="node11" class="node"><title>lookup</title>
<polygon style="fill:none;stroke:black;" points="165,-560 48.0646,-542 165,-524 281.935,-542 165,-560"/>
<text text-anchor="middle" x="165" y="-537.9" style="font-family:Times New Roman;font-size:14.00;">Is the object in cache?</text>
</g>
<!-- vcl_hash&#45;&gt;lookup -->
<g id="edge10" class="edge"><title>vcl_hash&#45;&gt;lookup</title>
<path style="fill:none;stroke:green;stroke-width:2;" d="M165,-614C165,-601 165,-585 165,-570"/>
<polygon style="fill:green;stroke:green;" points="168.5,-570 165,-560 161.5,-570 168.5,-570"/>
<text text-anchor="middle" x="182" y="-582.9" style="font-family:Times New Roman;font-size:14.00;">hash</text>
</g>
<!-- pipe -->
<g id="node9" class="node"><title>pipe</title>
<polygon style="fill:none;stroke:black;" points="383,-560 300.113,-542 383,-524 465.887,-542 383,-560"/>
<text text-anchor="middle" x="383" y="-537.9" style="font-family:Times New Roman;font-size:14.00;">Pipe until close</text>
</g>
<!-- vcl_pipe&#45;&gt;pipe -->
<g id="edge8" class="edge"><title>vcl_pipe&#45;&gt;pipe</title>
<path style="fill:none;stroke:orange;stroke-width:2;" d="M353,-614C359,-600 366,-583 372,-569"/>
<polygon style="fill:orange;stroke:orange;" points="375.536,-569.585 376,-559 369.036,-566.985 375.536,-569.585"/>
<text text-anchor="middle" x="381" y="-582.9" style="font-family:Times New Roman;font-size:14.00;">pipe</text>
</g>
<!-- vcl_hit -->
<g id="node13" class="node"><title>vcl_hit</title>
<ellipse style="fill:none;stroke:black;" cx="79" cy="-452" rx="41.8891" ry="18"/>
<text text-anchor="middle" x="79" y="-447.9" style="font-family:Times New Roman;font-size:14.00;">vcl_hit</text>
</g>
<!-- lookup&#45;&gt;vcl_hit -->
<g id="edge12" class="edge"><title>lookup&#45;&gt;vcl_hit</title>
<path style="fill:none;stroke:green;stroke-width:2;" d="M150,-526C136,-512 117,-492 102,-476"/>
<polygon style="fill:green;stroke:green;" points="104.546,-473.596 95,-469 99.5962,-478.546 104.546,-473.596"/>
<text text-anchor="middle" x="143" y="-492.9" style="font-family:Times New Roman;font-size:14.00;">yes</text>
</g>
<!-- vcl_miss -->
<g id="node15" class="node"><title>vcl_miss</title>
<ellipse style="fill:none;stroke:black;" cx="189" cy="-452" rx="50.0315" ry="18"/>
<text text-anchor="middle" x="189" y="-447.9" style="font-family:Times New Roman;font-size:14.00;">vcl_miss</text>
</g>
<!-- lookup&#45;&gt;vcl_miss -->
<g id="edge14" class="edge"><title>lookup&#45;&gt;vcl_miss</title>
<path style="fill:none;stroke:blue;stroke-width:2;" d="M170,-525C173,-512 178,-495 181,-480"/>
<polygon style="fill:blue;stroke:blue;" points="184.479,-480.584 184,-470 177.774,-478.573 184.479,-480.584"/>
<text text-anchor="middle" x="189" y="-492.9" style="font-family:Times New Roman;font-size:14.00;">no</text>
</g>
<!-- vcl_hit&#45;&gt;vcl_pass -->
<g id="edge18" class="edge"><title>vcl_hit&#45;&gt;vcl_pass</title>
<path style="fill:none;stroke:red;stroke-width:2;" d="M80,-434C81,-423 83,-410 86,-398 87,-395 88,-392 89,-389"/>
<polygon style="fill:red;stroke:red;" points="92.1369,-390.56 93,-380 85.7402,-387.717 92.1369,-390.56"/>
<text text-anchor="middle" x="101" y="-402.9" style="font-family:Times New Roman;font-size:14.00;">pass</text>
</g>
<!-- vcl_deliver -->
<g id="node17" class="node"><title>vcl_deliver</title>
<ellipse style="fill:none;stroke:black;" cx="93" cy="-18" rx="61.8445" ry="18"/>
<text text-anchor="middle" x="93" y="-13.9" style="font-family:Times New Roman;font-size:14.00;">vcl_deliver</text>
</g>
<!-- vcl_hit&#45;&gt;vcl_deliver -->
<g id="edge16" class="edge"><title>vcl_hit&#45;&gt;vcl_deliver</title>
<path style="fill:none;stroke:green;stroke-width:2;" d="M62,-435C46,-418 25,-391 25,-362 25,-362 25,-362 25,-92 25,-71 40,-53 56,-40"/>
<polygon style="fill:green;stroke:green;" points="58.6209,-42.4592 65,-34 54.738,-36.6349 58.6209,-42.4592"/>
<text text-anchor="middle" x="49" y="-222.9" style="font-family:Times New Roman;font-size:14.00;">deliver</text>
</g>
<!-- vcl_miss&#45;&gt;vcl_pass -->
<g id="edge22" class="edge"><title>vcl_miss&#45;&gt;vcl_pass</title>
<path style="fill:none;stroke:red;stroke-width:2;" d="M167,-436C160,-430 152,-423 145,-416 137,-408 128,-397 121,-388"/>
<polygon style="fill:red;stroke:red;" points="123.8,-385.9 115,-380 118.2,-390.1 123.8,-385.9"/>
<text text-anchor="middle" x="163" y="-402.9" style="font-family:Times New Roman;font-size:14.00;">pass</text>
</g>
<!-- vcl_miss&#45;&gt;fetch -->
<g id="edge20" class="edge"><title>vcl_miss&#45;&gt;fetch</title>
<path style="fill:none;stroke:blue;stroke-width:2;" d="M189,-434C189,-402 189,-337 189,-300"/>
<polygon style="fill:blue;stroke:blue;" points="192.5,-300 189,-290 185.5,-300 192.5,-300"/>
<text text-anchor="middle" x="207" y="-357.9" style="font-family:Times New Roman;font-size:14.00;">fetch</text>
</g>
<!-- vcl_fetch -->
<g id="node24" class="node"><title>vcl_fetch</title>
<ellipse style="fill:none;stroke:black;" cx="189" cy="-182" rx="53.0059" ry="18"/>
<text text-anchor="middle" x="189" y="-177.9" style="font-family:Times New Roman;font-size:14.00;">vcl_fetch</text>
</g>
<!-- fetch&#45;&gt;vcl_fetch -->
<g id="edge26" class="edge"><title>fetch&#45;&gt;vcl_fetch</title>
<path style="fill:none;stroke:black;stroke-width:2;" d="M189,-254C189,-241 189,-225 189,-210"/>
<polygon style="fill:black;stroke:black;" points="192.5,-210 189,-200 185.5,-210 192.5,-210"/>
</g>
<!-- cache -->
<g id="node26" class="node"><title>cache</title>
<polygon style="fill:none;stroke:black;" points="93,-110 53.1944,-92 93,-74 132.806,-92 93,-110"/>
<text text-anchor="middle" x="93" y="-87.9" style="font-family:Times New Roman;font-size:14.00;">Cache</text>
</g>
<!-- vcl_fetch&#45;&gt;cache -->
<g id="edge28" class="edge"><title>vcl_fetch&#45;&gt;cache</title>
<path style="fill:none;stroke:green;stroke-width:2;" d="M171,-165C155,-149 131,-127 113,-111"/>
<polygon style="fill:green;stroke:green;" points="115.546,-108.596 106,-104 110.596,-113.546 115.546,-108.596"/>
<text text-anchor="middle" x="175" y="-132.9" style="font-family:Times New Roman;font-size:14.00;">deliver</text>
</g>
<!-- dont_cache -->
<g id="node28" class="node"><title>dont_cache</title>
<polygon style="fill:none;stroke:black;" points="218,-110 151.096,-92 218,-74 284.904,-92 218,-110"/>
<text text-anchor="middle" x="218" y="-87.9" style="font-family:Times New Roman;font-size:14.00;">Don&#39;t cache</text>
</g>
<!-- vcl_fetch&#45;&gt;dont_cache -->
<g id="edge30" class="edge"><title>vcl_fetch&#45;&gt;dont_cache</title>
<path style="fill:none;stroke:red;stroke-width:2;" d="M195,-164C199,-150 204,-133 209,-119"/>
<polygon style="fill:red;stroke:red;" points="212.536,-119.585 213,-109 206.036,-116.985 212.536,-119.585"/>
<text text-anchor="middle" x="222" y="-132.9" style="font-family:Times New Roman;font-size:14.00;">pass</text>
</g>
<!-- cache&#45;&gt;vcl_deliver -->
<g id="edge32" class="edge"><title>cache&#45;&gt;vcl_deliver</title>
<path style="fill:none;stroke:green;stroke-width:2;" d="M93,-74C93,-65 93,-56 93,-46"/>
<polygon style="fill:green;stroke:green;" points="96.5001,-46 93,-36 89.5001,-46 96.5001,-46"/>
</g>
<!-- dont_cache&#45;&gt;vcl_deliver -->
<g id="edge34" class="edge"><title>dont_cache&#45;&gt;vcl_deliver</title>
<path style="fill:none;stroke:red;stroke-width:2;" d="M197,-80C179,-69 151,-53 129,-39"/>
<polygon style="fill:red;stroke:red;" points="130.441,-35.7969 120,-34 127.042,-41.916 130.441,-35.7969"/>
</g>
</g>
</svg>
