<?xml version="1.0" standalone="yes"?>

<svg version="1.1" viewBox="0.0 0.0 598.501312335958 100.0" fill="none" stroke="none" stroke-linecap="square" stroke-miterlimit="10" xmlns="http://www.w3.org/2000/svg" xmlns:xlink="http://www.w3.org/1999/xlink"><clipPath id="p.0"><path d="m0 0l598.50134 0l0 100.0l-598.50134 0l0 -100.0z" clip-rule="nonzero"></path></clipPath><g clip-path="url(#p.0)"><path fill="#000000" fill-opacity="0.0" d="m0 0l598.50134 0l0 100.0l-598.50134 0z" fill-rule="nonzero"></path><path fill="#000000" fill-opacity="0.0" d="m8.0 9.4973755l32.0 0l0 32.0l-32.0 0z" fill-rule="nonzero"></path><path stroke="#000000" stroke-width="2.0" stroke-linejoin="round" stroke-linecap="butt" d="m8.0 9.4973755l32.0 0l0 32.0l-32.0 0z" fill-rule="nonzero"></path><path fill="#000000" d="m25.80249 26.703625l-3.53125 0l0 3.0625l0.71875 0q0.1875 0 0.265625 0.078125q0.09375 0.0625 0.09375 0.1875q0 0.109375 -0.09375 0.1875q-0.078125 0.078125 -0.265625 0.078125l-1.859375 0q-0.1875 0 -0.28125 -0.078125q-0.078125 -0.078125 -0.078125 -0.1875q0 -0.125 0.078125 -0.1875q0.09375 -0.078125 0.28125 -0.078125l0.609375 0l0 -6.359375l-0.328125 0q-0.203125 0 -0.28125 -0.078125q-0.078125 -0.078125 -0.078125 -0.1875q0 -0.125 0.078125 -0.1875q0.078125 -0.078125 0.28125 -0.078125l1.578125 0q0.1875 0 0.265625 0.078125q0.09375 0.0625 0.09375 0.1875q0 0.109375 -0.09375 0.1875q-0.078125 0.078125 -0.265625 0.078125l-0.71875 0l0 2.765625l3.53125 0l0 -2.765625l-0.703125 0q-0.1875 0 -0.28125 -0.078125q-0.078125 -0.078125 -0.078125 -0.1875q0 -0.125 0.078125 -0.1875q0.078125 -0.078125 0.28125 -0.078125l1.578125 0q0.1875 0 0.265625 0.078125q0.09375 0.0625 0.09375 0.1875q0 0.109375 -0.09375 0.1875q-0.078125 0.078125 -0.265625 0.078125l-0.328125 0l0 6.359375l0.59375 0q0.203125 0 0.28125 0.078125q0.078125 0.0625 0.078125 0.1875q0 0.109375 -0.078125 0.1875q-0.078125 0.078125 -0.28125 0.078125l-1.84375 0q-0.1875 0 -0.28125 -0.078125q-0.078125 -0.078125 -0.078125 -0.1875q0 -0.125 0.078125 -0.1875q0.078125 -0.078125 0.28125 -0.078125l0.703125 0l0 -3.0625z" fill-rule="nonzero"></path><path fill="#000000" fill-opacity="0.0" d="m40.0 9.4973755l32.0 0l0 32.0l-32.0 0z" fill-rule="nonzero"></path><path stroke="#000000" stroke-width="2.0" stroke-linejoin="round" stroke-linecap="butt" d="m40.0 9.4973755l32.0 0l0 32.0l-32.0 0z" fill-rule="nonzero"></path><path fill="#000000" d="m58.880615 27.672375l-5.421875 0q0.125 1.03125 0.859375 1.671875q0.734375 0.625 1.796875 0.625q0.59375 0 1.25 -0.1875q0.65625 -0.203125 1.0625 -0.53125q0.125 -0.09375 0.21875 -0.09375q0.09375 0 0.171875 0.078125q0.078125 0.078125 0.078125 0.1875q0 0.109375 -0.09375 0.21875q-0.3125 0.3125 -1.09375 0.59375q-0.765625 0.265625 -1.59375 0.265625q-1.375 0 -2.296875 -0.890625q-0.90625 -0.90625 -0.90625 -2.171875q0 -1.171875 0.859375 -2.0q0.859375 -0.828125 2.125 -0.828125q1.3125 0 2.15625 0.859375q0.84375 0.84375 0.828125 2.203125zm-0.53125 -0.53125q-0.15625 -0.890625 -0.84375 -1.4375q-0.671875 -0.546875 -1.609375 -0.546875q-0.921875 0 -1.59375 0.546875q-0.671875 0.53125 -0.84375 1.4375l4.890625 0z" fill-rule="nonzero"></path><path fill="#000000" fill-opacity="0.0" d="m72.0 9.4973755l32.0 0l0 32.0l-32.0 0z" fill-rule="nonzero"></path><path stroke="#000000" stroke-width="2.0" stroke-linejoin="round" stroke-linecap="butt" d="m72.0 9.4973755l32.0 0l0 32.0l-32.0 0z" fill-rule="nonzero"></path><path fill="#000000" d="m88.27124 22.328625l0 7.4375l2.09375 0q0.203125 0 0.28125 0.078125q0.078125 0.0625 0.078125 0.1875q0 0.109375 -0.078125 0.1875q-0.078125 0.078125 -0.28125 0.078125l-4.71875 0q-0.1875 0 -0.28125 -0.078125q-0.078125 -0.078125 -0.078125 -0.1875q0 -0.125 0.078125 -0.1875q0.09375 -0.078125 0.28125 -0.078125l2.09375 0l0 -6.890625l-1.546875 0q-0.1875 0 -0.28125 -0.078125q-0.078125 -0.078125 -0.078125 -0.203125q0 -0.109375 0.078125 -0.1875q0.09375 -0.078125 0.28125 -0.078125l2.078125 0z" fill-rule="nonzero"></path><path fill="#000000" fill-opacity="0.0" d="m104.0 9.4973755l32.0 0l0 32.0l-32.0 0z" fill-rule="nonzero"></path><path stroke="#000000" stroke-width="2.0" stroke-linejoin="round" stroke-linecap="butt" d="m104.0 9.4973755l32.0 0l0 32.0l-32.0 0z" fill-rule="nonzero"></path><path fill="#000000" d="m120.27124 22.328625l0 7.4375l2.09375 0q0.203125 0 0.28125 0.078125q0.078125 0.0625 0.078125 0.1875q0 0.109375 -0.078125 0.1875q-0.078125 0.078125 -0.28125 0.078125l-4.71875 0q-0.1875 0 -0.28125 -0.078125q-0.078125 -0.078125 -0.078125 -0.1875q0 -0.125 0.078125 -0.1875q0.09375 -0.078125 0.28125 -0.078125l2.09375 0l0 -6.890625l-1.546875 0q-0.1875 0 -0.28125 -0.078125q-0.078125 -0.078125 -0.078125 -0.203125q0 -0.109375 0.078125 -0.1875q0.09375 -0.078125 0.28125 -0.078125l2.078125 0z" fill-rule="nonzero"></path><path fill="#000000" fill-opacity="0.0" d="m136.0 9.4973755l32.0 0l0 32.0l-32.0 0z" fill-rule="nonzero"></path><path stroke="#000000" stroke-width="2.0" stroke-linejoin="round" stroke-linecap="butt" d="m136.0 9.4973755l32.0 0l0 32.0l-32.0 0z" fill-rule="nonzero"></path><path fill="#000000" d="m154.97437 27.563q0 1.21875 -0.875 2.078125q-0.859375 0.859375 -2.09375 0.859375q-1.25 0 -2.125 -0.859375q-0.859375 -0.875 -0.859375 -2.078125q0 -1.21875 0.859375 -2.078125q0.875 -0.875 2.125 -0.875q1.234375 0 2.09375 0.859375q0.875 0.859375 0.875 2.09375zm-0.53125 0q0 -1.0 -0.71875 -1.703125q-0.71875 -0.703125 -1.734375 -0.703125q-1.015625 0 -1.734375 0.703125q-0.703125 0.703125 -0.703125 1.703125q0 0.984375 0.703125 1.703125q0.71875 0.703125 1.734375 0.703125q1.015625 0 1.734375 -0.703125q0.71875 -0.703125 0.71875 -1.703125z" fill-rule="nonzero"></path><path fill="#000000" fill-opacity="0.0" d="m-8.0 57.497375l32.0 0l0 40.0l-32.0 0z" fill-rule="nonzero"></path><path fill="#000000" d="m9.911865 72.406746l0 -0.1875q0 -0.1875 0.0625 -0.265625q0.078125 -0.078125 0.203125 -0.078125q0.125 0 0.1875 0.078125q0.078125 0.078125 0.078125 0.265625l0 1.359375q0 0.203125 -0.078125 0.28125q-0.0625 0.078125 -0.1875 0.078125q-0.125 0 -0.203125 -0.078125q-0.0625 -0.078125 -0.0625 -0.25q-0.03125 -0.53125 -0.5625 -0.953125q-0.515625 -0.421875 -1.34375 -0.421875q-0.890625 0 -1.40625 0.453125q-0.515625 0.453125 -0.515625 1.0625q0 0.328125 0.140625 0.59375q0.140625 0.25 0.375 0.421875q0.25 0.15625 0.546875 0.25q0.3125 0.09375 0.96875 0.203125q1.078125 0.1875 1.5 0.359375q0.546875 0.25 0.828125 0.6875q0.28125 0.4375 0.28125 1.03125q0 0.921875 -0.734375 1.5625q-0.71875 0.640625 -1.96875 0.640625q-1.375 0 -2.21875 -0.859375l0 0.296875q0 0.1875 -0.078125 0.28125q-0.0625 0.078125 -0.1875 0.078125q-0.109375 0 -0.1875 -0.078125q-0.078125 -0.09375 -0.078125 -0.28125l0 -1.46875q0 -0.203125 0.078125 -0.28125q0.078125 -0.078125 0.1875 -0.078125q0.125 0 0.1875 0.078125q0.078125 0.078125 0.078125 0.25q0.03125 0.578125 0.625 1.0625q0.59375 0.46875 1.59375 0.46875q1.015625 0 1.59375 -0.5q0.578125 -0.5 0.578125 -1.1875q0 -0.421875 -0.21875 -0.734375q-0.21875 -0.328125 -0.65625 -0.53125q-0.3125 -0.125 -1.28125 -0.296875q-1.328125 -0.21875 -1.90625 -0.671875q-0.578125 -0.453125 -0.578125 -1.296875q0 -0.84375 0.65625 -1.4375q0.671875 -0.609375 1.78125 -0.609375q1.109375 0 1.921875 0.703125z" fill-rule="nonzero"></path><path fill="#000000" fill-opacity="0.0" d="m8.0 68.39239l0 -26.897636" fill-rule="nonzero"></path><path stroke="#000000" stroke-width="1.0" stroke-linejoin="round" stroke-linecap="butt" d="m8.0 68.39239l0 -20.897636" fill-rule="evenodd"></path><path fill="#000000" stroke="#000000" stroke-width="1.0" stroke-linecap="butt" d="m9.651732 47.49475l-1.6517324 -4.5380974l-1.6517324 4.5380974z" fill-rule="evenodd"></path><path fill="#000000" fill-opacity="0.0" d="m568.0 57.5l32.0 0l0 40.0l-32.0 0z" fill-rule="nonzero"></path><path fill="#000000" d="m582.27124 75.70625l0 3.0625l4.09375 0l0 -1.578125q0 -0.1875 0.0625 -0.265625q0.078125 -0.09375 0.203125 -0.09375q0.125 0 0.1875 0.09375q0.078125 0.078125 0.078125 0.265625l0 2.109375l-5.875 0q-0.203125 0 -0.28125 -0.078125q-0.078125 -0.078125 -0.078125 -0.1875q0 -0.125 0.078125 -0.1875q0.078125 -0.078125 0.28125 -0.078125l0.703125 0l0 -6.359375l-0.703125 0q-0.203125 0 -0.28125 -0.078125q-0.078125 -0.078125 -0.078125 -0.1875q0 -0.125 0.078125 -0.1875q0.078125 -0.078125 0.28125 -0.078125l5.59375 0l0 1.828125q0 0.1875 -0.078125 0.28125q-0.0625 0.078125 -0.1875 0.078125q-0.125 0 -0.203125 -0.078125q-0.0625 -0.09375 -0.0625 -0.28125l0 -1.296875l-3.8125 0l0 2.765625l1.90625 0l0 -0.59375q0 -0.1875 0.078125 -0.265625q0.078125 -0.09375 0.1875 -0.09375q0.125 0 0.1875 0.09375q0.078125 0.078125 0.078125 0.265625l0 1.734375q0 0.1875 -0.078125 0.28125q-0.0625 0.078125 -0.1875 0.078125q-0.109375 0 -0.1875 -0.078125q-0.078125 -0.09375 -0.078125 -0.28125l0 -0.609375l-1.90625 0z" fill-rule="nonzero"></path><path fill="#000000" fill-opacity="0.0" d="m584.0 68.39501l0 -26.897636" fill-rule="nonzero"></path><path stroke="#000000" stroke-width="1.0" stroke-linejoin="round" stroke-linecap="butt" d="m584.0 68.39501l0 -20.897636" fill-rule="evenodd"></path><path fill="#000000" stroke="#000000" stroke-width="1.0" stroke-linecap="butt" d="m585.65173 47.497375l-1.6517334 -4.5380974l-1.6517334 4.5380974z" fill-rule="evenodd"></path><path fill="#000000" fill-opacity="0.0" d="m504.0 57.5l32.0 0l0 40.0l-32.0 0z" fill-rule="nonzero"></path><path fill="#000000" d="m518.27124 75.9875l0 2.78125l0.984375 0q0.1875 0 0.265625 0.078125q0.09375 0.0625 0.09375 0.1875q0 0.109375 -0.09375 0.1875q-0.078125 0.078125 -0.265625 0.078125l-2.234375 0q-0.203125 0 -0.28125 -0.078125q-0.078125 -0.078125 -0.078125 -0.1875q0 -0.125 0.078125 -0.1875q0.078125 -0.078125 0.28125 -0.078125l0.703125 0l0 -6.359375l-0.703125 0q-0.203125 0 -0.28125 -0.078125q-0.078125 -0.078125 -0.078125 -0.1875q0 -0.125 0.078125 -0.1875q0.078125 -0.078125 0.28125 -0.078125l3.21875 0q1.0 0 1.671875 0.640625q0.6875 0.625 0.6875 1.40625q0 0.578125 -0.421875 1.078125q-0.421875 0.5 -1.40625 0.84375q0.5625 0.390625 0.96875 0.890625q0.40625 0.5 1.296875 2.03125l0.40625 0q0.203125 0 0.28125 0.078125q0.078125 0.0625 0.078125 0.1875q0 0.109375 -0.078125 0.1875q-0.078125 0.078125 -0.28125 0.078125l-0.703125 0q-0.984375 -1.765625 -1.53125 -2.375q-0.546875 -0.609375 -1.25 -0.9375l-1.6875 0zm0 -0.53125l1.453125 0q0.6875 0 1.25 -0.25q0.578125 -0.265625 0.828125 -0.609375q0.265625 -0.34375 0.265625 -0.6875q0 -0.53125 -0.546875 -1.015625q-0.53125 -0.484375 -1.296875 -0.484375l-1.953125 0l0 3.046875z" fill-rule="nonzero"></path><path fill="#000000" fill-opacity="0.0" d="m520.0 68.39501l0 -26.897636" fill-rule="nonzero"></path><path stroke="#000000" stroke-width="1.0" stroke-linejoin="round" stroke-linecap="butt" d="m520.0 68.39501l0 -20.897636" fill-rule="evenodd"></path><path fill="#000000" stroke="#000000" stroke-width="1.0" stroke-linecap="butt" d="m521.65173 47.497375l-1.6517334 -4.5380974l-1.6517334 4.5380974z" fill-rule="evenodd"></path><path fill="#000000" fill-opacity="0.0" d="m440.0 57.5l32.0 0l0 40.0l-32.0 0z" fill-rule="nonzero"></path><path fill="#000000" d="m454.70874 75.70625l0 3.0625l1.828125 0q0.203125 0 0.28125 0.078125q0.078125 0.0625 0.078125 0.1875q0 0.109375 -0.078125 0.1875q-0.078125 0.078125 -0.28125 0.078125l-3.078125 0q-0.1875 0 -0.265625 -0.078125q-0.078125 -0.078125 -0.078125 -0.1875q0 -0.125 0.078125 -0.1875q0.078125 -0.078125 0.265625 -0.078125l0.71875 0l0 -6.359375l-0.71875 0q-0.1875 0 -0.265625 -0.078125q-0.078125 -0.078125 -0.078125 -0.1875q0 -0.125 0.09375 -0.203125q0.0625 -0.0625 0.25 -0.0625l5.875 0l0 1.828125q0 0.1875 -0.078125 0.28125q-0.078125 0.078125 -0.1875 0.078125q-0.125 0 -0.203125 -0.078125q-0.0625 -0.09375 -0.0625 -0.28125l0 -1.296875l-4.09375 0l0 2.765625l1.921875 0l0 -0.59375q0 -0.1875 0.0625 -0.265625q0.078125 -0.09375 0.203125 -0.09375q0.109375 0 0.1875 0.09375q0.078125 0.078125 0.078125 0.265625l0 1.734375q0 0.1875 -0.078125 0.28125q-0.078125 0.078125 -0.1875 0.078125q-0.125 0 -0.203125 -0.078125q-0.0625 -0.09375 -0.0625 -0.28125l0 -0.609375l-1.921875 0z" fill-rule="nonzero"></path><path fill="#000000" fill-opacity="0.0" d="m456.0 68.39501l0 -26.897636" fill-rule="nonzero"></path><path stroke="#000000" stroke-width="1.0" stroke-linejoin="round" stroke-linecap="butt" d="m456.0 68.39501l0 -20.897636" fill-rule="evenodd"></path><path fill="#000000" stroke="#000000" stroke-width="1.0" stroke-linecap="butt" d="m457.65173 47.497375l-1.6517334 -4.5380974l-1.6517334 4.5380974z" fill-rule="evenodd"></path><path fill="#000000" fill-opacity="0.0" d="m168.0 9.5l32.0 0l0 32.0l-32.0 0z" fill-rule="nonzero"></path><path stroke="#000000" stroke-width="2.0" stroke-linejoin="round" stroke-linecap="butt" d="m168.0 9.5l32.0 0l0 32.0l-32.0 0z" fill-rule="nonzero"></path><path fill="#000000" d="m182.94312 28.378124l1.734375 0l-1.890625 3.515625q-0.171875 0.3125 -0.40625 0.3125q-0.15625 0 -0.28125 -0.109375q-0.109375 -0.109375 -0.109375 -0.265625q0 -0.078125 0.03125 -0.140625l0.921875 -3.3125z" fill-rule="nonzero"></path><path fill="#000000" fill-opacity="0.0" d="m200.0 9.5l32.0 0l0 32.0l-32.0 0z" fill-rule="nonzero"></path><path stroke="#000000" stroke-width="2.0" stroke-linejoin="round" stroke-linecap="butt" d="m200.0 9.5l32.0 0l0 32.0l-32.0 0z" fill-rule="nonzero"></path><path fill="#000000" fill-opacity="0.0" d="m232.0 9.5l32.0 0l0 32.0l-32.0 0z" fill-rule="nonzero"></path><path stroke="#000000" stroke-width="2.0" stroke-linejoin="round" stroke-linecap="butt" d="m232.0 9.5l32.0 0l0 32.0l-32.0 0z" fill-rule="nonzero"></path><path fill="#000000" d="m250.33374 30.3l-0.828125 0l-1.515625 -5.28125l-1.484375 5.28125l-0.828125 0l-0.796875 -6.890625l-0.1875 0q-0.1875 0 -0.28125 -0.078125q-0.078125 -0.078125 -0.078125 -0.1875q0 -0.125 0.078125 -0.1875q0.09375 -0.078125 0.28125 -0.078125l1.984375 0q0.1875 0 0.265625 0.078125q0.09375 0.0625 0.09375 0.1875q0 0.109375 -0.09375 0.1875q-0.078125 0.078125 -0.265625 0.078125l-1.25 0l0.703125 6.28125l1.4375 -5.171875l0.828125 0l1.46875 5.171875l0.703125 -6.28125l-1.25 0q-0.203125 0 -0.28125 -0.078125q-0.078125 -0.078125 -0.078125 -0.1875q0 -0.125 0.078125 -0.1875q0.078125 -0.078125 0.28125 -0.078125l1.953125 0q0.203125 0 0.28125 0.078125q0.09375 0.0625 0.09375 0.1875q0 0.109375 -0.09375 0.1875q-0.078125 0.078125 -0.28125 0.078125l-0.1875 0l-0.75 6.890625z" fill-rule="nonzero"></path><path fill="#000000" fill-opacity="0.0" d="m264.0 9.5l32.0 0l0 32.0l-32.0 0z" fill-rule="nonzero"></path><path stroke="#000000" stroke-width="2.0" stroke-linejoin="round" stroke-linecap="butt" d="m264.0 9.5l32.0 0l0 32.0l-32.0 0z" fill-rule="nonzero"></path><path fill="#000000" d="m279.875 27.565624q0 1.21875 -0.875 2.078125q-0.859375 0.859375 -2.09375 0.859375q-1.25 0 -2.125 -0.859375q-0.859375 -0.875 -0.859375 -2.078125q0 -1.21875 0.859375 -2.078125q0.875 -0.875 2.125 -0.875q1.234375 0 2.09375 0.859375q0.875 0.859375 0.875 2.09375zm-0.53125 0q0 -1.0 -0.71875 -1.703125q-0.71875 -0.703125 -1.734375 -0.703125q-1.015625 0 -1.734375 0.703125q-0.703125 0.703125 -0.703125 1.703125q0 0.984375 0.703125 1.703125q0.71875 0.703125 1.734375 0.703125q1.015625 0 1.734375 -0.703125q0.71875 -0.703125 0.71875 -1.703125z" fill-rule="nonzero"></path><path fill="#000000" fill-opacity="0.0" d="m296.0 9.5l32.0 0l0 32.0l-32.0 0z" fill-rule="nonzero"></path><path stroke="#000000" stroke-width="2.0" stroke-linejoin="round" stroke-linecap="butt" d="m296.0 9.5l32.0 0l0 32.0l-32.0 0z" fill-rule="nonzero"></path><path fill="#000000" d="m308.26562 24.8l0 1.34375q1.03125 -0.9375 1.546875 -1.203125q0.53125 -0.265625 0.96875 -0.265625q0.46875 0 0.875 0.328125q0.421875 0.3125 0.421875 0.46875q0 0.125 -0.09375 0.203125q-0.078125 0.078125 -0.1875 0.078125q-0.0625 0 -0.109375 -0.015625q-0.046875 -0.03125 -0.171875 -0.140625q-0.21875 -0.234375 -0.390625 -0.3125q-0.15625 -0.078125 -0.3125 -0.078125q-0.359375 0 -0.859375 0.28125q-0.484375 0.28125 -1.6875 1.359375l0 2.921875l2.359375 0q0.203125 0 0.28125 0.078125q0.078125 0.0625 0.078125 0.1875q0 0.109375 -0.078125 0.1875q-0.078125 0.078125 -0.28125 0.078125l-4.1875 0q-0.1875 0 -0.28125 -0.0625q-0.078125 -0.078125 -0.078125 -0.203125q0 -0.109375 0.078125 -0.171875q0.09375 -0.078125 0.28125 -0.078125l1.296875 0l0 -4.4375l-0.984375 0q-0.1875 0 -0.28125 -0.078125q-0.078125 -0.078125 -0.078125 -0.203125q0 -0.109375 0.078125 -0.1875q0.078125 -0.078125 0.28125 -0.078125l1.515625 0z" fill-rule="nonzero"></path><path fill="#000000" fill-opacity="0.0" d="m328.0 9.5l32.0 0l0 32.0l-32.0 0z" fill-rule="nonzero"></path><path stroke="#000000" stroke-width="2.0" stroke-linejoin="round" stroke-linecap="butt" d="m328.0 9.5l32.0 0l0 32.0l-32.0 0z" fill-rule="nonzero"></path><path fill="#000000" d="m341.17188 22.33125l0 7.4375l2.09375 0q0.203125 0 0.28125 0.078125q0.078125 0.0625 0.078125 0.1875q0 0.109375 -0.078125 0.1875q-0.078125 0.078125 -0.28125 0.078125l-4.71875 0q-0.1875 0 -0.28125 -0.078125q-0.078125 -0.078125 -0.078125 -0.1875q0 -0.125 0.078125 -0.1875q0.09375 -0.078125 0.28125 -0.078125l2.09375 0l0 -6.890625l-1.546875 0q-0.1875 0 -0.28125 -0.078125q-0.078125 -0.078125 -0.078125 -0.203125q0 -0.109375 0.078125 -0.1875q0.09375 -0.078125 0.28125 -0.078125l2.078125 0z" fill-rule="nonzero"></path><path fill="#000000" fill-opacity="0.0" d="m360.0 9.5l32.0 0l0 32.0l-32.0 0z" fill-rule="nonzero"></path><path stroke="#000000" stroke-width="2.0" stroke-linejoin="round" stroke-linecap="butt" d="m360.0 9.5l32.0 0l0 32.0l-32.0 0z" fill-rule="nonzero"></path><path fill="#000000" d="m378.615 22.33125l0 7.4375l0.703125 0q0.203125 0 0.28125 0.078125q0.078125 0.0625 0.078125 0.1875q0 0.109375 -0.078125 0.1875q-0.078125 0.078125 -0.28125 0.078125l-1.25 0l0 -1.0625q-0.921875 1.265625 -2.34375 1.265625q-0.734375 0 -1.40625 -0.375q-0.65625 -0.390625 -1.046875 -1.09375q-0.375 -0.71875 -0.375 -1.46875q0 -0.765625 0.375 -1.46875q0.390625 -0.703125 1.046875 -1.09375q0.671875 -0.390625 1.40625 -0.390625q1.390625 0 2.34375 1.265625l0 -3.0l-0.703125 0q-0.203125 0 -0.28125 -0.078125q-0.078125 -0.078125 -0.078125 -0.203125q0 -0.109375 0.078125 -0.1875q0.078125 -0.078125 0.28125 -0.078125l1.25 0zm-0.546875 5.234375q0 -1.015625 -0.6875 -1.703125q-0.671875 -0.703125 -1.625 -0.703125q-0.953125 0 -1.640625 0.703125q-0.6875 0.6875 -0.6875 1.703125q0 1.0 0.6875 1.703125q0.6875 0.703125 1.640625 0.703125q0.953125 0 1.625 -0.703125q0.6875 -0.703125 0.6875 -1.703125z" fill-rule="nonzero"></path><path fill="#000000" fill-opacity="0.0" d="m392.0 9.5l32.0 0l0 32.0l-32.0 0z" fill-rule="nonzero"></path><path stroke="#000000" stroke-width="2.0" stroke-linejoin="round" stroke-linecap="butt" d="m392.0 9.5l32.0 0l0 32.0l-32.0 0z" fill-rule="nonzero"></path><path fill="#000000" d="m408.5056 22.878124l-0.234375 4.296875q-0.015625 0.203125 -0.09375 0.296875q-0.0625 0.078125 -0.171875 0.078125q-0.109375 0 -0.1875 -0.078125q-0.078125 -0.09375 -0.09375 -0.296875l-0.234375 -4.296875q0 -0.15625 0 -0.234375q0 -0.203125 0.140625 -0.34375q0.15625 -0.15625 0.375 -0.15625q0.21875 0 0.359375 0.15625q0.15625 0.140625 0.15625 0.359375q0 0.0625 -0.015625 0.21875zm-0.625 6.296875l0.25 0q0.265625 0 0.453125 0.1875q0.203125 0.1875 0.203125 0.46875q0 0.28125 -0.203125 0.46875q-0.1875 0.1875 -0.453125 0.1875l-0.25 0q-0.28125 0 -0.484375 -0.1875q-0.1875 -0.203125 -0.1875 -0.46875q0 -0.28125 0.203125 -0.46875q0.203125 -0.1875 0.46875 -0.1875z" fill-rule="nonzero"></path><path fill="#000000" fill-opacity="0.0" d="m456.0 9.5l32.0 0l0 32.0l-32.0 0z" fill-rule="nonzero"></path><path stroke="#000000" stroke-width="2.0" stroke-linejoin="round" stroke-linecap="butt" d="m456.0 9.5l32.0 0l0 32.0l-32.0 0z" fill-rule="nonzero"></path><path fill="#000000" fill-opacity="0.0" d="m488.0 9.5l32.0 0l0 32.0l-32.0 0z" fill-rule="nonzero"></path><path stroke="#000000" stroke-width="2.0" stroke-linejoin="round" stroke-linecap="butt" d="m488.0 9.5l32.0 0l0 32.0l-32.0 0z" fill-rule="nonzero"></path><path fill="#000000" fill-opacity="0.0" d="m520.0 9.5l32.0 0l0 32.0l-32.0 0z" fill-rule="nonzero"></path><path stroke="#000000" stroke-width="2.0" stroke-linejoin="round" stroke-linecap="butt" d="m520.0 9.5l32.0 0l0 32.0l-32.0 0z" fill-rule="nonzero"></path><path fill="#000000" fill-opacity="0.0" d="m552.0 9.5l32.0 0l0 32.0l-32.0 0z" fill-rule="nonzero"></path><path stroke="#000000" stroke-width="2.0" stroke-linejoin="round" stroke-linecap="butt" d="m552.0 9.5l32.0 0l0 32.0l-32.0 0z" fill-rule="nonzero"></path><path fill="#000000" fill-opacity="0.0" d="m424.0 9.5l32.0 0l0 32.0l-32.0 0z" fill-rule="nonzero"></path><path stroke="#000000" stroke-width="2.0" stroke-linejoin="round" stroke-linecap="butt" d="m424.0 9.5l32.0 0l0 32.0l-32.0 0z" fill-rule="nonzero"></path><path fill="#000000" fill-opacity="0.0" d="m420.5 8.0l40.0 0l0 32.0l-40.0 0z" fill-rule="nonzero"></path><path fill="#000000" d="m431.5 21.253124l4.28125 9.1875q0.0625 0.140625 0.0625 0.203125q0 0.109375 -0.078125 0.1875q-0.078125 0.078125 -0.1875 0.078125q-0.1875 0 -0.28125 -0.234375l-4.296875 -9.203125q-0.0625 -0.125 -0.0625 -0.203125q0 -0.09375 0.078125 -0.171875q0.078125 -0.078125 0.1875 -0.078125q0.171875 0 0.296875 0.234375zm12.14502 3.90625l0 1.328125q0 1.71875 -0.8125 2.71875q-0.640625 0.78125 -1.625 0.78125q-0.46875 0 -0.890625 -0.1875q-0.40625 -0.1875 -0.703125 -0.515625q-0.171875 -0.21875 -0.40625 -0.671875q-0.21875 -0.46875 -0.3125 -0.859375q-0.140625 -0.546875 -0.140625 -1.265625l0 -1.328125q0 -1.71875 0.8125 -2.734375q0.640625 -0.78125 1.625 -0.78125q0.484375 0 0.890625 0.1875q0.40625 0.1875 0.703125 0.515625q0.1875 0.21875 0.40625 0.6875q0.21875 0.46875 0.3125 0.84375q0.140625 0.546875 0.140625 1.28125zm-0.53125 0.0625q0 -0.75 -0.21875 -1.390625q-0.203125 -0.65625 -0.46875 -1.046875q-0.15625 -0.21875 -0.421875 -0.375q-0.359375 -0.234375 -0.8125 -0.234375q-0.890625 0 -1.40625 0.921875q-0.5 0.90625 -0.5 2.125l0 1.1875q0 0.75 0.203125 1.40625q0.21875 0.65625 0.5 1.03125q0.15625 0.21875 0.40625 0.375q0.359375 0.234375 0.8125 0.234375q0.890625 0 1.390625 -0.90625q0.515625 -0.921875 0.515625 -2.140625l0 -1.1875z" fill-rule="nonzero"></path></g></svg>

